0
SECTION
2
HEADER
9
$INSUNITS
70
4
0
ENDSEC
0
SECTION
2
TABLES
0
TABLE
2
LTYPE
0
LTYPE
72
65
70
64
2
CONTINUOUS
3
______
73
0
40
0
0
ENDTAB
0
TABLE
2
LAYER
0
ENDTAB
0
ENDSEC
0
SECTION
2
ENTITIES
0
LINE
8
0
10
3.025
20
-2.525
11
16.025
21
-2.525
0
LINE
8
0
10
3.025
20
-16.525
11
16.025
21
-16.525
0
LINE
8
0
10
2.525
20
-3.025
11
2.525
21
-16.025
0
LINE
8
0
10
16.525
20
-3.025
11
16.525
21
-16.025
0
ARC
8
0
10
3.025
20
-3.025
40
0.5
50
90
51
180
0
ARC
8
0
10
16.025
20
-3.025
40
0.5
50
0
51
90
0
ARC
8
0
10
3.025
20
-16.025
40
0.5
50
180
51
270
0
ARC
8
0
10
16.025
20
-16.025
40
0.5
50
270
51
0
0
LINE
8
0
10
22.075
20
-2.525
11
35.075
21
-2.525
0
LINE
8
0
10
22.075
20
-16.525
11
35.075
21
-16.525
0
LINE
8
0
10
21.575
20
-3.025
11
21.575
21
-16.025
0
LINE
8
0
10
35.575
20
-3.025
11
35.575
21
-16.025
0
ARC
8
0
10
22.075
20
-3.025
40
0.5
50
90
51
180
0
ARC
8
0
10
35.075
20
-3.025
40
0.5
50
0
51
90
0
ARC
8
0
10
22.075
20
-16.025
40
0.5
50
180
51
270
0
ARC
8
0
10
35.075
20
-16.025
40
0.5
50
270
51
0
0
LINE
8
0
10
41.125
20
-2.525
11
54.125
21
-2.525
0
LINE
8
0
10
41.125
20
-16.525
11
54.125
21
-16.525
0
LINE
8
0
10
40.625
20
-3.025
11
40.625
21
-16.025
0
LINE
8
0
10
54.625
20
-3.025
11
54.625
21
-16.025
0
ARC
8
0
10
41.125
20
-3.025
40
0.5
50
90
51
180
0
ARC
8
0
10
54.125
20
-3.025
40
0.5
50
0
51
90
0
ARC
8
0
10
41.125
20
-16.025
40
0.5
50
180
51
270
0
ARC
8
0
10
54.125
20
-16.025
40
0.5
50
270
51
0
0
LINE
8
0
10
60.175
20
-2.525
11
73.175
21
-2.525
0
LINE
8
0
10
60.175
20
-16.525
11
73.175
21
-16.525
0
LINE
8
0
10
59.675
20
-3.025
11
59.675
21
-16.025
0
LINE
8
0
10
73.675
20
-3.025
11
73.675
21
-16.025
0
ARC
8
0
10
60.175
20
-3.025
40
0.5
50
90
51
180
0
ARC
8
0
10
73.175
20
-3.025
40
0.5
50
0
51
90
0
ARC
8
0
10
60.175
20
-16.025
40
0.5
50
180
51
270
0
ARC
8
0
10
73.175
20
-16.025
40
0.5
50
270
51
0
0
LINE
8
0
10
79.225
20
-2.525
11
92.225
21
-2.525
0
LINE
8
0
10
79.225
20
-16.525
11
92.225
21
-16.525
0
LINE
8
0
10
78.725
20
-3.025
11
78.725
21
-16.025
0
LINE
8
0
10
92.725
20
-3.025
11
92.725
21
-16.025
0
ARC
8
0
10
79.225
20
-3.025
40
0.5
50
90
51
180
0
ARC
8
0
10
92.225
20
-3.025
40
0.5
50
0
51
90
0
ARC
8
0
10
79.225
20
-16.025
40
0.5
50
180
51
270
0
ARC
8
0
10
92.225
20
-16.025
40
0.5
50
270
51
0
0
LINE
8
0
10
98.275
20
-2.525
11
111.275
21
-2.525
0
LINE
8
0
10
98.275
20
-16.525
11
111.275
21
-16.525
0
LINE
8
0
10
97.775
20
-3.025
11
97.775
21
-16.025
0
LINE
8
0
10
111.775
20
-3.025
11
111.775
21
-16.025
0
ARC
8
0
10
98.275
20
-3.025
40
0.5
50
90
51
180
0
ARC
8
0
10
111.275
20
-3.025
40
0.5
50
0
51
90
0
ARC
8
0
10
98.275
20
-16.025
40
0.5
50
180
51
270
0
ARC
8
0
10
111.275
20
-16.025
40
0.5
50
270
51
0
0
LINE
8
0
10
117.325
20
-2.525
11
130.325
21
-2.525
0
LINE
8
0
10
117.325
20
-16.525
11
130.325
21
-16.525
0
LINE
8
0
10
116.825
20
-3.025
11
116.825
21
-16.025
0
LINE
8
0
10
130.825
20
-3.025
11
130.825
21
-16.025
0
ARC
8
0
10
117.325
20
-3.025
40
0.5
50
90
51
180
0
ARC
8
0
10
130.325
20
-3.025
40
0.5
50
0
51
90
0
ARC
8
0
10
117.325
20
-16.025
40
0.5
50
180
51
270
0
ARC
8
0
10
130.325
20
-16.025
40
0.5
50
270
51
0
0
LINE
8
0
10
136.375
20
-2.525
11
149.375
21
-2.525
0
LINE
8
0
10
136.375
20
-16.525
11
149.375
21
-16.525
0
LINE
8
0
10
135.875
20
-3.025
11
135.875
21
-16.025
0
LINE
8
0
10
149.875
20
-3.025
11
149.875
21
-16.025
0
ARC
8
0
10
136.375
20
-3.025
40
0.5
50
90
51
180
0
ARC
8
0
10
149.375
20
-3.025
40
0.5
50
0
51
90
0
ARC
8
0
10
136.375
20
-16.025
40
0.5
50
180
51
270
0
ARC
8
0
10
149.375
20
-16.025
40
0.5
50
270
51
0
0
LINE
8
0
10
155.425
20
-2.525
11
168.425
21
-2.525
0
LINE
8
0
10
155.425
20
-16.525
11
168.425
21
-16.525
0
LINE
8
0
10
154.925
20
-3.025
11
154.925
21
-16.025
0
LINE
8
0
10
168.925
20
-3.025
11
168.925
21
-16.025
0
ARC
8
0
10
155.425
20
-3.025
40
0.5
50
90
51
180
0
ARC
8
0
10
168.425
20
-3.025
40
0.5
50
0
51
90
0
ARC
8
0
10
155.425
20
-16.025
40
0.5
50
180
51
270
0
ARC
8
0
10
168.425
20
-16.025
40
0.5
50
270
51
0
0
LINE
8
0
10
174.475
20
-2.525
11
187.475
21
-2.525
0
LINE
8
0
10
174.475
20
-16.525
11
187.475
21
-16.525
0
LINE
8
0
10
173.975
20
-3.025
11
173.975
21
-16.025
0
LINE
8
0
10
187.975
20
-3.025
11
187.975
21
-16.025
0
ARC
8
0
10
174.475
20
-3.025
40
0.5
50
90
51
180
0
ARC
8
0
10
187.475
20
-3.025
40
0.5
50
0
51
90
0
ARC
8
0
10
174.475
20
-16.025
40
0.5
50
180
51
270
0
ARC
8
0
10
187.475
20
-16.025
40
0.5
50
270
51
0
0
LINE
8
0
10
193.525
20
-2.525
11
206.525
21
-2.525
0
LINE
8
0
10
193.525
20
-16.525
11
206.525
21
-16.525
0
LINE
8
0
10
193.025
20
-3.025
11
193.025
21
-16.025
0
LINE
8
0
10
207.025
20
-3.025
11
207.025
21
-16.025
0
ARC
8
0
10
193.525
20
-3.025
40
0.5
50
90
51
180
0
ARC
8
0
10
206.525
20
-3.025
40
0.5
50
0
51
90
0
ARC
8
0
10
193.525
20
-16.025
40
0.5
50
180
51
270
0
ARC
8
0
10
206.525
20
-16.025
40
0.5
50
270
51
0
0
LINE
8
0
10
214.95625
20
-2.525
11
227.95625
21
-2.525
0
LINE
8
0
10
214.95625
20
-16.525
11
227.95625
21
-16.525
0
LINE
8
0
10
214.45625
20
-3.025
11
214.45625
21
-16.025
0
LINE
8
0
10
228.45625
20
-3.025
11
228.45625
21
-16.025
0
ARC
8
0
10
214.95625
20
-3.025
40
0.5
50
90
51
180
0
ARC
8
0
10
227.95625
20
-3.025
40
0.5
50
0
51
90
0
ARC
8
0
10
214.95625
20
-16.025
40
0.5
50
180
51
270
0
ARC
8
0
10
227.95625
20
-16.025
40
0.5
50
270
51
0
0
LINE
8
0
10
5.40625
20
-21.575
11
18.40625
21
-21.575
0
LINE
8
0
10
5.40625
20
-35.575
11
18.40625
21
-35.575
0
LINE
8
0
10
4.90625
20
-22.075
11
4.90625
21
-35.075
0
LINE
8
0
10
18.90625
20
-22.075
11
18.90625
21
-35.075
0
ARC
8
0
10
5.40625
20
-22.075
40
0.5
50
90
51
180
0
ARC
8
0
10
18.40625
20
-22.075
40
0.5
50
0
51
90
0
ARC
8
0
10
5.40625
20
-35.075
40
0.5
50
180
51
270
0
ARC
8
0
10
18.40625
20
-35.075
40
0.5
50
270
51
0
0
LINE
8
0
10
26.8375
20
-21.575
11
39.8375
21
-21.575
0
LINE
8
0
10
26.8375
20
-35.575
11
39.8375
21
-35.575
0
LINE
8
0
10
26.3375
20
-22.075
11
26.3375
21
-35.075
0
LINE
8
0
10
40.3375
20
-22.075
11
40.3375
21
-35.075
0
ARC
8
0
10
26.8375
20
-22.075
40
0.5
50
90
51
180
0
ARC
8
0
10
39.8375
20
-22.075
40
0.5
50
0
51
90
0
ARC
8
0
10
26.8375
20
-35.075
40
0.5
50
180
51
270
0
ARC
8
0
10
39.8375
20
-35.075
40
0.5
50
270
51
0
0
LINE
8
0
10
45.8875
20
-21.575
11
58.8875
21
-21.575
0
LINE
8
0
10
45.8875
20
-35.575
11
58.8875
21
-35.575
0
LINE
8
0
10
45.3875
20
-22.075
11
45.3875
21
-35.075
0
LINE
8
0
10
59.3875
20
-22.075
11
59.3875
21
-35.075
0
ARC
8
0
10
45.8875
20
-22.075
40
0.5
50
90
51
180
0
ARC
8
0
10
58.8875
20
-22.075
40
0.5
50
0
51
90
0
ARC
8
0
10
45.8875
20
-35.075
40
0.5
50
180
51
270
0
ARC
8
0
10
58.8875
20
-35.075
40
0.5
50
270
51
0
0
LINE
8
0
10
64.9375
20
-21.575
11
77.9375
21
-21.575
0
LINE
8
0
10
64.9375
20
-35.575
11
77.9375
21
-35.575
0
LINE
8
0
10
64.4375
20
-22.075
11
64.4375
21
-35.075
0
LINE
8
0
10
78.4375
20
-22.075
11
78.4375
21
-35.075
0
ARC
8
0
10
64.9375
20
-22.075
40
0.5
50
90
51
180
0
ARC
8
0
10
77.9375
20
-22.075
40
0.5
50
0
51
90
0
ARC
8
0
10
64.9375
20
-35.075
40
0.5
50
180
51
270
0
ARC
8
0
10
77.9375
20
-35.075
40
0.5
50
270
51
0
0
LINE
8
0
10
83.9875
20
-21.575
11
96.9875
21
-21.575
0
LINE
8
0
10
83.9875
20
-35.575
11
96.9875
21
-35.575
0
LINE
8
0
10
83.4875
20
-22.075
11
83.4875
21
-35.075
0
LINE
8
0
10
97.4875
20
-22.075
11
97.4875
21
-35.075
0
ARC
8
0
10
83.9875
20
-22.075
40
0.5
50
90
51
180
0
ARC
8
0
10
96.9875
20
-22.075
40
0.5
50
0
51
90
0
ARC
8
0
10
83.9875
20
-35.075
40
0.5
50
180
51
270
0
ARC
8
0
10
96.9875
20
-35.075
40
0.5
50
270
51
0
0
LINE
8
0
10
103.0375
20
-21.575
11
116.0375
21
-21.575
0
LINE
8
0
10
103.0375
20
-35.575
11
116.0375
21
-35.575
0
LINE
8
0
10
102.5375
20
-22.075
11
102.5375
21
-35.075
0
LINE
8
0
10
116.5375
20
-22.075
11
116.5375
21
-35.075
0
ARC
8
0
10
103.0375
20
-22.075
40
0.5
50
90
51
180
0
ARC
8
0
10
116.0375
20
-22.075
40
0.5
50
0
51
90
0
ARC
8
0
10
103.0375
20
-35.075
40
0.5
50
180
51
270
0
ARC
8
0
10
116.0375
20
-35.075
40
0.5
50
270
51
0
0
LINE
8
0
10
122.0875
20
-21.575
11
135.0875
21
-21.575
0
LINE
8
0
10
122.0875
20
-35.575
11
135.0875
21
-35.575
0
LINE
8
0
10
121.5875
20
-22.075
11
121.5875
21
-35.075
0
LINE
8
0
10
135.5875
20
-22.075
11
135.5875
21
-35.075
0
ARC
8
0
10
122.0875
20
-22.075
40
0.5
50
90
51
180
0
ARC
8
0
10
135.0875
20
-22.075
40
0.5
50
0
51
90
0
ARC
8
0
10
122.0875
20
-35.075
40
0.5
50
180
51
270
0
ARC
8
0
10
135.0875
20
-35.075
40
0.5
50
270
51
0
0
LINE
8
0
10
141.1375
20
-21.575
11
154.1375
21
-21.575
0
LINE
8
0
10
141.1375
20
-35.575
11
154.1375
21
-35.575
0
LINE
8
0
10
140.6375
20
-22.075
11
140.6375
21
-35.075
0
LINE
8
0
10
154.6375
20
-22.075
11
154.6375
21
-35.075
0
ARC
8
0
10
141.1375
20
-22.075
40
0.5
50
90
51
180
0
ARC
8
0
10
154.1375
20
-22.075
40
0.5
50
0
51
90
0
ARC
8
0
10
141.1375
20
-35.075
40
0.5
50
180
51
270
0
ARC
8
0
10
154.1375
20
-35.075
40
0.5
50
270
51
0
0
LINE
8
0
10
160.1875
20
-21.575
11
173.1875
21
-21.575
0
LINE
8
0
10
160.1875
20
-35.575
11
173.1875
21
-35.575
0
LINE
8
0
10
159.6875
20
-22.075
11
159.6875
21
-35.075
0
LINE
8
0
10
173.6875
20
-22.075
11
173.6875
21
-35.075
0
ARC
8
0
10
160.1875
20
-22.075
40
0.5
50
90
51
180
0
ARC
8
0
10
173.1875
20
-22.075
40
0.5
50
0
51
90
0
ARC
8
0
10
160.1875
20
-35.075
40
0.5
50
180
51
270
0
ARC
8
0
10
173.1875
20
-35.075
40
0.5
50
270
51
0
0
LINE
8
0
10
179.2375
20
-21.575
11
192.2375
21
-21.575
0
LINE
8
0
10
179.2375
20
-35.575
11
192.2375
21
-35.575
0
LINE
8
0
10
178.7375
20
-22.075
11
178.7375
21
-35.075
0
LINE
8
0
10
192.7375
20
-22.075
11
192.7375
21
-35.075
0
ARC
8
0
10
179.2375
20
-22.075
40
0.5
50
90
51
180
0
ARC
8
0
10
192.2375
20
-22.075
40
0.5
50
0
51
90
0
ARC
8
0
10
179.2375
20
-35.075
40
0.5
50
180
51
270
0
ARC
8
0
10
192.2375
20
-35.075
40
0.5
50
270
51
0
0
LINE
8
0
10
198.2875
20
-21.575
11
211.2875
21
-21.575
0
LINE
8
0
10
198.2875
20
-35.575
11
211.2875
21
-35.575
0
LINE
8
0
10
197.7875
20
-22.075
11
197.7875
21
-35.075
0
LINE
8
0
10
211.7875
20
-22.075
11
211.7875
21
-35.075
0
ARC
8
0
10
198.2875
20
-22.075
40
0.5
50
90
51
180
0
ARC
8
0
10
211.2875
20
-22.075
40
0.5
50
0
51
90
0
ARC
8
0
10
198.2875
20
-35.075
40
0.5
50
180
51
270
0
ARC
8
0
10
211.2875
20
-35.075
40
0.5
50
270
51
0
0
LINE
8
0
10
217.3375
20
-21.575
11
230.3375
21
-21.575
0
LINE
8
0
10
217.3375
20
-35.575
11
230.3375
21
-35.575
0
LINE
8
0
10
216.8375
20
-22.075
11
216.8375
21
-35.075
0
LINE
8
0
10
230.8375
20
-22.075
11
230.8375
21
-35.075
0
ARC
8
0
10
217.3375
20
-22.075
40
0.5
50
90
51
180
0
ARC
8
0
10
230.3375
20
-22.075
40
0.5
50
0
51
90
0
ARC
8
0
10
217.3375
20
-35.075
40
0.5
50
180
51
270
0
ARC
8
0
10
230.3375
20
-35.075
40
0.5
50
270
51
0
0
LINE
8
0
10
12.55
20
-40.625
11
25.55
21
-40.625
0
LINE
8
0
10
12.55
20
-54.625
11
25.55
21
-54.625
0
LINE
8
0
10
12.05
20
-41.125
11
12.05
21
-54.125
0
LINE
8
0
10
26.05
20
-41.125
11
26.05
21
-54.125
0
ARC
8
0
10
12.55
20
-41.125
40
0.5
50
90
51
180
0
ARC
8
0
10
25.55
20
-41.125
40
0.5
50
0
51
90
0
ARC
8
0
10
12.55
20
-54.125
40
0.5
50
180
51
270
0
ARC
8
0
10
25.55
20
-54.125
40
0.5
50
270
51
0
0
LINE
8
0
10
36.3625
20
-40.625
11
49.3625
21
-40.625
0
LINE
8
0
10
36.3625
20
-54.625
11
49.3625
21
-54.625
0
LINE
8
0
10
35.8625
20
-41.125
11
35.8625
21
-54.125
0
LINE
8
0
10
49.8625
20
-41.125
11
49.8625
21
-54.125
0
ARC
8
0
10
36.3625
20
-41.125
40
0.5
50
90
51
180
0
ARC
8
0
10
49.3625
20
-41.125
40
0.5
50
0
51
90
0
ARC
8
0
10
36.3625
20
-54.125
40
0.5
50
180
51
270
0
ARC
8
0
10
49.3625
20
-54.125
40
0.5
50
270
51
0
0
LINE
8
0
10
55.4125
20
-40.625
11
68.4125
21
-40.625
0
LINE
8
0
10
55.4125
20
-54.625
11
68.4125
21
-54.625
0
LINE
8
0
10
54.9125
20
-41.125
11
54.9125
21
-54.125
0
LINE
8
0
10
68.9125
20
-41.125
11
68.9125
21
-54.125
0
ARC
8
0
10
55.4125
20
-41.125
40
0.5
50
90
51
180
0
ARC
8
0
10
68.4125
20
-41.125
40
0.5
50
0
51
90
0
ARC
8
0
10
55.4125
20
-54.125
40
0.5
50
180
51
270
0
ARC
8
0
10
68.4125
20
-54.125
40
0.5
50
270
51
0
0
LINE
8
0
10
74.4625
20
-40.625
11
87.4625
21
-40.625
0
LINE
8
0
10
74.4625
20
-54.625
11
87.4625
21
-54.625
0
LINE
8
0
10
73.9625
20
-41.125
11
73.9625
21
-54.125
0
LINE
8
0
10
87.9625
20
-41.125
11
87.9625
21
-54.125
0
ARC
8
0
10
74.4625
20
-41.125
40
0.5
50
90
51
180
0
ARC
8
0
10
87.4625
20
-41.125
40
0.5
50
0
51
90
0
ARC
8
0
10
74.4625
20
-54.125
40
0.5
50
180
51
270
0
ARC
8
0
10
87.4625
20
-54.125
40
0.5
50
270
51
0
0
LINE
8
0
10
93.5125
20
-40.625
11
106.5125
21
-40.625
0
LINE
8
0
10
93.5125
20
-54.625
11
106.5125
21
-54.625
0
LINE
8
0
10
93.0125
20
-41.125
11
93.0125
21
-54.125
0
LINE
8
0
10
107.0125
20
-41.125
11
107.0125
21
-54.125
0
ARC
8
0
10
93.5125
20
-41.125
40
0.5
50
90
51
180
0
ARC
8
0
10
106.5125
20
-41.125
40
0.5
50
0
51
90
0
ARC
8
0
10
93.5125
20
-54.125
40
0.5
50
180
51
270
0
ARC
8
0
10
106.5125
20
-54.125
40
0.5
50
270
51
0
0
LINE
8
0
10
112.5625
20
-40.625
11
125.5625
21
-40.625
0
LINE
8
0
10
112.5625
20
-54.625
11
125.5625
21
-54.625
0
LINE
8
0
10
112.0625
20
-41.125
11
112.0625
21
-54.125
0
LINE
8
0
10
126.0625
20
-41.125
11
126.0625
21
-54.125
0
ARC
8
0
10
112.5625
20
-41.125
40
0.5
50
90
51
180
0
ARC
8
0
10
125.5625
20
-41.125
40
0.5
50
0
51
90
0
ARC
8
0
10
112.5625
20
-54.125
40
0.5
50
180
51
270
0
ARC
8
0
10
125.5625
20
-54.125
40
0.5
50
270
51
0
0
LINE
8
0
10
131.6125
20
-40.625
11
144.6125
21
-40.625
0
LINE
8
0
10
131.6125
20
-54.625
11
144.6125
21
-54.625
0
LINE
8
0
10
131.1125
20
-41.125
11
131.1125
21
-54.125
0
LINE
8
0
10
145.1125
20
-41.125
11
145.1125
21
-54.125
0
ARC
8
0
10
131.6125
20
-41.125
40
0.5
50
90
51
180
0
ARC
8
0
10
144.6125
20
-41.125
40
0.5
50
0
51
90
0
ARC
8
0
10
131.6125
20
-54.125
40
0.5
50
180
51
270
0
ARC
8
0
10
144.6125
20
-54.125
40
0.5
50
270
51
0
0
LINE
8
0
10
150.6625
20
-40.625
11
163.6625
21
-40.625
0
LINE
8
0
10
150.6625
20
-54.625
11
163.6625
21
-54.625
0
LINE
8
0
10
150.1625
20
-41.125
11
150.1625
21
-54.125
0
LINE
8
0
10
164.1625
20
-41.125
11
164.1625
21
-54.125
0
ARC
8
0
10
150.6625
20
-41.125
40
0.5
50
90
51
180
0
ARC
8
0
10
163.6625
20
-41.125
40
0.5
50
0
51
90
0
ARC
8
0
10
150.6625
20
-54.125
40
0.5
50
180
51
270
0
ARC
8
0
10
163.6625
20
-54.125
40
0.5
50
270
51
0
0
LINE
8
0
10
169.7125
20
-40.625
11
182.7125
21
-40.625
0
LINE
8
0
10
169.7125
20
-54.625
11
182.7125
21
-54.625
0
LINE
8
0
10
169.2125
20
-41.125
11
169.2125
21
-54.125
0
LINE
8
0
10
183.2125
20
-41.125
11
183.2125
21
-54.125
0
ARC
8
0
10
169.7125
20
-41.125
40
0.5
50
90
51
180
0
ARC
8
0
10
182.7125
20
-41.125
40
0.5
50
0
51
90
0
ARC
8
0
10
169.7125
20
-54.125
40
0.5
50
180
51
270
0
ARC
8
0
10
182.7125
20
-54.125
40
0.5
50
270
51
0
0
LINE
8
0
10
188.7625
20
-40.625
11
201.7625
21
-40.625
0
LINE
8
0
10
188.7625
20
-54.625
11
201.7625
21
-54.625
0
LINE
8
0
10
188.2625
20
-41.125
11
188.2625
21
-54.125
0
LINE
8
0
10
202.2625
20
-41.125
11
202.2625
21
-54.125
0
ARC
8
0
10
188.7625
20
-41.125
40
0.5
50
90
51
180
0
ARC
8
0
10
201.7625
20
-41.125
40
0.5
50
0
51
90
0
ARC
8
0
10
188.7625
20
-54.125
40
0.5
50
180
51
270
0
ARC
8
0
10
201.7625
20
-54.125
40
0.5
50
270
51
0
0
LINE
8
0
10
210.19375
20
-40.625
11
223.19375
21
-40.625
0
LINE
8
0
10
210.19375
20
-54.625
11
223.19375
21
-54.625
0
LINE
8
0
10
209.69375
20
-41.125
11
209.69375
21
-54.125
0
LINE
8
0
10
223.69375
20
-41.125
11
223.69375
21
-54.125
0
ARC
8
0
10
210.19375
20
-41.125
40
0.5
50
90
51
180
0
ARC
8
0
10
223.19375
20
-41.125
40
0.5
50
0
51
90
0
ARC
8
0
10
210.19375
20
-54.125
40
0.5
50
180
51
270
0
ARC
8
0
10
223.19375
20
-54.125
40
0.5
50
270
51
0
0
LINE
8
0
10
29.21875
20
-59.675
11
42.21875
21
-59.675
0
LINE
8
0
10
29.21875
20
-73.675
11
42.21875
21
-73.675
0
LINE
8
0
10
28.71875
20
-60.175
11
28.71875
21
-73.175
0
LINE
8
0
10
42.71875
20
-60.175
11
42.71875
21
-73.175
0
ARC
8
0
10
29.21875
20
-60.175
40
0.5
50
90
51
180
0
ARC
8
0
10
42.21875
20
-60.175
40
0.5
50
0
51
90
0
ARC
8
0
10
29.21875
20
-73.175
40
0.5
50
180
51
270
0
ARC
8
0
10
42.21875
20
-73.175
40
0.5
50
270
51
0
0
LINE
8
0
10
107.8
20
-59.675
11
120.8
21
-59.675
0
LINE
8
0
10
107.8
20
-73.675
11
120.8
21
-73.675
0
LINE
8
0
10
107.3
20
-60.175
11
107.3
21
-73.175
0
LINE
8
0
10
121.3
20
-60.175
11
121.3
21
-73.175
0
ARC
8
0
10
107.8
20
-60.175
40
0.5
50
90
51
180
0
ARC
8
0
10
120.8
20
-60.175
40
0.5
50
0
51
90
0
ARC
8
0
10
107.8
20
-73.175
40
0.5
50
180
51
270
0
ARC
8
0
10
120.8
20
-73.175
40
0.5
50
270
51
0
0
LINE
8
0
10
54.3226
20
-60.9854
11
59.9774
21
-60.9854
0
LINE
8
0
10
60.4774
20
-61.4854
11
60.4774
21
-63.875
0
LINE
8
0
10
60.9774
20
-64.375
11
114.3
21
-64.375
0
LINE
8
0
10
114.3
20
-68.975
11
60.9774
21
-68.975
0
LINE
8
0
10
60.4774
20
-69.475
11
60.4774
21
-72.779
0
LINE
8
0
10
59.9774
20
-73.279
11
59.174
21
-73.279
0
LINE
8
0
10
58.674
20
-73.779
11
58.674
21
-73.9474
0
LINE
8
0
10
58.174
20
-74.4474
11
56.126
21
-74.4474
0
LINE
8
0
10
55.626
20
-73.9474
11
55.626
21
-73.779
0
LINE
8
0
10
55.126
20
-73.279
11
54.3226
21
-73.279
0
LINE
8
0
10
53.8226
20
-72.779
11
53.8226
21
-67.683
0
LINE
8
0
10
53.3226
20
-67.183
11
52.959
21
-67.183
0
LINE
8
0
10
52.959
20
-67.183
11
52.959
21
-64.889
0
LINE
8
0
10
53.459
20
-64.389
11
53.8226
21
-64.389
0
LINE
8
0
10
53.8226
20
-64.389
11
53.8226
21
-61.4854
0
ARC
8
0
10
59.9774
20
-61.4854
40
0.5
50
0
51
90
0
ARC
8
0
10
60.9774
20
-63.875
40
0.5
50
180
51
270
0
ARC
8
0
10
60.9774
20
-69.475
40
0.5
50
90
51
180
0
ARC
8
0
10
59.9774
20
-72.779
40
0.5
50
270
51
0
0
ARC
8
0
10
59.174
20
-73.779
40
0.5
50
90
51
180
0
ARC
8
0
10
58.174
20
-73.9474
40
0.5
50
270
51
0
0
ARC
8
0
10
56.126
20
-73.9474
40
0.5
50
180
51
270
0
ARC
8
0
10
55.126
20
-73.779
40
0.5
50
0
51
90
0
ARC
8
0
10
54.3226
20
-72.779
40
0.5
50
180
51
270
0
ARC
8
0
10
53.3226
20
-67.683
40
0.5
50
0
51
90
0
ARC
8
0
10
53.459
20
-64.889
40
0.5
50
90
51
180
0
ARC
8
0
10
54.3226
20
-61.4854
40
0.5
50
90
51
180
0
LINE
8
0
10
174.2774
20
-60.9854
11
168.6226
21
-60.9854
0
LINE
8
0
10
168.1226
20
-61.4854
11
168.1226
21
-63.875
0
LINE
8
0
10
167.6226
20
-64.375
11
114.3
21
-64.375
0
LINE
8
0
10
114.3
20
-68.975
11
167.6226
21
-68.975
0
LINE
8
0
10
168.1226
20
-69.475
11
168.1226
21
-72.779
0
LINE
8
0
10
168.6226
20
-73.279
11
169.426
21
-73.279
0
LINE
8
0
10
169.926
20
-73.779
11
169.926
21
-73.9474
0
LINE
8
0
10
170.426
20
-74.4474
11
172.474
21
-74.4474
0
LINE
8
0
10
172.974
20
-73.9474
11
172.974
21
-73.779
0
LINE
8
0
10
173.474
20
-73.279
11
174.2774
21
-73.279
0
LINE
8
0
10
174.7774
20
-72.779
11
174.7774
21
-67.683
0
LINE
8
0
10
175.2774
20
-67.183
11
175.641
21
-67.183
0
LINE
8
0
10
175.641
20
-67.183
11
175.641
21
-64.889
0
LINE
8
0
10
175.141
20
-64.389
11
174.7774
21
-64.389
0
LINE
8
0
10
174.7774
20
-64.389
11
174.7774
21
-61.4854
0
ARC
8
0
10
168.6226
20
-61.4854
40
0.5
50
90
51
180
0
ARC
8
0
10
167.6226
20
-63.875
40
0.5
50
270
51
0
0
ARC
8
0
10
167.6226
20
-69.475
40
0.5
50
0
51
90
0
ARC
8
0
10
168.6226
20
-72.779
40
0.5
50
180
51
270
0
ARC
8
0
10
169.426
20
-73.779
40
0.5
50
0
51
90
0
ARC
8
0
10
170.426
20
-73.9474
40
0.5
50
180
51
270
0
ARC
8
0
10
172.474
20
-73.9474
40
0.5
50
270
51
0
0
ARC
8
0
10
173.474
20
-73.779
40
0.5
50
90
51
180
0
ARC
8
0
10
174.2774
20
-72.779
40
0.5
50
270
51
0
0
ARC
8
0
10
175.2774
20
-67.683
40
0.5
50
90
51
180
0
ARC
8
0
10
175.141
20
-64.889
40
0.5
50
0
51
90
0
ARC
8
0
10
174.2774
20
-61.4854
40
0.5
50
0
51
90
0
LINE
8
0
10
186.38125
20
-59.675
11
199.38125
21
-59.675
0
LINE
8
0
10
186.38125
20
-73.675
11
199.38125
21
-73.675
0
LINE
8
0
10
185.88125
20
-60.175
11
185.88125
21
-73.175
0
LINE
8
0
10
199.88125
20
-60.175
11
199.88125
21
-73.175
0
ARC
8
0
10
186.38125
20
-60.175
40
0.5
50
90
51
180
0
ARC
8
0
10
199.38125
20
-60.175
40
0.5
50
0
51
90
0
ARC
8
0
10
186.38125
20
-73.175
40
0.5
50
180
51
270
0
ARC
8
0
10
199.38125
20
-73.175
40
0.5
50
270
51
0
0
LINE
8
0
10
0
20
-76.2
11
233.3625
21
-76.2
0
LINE
8
0
10
0
20
0
11
233.3625
21
0
0
LINE
8
0
10
0
20
-76.2
11
0
21
0
0
LINE
8
0
10
233.3625
20
-76.2
11
233.3625
21
0
0
ENDSEC
0
EOF