<svg width="233.363mm" height="76.2mm" viewBox="0 0 233.363 76.2" xmlns="http://www.w3.org/2000/svg"><g id="svgGroup" stroke-linecap="round" fill-rule="evenodd" font-size="9pt" stroke="#000" stroke-width="0.25mm" fill="none" style="stroke:#000;stroke-width:0.25mm;fill:none"><path d="M 0 76.2 L 233.363 76.2 L 233.363 0 L 0 0 L 0 76.2 Z M 22.075 2.525 L 35.075 2.525 A 0.5 0.5 0 0 1 35.575 3.025 L 35.575 16.025 A 0.5 0.5 0 0 1 35.075 16.525 L 22.075 16.525 A 0.5 0.5 0 0 1 21.575 16.025 L 21.575 3.025 A 0.5 0.5 0 0 1 22.075 2.525 Z M 5.406 21.575 L 18.406 21.575 A 0.5 0.5 0 0 1 18.906 22.075 L 18.906 35.075 A 0.5 0.5 0 0 1 18.406 35.575 L 5.406 35.575 A 0.5 0.5 0 0 1 4.906 35.075 L 4.906 22.075 A 0.5 0.5 0 0 1 5.406 21.575 Z M 26.838 21.575 L 39.838 21.575 A 0.5 0.5 0 0 1 40.338 22.075 L 40.338 35.075 A 0.5 0.5 0 0 1 39.838 35.575 L 26.838 35.575 A 0.5 0.5 0 0 1 26.338 35.075 L 26.338 22.075 A 0.5 0.5 0 0 1 26.838 21.575 Z M 45.888 21.575 L 58.888 21.575 A 0.5 0.5 0 0 1 59.388 22.075 L 59.388 35.075 A 0.5 0.5 0 0 1 58.888 35.575 L 45.888 35.575 A 0.5 0.5 0 0 1 45.388 35.075 L 45.388 22.075 A 0.5 0.5 0 0 1 45.888 21.575 Z M 64.938 21.575 L 77.938 21.575 A 0.5 0.5 0 0 1 78.438 22.075 L 78.438 35.075 A 0.5 0.5 0 0 1 77.938 35.575 L 64.938 35.575 A 0.5 0.5 0 0 1 64.438 35.075 L 64.438 22.075 A 0.5 0.5 0 0 1 64.938 21.575 Z M 83.988 21.575 L 96.988 21.575 A 0.5 0.5 0 0 1 97.488 22.075 L 97.488 35.075 A 0.5 0.5 0 0 1 96.988 35.575 L 83.988 35.575 A 0.5 0.5 0 0 1 83.488 35.075 L 83.488 22.075 A 0.5 0.5 0 0 1 83.988 21.575 Z M 103.038 21.575 L 116.038 21.575 A 0.5 0.5 0 0 1 116.538 22.075 L 116.538 35.075 A 0.5 0.5 0 0 1 116.038 35.575 L 103.038 35.575 A 0.5 0.5 0 0 1 102.538 35.075 L 102.538 22.075 A 0.5 0.5 0 0 1 103.038 21.575 Z M 122.088 21.575 L 135.088 21.575 A 0.5 0.5 0 0 1 135.588 22.075 L 135.588 35.075 A 0.5 0.5 0 0 1 135.088 35.575 L 122.088 35.575 A 0.5 0.5 0 0 1 121.588 35.075 L 121.588 22.075 A 0.5 0.5 0 0 1 122.088 21.575 Z M 141.138 21.575 L 154.138 21.575 A 0.5 0.5 0 0 1 154.638 22.075 L 154.638 35.075 A 0.5 0.5 0 0 1 154.138 35.575 L 141.138 35.575 A 0.5 0.5 0 0 1 140.638 35.075 L 140.638 22.075 A 0.5 0.5 0 0 1 141.138 21.575 Z M 160.188 21.575 L 173.188 21.575 A 0.5 0.5 0 0 1 173.688 22.075 L 173.688 35.075 A 0.5 0.5 0 0 1 173.188 35.575 L 160.188 35.575 A 0.5 0.5 0 0 1 159.688 35.075 L 159.688 22.075 A 0.5 0.5 0 0 1 160.188 21.575 Z M 179.238 21.575 L 192.238 21.575 A 0.5 0.5 0 0 1 192.738 22.075 L 192.738 35.075 A 0.5 0.5 0 0 1 192.238 35.575 L 179.238 35.575 A 0.5 0.5 0 0 1 178.738 35.075 L 178.738 22.075 A 0.5 0.5 0 0 1 179.238 21.575 Z M 198.288 21.575 L 211.288 21.575 A 0.5 0.5 0 0 1 211.788 22.075 L 211.788 35.075 A 0.5 0.5 0 0 1 211.288 35.575 L 198.288 35.575 A 0.5 0.5 0 0 1 197.788 35.075 L 197.788 22.075 A 0.5 0.5 0 0 1 198.288 21.575 Z M 217.338 21.575 L 230.338 21.575 A 0.5 0.5 0 0 1 230.838 22.075 L 230.838 35.075 A 0.5 0.5 0 0 1 230.338 35.575 L 217.338 35.575 A 0.5 0.5 0 0 1 216.838 35.075 L 216.838 22.075 A 0.5 0.5 0 0 1 217.338 21.575 Z M 12.55 40.625 L 25.55 40.625 A 0.5 0.5 0 0 1 26.05 41.125 L 26.05 54.125 A 0.5 0.5 0 0 1 25.55 54.625 L 12.55 54.625 A 0.5 0.5 0 0 1 12.05 54.125 L 12.05 41.125 A 0.5 0.5 0 0 1 12.55 40.625 Z M 36.363 40.625 L 49.363 40.625 A 0.5 0.5 0 0 1 49.863 41.125 L 49.863 54.125 A 0.5 0.5 0 0 1 49.363 54.625 L 36.363 54.625 A 0.5 0.5 0 0 1 35.863 54.125 L 35.863 41.125 A 0.5 0.5 0 0 1 36.363 40.625 Z M 74.463 40.625 L 87.463 40.625 A 0.5 0.5 0 0 1 87.963 41.125 L 87.963 54.125 A 0.5 0.5 0 0 1 87.463 54.625 L 74.463 54.625 A 0.5 0.5 0 0 1 73.963 54.125 L 73.963 41.125 A 0.5 0.5 0 0 1 74.463 40.625 Z M 93.513 40.625 L 106.513 40.625 A 0.5 0.5 0 0 1 107.013 41.125 L 107.013 54.125 A 0.5 0.5 0 0 1 106.513 54.625 L 93.513 54.625 A 0.5 0.5 0 0 1 93.013 54.125 L 93.013 41.125 A 0.5 0.5 0 0 1 93.513 40.625 Z M 112.563 40.625 L 125.563 40.625 A 0.5 0.5 0 0 1 126.063 41.125 L 126.063 54.125 A 0.5 0.5 0 0 1 125.563 54.625 L 112.563 54.625 A 0.5 0.5 0 0 1 112.063 54.125 L 112.063 41.125 A 0.5 0.5 0 0 1 112.563 40.625 Z M 131.613 40.625 L 144.613 40.625 A 0.5 0.5 0 0 1 145.113 41.125 L 145.113 54.125 A 0.5 0.5 0 0 1 144.613 54.625 L 131.613 54.625 A 0.5 0.5 0 0 1 131.113 54.125 L 131.113 41.125 A 0.5 0.5 0 0 1 131.613 40.625 Z M 150.663 40.625 L 163.663 40.625 A 0.5 0.5 0 0 1 164.163 41.125 L 164.163 54.125 A 0.5 0.5 0 0 1 163.663 54.625 L 150.663 54.625 A 0.5 0.5 0 0 1 150.163 54.125 L 150.163 41.125 A 0.5 0.5 0 0 1 150.663 40.625 Z M 169.713 40.625 L 182.713 40.625 A 0.5 0.5 0 0 1 183.213 41.125 L 183.213 54.125 A 0.5 0.5 0 0 1 182.713 54.625 L 169.713 54.625 A 0.5 0.5 0 0 1 169.213 54.125 L 169.213 41.125 A 0.5 0.5 0 0 1 169.713 40.625 Z M 188.763 40.625 L 201.763 40.625 A 0.5 0.5 0 0 1 202.263 41.125 L 202.263 54.125 A 0.5 0.5 0 0 1 201.763 54.625 L 188.763 54.625 A 0.5 0.5 0 0 1 188.263 54.125 L 188.263 41.125 A 0.5 0.5 0 0 1 188.763 40.625 Z M 210.194 40.625 L 223.194 40.625 A 0.5 0.5 0 0 1 223.694 41.125 L 223.694 54.125 A 0.5 0.5 0 0 1 223.194 54.625 L 210.194 54.625 A 0.5 0.5 0 0 1 209.694 54.125 L 209.694 41.125 A 0.5 0.5 0 0 1 210.194 40.625 Z M 29.219 59.675 L 42.219 59.675 A 0.5 0.5 0 0 1 42.719 60.175 L 42.719 73.175 A 0.5 0.5 0 0 1 42.219 73.675 L 29.219 73.675 A 0.5 0.5 0 0 1 28.719 73.175 L 28.719 60.175 A 0.5 0.5 0 0 1 29.219 59.675 Z M 50.65 59.675 L 63.65 59.675 A 0.5 0.5 0 0 1 64.15 60.175 L 64.15 73.175 A 0.5 0.5 0 0 1 63.65 73.675 L 50.65 73.675 A 0.5 0.5 0 0 1 50.15 73.175 L 50.15 60.175 A 0.5 0.5 0 0 1 50.65 59.675 Z M 79.225 59.675 L 92.225 59.675 A 0.5 0.5 0 0 1 92.725 60.175 L 92.725 73.175 A 0.5 0.5 0 0 1 92.225 73.675 L 79.225 73.675 A 0.5 0.5 0 0 1 78.725 73.175 L 78.725 60.175 A 0.5 0.5 0 0 1 79.225 59.675 Z M 107.8 59.675 L 120.8 59.675 A 0.5 0.5 0 0 1 121.3 60.175 L 121.3 73.175 A 0.5 0.5 0 0 1 120.8 73.675 L 107.8 73.675 A 0.5 0.5 0 0 1 107.3 73.175 L 107.3 60.175 A 0.5 0.5 0 0 1 107.8 59.675 Z M 136.375 59.675 L 149.375 59.675 A 0.5 0.5 0 0 1 149.875 60.175 L 149.875 73.175 A 0.5 0.5 0 0 1 149.375 73.675 L 136.375 73.675 A 0.5 0.5 0 0 1 135.875 73.175 L 135.875 60.175 A 0.5 0.5 0 0 1 136.375 59.675 Z M 164.95 59.675 L 177.95 59.675 A 0.5 0.5 0 0 1 178.45 60.175 L 178.45 73.175 A 0.5 0.5 0 0 1 177.95 73.675 L 164.95 73.675 A 0.5 0.5 0 0 1 164.45 73.175 L 164.45 60.175 A 0.5 0.5 0 0 1 164.95 59.675 Z M 186.381 59.675 L 199.381 59.675 A 0.5 0.5 0 0 1 199.881 60.175 L 199.881 73.175 A 0.5 0.5 0 0 1 199.381 73.675 L 186.381 73.675 A 0.5 0.5 0 0 1 185.881 73.175 L 185.881 60.175 A 0.5 0.5 0 0 1 186.381 59.675 Z M 3.025 2.525 L 16.025 2.525 A 0.5 0.5 0 0 1 16.525 3.025 L 16.525 16.025 A 0.5 0.5 0 0 1 16.025 16.525 L 3.025 16.525 A 0.5 0.5 0 0 1 2.525 16.025 L 2.525 3.025 A 0.5 0.5 0 0 1 3.025 2.525 Z M 41.125 2.525 L 54.125 2.525 A 0.5 0.5 0 0 1 54.625 3.025 L 54.625 16.025 A 0.5 0.5 0 0 1 54.125 16.525 L 41.125 16.525 A 0.5 0.5 0 0 1 40.625 16.025 L 40.625 3.025 A 0.5 0.5 0 0 1 41.125 2.525 Z M 60.175 2.525 L 73.175 2.525 A 0.5 0.5 0 0 1 73.675 3.025 L 73.675 16.025 A 0.5 0.5 0 0 1 73.175 16.525 L 60.175 16.525 A 0.5 0.5 0 0 1 59.675 16.025 L 59.675 3.025 A 0.5 0.5 0 0 1 60.175 2.525 Z M 79.225 2.525 L 92.225 2.525 A 0.5 0.5 0 0 1 92.725 3.025 L 92.725 16.025 A 0.5 0.5 0 0 1 92.225 16.525 L 79.225 16.525 A 0.5 0.5 0 0 1 78.725 16.025 L 78.725 3.025 A 0.5 0.5 0 0 1 79.225 2.525 Z M 98.275 2.525 L 111.275 2.525 A 0.5 0.5 0 0 1 111.775 3.025 L 111.775 16.025 A 0.5 0.5 0 0 1 111.275 16.525 L 98.275 16.525 A 0.5 0.5 0 0 1 97.775 16.025 L 97.775 3.025 A 0.5 0.5 0 0 1 98.275 2.525 Z M 136.375 2.525 L 149.375 2.525 A 0.5 0.5 0 0 1 149.875 3.025 L 149.875 16.025 A 0.5 0.5 0 0 1 149.375 16.525 L 136.375 16.525 A 0.5 0.5 0 0 1 135.875 16.025 L 135.875 3.025 A 0.5 0.5 0 0 1 136.375 2.525 Z M 155.425 2.525 L 168.425 2.525 A 0.5 0.5 0 0 1 168.925 3.025 L 168.925 16.025 A 0.5 0.5 0 0 1 168.425 16.525 L 155.425 16.525 A 0.5 0.5 0 0 1 154.925 16.025 L 154.925 3.025 A 0.5 0.5 0 0 1 155.425 2.525 Z M 174.475 2.525 L 187.475 2.525 A 0.5 0.5 0 0 1 187.975 3.025 L 187.975 16.025 A 0.5 0.5 0 0 1 187.475 16.525 L 174.475 16.525 A 0.5 0.5 0 0 1 173.975 16.025 L 173.975 3.025 A 0.5 0.5 0 0 1 174.475 2.525 Z M 193.525 2.525 L 206.525 2.525 A 0.5 0.5 0 0 1 207.025 3.025 L 207.025 16.025 A 0.5 0.5 0 0 1 206.525 16.525 L 193.525 16.525 A 0.5 0.5 0 0 1 193.025 16.025 L 193.025 3.025 A 0.5 0.5 0 0 1 193.525 2.525 Z M 214.956 2.525 L 227.956 2.525 A 0.5 0.5 0 0 1 228.456 3.025 L 228.456 16.025 A 0.5 0.5 0 0 1 227.956 16.525 L 214.956 16.525 A 0.5 0.5 0 0 1 214.456 16.025 L 214.456 3.025 A 0.5 0.5 0 0 1 214.956 2.525 Z M 55.413 40.625 L 68.413 40.625 A 0.5 0.5 0 0 1 68.913 41.125 L 68.913 54.125 A 0.5 0.5 0 0 1 68.413 54.625 L 55.413 54.625 A 0.5 0.5 0 0 1 54.913 54.125 L 54.913 41.125 A 0.5 0.5 0 0 1 55.413 40.625 Z M 117.325 2.525 L 130.325 2.525 A 0.5 0.5 0 0 1 130.825 3.025 L 130.825 16.025 A 0.5 0.5 0 0 1 130.325 16.525 L 117.325 16.525 A 0.5 0.5 0 0 1 116.825 16.025 L 116.825 3.025 A 0.5 0.5 0 0 1 117.325 2.525 Z M 70.787 60.675 L 76.787 60.675 A 0.5 0.5 0 0 1 77.287 61.175 L 77.287 75.175 A 0.5 0.5 0 0 1 76.787 75.675 L 70.787 75.675 A 0.5 0.5 0 0 1 70.287 75.175 L 70.287 61.175 A 0.5 0.5 0 0 1 70.787 60.675 Z M 94.663 60.675 L 100.663 60.675 A 0.5 0.5 0 0 1 101.163 61.175 L 101.163 75.175 A 0.5 0.5 0 0 1 100.663 75.675 L 94.663 75.675 A 0.5 0.5 0 0 1 94.163 75.175 L 94.163 61.175 A 0.5 0.5 0 0 1 94.663 60.675 Z M 127.937 60.675 L 133.937 60.675 A 0.5 0.5 0 0 1 134.437 61.175 L 134.437 75.175 A 0.5 0.5 0 0 1 133.937 75.675 L 127.937 75.675 A 0.5 0.5 0 0 1 127.437 75.175 L 127.437 61.175 A 0.5 0.5 0 0 1 127.937 60.675 Z M 151.813 60.675 L 157.813 60.675 A 0.5 0.5 0 0 1 158.313 61.175 L 158.313 75.175 A 0.5 0.5 0 0 1 157.813 75.675 L 151.813 75.675 A 0.5 0.5 0 0 1 151.313 75.175 L 151.313 61.175 A 0.5 0.5 0 0 1 151.813 60.675 Z" vector-effect="non-scaling-stroke"/></g></svg>