M48
; DRILL file {KiCad 8.0.8} date 2025-05-22T13:33:45+0200
; FORMAT={-:-/ absolute / inch / decimal}
; #@! TF.CreationDate,2025-05-22T13:33:45+02:00
; #@! TF.GenerationSoftware,Kicad,Pcbnew,8.0.8
; #@! TF.FileFunction,NonPlated,1,2,NPTH
FMAT,2
INCH
; #@! TA.AperFunction,NonPlated,NPTH,ComponentDrill
T1C0.0689
; #@! TA.AperFunction,NonPlated,NPTH,ComponentDrill
T2C0.1200
; #@! TA.AperFunction,NonPlated,NPTH,ComponentDrill
T3C0.1570
; #@! TA.AperFunction,NonPlated,NPTH,ComponentDrill
T4C0.1575
%
G90
G05
T1
X1.3562Y-1.3344
X1.45Y-2.0844
X1.7312Y-2.8344
X1.7562Y-1.3344
X1.85Y-2.0844
X2.1062Y-1.3344
X2.1313Y-2.8344
X2.2937Y-2.0844
X2.3875Y-3.5844
X2.5063Y-1.3344
X2.6687Y-2.8344
X2.6938Y-2.0844
X2.7875Y-3.5844
X2.8562Y-1.3344
X3.0437Y-2.0844
X3.0688Y-2.8344
X3.2312Y-3.5844
X3.2563Y-1.3344
X3.4187Y-2.8344
X3.4438Y-2.0844
X3.6062Y-1.3344
X3.6313Y-3.5844
X3.7937Y-2.0844
X3.8188Y-2.8344
X4.0062Y-1.3344
X4.1688Y-2.8344
X4.1937Y-2.0844
X4.3563Y-1.3344
X4.3563Y-3.5844
X4.5438Y-2.0844
X4.5687Y-2.8344
X4.7562Y-1.3344
X4.7562Y-3.5844
X4.9188Y-2.8344
X4.9437Y-2.0844
X5.1063Y-1.3344
X5.2938Y-2.0844
X5.3187Y-2.8344
X5.4813Y-3.5844
X5.5062Y-1.3344
X5.6688Y-2.8344
X5.6937Y-2.0844
X5.8563Y-1.3344
X5.8812Y-3.5844
X6.0438Y-2.0844
X6.0687Y-2.8344
X6.2562Y-1.3344
X6.4188Y-2.8344
X6.4437Y-2.0844
X6.6063Y-1.3344
X6.6063Y-3.5844
X6.7938Y-2.0844
X6.8187Y-2.8344
X7.0062Y-1.3344
X7.0062Y-3.5844
X7.1688Y-2.8344
X7.1937Y-2.0844
X7.3563Y-1.3344
X7.5438Y-2.0844
X7.5687Y-2.8344
X7.7313Y-3.5844
X7.7562Y-1.3344
X7.9188Y-2.8344
X7.9437Y-2.0844
X8.1062Y-1.3344
X8.1312Y-3.5844
X8.2937Y-2.0844
X8.3187Y-2.8344
X8.5062Y-1.3344
X8.575Y-3.5844
X8.6687Y-2.8344
X8.6937Y-2.0844
X8.8562Y-1.3344
X8.975Y-3.5844
X9.0437Y-2.0844
X9.0687Y-2.8344
X9.2562Y-1.3344
X9.4437Y-2.0844
X9.5125Y-2.8344
X9.7Y-1.3344
X9.7937Y-2.0844
X9.9125Y-2.8344
X10.1Y-1.3344
X10.1937Y-2.0844
T2
X4.0862Y-3.2757
X5.0263Y-3.2757
X6.3362Y-3.2757
X7.2763Y-3.2757
T3
X4.0862Y-3.8745
X5.0263Y-3.8745
X6.3362Y-3.8745
X7.2763Y-3.8745
T4
X1.5562Y-1.3344
X1.65Y-2.0844
X1.9312Y-2.8344
X2.3062Y-1.3344
X2.4937Y-2.0844
X2.5875Y-3.5844
X2.8687Y-2.8344
X3.0562Y-1.3344
X3.2437Y-2.0844
X3.4312Y-3.5844
X3.6187Y-2.8344
X3.8062Y-1.3344
X3.9937Y-2.0844
X4.3687Y-2.8344
X4.5562Y-1.3344
X4.5562Y-3.5844
X4.7437Y-2.0844
X5.1187Y-2.8344
X5.3062Y-1.3344
X5.4937Y-2.0844
X5.6812Y-3.5844
X5.8687Y-2.8344
X6.0562Y-1.3344
X6.2437Y-2.0844
X6.6187Y-2.8344
X6.8062Y-1.3344
X6.8062Y-3.5844
X6.9937Y-2.0844
X7.3687Y-2.8344
X7.5562Y-1.3344
X7.7437Y-2.0844
X7.9312Y-3.5844
X8.1188Y-2.8344
X8.3063Y-1.3344
X8.4938Y-2.0844
X8.775Y-3.5844
X8.8688Y-2.8344
X9.0563Y-1.3344
X9.2438Y-2.0844
X9.7125Y-2.8344
X9.9Y-1.3344
X9.9938Y-2.0844
M30
