%TF.GenerationSoftware,KiCad,Pcbnew,8.0.8*%
%TF.CreationDate,2025-03-09T23:59:49+01:00*%
%TF.ProjectId,Pancake,50616e63-616b-4652-9e6b-696361645f70,rev?*%
%TF.SameCoordinates,Original*%
%TF.FileFunction,Soldermask,Bot*%
%TF.FilePolarity,Negative*%
%FSLAX46Y46*%
G04 Gerber Fmt 4.6, Leading zero omitted, Abs format (unit mm)*
G04 Created by KiCad (PCBNEW 8.0.8) date 2025-03-09 23:59:49*
%MOMM*%
%LPD*%
G01*
G04 APERTURE LIST*
G04 Aperture macros list*
%AMRoundRect*
0 Rectangle with rounded corners*
0 $1 Rounding radius*
0 $2 $3 $4 $5 $6 $7 $8 $9 X,Y pos of 4 corners*
0 Add a 4 corners polygon primitive as box body*
4,1,4,$2,$3,$4,$5,$6,$7,$8,$9,$2,$3,0*
0 Add four circle primitives for the rounded corners*
1,1,$1+$1,$2,$3*
1,1,$1+$1,$4,$5*
1,1,$1+$1,$6,$7*
1,1,$1+$1,$8,$9*
0 Add four rect primitives between the rounded corners*
20,1,$1+$1,$2,$3,$4,$5,0*
20,1,$1+$1,$4,$5,$6,$7,0*
20,1,$1+$1,$6,$7,$8,$9,0*
20,1,$1+$1,$8,$9,$2,$3,0*%
%AMHorizOval*
0 Thick line with rounded ends*
0 $1 width*
0 $2 $3 position (X,Y) of the first rounded end (center of the circle)*
0 $4 $5 position (X,Y) of the second rounded end (center of the circle)*
0 Add line between two ends*
20,1,$1,$2,$3,$4,$5,0*
0 Add two circle primitives to create the rounded ends*
1,1,$1,$2,$3*
1,1,$1,$4,$5*%
G04 Aperture macros list end*
%ADD10C,1.750000*%
%ADD11C,4.000000*%
%ADD12C,2.500000*%
%ADD13RoundRect,0.225000X0.375000X-0.225000X0.375000X0.225000X-0.375000X0.225000X-0.375000X-0.225000X0*%
%ADD14O,1.500000X1.500000*%
%ADD15HorizOval,1.500000X0.000000X0.000000X0.000000X0.000000X0*%
%ADD16C,3.048000*%
%ADD17C,3.987800*%
%ADD18RoundRect,0.150000X-0.625000X0.150000X-0.625000X-0.150000X0.625000X-0.150000X0.625000X0.150000X0*%
%ADD19RoundRect,0.250000X-0.650000X0.350000X-0.650000X-0.350000X0.650000X-0.350000X0.650000X0.350000X0*%
G04 APERTURE END LIST*
D10*
%TO.C,MX16*%
X96361250Y-52943125D03*
D11*
X101441250Y-52943125D03*
D10*
X106521250Y-52943125D03*
D12*
X97631250Y-50403125D03*
X103981250Y-47863125D03*
%TD*%
D13*
%TO.C,D38*%
X124301250Y-94360000D03*
X124301250Y-91060000D03*
%TD*%
%TO.C,D15*%
X91122500Y-56180625D03*
X91122500Y-52880625D03*
%TD*%
D10*
%TO.C,MX32*%
X182086250Y-71993125D03*
D11*
X187166250Y-71993125D03*
D10*
X192246250Y-71993125D03*
D12*
X183356250Y-69453125D03*
X189706250Y-66913125D03*
%TD*%
D13*
%TO.C,D10*%
X219710000Y-33830625D03*
X219710000Y-37130625D03*
%TD*%
D14*
%TO.C,U1*%
X268174250Y-83820000D03*
X265634250Y-83820000D03*
X263094250Y-83820000D03*
D15*
X260554250Y-83820000D03*
X258014250Y-83820000D03*
D14*
X255474250Y-83820000D03*
X252934250Y-83820000D03*
X250394250Y-83820000D03*
X247854250Y-83820000D03*
X245314250Y-83820000D03*
X242774250Y-83820000D03*
X240234250Y-83820000D03*
X237694250Y-83820000D03*
X237694250Y-86360000D03*
X237694250Y-88900000D03*
X237694250Y-91440000D03*
X237694250Y-93980000D03*
X237694250Y-96520000D03*
X237694250Y-99060000D03*
X240234250Y-99060000D03*
X242774250Y-99060000D03*
X245314250Y-99060000D03*
X247854250Y-99060000D03*
X250394250Y-99060000D03*
X252934250Y-99060000D03*
X255474250Y-99060000D03*
X258014250Y-99060000D03*
X260554250Y-99060000D03*
D15*
X263094250Y-99060000D03*
D14*
X265634250Y-99060000D03*
X268174250Y-99060000D03*
%TD*%
D10*
%TO.C,MX12*%
X246380000Y-33893125D03*
D11*
X251460000Y-33893125D03*
D10*
X256540000Y-33893125D03*
D12*
X247650000Y-31353125D03*
X254000000Y-28813125D03*
%TD*%
D13*
%TO.C,D30*%
X157797500Y-75627500D03*
X157797500Y-72327500D03*
%TD*%
%TO.C,D8*%
X181610000Y-33830625D03*
X181610000Y-37130625D03*
%TD*%
D10*
%TO.C,MX6*%
X129698750Y-33893125D03*
D11*
X134778750Y-33893125D03*
D10*
X139858750Y-33893125D03*
D12*
X130968750Y-31353125D03*
X137318750Y-28813125D03*
%TD*%
D10*
%TO.C,MX27*%
X86836250Y-71993125D03*
D11*
X91916250Y-71993125D03*
D10*
X96996250Y-71993125D03*
D12*
X88106250Y-69453125D03*
X94456250Y-66913125D03*
%TD*%
D13*
%TO.C,D37*%
X95885000Y-94280625D03*
X95885000Y-90980625D03*
%TD*%
D10*
%TO.C,MX35*%
X241617500Y-71993125D03*
D11*
X246697500Y-71993125D03*
D10*
X251777500Y-71993125D03*
D12*
X242887500Y-69453125D03*
X249237500Y-66913125D03*
%TD*%
D16*
%TO.C,REF\u002A\u002A*%
X103790750Y-83203175D03*
D17*
X103790750Y-98413175D03*
D16*
X127666750Y-83203175D03*
D17*
X127666750Y-98413175D03*
%TD*%
D13*
%TO.C,D1*%
X48260000Y-37130625D03*
X48260000Y-33830625D03*
%TD*%
%TO.C,D33*%
X214947500Y-72327500D03*
X214947500Y-75627500D03*
%TD*%
D10*
%TO.C,MX38*%
X110648750Y-91043125D03*
D11*
X115728750Y-91043125D03*
D10*
X120808750Y-91043125D03*
D12*
X111918750Y-88503125D03*
X118268750Y-85963125D03*
%TD*%
D13*
%TO.C,D22*%
X224472500Y-56180625D03*
X224472500Y-52880625D03*
%TD*%
D10*
%TO.C,MX28*%
X105886250Y-71993125D03*
D11*
X110966250Y-71993125D03*
D10*
X116046250Y-71993125D03*
D12*
X107156250Y-69453125D03*
X113506250Y-66913125D03*
%TD*%
D10*
%TO.C,MX40*%
X167798750Y-91043125D03*
D11*
X172878750Y-91043125D03*
D10*
X177958750Y-91043125D03*
D12*
X169068750Y-88503125D03*
X175418750Y-85963125D03*
%TD*%
D10*
%TO.C,MX1*%
X34448750Y-33893125D03*
D11*
X39528750Y-33893125D03*
D10*
X44608750Y-33893125D03*
D12*
X35718750Y-31353125D03*
X42068750Y-28813125D03*
%TD*%
D13*
%TO.C,D24*%
X262572500Y-52880625D03*
X262572500Y-56180625D03*
%TD*%
D10*
%TO.C,MX31*%
X163036250Y-71993125D03*
D11*
X168116250Y-71993125D03*
D10*
X173196250Y-71993125D03*
D12*
X164306250Y-69453125D03*
X170656250Y-66913125D03*
%TD*%
D13*
%TO.C,D35*%
X255428750Y-72327500D03*
X255428750Y-75627500D03*
%TD*%
D10*
%TO.C,MX36*%
X60642500Y-91043125D03*
D11*
X65722500Y-91043125D03*
D10*
X70802500Y-91043125D03*
D12*
X61912500Y-88503125D03*
X68262500Y-85963125D03*
%TD*%
D13*
%TO.C,D7*%
X162560000Y-37130625D03*
X162560000Y-33830625D03*
%TD*%
%TO.C,D29*%
X138747500Y-75627500D03*
X138747500Y-72327500D03*
%TD*%
D10*
%TO.C,MX42*%
X217805000Y-91043125D03*
D11*
X222885000Y-91043125D03*
D10*
X227965000Y-91043125D03*
D12*
X219075000Y-88503125D03*
X225425000Y-85963125D03*
%TD*%
D13*
%TO.C,D31*%
X176847500Y-75627500D03*
X176847500Y-72327500D03*
%TD*%
D10*
%TO.C,MX26*%
X67786250Y-71993125D03*
D11*
X72866250Y-71993125D03*
D10*
X77946250Y-71993125D03*
D12*
X69056250Y-69453125D03*
X75406250Y-66913125D03*
%TD*%
D13*
%TO.C,D39*%
X153035000Y-94280625D03*
X153035000Y-90980625D03*
%TD*%
%TO.C,D11*%
X238760000Y-33830625D03*
X238760000Y-37130625D03*
%TD*%
D10*
%TO.C,MX34*%
X220186250Y-71993125D03*
D11*
X225266250Y-71993125D03*
D10*
X230346250Y-71993125D03*
D12*
X221456250Y-69453125D03*
X227806250Y-66913125D03*
%TD*%
D13*
%TO.C,D9*%
X200660000Y-33830625D03*
X200660000Y-37130625D03*
%TD*%
D10*
%TO.C,MX37*%
X82073750Y-91043125D03*
D11*
X87153750Y-91043125D03*
D10*
X92233750Y-91043125D03*
D12*
X83343750Y-88503125D03*
X89693750Y-85963125D03*
%TD*%
D13*
%TO.C,D27*%
X100647500Y-75627500D03*
X100647500Y-72327500D03*
%TD*%
%TO.C,D34*%
X233997500Y-72327500D03*
X233997500Y-75627500D03*
%TD*%
%TO.C,D21*%
X205422500Y-56180625D03*
X205422500Y-52880625D03*
%TD*%
%TO.C,D20*%
X186372500Y-52880625D03*
X186372500Y-56180625D03*
%TD*%
D10*
%TO.C,MX10*%
X205898750Y-33893125D03*
D11*
X210978750Y-33893125D03*
D10*
X216058750Y-33893125D03*
D12*
X207168750Y-31353125D03*
X213518750Y-28813125D03*
%TD*%
D10*
%TO.C,MX20*%
X172561250Y-52943125D03*
D11*
X177641250Y-52943125D03*
D10*
X182721250Y-52943125D03*
D12*
X173831250Y-50403125D03*
X180181250Y-47863125D03*
%TD*%
D10*
%TO.C,MX30*%
X143986250Y-71993125D03*
D11*
X149066250Y-71993125D03*
D10*
X154146250Y-71993125D03*
D12*
X145256250Y-69453125D03*
X151606250Y-66913125D03*
%TD*%
D13*
%TO.C,D36*%
X74453750Y-94280625D03*
X74453750Y-90980625D03*
%TD*%
D10*
%TO.C,MX23*%
X229711250Y-52943125D03*
D11*
X234791250Y-52943125D03*
D10*
X239871250Y-52943125D03*
D12*
X230981250Y-50403125D03*
X237331250Y-47863125D03*
%TD*%
D10*
%TO.C,MX13*%
X36830000Y-52943125D03*
D11*
X41910000Y-52943125D03*
D10*
X46990000Y-52943125D03*
D12*
X38100000Y-50403125D03*
X44450000Y-47863125D03*
%TD*%
D10*
%TO.C,MX2*%
X53498750Y-33893125D03*
D11*
X58578750Y-33893125D03*
D10*
X63658750Y-33893125D03*
D12*
X54768750Y-31353125D03*
X61118750Y-28813125D03*
%TD*%
D13*
%TO.C,D4*%
X105410000Y-37130625D03*
X105410000Y-33830625D03*
%TD*%
D10*
%TO.C,MX18*%
X134461250Y-52943125D03*
D11*
X139541250Y-52943125D03*
D10*
X144621250Y-52943125D03*
D12*
X135731250Y-50403125D03*
X142081250Y-47863125D03*
%TD*%
D10*
%TO.C,MX24*%
X248761250Y-52943125D03*
D11*
X253841250Y-52943125D03*
D10*
X258921250Y-52943125D03*
D12*
X250031250Y-50403125D03*
X256381250Y-47863125D03*
%TD*%
D10*
%TO.C,MX7*%
X148748750Y-33893125D03*
D11*
X153828750Y-33893125D03*
D10*
X158908750Y-33893125D03*
D12*
X150018750Y-31353125D03*
X156368750Y-28813125D03*
%TD*%
D13*
%TO.C,D32*%
X195897500Y-72327500D03*
X195897500Y-75627500D03*
%TD*%
D10*
%TO.C,MX5*%
X110648750Y-33893125D03*
D11*
X115728750Y-33893125D03*
D10*
X120808750Y-33893125D03*
D12*
X111918750Y-31353125D03*
X118268750Y-28813125D03*
%TD*%
D10*
%TO.C,MX33*%
X201136250Y-71993125D03*
D11*
X206216250Y-71993125D03*
D10*
X211296250Y-71993125D03*
D12*
X202406250Y-69453125D03*
X208756250Y-66913125D03*
%TD*%
D10*
%TO.C,MX4*%
X91598750Y-33893125D03*
D11*
X96678750Y-33893125D03*
D10*
X101758750Y-33893125D03*
D12*
X92868750Y-31353125D03*
X99218750Y-28813125D03*
%TD*%
D13*
%TO.C,D14*%
X72072500Y-56180625D03*
X72072500Y-52880625D03*
%TD*%
D10*
%TO.C,MX11*%
X224948750Y-33893125D03*
D11*
X230028750Y-33893125D03*
D10*
X235108750Y-33893125D03*
D12*
X226218750Y-31353125D03*
X232568750Y-28813125D03*
%TD*%
D10*
%TO.C,MX9*%
X186848750Y-33893125D03*
D11*
X191928750Y-33893125D03*
D10*
X197008750Y-33893125D03*
D12*
X188118750Y-31353125D03*
X194468750Y-28813125D03*
%TD*%
D13*
%TO.C,D12*%
X260191250Y-33830625D03*
X260191250Y-37130625D03*
%TD*%
%TO.C,D41*%
X210185000Y-90980625D03*
X210185000Y-94280625D03*
%TD*%
D10*
%TO.C,MX19*%
X153511250Y-52943125D03*
D11*
X158591250Y-52943125D03*
D10*
X163671250Y-52943125D03*
D12*
X154781250Y-50403125D03*
X161131250Y-47863125D03*
%TD*%
D10*
%TO.C,MX14*%
X58261250Y-52943125D03*
D11*
X63341250Y-52943125D03*
D10*
X68421250Y-52943125D03*
D12*
X59531250Y-50403125D03*
X65881250Y-47863125D03*
%TD*%
D13*
%TO.C,D3*%
X86360000Y-37130625D03*
X86360000Y-33830625D03*
%TD*%
D10*
%TO.C,MX39*%
X139223750Y-91043125D03*
D11*
X144303750Y-91043125D03*
D10*
X149383750Y-91043125D03*
D12*
X140493750Y-88503125D03*
X146843750Y-85963125D03*
%TD*%
D10*
%TO.C,MX17*%
X115411250Y-52943125D03*
D11*
X120491250Y-52943125D03*
D10*
X125571250Y-52943125D03*
D12*
X116681250Y-50403125D03*
X123031250Y-47863125D03*
%TD*%
D13*
%TO.C,D17*%
X129222500Y-56180625D03*
X129222500Y-52880625D03*
%TD*%
%TO.C,D25*%
X57785000Y-75627500D03*
X57785000Y-72327500D03*
%TD*%
%TO.C,D16*%
X110172500Y-56180625D03*
X110172500Y-52880625D03*
%TD*%
%TO.C,D42*%
X231362250Y-90980625D03*
X231362250Y-94280625D03*
%TD*%
%TO.C,D40*%
X181451250Y-90980625D03*
X181451250Y-94280625D03*
%TD*%
%TO.C,D2*%
X67310000Y-37130625D03*
X67310000Y-33830625D03*
%TD*%
D17*
%TO.C,REF\u002A\u002A*%
X184816750Y-98413175D03*
D16*
X184816750Y-83203175D03*
D17*
X160940750Y-98413175D03*
D16*
X160940750Y-83203175D03*
%TD*%
D13*
%TO.C,D13*%
X50641250Y-56180625D03*
X50641250Y-52880625D03*
%TD*%
D10*
%TO.C,MX22*%
X210661250Y-52943125D03*
D11*
X215741250Y-52943125D03*
D10*
X220821250Y-52943125D03*
D12*
X211931250Y-50403125D03*
X218281250Y-47863125D03*
%TD*%
D13*
%TO.C,D26*%
X81597500Y-75627500D03*
X81597500Y-72327500D03*
%TD*%
D10*
%TO.C,MX41*%
X196373750Y-91043125D03*
D11*
X201453750Y-91043125D03*
D10*
X206533750Y-91043125D03*
D12*
X197643750Y-88503125D03*
X203993750Y-85963125D03*
%TD*%
D13*
%TO.C,D5*%
X124460000Y-37130625D03*
X124460000Y-33830625D03*
%TD*%
D10*
%TO.C,MX21*%
X191611250Y-52943125D03*
D11*
X196691250Y-52943125D03*
D10*
X201771250Y-52943125D03*
D12*
X192881250Y-50403125D03*
X199231250Y-47863125D03*
%TD*%
D10*
%TO.C,MX8*%
X167798750Y-33893125D03*
D11*
X172878750Y-33893125D03*
D10*
X177958750Y-33893125D03*
D12*
X169068750Y-31353125D03*
X175418750Y-28813125D03*
%TD*%
D10*
%TO.C,MX29*%
X124936250Y-71993125D03*
D11*
X130016250Y-71993125D03*
D10*
X135096250Y-71993125D03*
D12*
X126206250Y-69453125D03*
X132556250Y-66913125D03*
%TD*%
D10*
%TO.C,MX3*%
X72548750Y-33893125D03*
D11*
X77628750Y-33893125D03*
D10*
X82708750Y-33893125D03*
D12*
X73818750Y-31353125D03*
X80168750Y-28813125D03*
%TD*%
D13*
%TO.C,D18*%
X148272500Y-56180625D03*
X148272500Y-52880625D03*
%TD*%
%TO.C,D28*%
X119697500Y-75627500D03*
X119697500Y-72327500D03*
%TD*%
%TO.C,D23*%
X243522500Y-56180625D03*
X243522500Y-52880625D03*
%TD*%
D10*
%TO.C,MX15*%
X77311250Y-52943125D03*
D11*
X82391250Y-52943125D03*
D10*
X87471250Y-52943125D03*
D12*
X78581250Y-50403125D03*
X84931250Y-47863125D03*
%TD*%
D13*
%TO.C,D19*%
X167322500Y-52880625D03*
X167322500Y-56180625D03*
%TD*%
D10*
%TO.C,MX25*%
X43973750Y-71993125D03*
D11*
X49053750Y-71993125D03*
D10*
X54133750Y-71993125D03*
D12*
X45243750Y-69453125D03*
X51593750Y-66913125D03*
%TD*%
D13*
%TO.C,D6*%
X143510000Y-37130625D03*
X143510000Y-33830625D03*
%TD*%
D18*
%TO.C,J1*%
X258406250Y-89875000D03*
X258406250Y-90875000D03*
X258406250Y-91875000D03*
X258406250Y-92875000D03*
D19*
X255881250Y-88575000D03*
X255881250Y-94175000D03*
%TD*%
M02*
