M48
; DRILL file {KiCad 8.0.8} date 2025-05-22T13:33:45+0200
; FORMAT={-:-/ absolute / inch / decimal}
; #@! TF.CreationDate,2025-05-22T13:33:45+02:00
; #@! TF.GenerationSoftware,Kicad,Pcbnew,8.0.8
; #@! TF.FileFunction,Plated,1,2,PTH
FMAT,2
INCH
; #@! TA.AperFunction,Plated,PTH,ViaDrill
T1C0.0118
; #@! TA.AperFunction,Plated,PTH,ComponentDrill
T2C0.0327
; #@! TA.AperFunction,Plated,PTH,ComponentDrill
T3C0.0591
%
G90
G05
T1
X6.8537Y-3.165
X7.7737Y-3.325
X8.6188Y-3.21
X8.7734Y-3.165
X9.0738Y-3.305
X9.0887Y-3.21
X10.4087Y-3.585
X10.4337Y-3.545
T2
X9.358Y-3.3
X9.358Y-3.4
X9.358Y-3.5
X9.358Y-3.6
X9.358Y-3.7
X9.358Y-3.8
X9.358Y-3.9
X9.458Y-3.3
X9.458Y-3.9
X9.558Y-3.3
X9.558Y-3.9
X9.658Y-3.3
X9.658Y-3.9
X9.758Y-3.3
X9.758Y-3.9
X9.858Y-3.3
X9.858Y-3.9
X9.958Y-3.3
X9.958Y-3.9
X10.058Y-3.3
X10.058Y-3.9
X10.158Y-3.3
X10.158Y-3.9
X10.258Y-3.3
X10.258Y-3.9
X10.358Y-3.3
X10.358Y-3.9
X10.458Y-3.3
X10.458Y-3.9
X10.558Y-3.3
X10.558Y-3.9
T3
X1.4062Y-1.2344
X1.5Y-1.9844
X1.6562Y-1.1344
X1.75Y-1.8844
X1.7812Y-2.7344
X2.0312Y-2.6344
X2.1562Y-1.2344
X2.3438Y-1.9844
X2.4062Y-1.1344
X2.4375Y-3.4844
X2.5938Y-1.8844
X2.6875Y-3.3844
X2.7188Y-2.7344
X2.9062Y-1.2344
X2.9688Y-2.6344
X3.0938Y-1.9844
X3.1562Y-1.1344
X3.2812Y-3.4844
X3.3438Y-1.8844
X3.4688Y-2.7344
X3.5312Y-3.3844
X3.6562Y-1.2344
X3.7188Y-2.6344
X3.8438Y-1.9844
X3.9062Y-1.1344
X4.0938Y-1.8844
X4.2188Y-2.7344
X4.4062Y-1.2344
X4.4062Y-3.4844
X4.4688Y-2.6344
X4.5938Y-1.9844
X4.6562Y-1.1344
X4.6562Y-3.3844
X4.8438Y-1.8844
X4.9688Y-2.7344
X5.1562Y-1.2344
X5.2188Y-2.6344
X5.3438Y-1.9844
X5.4062Y-1.1344
X5.5312Y-3.4844
X5.5938Y-1.8844
X5.7188Y-2.7344
X5.7812Y-3.3844
X5.9062Y-1.2344
X5.9688Y-2.6344
X6.0938Y-1.9844
X6.1562Y-1.1344
X6.3438Y-1.8844
X6.4688Y-2.7344
X6.6562Y-1.2344
X6.6562Y-3.4844
X6.7188Y-2.6344
X6.8438Y-1.9844
X6.9062Y-1.1344
X6.9062Y-3.3844
X7.0938Y-1.8844
X7.2188Y-2.7344
X7.4062Y-1.2344
X7.4688Y-2.6344
X7.5938Y-1.9844
X7.6562Y-1.1344
X7.7812Y-3.4844
X7.8438Y-1.8844
X7.9688Y-2.7344
X8.0312Y-3.3844
X8.1562Y-1.2344
X8.2188Y-2.6344
X8.3438Y-1.9844
X8.4062Y-1.1344
X8.5938Y-1.8844
X8.625Y-3.4844
X8.7188Y-2.7344
X8.875Y-3.3844
X8.9062Y-1.2344
X8.9688Y-2.6344
X9.0938Y-1.9844
X9.1562Y-1.1344
X9.3438Y-1.8844
X9.5625Y-2.7344
X9.75Y-1.2344
X9.8125Y-2.6344
X9.8438Y-1.9844
X10.0Y-1.1344
X10.0938Y-1.8844
M30
