%TF.GenerationSoftware,KiCad,Pcbnew,8.0.8*%
%TF.CreationDate,2025-06-07T17:32:44+02:00*%
%TF.ProjectId,PancakeXXL V2-rounded,50616e63-616b-4655-9858-4c2056322d72,rev?*%
%TF.SameCoordinates,Original*%
%TF.FileFunction,Legend,Bot*%
%TF.FilePolarity,Positive*%
%FSLAX46Y46*%
G04 Gerber Fmt 4.6, Leading zero omitted, Abs format (unit mm)*
G04 Created by KiCad (PCBNEW 8.0.8) date 2025-06-07 17:32:44*
%MOMM*%
%LPD*%
G01*
G04 APERTURE LIST*
G04 Aperture macros list*
%AMRoundRect*
0 Rectangle with rounded corners*
0 $1 Rounding radius*
0 $2 $3 $4 $5 $6 $7 $8 $9 X,Y pos of 4 corners*
0 Add a 4 corners polygon primitive as box body*
4,1,4,$2,$3,$4,$5,$6,$7,$8,$9,$2,$3,0*
0 Add four circle primitives for the rounded corners*
1,1,$1+$1,$2,$3*
1,1,$1+$1,$4,$5*
1,1,$1+$1,$6,$7*
1,1,$1+$1,$8,$9*
0 Add four rect primitives between the rounded corners*
20,1,$1+$1,$2,$3,$4,$5,0*
20,1,$1+$1,$4,$5,$6,$7,0*
20,1,$1+$1,$6,$7,$8,$9,0*
20,1,$1+$1,$8,$9,$2,$3,0*%
G04 Aperture macros list end*
%ADD10C,0.150000*%
%ADD11C,0.120000*%
%ADD12C,1.750000*%
%ADD13C,4.000000*%
%ADD14C,2.500000*%
%ADD15C,3.048000*%
%ADD16C,3.987800*%
%ADD17RoundRect,0.225000X0.375000X-0.225000X0.375000X0.225000X-0.375000X0.225000X-0.375000X-0.225000X0*%
%ADD18RoundRect,0.225000X-0.225000X-0.250000X0.225000X-0.250000X0.225000X0.250000X-0.225000X0.250000X0*%
%ADD19RoundRect,0.225000X0.250000X-0.225000X0.250000X0.225000X-0.250000X0.225000X-0.250000X-0.225000X0*%
%ADD20R,1.800000X1.100000*%
%ADD21RoundRect,0.225000X-0.017678X0.335876X-0.335876X0.017678X0.017678X-0.335876X0.335876X-0.017678X0*%
%ADD22RoundRect,0.200000X0.275000X-0.200000X0.275000X0.200000X-0.275000X0.200000X-0.275000X-0.200000X0*%
%ADD23RoundRect,0.200000X-0.335876X-0.053033X-0.053033X-0.335876X0.335876X0.053033X0.053033X0.335876X0*%
%ADD24R,1.400000X1.100000*%
%ADD25RoundRect,0.225000X-0.335876X-0.017678X-0.017678X-0.335876X0.335876X0.017678X0.017678X0.335876X0*%
%ADD26RoundRect,0.225000X-0.250000X0.225000X-0.250000X-0.225000X0.250000X-0.225000X0.250000X0.225000X0*%
%ADD27RoundRect,0.225000X0.225000X0.250000X-0.225000X0.250000X-0.225000X-0.250000X0.225000X-0.250000X0*%
%ADD28RoundRect,0.200000X0.200000X0.275000X-0.200000X0.275000X-0.200000X-0.275000X0.200000X-0.275000X0*%
%ADD29RoundRect,0.375000X-0.375000X0.625000X-0.375000X-0.625000X0.375000X-0.625000X0.375000X0.625000X0*%
%ADD30RoundRect,0.500000X-1.400000X0.500000X-1.400000X-0.500000X1.400000X-0.500000X1.400000X0.500000X0*%
%ADD31RoundRect,0.050000X0.387500X0.050000X-0.387500X0.050000X-0.387500X-0.050000X0.387500X-0.050000X0*%
%ADD32RoundRect,0.050000X0.050000X0.387500X-0.050000X0.387500X-0.050000X-0.387500X0.050000X-0.387500X0*%
%ADD33R,3.200000X3.200000*%
%ADD34RoundRect,0.200000X-0.200000X-0.275000X0.200000X-0.275000X0.200000X0.275000X-0.200000X0.275000X0*%
%ADD35RoundRect,0.150000X0.650000X0.150000X-0.650000X0.150000X-0.650000X-0.150000X0.650000X-0.150000X0*%
%ADD36R,1.800000X1.200000*%
%ADD37R,1.550000X0.600000*%
G04 APERTURE END LIST*
D10*
X126756069Y-91495714D02*
X125756069Y-91495714D01*
X125756069Y-91495714D02*
X125756069Y-91733809D01*
X125756069Y-91733809D02*
X125803688Y-91876666D01*
X125803688Y-91876666D02*
X125898926Y-91971904D01*
X125898926Y-91971904D02*
X125994164Y-92019523D01*
X125994164Y-92019523D02*
X126184640Y-92067142D01*
X126184640Y-92067142D02*
X126327497Y-92067142D01*
X126327497Y-92067142D02*
X126517973Y-92019523D01*
X126517973Y-92019523D02*
X126613211Y-91971904D01*
X126613211Y-91971904D02*
X126708450Y-91876666D01*
X126708450Y-91876666D02*
X126756069Y-91733809D01*
X126756069Y-91733809D02*
X126756069Y-91495714D01*
X125756069Y-92400476D02*
X125756069Y-93019523D01*
X125756069Y-93019523D02*
X126137021Y-92686190D01*
X126137021Y-92686190D02*
X126137021Y-92829047D01*
X126137021Y-92829047D02*
X126184640Y-92924285D01*
X126184640Y-92924285D02*
X126232259Y-92971904D01*
X126232259Y-92971904D02*
X126327497Y-93019523D01*
X126327497Y-93019523D02*
X126565592Y-93019523D01*
X126565592Y-93019523D02*
X126660830Y-92971904D01*
X126660830Y-92971904D02*
X126708450Y-92924285D01*
X126708450Y-92924285D02*
X126756069Y-92829047D01*
X126756069Y-92829047D02*
X126756069Y-92543333D01*
X126756069Y-92543333D02*
X126708450Y-92448095D01*
X126708450Y-92448095D02*
X126660830Y-92400476D01*
X126184640Y-93590952D02*
X126137021Y-93495714D01*
X126137021Y-93495714D02*
X126089402Y-93448095D01*
X126089402Y-93448095D02*
X125994164Y-93400476D01*
X125994164Y-93400476D02*
X125946545Y-93400476D01*
X125946545Y-93400476D02*
X125851307Y-93448095D01*
X125851307Y-93448095D02*
X125803688Y-93495714D01*
X125803688Y-93495714D02*
X125756069Y-93590952D01*
X125756069Y-93590952D02*
X125756069Y-93781428D01*
X125756069Y-93781428D02*
X125803688Y-93876666D01*
X125803688Y-93876666D02*
X125851307Y-93924285D01*
X125851307Y-93924285D02*
X125946545Y-93971904D01*
X125946545Y-93971904D02*
X125994164Y-93971904D01*
X125994164Y-93971904D02*
X126089402Y-93924285D01*
X126089402Y-93924285D02*
X126137021Y-93876666D01*
X126137021Y-93876666D02*
X126184640Y-93781428D01*
X126184640Y-93781428D02*
X126184640Y-93590952D01*
X126184640Y-93590952D02*
X126232259Y-93495714D01*
X126232259Y-93495714D02*
X126279878Y-93448095D01*
X126279878Y-93448095D02*
X126375116Y-93400476D01*
X126375116Y-93400476D02*
X126565592Y-93400476D01*
X126565592Y-93400476D02*
X126660830Y-93448095D01*
X126660830Y-93448095D02*
X126708450Y-93495714D01*
X126708450Y-93495714D02*
X126756069Y-93590952D01*
X126756069Y-93590952D02*
X126756069Y-93781428D01*
X126756069Y-93781428D02*
X126708450Y-93876666D01*
X126708450Y-93876666D02*
X126660830Y-93924285D01*
X126660830Y-93924285D02*
X126565592Y-93971904D01*
X126565592Y-93971904D02*
X126375116Y-93971904D01*
X126375116Y-93971904D02*
X126279878Y-93924285D01*
X126279878Y-93924285D02*
X126232259Y-93876666D01*
X126232259Y-93876666D02*
X126184640Y-93781428D01*
X249690830Y-86457142D02*
X249738450Y-86409523D01*
X249738450Y-86409523D02*
X249786069Y-86266666D01*
X249786069Y-86266666D02*
X249786069Y-86171428D01*
X249786069Y-86171428D02*
X249738450Y-86028571D01*
X249738450Y-86028571D02*
X249643211Y-85933333D01*
X249643211Y-85933333D02*
X249547973Y-85885714D01*
X249547973Y-85885714D02*
X249357497Y-85838095D01*
X249357497Y-85838095D02*
X249214640Y-85838095D01*
X249214640Y-85838095D02*
X249024164Y-85885714D01*
X249024164Y-85885714D02*
X248928926Y-85933333D01*
X248928926Y-85933333D02*
X248833688Y-86028571D01*
X248833688Y-86028571D02*
X248786069Y-86171428D01*
X248786069Y-86171428D02*
X248786069Y-86266666D01*
X248786069Y-86266666D02*
X248833688Y-86409523D01*
X248833688Y-86409523D02*
X248881307Y-86457142D01*
X249786069Y-87409523D02*
X249786069Y-86838095D01*
X249786069Y-87123809D02*
X248786069Y-87123809D01*
X248786069Y-87123809D02*
X248928926Y-87028571D01*
X248928926Y-87028571D02*
X249024164Y-86933333D01*
X249024164Y-86933333D02*
X249071783Y-86838095D01*
X249214640Y-87980952D02*
X249167021Y-87885714D01*
X249167021Y-87885714D02*
X249119402Y-87838095D01*
X249119402Y-87838095D02*
X249024164Y-87790476D01*
X249024164Y-87790476D02*
X248976545Y-87790476D01*
X248976545Y-87790476D02*
X248881307Y-87838095D01*
X248881307Y-87838095D02*
X248833688Y-87885714D01*
X248833688Y-87885714D02*
X248786069Y-87980952D01*
X248786069Y-87980952D02*
X248786069Y-88171428D01*
X248786069Y-88171428D02*
X248833688Y-88266666D01*
X248833688Y-88266666D02*
X248881307Y-88314285D01*
X248881307Y-88314285D02*
X248976545Y-88361904D01*
X248976545Y-88361904D02*
X249024164Y-88361904D01*
X249024164Y-88361904D02*
X249119402Y-88314285D01*
X249119402Y-88314285D02*
X249167021Y-88266666D01*
X249167021Y-88266666D02*
X249214640Y-88171428D01*
X249214640Y-88171428D02*
X249214640Y-87980952D01*
X249214640Y-87980952D02*
X249262259Y-87885714D01*
X249262259Y-87885714D02*
X249309878Y-87838095D01*
X249309878Y-87838095D02*
X249405116Y-87790476D01*
X249405116Y-87790476D02*
X249595592Y-87790476D01*
X249595592Y-87790476D02*
X249690830Y-87838095D01*
X249690830Y-87838095D02*
X249738450Y-87885714D01*
X249738450Y-87885714D02*
X249786069Y-87980952D01*
X249786069Y-87980952D02*
X249786069Y-88171428D01*
X249786069Y-88171428D02*
X249738450Y-88266666D01*
X249738450Y-88266666D02*
X249690830Y-88314285D01*
X249690830Y-88314285D02*
X249595592Y-88361904D01*
X249595592Y-88361904D02*
X249405116Y-88361904D01*
X249405116Y-88361904D02*
X249309878Y-88314285D01*
X249309878Y-88314285D02*
X249262259Y-88266666D01*
X249262259Y-88266666D02*
X249214640Y-88171428D01*
X261440830Y-100382142D02*
X261488450Y-100334523D01*
X261488450Y-100334523D02*
X261536069Y-100191666D01*
X261536069Y-100191666D02*
X261536069Y-100096428D01*
X261536069Y-100096428D02*
X261488450Y-99953571D01*
X261488450Y-99953571D02*
X261393211Y-99858333D01*
X261393211Y-99858333D02*
X261297973Y-99810714D01*
X261297973Y-99810714D02*
X261107497Y-99763095D01*
X261107497Y-99763095D02*
X260964640Y-99763095D01*
X260964640Y-99763095D02*
X260774164Y-99810714D01*
X260774164Y-99810714D02*
X260678926Y-99858333D01*
X260678926Y-99858333D02*
X260583688Y-99953571D01*
X260583688Y-99953571D02*
X260536069Y-100096428D01*
X260536069Y-100096428D02*
X260536069Y-100191666D01*
X260536069Y-100191666D02*
X260583688Y-100334523D01*
X260583688Y-100334523D02*
X260631307Y-100382142D01*
X261536069Y-101334523D02*
X261536069Y-100763095D01*
X261536069Y-101048809D02*
X260536069Y-101048809D01*
X260536069Y-101048809D02*
X260678926Y-100953571D01*
X260678926Y-100953571D02*
X260774164Y-100858333D01*
X260774164Y-100858333D02*
X260821783Y-100763095D01*
X260631307Y-101715476D02*
X260583688Y-101763095D01*
X260583688Y-101763095D02*
X260536069Y-101858333D01*
X260536069Y-101858333D02*
X260536069Y-102096428D01*
X260536069Y-102096428D02*
X260583688Y-102191666D01*
X260583688Y-102191666D02*
X260631307Y-102239285D01*
X260631307Y-102239285D02*
X260726545Y-102286904D01*
X260726545Y-102286904D02*
X260821783Y-102286904D01*
X260821783Y-102286904D02*
X260964640Y-102239285D01*
X260964640Y-102239285D02*
X261536069Y-101667857D01*
X261536069Y-101667857D02*
X261536069Y-102286904D01*
X93577319Y-53316339D02*
X92577319Y-53316339D01*
X92577319Y-53316339D02*
X92577319Y-53554434D01*
X92577319Y-53554434D02*
X92624938Y-53697291D01*
X92624938Y-53697291D02*
X92720176Y-53792529D01*
X92720176Y-53792529D02*
X92815414Y-53840148D01*
X92815414Y-53840148D02*
X93005890Y-53887767D01*
X93005890Y-53887767D02*
X93148747Y-53887767D01*
X93148747Y-53887767D02*
X93339223Y-53840148D01*
X93339223Y-53840148D02*
X93434461Y-53792529D01*
X93434461Y-53792529D02*
X93529700Y-53697291D01*
X93529700Y-53697291D02*
X93577319Y-53554434D01*
X93577319Y-53554434D02*
X93577319Y-53316339D01*
X93577319Y-54840148D02*
X93577319Y-54268720D01*
X93577319Y-54554434D02*
X92577319Y-54554434D01*
X92577319Y-54554434D02*
X92720176Y-54459196D01*
X92720176Y-54459196D02*
X92815414Y-54363958D01*
X92815414Y-54363958D02*
X92863033Y-54268720D01*
X92577319Y-55744910D02*
X92577319Y-55268720D01*
X92577319Y-55268720D02*
X93053509Y-55221101D01*
X93053509Y-55221101D02*
X93005890Y-55268720D01*
X93005890Y-55268720D02*
X92958271Y-55363958D01*
X92958271Y-55363958D02*
X92958271Y-55602053D01*
X92958271Y-55602053D02*
X93005890Y-55697291D01*
X93005890Y-55697291D02*
X93053509Y-55744910D01*
X93053509Y-55744910D02*
X93148747Y-55792529D01*
X93148747Y-55792529D02*
X93386842Y-55792529D01*
X93386842Y-55792529D02*
X93482080Y-55744910D01*
X93482080Y-55744910D02*
X93529700Y-55697291D01*
X93529700Y-55697291D02*
X93577319Y-55602053D01*
X93577319Y-55602053D02*
X93577319Y-55363958D01*
X93577319Y-55363958D02*
X93529700Y-55268720D01*
X93529700Y-55268720D02*
X93482080Y-55221101D01*
X222164819Y-34266339D02*
X221164819Y-34266339D01*
X221164819Y-34266339D02*
X221164819Y-34504434D01*
X221164819Y-34504434D02*
X221212438Y-34647291D01*
X221212438Y-34647291D02*
X221307676Y-34742529D01*
X221307676Y-34742529D02*
X221402914Y-34790148D01*
X221402914Y-34790148D02*
X221593390Y-34837767D01*
X221593390Y-34837767D02*
X221736247Y-34837767D01*
X221736247Y-34837767D02*
X221926723Y-34790148D01*
X221926723Y-34790148D02*
X222021961Y-34742529D01*
X222021961Y-34742529D02*
X222117200Y-34647291D01*
X222117200Y-34647291D02*
X222164819Y-34504434D01*
X222164819Y-34504434D02*
X222164819Y-34266339D01*
X222164819Y-35790148D02*
X222164819Y-35218720D01*
X222164819Y-35504434D02*
X221164819Y-35504434D01*
X221164819Y-35504434D02*
X221307676Y-35409196D01*
X221307676Y-35409196D02*
X221402914Y-35313958D01*
X221402914Y-35313958D02*
X221450533Y-35218720D01*
X221164819Y-36409196D02*
X221164819Y-36504434D01*
X221164819Y-36504434D02*
X221212438Y-36599672D01*
X221212438Y-36599672D02*
X221260057Y-36647291D01*
X221260057Y-36647291D02*
X221355295Y-36694910D01*
X221355295Y-36694910D02*
X221545771Y-36742529D01*
X221545771Y-36742529D02*
X221783866Y-36742529D01*
X221783866Y-36742529D02*
X221974342Y-36694910D01*
X221974342Y-36694910D02*
X222069580Y-36647291D01*
X222069580Y-36647291D02*
X222117200Y-36599672D01*
X222117200Y-36599672D02*
X222164819Y-36504434D01*
X222164819Y-36504434D02*
X222164819Y-36409196D01*
X222164819Y-36409196D02*
X222117200Y-36313958D01*
X222117200Y-36313958D02*
X222069580Y-36266339D01*
X222069580Y-36266339D02*
X221974342Y-36218720D01*
X221974342Y-36218720D02*
X221783866Y-36171101D01*
X221783866Y-36171101D02*
X221545771Y-36171101D01*
X221545771Y-36171101D02*
X221355295Y-36218720D01*
X221355295Y-36218720D02*
X221260057Y-36266339D01*
X221260057Y-36266339D02*
X221212438Y-36313958D01*
X221212438Y-36313958D02*
X221164819Y-36409196D01*
X49014582Y-82607200D02*
X48871725Y-82654819D01*
X48871725Y-82654819D02*
X48633630Y-82654819D01*
X48633630Y-82654819D02*
X48538392Y-82607200D01*
X48538392Y-82607200D02*
X48490773Y-82559580D01*
X48490773Y-82559580D02*
X48443154Y-82464342D01*
X48443154Y-82464342D02*
X48443154Y-82369104D01*
X48443154Y-82369104D02*
X48490773Y-82273866D01*
X48490773Y-82273866D02*
X48538392Y-82226247D01*
X48538392Y-82226247D02*
X48633630Y-82178628D01*
X48633630Y-82178628D02*
X48824106Y-82131009D01*
X48824106Y-82131009D02*
X48919344Y-82083390D01*
X48919344Y-82083390D02*
X48966963Y-82035771D01*
X48966963Y-82035771D02*
X49014582Y-81940533D01*
X49014582Y-81940533D02*
X49014582Y-81845295D01*
X49014582Y-81845295D02*
X48966963Y-81750057D01*
X48966963Y-81750057D02*
X48919344Y-81702438D01*
X48919344Y-81702438D02*
X48824106Y-81654819D01*
X48824106Y-81654819D02*
X48586011Y-81654819D01*
X48586011Y-81654819D02*
X48443154Y-81702438D01*
X48109820Y-81654819D02*
X47871725Y-82654819D01*
X47871725Y-82654819D02*
X47681249Y-81940533D01*
X47681249Y-81940533D02*
X47490773Y-82654819D01*
X47490773Y-82654819D02*
X47252678Y-81654819D01*
X46347916Y-82654819D02*
X46919344Y-82654819D01*
X46633630Y-82654819D02*
X46633630Y-81654819D01*
X46633630Y-81654819D02*
X46728868Y-81797676D01*
X46728868Y-81797676D02*
X46824106Y-81892914D01*
X46824106Y-81892914D02*
X46919344Y-81940533D01*
X160252319Y-72763214D02*
X159252319Y-72763214D01*
X159252319Y-72763214D02*
X159252319Y-73001309D01*
X159252319Y-73001309D02*
X159299938Y-73144166D01*
X159299938Y-73144166D02*
X159395176Y-73239404D01*
X159395176Y-73239404D02*
X159490414Y-73287023D01*
X159490414Y-73287023D02*
X159680890Y-73334642D01*
X159680890Y-73334642D02*
X159823747Y-73334642D01*
X159823747Y-73334642D02*
X160014223Y-73287023D01*
X160014223Y-73287023D02*
X160109461Y-73239404D01*
X160109461Y-73239404D02*
X160204700Y-73144166D01*
X160204700Y-73144166D02*
X160252319Y-73001309D01*
X160252319Y-73001309D02*
X160252319Y-72763214D01*
X159252319Y-73667976D02*
X159252319Y-74287023D01*
X159252319Y-74287023D02*
X159633271Y-73953690D01*
X159633271Y-73953690D02*
X159633271Y-74096547D01*
X159633271Y-74096547D02*
X159680890Y-74191785D01*
X159680890Y-74191785D02*
X159728509Y-74239404D01*
X159728509Y-74239404D02*
X159823747Y-74287023D01*
X159823747Y-74287023D02*
X160061842Y-74287023D01*
X160061842Y-74287023D02*
X160157080Y-74239404D01*
X160157080Y-74239404D02*
X160204700Y-74191785D01*
X160204700Y-74191785D02*
X160252319Y-74096547D01*
X160252319Y-74096547D02*
X160252319Y-73810833D01*
X160252319Y-73810833D02*
X160204700Y-73715595D01*
X160204700Y-73715595D02*
X160157080Y-73667976D01*
X159252319Y-74906071D02*
X159252319Y-75001309D01*
X159252319Y-75001309D02*
X159299938Y-75096547D01*
X159299938Y-75096547D02*
X159347557Y-75144166D01*
X159347557Y-75144166D02*
X159442795Y-75191785D01*
X159442795Y-75191785D02*
X159633271Y-75239404D01*
X159633271Y-75239404D02*
X159871366Y-75239404D01*
X159871366Y-75239404D02*
X160061842Y-75191785D01*
X160061842Y-75191785D02*
X160157080Y-75144166D01*
X160157080Y-75144166D02*
X160204700Y-75096547D01*
X160204700Y-75096547D02*
X160252319Y-75001309D01*
X160252319Y-75001309D02*
X160252319Y-74906071D01*
X160252319Y-74906071D02*
X160204700Y-74810833D01*
X160204700Y-74810833D02*
X160157080Y-74763214D01*
X160157080Y-74763214D02*
X160061842Y-74715595D01*
X160061842Y-74715595D02*
X159871366Y-74667976D01*
X159871366Y-74667976D02*
X159633271Y-74667976D01*
X159633271Y-74667976D02*
X159442795Y-74715595D01*
X159442795Y-74715595D02*
X159347557Y-74763214D01*
X159347557Y-74763214D02*
X159299938Y-74810833D01*
X159299938Y-74810833D02*
X159252319Y-74906071D01*
X184064819Y-34742530D02*
X183064819Y-34742530D01*
X183064819Y-34742530D02*
X183064819Y-34980625D01*
X183064819Y-34980625D02*
X183112438Y-35123482D01*
X183112438Y-35123482D02*
X183207676Y-35218720D01*
X183207676Y-35218720D02*
X183302914Y-35266339D01*
X183302914Y-35266339D02*
X183493390Y-35313958D01*
X183493390Y-35313958D02*
X183636247Y-35313958D01*
X183636247Y-35313958D02*
X183826723Y-35266339D01*
X183826723Y-35266339D02*
X183921961Y-35218720D01*
X183921961Y-35218720D02*
X184017200Y-35123482D01*
X184017200Y-35123482D02*
X184064819Y-34980625D01*
X184064819Y-34980625D02*
X184064819Y-34742530D01*
X183493390Y-35885387D02*
X183445771Y-35790149D01*
X183445771Y-35790149D02*
X183398152Y-35742530D01*
X183398152Y-35742530D02*
X183302914Y-35694911D01*
X183302914Y-35694911D02*
X183255295Y-35694911D01*
X183255295Y-35694911D02*
X183160057Y-35742530D01*
X183160057Y-35742530D02*
X183112438Y-35790149D01*
X183112438Y-35790149D02*
X183064819Y-35885387D01*
X183064819Y-35885387D02*
X183064819Y-36075863D01*
X183064819Y-36075863D02*
X183112438Y-36171101D01*
X183112438Y-36171101D02*
X183160057Y-36218720D01*
X183160057Y-36218720D02*
X183255295Y-36266339D01*
X183255295Y-36266339D02*
X183302914Y-36266339D01*
X183302914Y-36266339D02*
X183398152Y-36218720D01*
X183398152Y-36218720D02*
X183445771Y-36171101D01*
X183445771Y-36171101D02*
X183493390Y-36075863D01*
X183493390Y-36075863D02*
X183493390Y-35885387D01*
X183493390Y-35885387D02*
X183541009Y-35790149D01*
X183541009Y-35790149D02*
X183588628Y-35742530D01*
X183588628Y-35742530D02*
X183683866Y-35694911D01*
X183683866Y-35694911D02*
X183874342Y-35694911D01*
X183874342Y-35694911D02*
X183969580Y-35742530D01*
X183969580Y-35742530D02*
X184017200Y-35790149D01*
X184017200Y-35790149D02*
X184064819Y-35885387D01*
X184064819Y-35885387D02*
X184064819Y-36075863D01*
X184064819Y-36075863D02*
X184017200Y-36171101D01*
X184017200Y-36171101D02*
X183969580Y-36218720D01*
X183969580Y-36218720D02*
X183874342Y-36266339D01*
X183874342Y-36266339D02*
X183683866Y-36266339D01*
X183683866Y-36266339D02*
X183588628Y-36218720D01*
X183588628Y-36218720D02*
X183541009Y-36171101D01*
X183541009Y-36171101D02*
X183493390Y-36075863D01*
X98339819Y-91416339D02*
X97339819Y-91416339D01*
X97339819Y-91416339D02*
X97339819Y-91654434D01*
X97339819Y-91654434D02*
X97387438Y-91797291D01*
X97387438Y-91797291D02*
X97482676Y-91892529D01*
X97482676Y-91892529D02*
X97577914Y-91940148D01*
X97577914Y-91940148D02*
X97768390Y-91987767D01*
X97768390Y-91987767D02*
X97911247Y-91987767D01*
X97911247Y-91987767D02*
X98101723Y-91940148D01*
X98101723Y-91940148D02*
X98196961Y-91892529D01*
X98196961Y-91892529D02*
X98292200Y-91797291D01*
X98292200Y-91797291D02*
X98339819Y-91654434D01*
X98339819Y-91654434D02*
X98339819Y-91416339D01*
X97339819Y-92321101D02*
X97339819Y-92940148D01*
X97339819Y-92940148D02*
X97720771Y-92606815D01*
X97720771Y-92606815D02*
X97720771Y-92749672D01*
X97720771Y-92749672D02*
X97768390Y-92844910D01*
X97768390Y-92844910D02*
X97816009Y-92892529D01*
X97816009Y-92892529D02*
X97911247Y-92940148D01*
X97911247Y-92940148D02*
X98149342Y-92940148D01*
X98149342Y-92940148D02*
X98244580Y-92892529D01*
X98244580Y-92892529D02*
X98292200Y-92844910D01*
X98292200Y-92844910D02*
X98339819Y-92749672D01*
X98339819Y-92749672D02*
X98339819Y-92463958D01*
X98339819Y-92463958D02*
X98292200Y-92368720D01*
X98292200Y-92368720D02*
X98244580Y-92321101D01*
X97339819Y-93273482D02*
X97339819Y-93940148D01*
X97339819Y-93940148D02*
X98339819Y-93511577D01*
X50714819Y-34742530D02*
X49714819Y-34742530D01*
X49714819Y-34742530D02*
X49714819Y-34980625D01*
X49714819Y-34980625D02*
X49762438Y-35123482D01*
X49762438Y-35123482D02*
X49857676Y-35218720D01*
X49857676Y-35218720D02*
X49952914Y-35266339D01*
X49952914Y-35266339D02*
X50143390Y-35313958D01*
X50143390Y-35313958D02*
X50286247Y-35313958D01*
X50286247Y-35313958D02*
X50476723Y-35266339D01*
X50476723Y-35266339D02*
X50571961Y-35218720D01*
X50571961Y-35218720D02*
X50667200Y-35123482D01*
X50667200Y-35123482D02*
X50714819Y-34980625D01*
X50714819Y-34980625D02*
X50714819Y-34742530D01*
X50714819Y-36266339D02*
X50714819Y-35694911D01*
X50714819Y-35980625D02*
X49714819Y-35980625D01*
X49714819Y-35980625D02*
X49857676Y-35885387D01*
X49857676Y-35885387D02*
X49952914Y-35790149D01*
X49952914Y-35790149D02*
X50000533Y-35694911D01*
X217402319Y-72763214D02*
X216402319Y-72763214D01*
X216402319Y-72763214D02*
X216402319Y-73001309D01*
X216402319Y-73001309D02*
X216449938Y-73144166D01*
X216449938Y-73144166D02*
X216545176Y-73239404D01*
X216545176Y-73239404D02*
X216640414Y-73287023D01*
X216640414Y-73287023D02*
X216830890Y-73334642D01*
X216830890Y-73334642D02*
X216973747Y-73334642D01*
X216973747Y-73334642D02*
X217164223Y-73287023D01*
X217164223Y-73287023D02*
X217259461Y-73239404D01*
X217259461Y-73239404D02*
X217354700Y-73144166D01*
X217354700Y-73144166D02*
X217402319Y-73001309D01*
X217402319Y-73001309D02*
X217402319Y-72763214D01*
X216402319Y-73667976D02*
X216402319Y-74287023D01*
X216402319Y-74287023D02*
X216783271Y-73953690D01*
X216783271Y-73953690D02*
X216783271Y-74096547D01*
X216783271Y-74096547D02*
X216830890Y-74191785D01*
X216830890Y-74191785D02*
X216878509Y-74239404D01*
X216878509Y-74239404D02*
X216973747Y-74287023D01*
X216973747Y-74287023D02*
X217211842Y-74287023D01*
X217211842Y-74287023D02*
X217307080Y-74239404D01*
X217307080Y-74239404D02*
X217354700Y-74191785D01*
X217354700Y-74191785D02*
X217402319Y-74096547D01*
X217402319Y-74096547D02*
X217402319Y-73810833D01*
X217402319Y-73810833D02*
X217354700Y-73715595D01*
X217354700Y-73715595D02*
X217307080Y-73667976D01*
X216402319Y-74620357D02*
X216402319Y-75239404D01*
X216402319Y-75239404D02*
X216783271Y-74906071D01*
X216783271Y-74906071D02*
X216783271Y-75048928D01*
X216783271Y-75048928D02*
X216830890Y-75144166D01*
X216830890Y-75144166D02*
X216878509Y-75191785D01*
X216878509Y-75191785D02*
X216973747Y-75239404D01*
X216973747Y-75239404D02*
X217211842Y-75239404D01*
X217211842Y-75239404D02*
X217307080Y-75191785D01*
X217307080Y-75191785D02*
X217354700Y-75144166D01*
X217354700Y-75144166D02*
X217402319Y-75048928D01*
X217402319Y-75048928D02*
X217402319Y-74763214D01*
X217402319Y-74763214D02*
X217354700Y-74667976D01*
X217354700Y-74667976D02*
X217307080Y-74620357D01*
X259901691Y-86614374D02*
X259969035Y-86614374D01*
X259969035Y-86614374D02*
X260103722Y-86547030D01*
X260103722Y-86547030D02*
X260171065Y-86479687D01*
X260171065Y-86479687D02*
X260238409Y-86345000D01*
X260238409Y-86345000D02*
X260238409Y-86210313D01*
X260238409Y-86210313D02*
X260204737Y-86109298D01*
X260204737Y-86109298D02*
X260103722Y-85940939D01*
X260103722Y-85940939D02*
X260002707Y-85839924D01*
X260002707Y-85839924D02*
X259834348Y-85738908D01*
X259834348Y-85738908D02*
X259733333Y-85705237D01*
X259733333Y-85705237D02*
X259598646Y-85705237D01*
X259598646Y-85705237D02*
X259463959Y-85772580D01*
X259463959Y-85772580D02*
X259396615Y-85839924D01*
X259396615Y-85839924D02*
X259329272Y-85974611D01*
X259329272Y-85974611D02*
X259329272Y-86041954D01*
X259295600Y-87355152D02*
X259699661Y-86951091D01*
X259497630Y-87153122D02*
X258790524Y-86446015D01*
X258790524Y-86446015D02*
X258958882Y-86479687D01*
X258958882Y-86479687D02*
X259093569Y-86479687D01*
X259093569Y-86479687D02*
X259194585Y-86446015D01*
X258218104Y-87489840D02*
X258689508Y-87961244D01*
X258117088Y-87052107D02*
X258790523Y-87388824D01*
X258790523Y-87388824D02*
X258352791Y-87826557D01*
X223886069Y-55860714D02*
X222886069Y-55860714D01*
X222886069Y-55860714D02*
X222886069Y-56098809D01*
X222886069Y-56098809D02*
X222933688Y-56241666D01*
X222933688Y-56241666D02*
X223028926Y-56336904D01*
X223028926Y-56336904D02*
X223124164Y-56384523D01*
X223124164Y-56384523D02*
X223314640Y-56432142D01*
X223314640Y-56432142D02*
X223457497Y-56432142D01*
X223457497Y-56432142D02*
X223647973Y-56384523D01*
X223647973Y-56384523D02*
X223743211Y-56336904D01*
X223743211Y-56336904D02*
X223838450Y-56241666D01*
X223838450Y-56241666D02*
X223886069Y-56098809D01*
X223886069Y-56098809D02*
X223886069Y-55860714D01*
X222981307Y-56813095D02*
X222933688Y-56860714D01*
X222933688Y-56860714D02*
X222886069Y-56955952D01*
X222886069Y-56955952D02*
X222886069Y-57194047D01*
X222886069Y-57194047D02*
X222933688Y-57289285D01*
X222933688Y-57289285D02*
X222981307Y-57336904D01*
X222981307Y-57336904D02*
X223076545Y-57384523D01*
X223076545Y-57384523D02*
X223171783Y-57384523D01*
X223171783Y-57384523D02*
X223314640Y-57336904D01*
X223314640Y-57336904D02*
X223886069Y-56765476D01*
X223886069Y-56765476D02*
X223886069Y-57384523D01*
X222981307Y-57765476D02*
X222933688Y-57813095D01*
X222933688Y-57813095D02*
X222886069Y-57908333D01*
X222886069Y-57908333D02*
X222886069Y-58146428D01*
X222886069Y-58146428D02*
X222933688Y-58241666D01*
X222933688Y-58241666D02*
X222981307Y-58289285D01*
X222981307Y-58289285D02*
X223076545Y-58336904D01*
X223076545Y-58336904D02*
X223171783Y-58336904D01*
X223171783Y-58336904D02*
X223314640Y-58289285D01*
X223314640Y-58289285D02*
X223886069Y-57717857D01*
X223886069Y-57717857D02*
X223886069Y-58336904D01*
X265027319Y-53316339D02*
X264027319Y-53316339D01*
X264027319Y-53316339D02*
X264027319Y-53554434D01*
X264027319Y-53554434D02*
X264074938Y-53697291D01*
X264074938Y-53697291D02*
X264170176Y-53792529D01*
X264170176Y-53792529D02*
X264265414Y-53840148D01*
X264265414Y-53840148D02*
X264455890Y-53887767D01*
X264455890Y-53887767D02*
X264598747Y-53887767D01*
X264598747Y-53887767D02*
X264789223Y-53840148D01*
X264789223Y-53840148D02*
X264884461Y-53792529D01*
X264884461Y-53792529D02*
X264979700Y-53697291D01*
X264979700Y-53697291D02*
X265027319Y-53554434D01*
X265027319Y-53554434D02*
X265027319Y-53316339D01*
X264122557Y-54268720D02*
X264074938Y-54316339D01*
X264074938Y-54316339D02*
X264027319Y-54411577D01*
X264027319Y-54411577D02*
X264027319Y-54649672D01*
X264027319Y-54649672D02*
X264074938Y-54744910D01*
X264074938Y-54744910D02*
X264122557Y-54792529D01*
X264122557Y-54792529D02*
X264217795Y-54840148D01*
X264217795Y-54840148D02*
X264313033Y-54840148D01*
X264313033Y-54840148D02*
X264455890Y-54792529D01*
X264455890Y-54792529D02*
X265027319Y-54221101D01*
X265027319Y-54221101D02*
X265027319Y-54840148D01*
X264360652Y-55697291D02*
X265027319Y-55697291D01*
X263979700Y-55459196D02*
X264693985Y-55221101D01*
X264693985Y-55221101D02*
X264693985Y-55840148D01*
X251286069Y-102958333D02*
X250809878Y-102625000D01*
X251286069Y-102386905D02*
X250286069Y-102386905D01*
X250286069Y-102386905D02*
X250286069Y-102767857D01*
X250286069Y-102767857D02*
X250333688Y-102863095D01*
X250333688Y-102863095D02*
X250381307Y-102910714D01*
X250381307Y-102910714D02*
X250476545Y-102958333D01*
X250476545Y-102958333D02*
X250619402Y-102958333D01*
X250619402Y-102958333D02*
X250714640Y-102910714D01*
X250714640Y-102910714D02*
X250762259Y-102863095D01*
X250762259Y-102863095D02*
X250809878Y-102767857D01*
X250809878Y-102767857D02*
X250809878Y-102386905D01*
X250286069Y-103863095D02*
X250286069Y-103386905D01*
X250286069Y-103386905D02*
X250762259Y-103339286D01*
X250762259Y-103339286D02*
X250714640Y-103386905D01*
X250714640Y-103386905D02*
X250667021Y-103482143D01*
X250667021Y-103482143D02*
X250667021Y-103720238D01*
X250667021Y-103720238D02*
X250714640Y-103815476D01*
X250714640Y-103815476D02*
X250762259Y-103863095D01*
X250762259Y-103863095D02*
X250857497Y-103910714D01*
X250857497Y-103910714D02*
X251095592Y-103910714D01*
X251095592Y-103910714D02*
X251190830Y-103863095D01*
X251190830Y-103863095D02*
X251238450Y-103815476D01*
X251238450Y-103815476D02*
X251286069Y-103720238D01*
X251286069Y-103720238D02*
X251286069Y-103482143D01*
X251286069Y-103482143D02*
X251238450Y-103386905D01*
X251238450Y-103386905D02*
X251190830Y-103339286D01*
X255936069Y-68760714D02*
X254936069Y-68760714D01*
X254936069Y-68760714D02*
X254936069Y-68998809D01*
X254936069Y-68998809D02*
X254983688Y-69141666D01*
X254983688Y-69141666D02*
X255078926Y-69236904D01*
X255078926Y-69236904D02*
X255174164Y-69284523D01*
X255174164Y-69284523D02*
X255364640Y-69332142D01*
X255364640Y-69332142D02*
X255507497Y-69332142D01*
X255507497Y-69332142D02*
X255697973Y-69284523D01*
X255697973Y-69284523D02*
X255793211Y-69236904D01*
X255793211Y-69236904D02*
X255888450Y-69141666D01*
X255888450Y-69141666D02*
X255936069Y-68998809D01*
X255936069Y-68998809D02*
X255936069Y-68760714D01*
X254936069Y-69665476D02*
X254936069Y-70284523D01*
X254936069Y-70284523D02*
X255317021Y-69951190D01*
X255317021Y-69951190D02*
X255317021Y-70094047D01*
X255317021Y-70094047D02*
X255364640Y-70189285D01*
X255364640Y-70189285D02*
X255412259Y-70236904D01*
X255412259Y-70236904D02*
X255507497Y-70284523D01*
X255507497Y-70284523D02*
X255745592Y-70284523D01*
X255745592Y-70284523D02*
X255840830Y-70236904D01*
X255840830Y-70236904D02*
X255888450Y-70189285D01*
X255888450Y-70189285D02*
X255936069Y-70094047D01*
X255936069Y-70094047D02*
X255936069Y-69808333D01*
X255936069Y-69808333D02*
X255888450Y-69713095D01*
X255888450Y-69713095D02*
X255840830Y-69665476D01*
X254936069Y-71189285D02*
X254936069Y-70713095D01*
X254936069Y-70713095D02*
X255412259Y-70665476D01*
X255412259Y-70665476D02*
X255364640Y-70713095D01*
X255364640Y-70713095D02*
X255317021Y-70808333D01*
X255317021Y-70808333D02*
X255317021Y-71046428D01*
X255317021Y-71046428D02*
X255364640Y-71141666D01*
X255364640Y-71141666D02*
X255412259Y-71189285D01*
X255412259Y-71189285D02*
X255507497Y-71236904D01*
X255507497Y-71236904D02*
X255745592Y-71236904D01*
X255745592Y-71236904D02*
X255840830Y-71189285D01*
X255840830Y-71189285D02*
X255888450Y-71141666D01*
X255888450Y-71141666D02*
X255936069Y-71046428D01*
X255936069Y-71046428D02*
X255936069Y-70808333D01*
X255936069Y-70808333D02*
X255888450Y-70713095D01*
X255888450Y-70713095D02*
X255840830Y-70665476D01*
X165014819Y-34742530D02*
X164014819Y-34742530D01*
X164014819Y-34742530D02*
X164014819Y-34980625D01*
X164014819Y-34980625D02*
X164062438Y-35123482D01*
X164062438Y-35123482D02*
X164157676Y-35218720D01*
X164157676Y-35218720D02*
X164252914Y-35266339D01*
X164252914Y-35266339D02*
X164443390Y-35313958D01*
X164443390Y-35313958D02*
X164586247Y-35313958D01*
X164586247Y-35313958D02*
X164776723Y-35266339D01*
X164776723Y-35266339D02*
X164871961Y-35218720D01*
X164871961Y-35218720D02*
X164967200Y-35123482D01*
X164967200Y-35123482D02*
X165014819Y-34980625D01*
X165014819Y-34980625D02*
X165014819Y-34742530D01*
X164014819Y-35647292D02*
X164014819Y-36313958D01*
X164014819Y-36313958D02*
X165014819Y-35885387D01*
X141202319Y-72763214D02*
X140202319Y-72763214D01*
X140202319Y-72763214D02*
X140202319Y-73001309D01*
X140202319Y-73001309D02*
X140249938Y-73144166D01*
X140249938Y-73144166D02*
X140345176Y-73239404D01*
X140345176Y-73239404D02*
X140440414Y-73287023D01*
X140440414Y-73287023D02*
X140630890Y-73334642D01*
X140630890Y-73334642D02*
X140773747Y-73334642D01*
X140773747Y-73334642D02*
X140964223Y-73287023D01*
X140964223Y-73287023D02*
X141059461Y-73239404D01*
X141059461Y-73239404D02*
X141154700Y-73144166D01*
X141154700Y-73144166D02*
X141202319Y-73001309D01*
X141202319Y-73001309D02*
X141202319Y-72763214D01*
X140297557Y-73715595D02*
X140249938Y-73763214D01*
X140249938Y-73763214D02*
X140202319Y-73858452D01*
X140202319Y-73858452D02*
X140202319Y-74096547D01*
X140202319Y-74096547D02*
X140249938Y-74191785D01*
X140249938Y-74191785D02*
X140297557Y-74239404D01*
X140297557Y-74239404D02*
X140392795Y-74287023D01*
X140392795Y-74287023D02*
X140488033Y-74287023D01*
X140488033Y-74287023D02*
X140630890Y-74239404D01*
X140630890Y-74239404D02*
X141202319Y-73667976D01*
X141202319Y-73667976D02*
X141202319Y-74287023D01*
X141202319Y-74763214D02*
X141202319Y-74953690D01*
X141202319Y-74953690D02*
X141154700Y-75048928D01*
X141154700Y-75048928D02*
X141107080Y-75096547D01*
X141107080Y-75096547D02*
X140964223Y-75191785D01*
X140964223Y-75191785D02*
X140773747Y-75239404D01*
X140773747Y-75239404D02*
X140392795Y-75239404D01*
X140392795Y-75239404D02*
X140297557Y-75191785D01*
X140297557Y-75191785D02*
X140249938Y-75144166D01*
X140249938Y-75144166D02*
X140202319Y-75048928D01*
X140202319Y-75048928D02*
X140202319Y-74858452D01*
X140202319Y-74858452D02*
X140249938Y-74763214D01*
X140249938Y-74763214D02*
X140297557Y-74715595D01*
X140297557Y-74715595D02*
X140392795Y-74667976D01*
X140392795Y-74667976D02*
X140630890Y-74667976D01*
X140630890Y-74667976D02*
X140726128Y-74715595D01*
X140726128Y-74715595D02*
X140773747Y-74763214D01*
X140773747Y-74763214D02*
X140821366Y-74858452D01*
X140821366Y-74858452D02*
X140821366Y-75048928D01*
X140821366Y-75048928D02*
X140773747Y-75144166D01*
X140773747Y-75144166D02*
X140726128Y-75191785D01*
X140726128Y-75191785D02*
X140630890Y-75239404D01*
X244677495Y-84064456D02*
X245249914Y-83963441D01*
X245081556Y-84468517D02*
X245788662Y-83761410D01*
X245788662Y-83761410D02*
X245519288Y-83492036D01*
X245519288Y-83492036D02*
X245418273Y-83458364D01*
X245418273Y-83458364D02*
X245350930Y-83458364D01*
X245350930Y-83458364D02*
X245249914Y-83492036D01*
X245249914Y-83492036D02*
X245148899Y-83593051D01*
X245148899Y-83593051D02*
X245115227Y-83694067D01*
X245115227Y-83694067D02*
X245115227Y-83761410D01*
X245115227Y-83761410D02*
X245148899Y-83862425D01*
X245148899Y-83862425D02*
X245418273Y-84131799D01*
X245148899Y-83121647D02*
X244711166Y-82683914D01*
X244711166Y-82683914D02*
X244677495Y-83188990D01*
X244677495Y-83188990D02*
X244576479Y-83087975D01*
X244576479Y-83087975D02*
X244475464Y-83054303D01*
X244475464Y-83054303D02*
X244408121Y-83054303D01*
X244408121Y-83054303D02*
X244307105Y-83087975D01*
X244307105Y-83087975D02*
X244138747Y-83256334D01*
X244138747Y-83256334D02*
X244105075Y-83357349D01*
X244105075Y-83357349D02*
X244105075Y-83424693D01*
X244105075Y-83424693D02*
X244138747Y-83525708D01*
X244138747Y-83525708D02*
X244340777Y-83727738D01*
X244340777Y-83727738D02*
X244441792Y-83761410D01*
X244441792Y-83761410D02*
X244509136Y-83761410D01*
X243424107Y-96334580D02*
X243471726Y-96382200D01*
X243471726Y-96382200D02*
X243614583Y-96429819D01*
X243614583Y-96429819D02*
X243709821Y-96429819D01*
X243709821Y-96429819D02*
X243852678Y-96382200D01*
X243852678Y-96382200D02*
X243947916Y-96286961D01*
X243947916Y-96286961D02*
X243995535Y-96191723D01*
X243995535Y-96191723D02*
X244043154Y-96001247D01*
X244043154Y-96001247D02*
X244043154Y-95858390D01*
X244043154Y-95858390D02*
X243995535Y-95667914D01*
X243995535Y-95667914D02*
X243947916Y-95572676D01*
X243947916Y-95572676D02*
X243852678Y-95477438D01*
X243852678Y-95477438D02*
X243709821Y-95429819D01*
X243709821Y-95429819D02*
X243614583Y-95429819D01*
X243614583Y-95429819D02*
X243471726Y-95477438D01*
X243471726Y-95477438D02*
X243424107Y-95525057D01*
X242471726Y-96429819D02*
X243043154Y-96429819D01*
X242757440Y-96429819D02*
X242757440Y-95429819D01*
X242757440Y-95429819D02*
X242852678Y-95572676D01*
X242852678Y-95572676D02*
X242947916Y-95667914D01*
X242947916Y-95667914D02*
X243043154Y-95715533D01*
X241519345Y-96429819D02*
X242090773Y-96429819D01*
X241805059Y-96429819D02*
X241805059Y-95429819D01*
X241805059Y-95429819D02*
X241900297Y-95572676D01*
X241900297Y-95572676D02*
X241995535Y-95667914D01*
X241995535Y-95667914D02*
X242090773Y-95715533D01*
X179302319Y-72763214D02*
X178302319Y-72763214D01*
X178302319Y-72763214D02*
X178302319Y-73001309D01*
X178302319Y-73001309D02*
X178349938Y-73144166D01*
X178349938Y-73144166D02*
X178445176Y-73239404D01*
X178445176Y-73239404D02*
X178540414Y-73287023D01*
X178540414Y-73287023D02*
X178730890Y-73334642D01*
X178730890Y-73334642D02*
X178873747Y-73334642D01*
X178873747Y-73334642D02*
X179064223Y-73287023D01*
X179064223Y-73287023D02*
X179159461Y-73239404D01*
X179159461Y-73239404D02*
X179254700Y-73144166D01*
X179254700Y-73144166D02*
X179302319Y-73001309D01*
X179302319Y-73001309D02*
X179302319Y-72763214D01*
X178302319Y-73667976D02*
X178302319Y-74287023D01*
X178302319Y-74287023D02*
X178683271Y-73953690D01*
X178683271Y-73953690D02*
X178683271Y-74096547D01*
X178683271Y-74096547D02*
X178730890Y-74191785D01*
X178730890Y-74191785D02*
X178778509Y-74239404D01*
X178778509Y-74239404D02*
X178873747Y-74287023D01*
X178873747Y-74287023D02*
X179111842Y-74287023D01*
X179111842Y-74287023D02*
X179207080Y-74239404D01*
X179207080Y-74239404D02*
X179254700Y-74191785D01*
X179254700Y-74191785D02*
X179302319Y-74096547D01*
X179302319Y-74096547D02*
X179302319Y-73810833D01*
X179302319Y-73810833D02*
X179254700Y-73715595D01*
X179254700Y-73715595D02*
X179207080Y-73667976D01*
X179302319Y-75239404D02*
X179302319Y-74667976D01*
X179302319Y-74953690D02*
X178302319Y-74953690D01*
X178302319Y-74953690D02*
X178445176Y-74858452D01*
X178445176Y-74858452D02*
X178540414Y-74763214D01*
X178540414Y-74763214D02*
X178588033Y-74667976D01*
X155489819Y-91416339D02*
X154489819Y-91416339D01*
X154489819Y-91416339D02*
X154489819Y-91654434D01*
X154489819Y-91654434D02*
X154537438Y-91797291D01*
X154537438Y-91797291D02*
X154632676Y-91892529D01*
X154632676Y-91892529D02*
X154727914Y-91940148D01*
X154727914Y-91940148D02*
X154918390Y-91987767D01*
X154918390Y-91987767D02*
X155061247Y-91987767D01*
X155061247Y-91987767D02*
X155251723Y-91940148D01*
X155251723Y-91940148D02*
X155346961Y-91892529D01*
X155346961Y-91892529D02*
X155442200Y-91797291D01*
X155442200Y-91797291D02*
X155489819Y-91654434D01*
X155489819Y-91654434D02*
X155489819Y-91416339D01*
X154489819Y-92321101D02*
X154489819Y-92940148D01*
X154489819Y-92940148D02*
X154870771Y-92606815D01*
X154870771Y-92606815D02*
X154870771Y-92749672D01*
X154870771Y-92749672D02*
X154918390Y-92844910D01*
X154918390Y-92844910D02*
X154966009Y-92892529D01*
X154966009Y-92892529D02*
X155061247Y-92940148D01*
X155061247Y-92940148D02*
X155299342Y-92940148D01*
X155299342Y-92940148D02*
X155394580Y-92892529D01*
X155394580Y-92892529D02*
X155442200Y-92844910D01*
X155442200Y-92844910D02*
X155489819Y-92749672D01*
X155489819Y-92749672D02*
X155489819Y-92463958D01*
X155489819Y-92463958D02*
X155442200Y-92368720D01*
X155442200Y-92368720D02*
X155394580Y-92321101D01*
X155489819Y-93416339D02*
X155489819Y-93606815D01*
X155489819Y-93606815D02*
X155442200Y-93702053D01*
X155442200Y-93702053D02*
X155394580Y-93749672D01*
X155394580Y-93749672D02*
X155251723Y-93844910D01*
X155251723Y-93844910D02*
X155061247Y-93892529D01*
X155061247Y-93892529D02*
X154680295Y-93892529D01*
X154680295Y-93892529D02*
X154585057Y-93844910D01*
X154585057Y-93844910D02*
X154537438Y-93797291D01*
X154537438Y-93797291D02*
X154489819Y-93702053D01*
X154489819Y-93702053D02*
X154489819Y-93511577D01*
X154489819Y-93511577D02*
X154537438Y-93416339D01*
X154537438Y-93416339D02*
X154585057Y-93368720D01*
X154585057Y-93368720D02*
X154680295Y-93321101D01*
X154680295Y-93321101D02*
X154918390Y-93321101D01*
X154918390Y-93321101D02*
X155013628Y-93368720D01*
X155013628Y-93368720D02*
X155061247Y-93416339D01*
X155061247Y-93416339D02*
X155108866Y-93511577D01*
X155108866Y-93511577D02*
X155108866Y-93702053D01*
X155108866Y-93702053D02*
X155061247Y-93797291D01*
X155061247Y-93797291D02*
X155013628Y-93844910D01*
X155013628Y-93844910D02*
X154918390Y-93892529D01*
X241214819Y-34266339D02*
X240214819Y-34266339D01*
X240214819Y-34266339D02*
X240214819Y-34504434D01*
X240214819Y-34504434D02*
X240262438Y-34647291D01*
X240262438Y-34647291D02*
X240357676Y-34742529D01*
X240357676Y-34742529D02*
X240452914Y-34790148D01*
X240452914Y-34790148D02*
X240643390Y-34837767D01*
X240643390Y-34837767D02*
X240786247Y-34837767D01*
X240786247Y-34837767D02*
X240976723Y-34790148D01*
X240976723Y-34790148D02*
X241071961Y-34742529D01*
X241071961Y-34742529D02*
X241167200Y-34647291D01*
X241167200Y-34647291D02*
X241214819Y-34504434D01*
X241214819Y-34504434D02*
X241214819Y-34266339D01*
X241214819Y-35790148D02*
X241214819Y-35218720D01*
X241214819Y-35504434D02*
X240214819Y-35504434D01*
X240214819Y-35504434D02*
X240357676Y-35409196D01*
X240357676Y-35409196D02*
X240452914Y-35313958D01*
X240452914Y-35313958D02*
X240500533Y-35218720D01*
X241214819Y-36742529D02*
X241214819Y-36171101D01*
X241214819Y-36456815D02*
X240214819Y-36456815D01*
X240214819Y-36456815D02*
X240357676Y-36361577D01*
X240357676Y-36361577D02*
X240452914Y-36266339D01*
X240452914Y-36266339D02*
X240500533Y-36171101D01*
X254905059Y-103496371D02*
X254905059Y-103020180D01*
X254571726Y-104020180D02*
X254905059Y-103496371D01*
X254905059Y-103496371D02*
X255238392Y-104020180D01*
X256095535Y-103020180D02*
X255524107Y-103020180D01*
X255809821Y-103020180D02*
X255809821Y-104020180D01*
X255809821Y-104020180D02*
X255714583Y-103877323D01*
X255714583Y-103877323D02*
X255619345Y-103782085D01*
X255619345Y-103782085D02*
X255524107Y-103734466D01*
X203114819Y-34742530D02*
X202114819Y-34742530D01*
X202114819Y-34742530D02*
X202114819Y-34980625D01*
X202114819Y-34980625D02*
X202162438Y-35123482D01*
X202162438Y-35123482D02*
X202257676Y-35218720D01*
X202257676Y-35218720D02*
X202352914Y-35266339D01*
X202352914Y-35266339D02*
X202543390Y-35313958D01*
X202543390Y-35313958D02*
X202686247Y-35313958D01*
X202686247Y-35313958D02*
X202876723Y-35266339D01*
X202876723Y-35266339D02*
X202971961Y-35218720D01*
X202971961Y-35218720D02*
X203067200Y-35123482D01*
X203067200Y-35123482D02*
X203114819Y-34980625D01*
X203114819Y-34980625D02*
X203114819Y-34742530D01*
X203114819Y-35790149D02*
X203114819Y-35980625D01*
X203114819Y-35980625D02*
X203067200Y-36075863D01*
X203067200Y-36075863D02*
X203019580Y-36123482D01*
X203019580Y-36123482D02*
X202876723Y-36218720D01*
X202876723Y-36218720D02*
X202686247Y-36266339D01*
X202686247Y-36266339D02*
X202305295Y-36266339D01*
X202305295Y-36266339D02*
X202210057Y-36218720D01*
X202210057Y-36218720D02*
X202162438Y-36171101D01*
X202162438Y-36171101D02*
X202114819Y-36075863D01*
X202114819Y-36075863D02*
X202114819Y-35885387D01*
X202114819Y-35885387D02*
X202162438Y-35790149D01*
X202162438Y-35790149D02*
X202210057Y-35742530D01*
X202210057Y-35742530D02*
X202305295Y-35694911D01*
X202305295Y-35694911D02*
X202543390Y-35694911D01*
X202543390Y-35694911D02*
X202638628Y-35742530D01*
X202638628Y-35742530D02*
X202686247Y-35790149D01*
X202686247Y-35790149D02*
X202733866Y-35885387D01*
X202733866Y-35885387D02*
X202733866Y-36075863D01*
X202733866Y-36075863D02*
X202686247Y-36171101D01*
X202686247Y-36171101D02*
X202638628Y-36218720D01*
X202638628Y-36218720D02*
X202543390Y-36266339D01*
X243869838Y-90297112D02*
X243869838Y-90364456D01*
X243869838Y-90364456D02*
X243937182Y-90499143D01*
X243937182Y-90499143D02*
X244004525Y-90566486D01*
X244004525Y-90566486D02*
X244139212Y-90633830D01*
X244139212Y-90633830D02*
X244273899Y-90633830D01*
X244273899Y-90633830D02*
X244374914Y-90600158D01*
X244374914Y-90600158D02*
X244543273Y-90499143D01*
X244543273Y-90499143D02*
X244644288Y-90398128D01*
X244644288Y-90398128D02*
X244745304Y-90229769D01*
X244745304Y-90229769D02*
X244778975Y-90128754D01*
X244778975Y-90128754D02*
X244778975Y-89994067D01*
X244778975Y-89994067D02*
X244711632Y-89859380D01*
X244711632Y-89859380D02*
X244644288Y-89792036D01*
X244644288Y-89792036D02*
X244509601Y-89724693D01*
X244509601Y-89724693D02*
X244442258Y-89724693D01*
X243465777Y-90027738D02*
X243331090Y-89893051D01*
X243331090Y-89893051D02*
X243297418Y-89792036D01*
X243297418Y-89792036D02*
X243297418Y-89724693D01*
X243297418Y-89724693D02*
X243331090Y-89556334D01*
X243331090Y-89556334D02*
X243432105Y-89387975D01*
X243432105Y-89387975D02*
X243701479Y-89118601D01*
X243701479Y-89118601D02*
X243802495Y-89084929D01*
X243802495Y-89084929D02*
X243869838Y-89084929D01*
X243869838Y-89084929D02*
X243970853Y-89118601D01*
X243970853Y-89118601D02*
X244105540Y-89253288D01*
X244105540Y-89253288D02*
X244139212Y-89354303D01*
X244139212Y-89354303D02*
X244139212Y-89421647D01*
X244139212Y-89421647D02*
X244105540Y-89522662D01*
X244105540Y-89522662D02*
X243937182Y-89691021D01*
X243937182Y-89691021D02*
X243836166Y-89724693D01*
X243836166Y-89724693D02*
X243768823Y-89724693D01*
X243768823Y-89724693D02*
X243667808Y-89691021D01*
X243667808Y-89691021D02*
X243533121Y-89556334D01*
X243533121Y-89556334D02*
X243499449Y-89455319D01*
X243499449Y-89455319D02*
X243499449Y-89387975D01*
X243499449Y-89387975D02*
X243533121Y-89286960D01*
X103102319Y-72763214D02*
X102102319Y-72763214D01*
X102102319Y-72763214D02*
X102102319Y-73001309D01*
X102102319Y-73001309D02*
X102149938Y-73144166D01*
X102149938Y-73144166D02*
X102245176Y-73239404D01*
X102245176Y-73239404D02*
X102340414Y-73287023D01*
X102340414Y-73287023D02*
X102530890Y-73334642D01*
X102530890Y-73334642D02*
X102673747Y-73334642D01*
X102673747Y-73334642D02*
X102864223Y-73287023D01*
X102864223Y-73287023D02*
X102959461Y-73239404D01*
X102959461Y-73239404D02*
X103054700Y-73144166D01*
X103054700Y-73144166D02*
X103102319Y-73001309D01*
X103102319Y-73001309D02*
X103102319Y-72763214D01*
X102197557Y-73715595D02*
X102149938Y-73763214D01*
X102149938Y-73763214D02*
X102102319Y-73858452D01*
X102102319Y-73858452D02*
X102102319Y-74096547D01*
X102102319Y-74096547D02*
X102149938Y-74191785D01*
X102149938Y-74191785D02*
X102197557Y-74239404D01*
X102197557Y-74239404D02*
X102292795Y-74287023D01*
X102292795Y-74287023D02*
X102388033Y-74287023D01*
X102388033Y-74287023D02*
X102530890Y-74239404D01*
X102530890Y-74239404D02*
X103102319Y-73667976D01*
X103102319Y-73667976D02*
X103102319Y-74287023D01*
X102102319Y-74620357D02*
X102102319Y-75287023D01*
X102102319Y-75287023D02*
X103102319Y-74858452D01*
X236452319Y-72763214D02*
X235452319Y-72763214D01*
X235452319Y-72763214D02*
X235452319Y-73001309D01*
X235452319Y-73001309D02*
X235499938Y-73144166D01*
X235499938Y-73144166D02*
X235595176Y-73239404D01*
X235595176Y-73239404D02*
X235690414Y-73287023D01*
X235690414Y-73287023D02*
X235880890Y-73334642D01*
X235880890Y-73334642D02*
X236023747Y-73334642D01*
X236023747Y-73334642D02*
X236214223Y-73287023D01*
X236214223Y-73287023D02*
X236309461Y-73239404D01*
X236309461Y-73239404D02*
X236404700Y-73144166D01*
X236404700Y-73144166D02*
X236452319Y-73001309D01*
X236452319Y-73001309D02*
X236452319Y-72763214D01*
X235452319Y-73667976D02*
X235452319Y-74287023D01*
X235452319Y-74287023D02*
X235833271Y-73953690D01*
X235833271Y-73953690D02*
X235833271Y-74096547D01*
X235833271Y-74096547D02*
X235880890Y-74191785D01*
X235880890Y-74191785D02*
X235928509Y-74239404D01*
X235928509Y-74239404D02*
X236023747Y-74287023D01*
X236023747Y-74287023D02*
X236261842Y-74287023D01*
X236261842Y-74287023D02*
X236357080Y-74239404D01*
X236357080Y-74239404D02*
X236404700Y-74191785D01*
X236404700Y-74191785D02*
X236452319Y-74096547D01*
X236452319Y-74096547D02*
X236452319Y-73810833D01*
X236452319Y-73810833D02*
X236404700Y-73715595D01*
X236404700Y-73715595D02*
X236357080Y-73667976D01*
X235785652Y-75144166D02*
X236452319Y-75144166D01*
X235404700Y-74906071D02*
X236118985Y-74667976D01*
X236118985Y-74667976D02*
X236118985Y-75287023D01*
X207877319Y-53316339D02*
X206877319Y-53316339D01*
X206877319Y-53316339D02*
X206877319Y-53554434D01*
X206877319Y-53554434D02*
X206924938Y-53697291D01*
X206924938Y-53697291D02*
X207020176Y-53792529D01*
X207020176Y-53792529D02*
X207115414Y-53840148D01*
X207115414Y-53840148D02*
X207305890Y-53887767D01*
X207305890Y-53887767D02*
X207448747Y-53887767D01*
X207448747Y-53887767D02*
X207639223Y-53840148D01*
X207639223Y-53840148D02*
X207734461Y-53792529D01*
X207734461Y-53792529D02*
X207829700Y-53697291D01*
X207829700Y-53697291D02*
X207877319Y-53554434D01*
X207877319Y-53554434D02*
X207877319Y-53316339D01*
X206972557Y-54268720D02*
X206924938Y-54316339D01*
X206924938Y-54316339D02*
X206877319Y-54411577D01*
X206877319Y-54411577D02*
X206877319Y-54649672D01*
X206877319Y-54649672D02*
X206924938Y-54744910D01*
X206924938Y-54744910D02*
X206972557Y-54792529D01*
X206972557Y-54792529D02*
X207067795Y-54840148D01*
X207067795Y-54840148D02*
X207163033Y-54840148D01*
X207163033Y-54840148D02*
X207305890Y-54792529D01*
X207305890Y-54792529D02*
X207877319Y-54221101D01*
X207877319Y-54221101D02*
X207877319Y-54840148D01*
X207877319Y-55792529D02*
X207877319Y-55221101D01*
X207877319Y-55506815D02*
X206877319Y-55506815D01*
X206877319Y-55506815D02*
X207020176Y-55411577D01*
X207020176Y-55411577D02*
X207115414Y-55316339D01*
X207115414Y-55316339D02*
X207163033Y-55221101D01*
X188827319Y-53316339D02*
X187827319Y-53316339D01*
X187827319Y-53316339D02*
X187827319Y-53554434D01*
X187827319Y-53554434D02*
X187874938Y-53697291D01*
X187874938Y-53697291D02*
X187970176Y-53792529D01*
X187970176Y-53792529D02*
X188065414Y-53840148D01*
X188065414Y-53840148D02*
X188255890Y-53887767D01*
X188255890Y-53887767D02*
X188398747Y-53887767D01*
X188398747Y-53887767D02*
X188589223Y-53840148D01*
X188589223Y-53840148D02*
X188684461Y-53792529D01*
X188684461Y-53792529D02*
X188779700Y-53697291D01*
X188779700Y-53697291D02*
X188827319Y-53554434D01*
X188827319Y-53554434D02*
X188827319Y-53316339D01*
X187922557Y-54268720D02*
X187874938Y-54316339D01*
X187874938Y-54316339D02*
X187827319Y-54411577D01*
X187827319Y-54411577D02*
X187827319Y-54649672D01*
X187827319Y-54649672D02*
X187874938Y-54744910D01*
X187874938Y-54744910D02*
X187922557Y-54792529D01*
X187922557Y-54792529D02*
X188017795Y-54840148D01*
X188017795Y-54840148D02*
X188113033Y-54840148D01*
X188113033Y-54840148D02*
X188255890Y-54792529D01*
X188255890Y-54792529D02*
X188827319Y-54221101D01*
X188827319Y-54221101D02*
X188827319Y-54840148D01*
X187827319Y-55459196D02*
X187827319Y-55554434D01*
X187827319Y-55554434D02*
X187874938Y-55649672D01*
X187874938Y-55649672D02*
X187922557Y-55697291D01*
X187922557Y-55697291D02*
X188017795Y-55744910D01*
X188017795Y-55744910D02*
X188208271Y-55792529D01*
X188208271Y-55792529D02*
X188446366Y-55792529D01*
X188446366Y-55792529D02*
X188636842Y-55744910D01*
X188636842Y-55744910D02*
X188732080Y-55697291D01*
X188732080Y-55697291D02*
X188779700Y-55649672D01*
X188779700Y-55649672D02*
X188827319Y-55554434D01*
X188827319Y-55554434D02*
X188827319Y-55459196D01*
X188827319Y-55459196D02*
X188779700Y-55363958D01*
X188779700Y-55363958D02*
X188732080Y-55316339D01*
X188732080Y-55316339D02*
X188636842Y-55268720D01*
X188636842Y-55268720D02*
X188446366Y-55221101D01*
X188446366Y-55221101D02*
X188208271Y-55221101D01*
X188208271Y-55221101D02*
X188017795Y-55268720D01*
X188017795Y-55268720D02*
X187922557Y-55316339D01*
X187922557Y-55316339D02*
X187874938Y-55363958D01*
X187874938Y-55363958D02*
X187827319Y-55459196D01*
X258824107Y-103934580D02*
X258871726Y-103982200D01*
X258871726Y-103982200D02*
X259014583Y-104029819D01*
X259014583Y-104029819D02*
X259109821Y-104029819D01*
X259109821Y-104029819D02*
X259252678Y-103982200D01*
X259252678Y-103982200D02*
X259347916Y-103886961D01*
X259347916Y-103886961D02*
X259395535Y-103791723D01*
X259395535Y-103791723D02*
X259443154Y-103601247D01*
X259443154Y-103601247D02*
X259443154Y-103458390D01*
X259443154Y-103458390D02*
X259395535Y-103267914D01*
X259395535Y-103267914D02*
X259347916Y-103172676D01*
X259347916Y-103172676D02*
X259252678Y-103077438D01*
X259252678Y-103077438D02*
X259109821Y-103029819D01*
X259109821Y-103029819D02*
X259014583Y-103029819D01*
X259014583Y-103029819D02*
X258871726Y-103077438D01*
X258871726Y-103077438D02*
X258824107Y-103125057D01*
X257871726Y-104029819D02*
X258443154Y-104029819D01*
X258157440Y-104029819D02*
X258157440Y-103029819D01*
X258157440Y-103029819D02*
X258252678Y-103172676D01*
X258252678Y-103172676D02*
X258347916Y-103267914D01*
X258347916Y-103267914D02*
X258443154Y-103315533D01*
X257538392Y-103029819D02*
X256919345Y-103029819D01*
X256919345Y-103029819D02*
X257252678Y-103410771D01*
X257252678Y-103410771D02*
X257109821Y-103410771D01*
X257109821Y-103410771D02*
X257014583Y-103458390D01*
X257014583Y-103458390D02*
X256966964Y-103506009D01*
X256966964Y-103506009D02*
X256919345Y-103601247D01*
X256919345Y-103601247D02*
X256919345Y-103839342D01*
X256919345Y-103839342D02*
X256966964Y-103934580D01*
X256966964Y-103934580D02*
X257014583Y-103982200D01*
X257014583Y-103982200D02*
X257109821Y-104029819D01*
X257109821Y-104029819D02*
X257395535Y-104029819D01*
X257395535Y-104029819D02*
X257490773Y-103982200D01*
X257490773Y-103982200D02*
X257538392Y-103934580D01*
X249097916Y-103834580D02*
X249145535Y-103882200D01*
X249145535Y-103882200D02*
X249288392Y-103929819D01*
X249288392Y-103929819D02*
X249383630Y-103929819D01*
X249383630Y-103929819D02*
X249526487Y-103882200D01*
X249526487Y-103882200D02*
X249621725Y-103786961D01*
X249621725Y-103786961D02*
X249669344Y-103691723D01*
X249669344Y-103691723D02*
X249716963Y-103501247D01*
X249716963Y-103501247D02*
X249716963Y-103358390D01*
X249716963Y-103358390D02*
X249669344Y-103167914D01*
X249669344Y-103167914D02*
X249621725Y-103072676D01*
X249621725Y-103072676D02*
X249526487Y-102977438D01*
X249526487Y-102977438D02*
X249383630Y-102929819D01*
X249383630Y-102929819D02*
X249288392Y-102929819D01*
X249288392Y-102929819D02*
X249145535Y-102977438D01*
X249145535Y-102977438D02*
X249097916Y-103025057D01*
X248764582Y-102929819D02*
X248145535Y-102929819D01*
X248145535Y-102929819D02*
X248478868Y-103310771D01*
X248478868Y-103310771D02*
X248336011Y-103310771D01*
X248336011Y-103310771D02*
X248240773Y-103358390D01*
X248240773Y-103358390D02*
X248193154Y-103406009D01*
X248193154Y-103406009D02*
X248145535Y-103501247D01*
X248145535Y-103501247D02*
X248145535Y-103739342D01*
X248145535Y-103739342D02*
X248193154Y-103834580D01*
X248193154Y-103834580D02*
X248240773Y-103882200D01*
X248240773Y-103882200D02*
X248336011Y-103929819D01*
X248336011Y-103929819D02*
X248621725Y-103929819D01*
X248621725Y-103929819D02*
X248716963Y-103882200D01*
X248716963Y-103882200D02*
X248764582Y-103834580D01*
X76908569Y-91416339D02*
X75908569Y-91416339D01*
X75908569Y-91416339D02*
X75908569Y-91654434D01*
X75908569Y-91654434D02*
X75956188Y-91797291D01*
X75956188Y-91797291D02*
X76051426Y-91892529D01*
X76051426Y-91892529D02*
X76146664Y-91940148D01*
X76146664Y-91940148D02*
X76337140Y-91987767D01*
X76337140Y-91987767D02*
X76479997Y-91987767D01*
X76479997Y-91987767D02*
X76670473Y-91940148D01*
X76670473Y-91940148D02*
X76765711Y-91892529D01*
X76765711Y-91892529D02*
X76860950Y-91797291D01*
X76860950Y-91797291D02*
X76908569Y-91654434D01*
X76908569Y-91654434D02*
X76908569Y-91416339D01*
X75908569Y-92321101D02*
X75908569Y-92940148D01*
X75908569Y-92940148D02*
X76289521Y-92606815D01*
X76289521Y-92606815D02*
X76289521Y-92749672D01*
X76289521Y-92749672D02*
X76337140Y-92844910D01*
X76337140Y-92844910D02*
X76384759Y-92892529D01*
X76384759Y-92892529D02*
X76479997Y-92940148D01*
X76479997Y-92940148D02*
X76718092Y-92940148D01*
X76718092Y-92940148D02*
X76813330Y-92892529D01*
X76813330Y-92892529D02*
X76860950Y-92844910D01*
X76860950Y-92844910D02*
X76908569Y-92749672D01*
X76908569Y-92749672D02*
X76908569Y-92463958D01*
X76908569Y-92463958D02*
X76860950Y-92368720D01*
X76860950Y-92368720D02*
X76813330Y-92321101D01*
X75908569Y-93797291D02*
X75908569Y-93606815D01*
X75908569Y-93606815D02*
X75956188Y-93511577D01*
X75956188Y-93511577D02*
X76003807Y-93463958D01*
X76003807Y-93463958D02*
X76146664Y-93368720D01*
X76146664Y-93368720D02*
X76337140Y-93321101D01*
X76337140Y-93321101D02*
X76718092Y-93321101D01*
X76718092Y-93321101D02*
X76813330Y-93368720D01*
X76813330Y-93368720D02*
X76860950Y-93416339D01*
X76860950Y-93416339D02*
X76908569Y-93511577D01*
X76908569Y-93511577D02*
X76908569Y-93702053D01*
X76908569Y-93702053D02*
X76860950Y-93797291D01*
X76860950Y-93797291D02*
X76813330Y-93844910D01*
X76813330Y-93844910D02*
X76718092Y-93892529D01*
X76718092Y-93892529D02*
X76479997Y-93892529D01*
X76479997Y-93892529D02*
X76384759Y-93844910D01*
X76384759Y-93844910D02*
X76337140Y-93797291D01*
X76337140Y-93797291D02*
X76289521Y-93702053D01*
X76289521Y-93702053D02*
X76289521Y-93511577D01*
X76289521Y-93511577D02*
X76337140Y-93416339D01*
X76337140Y-93416339D02*
X76384759Y-93368720D01*
X76384759Y-93368720D02*
X76479997Y-93321101D01*
X261297916Y-98734579D02*
X261345535Y-98782199D01*
X261345535Y-98782199D02*
X261488392Y-98829818D01*
X261488392Y-98829818D02*
X261583630Y-98829818D01*
X261583630Y-98829818D02*
X261726487Y-98782199D01*
X261726487Y-98782199D02*
X261821725Y-98686960D01*
X261821725Y-98686960D02*
X261869344Y-98591722D01*
X261869344Y-98591722D02*
X261916963Y-98401246D01*
X261916963Y-98401246D02*
X261916963Y-98258389D01*
X261916963Y-98258389D02*
X261869344Y-98067913D01*
X261869344Y-98067913D02*
X261821725Y-97972675D01*
X261821725Y-97972675D02*
X261726487Y-97877437D01*
X261726487Y-97877437D02*
X261583630Y-97829818D01*
X261583630Y-97829818D02*
X261488392Y-97829818D01*
X261488392Y-97829818D02*
X261345535Y-97877437D01*
X261345535Y-97877437D02*
X261297916Y-97925056D01*
X260440773Y-98163151D02*
X260440773Y-98829818D01*
X260678868Y-97782199D02*
X260916963Y-98496484D01*
X260916963Y-98496484D02*
X260297916Y-98496484D01*
X261397916Y-81699819D02*
X261731249Y-81223628D01*
X261969344Y-81699819D02*
X261969344Y-80699819D01*
X261969344Y-80699819D02*
X261588392Y-80699819D01*
X261588392Y-80699819D02*
X261493154Y-80747438D01*
X261493154Y-80747438D02*
X261445535Y-80795057D01*
X261445535Y-80795057D02*
X261397916Y-80890295D01*
X261397916Y-80890295D02*
X261397916Y-81033152D01*
X261397916Y-81033152D02*
X261445535Y-81128390D01*
X261445535Y-81128390D02*
X261493154Y-81176009D01*
X261493154Y-81176009D02*
X261588392Y-81223628D01*
X261588392Y-81223628D02*
X261969344Y-81223628D01*
X261016963Y-80795057D02*
X260969344Y-80747438D01*
X260969344Y-80747438D02*
X260874106Y-80699819D01*
X260874106Y-80699819D02*
X260636011Y-80699819D01*
X260636011Y-80699819D02*
X260540773Y-80747438D01*
X260540773Y-80747438D02*
X260493154Y-80795057D01*
X260493154Y-80795057D02*
X260445535Y-80890295D01*
X260445535Y-80890295D02*
X260445535Y-80985533D01*
X260445535Y-80985533D02*
X260493154Y-81128390D01*
X260493154Y-81128390D02*
X261064582Y-81699819D01*
X261064582Y-81699819D02*
X260445535Y-81699819D01*
X107864819Y-34742530D02*
X106864819Y-34742530D01*
X106864819Y-34742530D02*
X106864819Y-34980625D01*
X106864819Y-34980625D02*
X106912438Y-35123482D01*
X106912438Y-35123482D02*
X107007676Y-35218720D01*
X107007676Y-35218720D02*
X107102914Y-35266339D01*
X107102914Y-35266339D02*
X107293390Y-35313958D01*
X107293390Y-35313958D02*
X107436247Y-35313958D01*
X107436247Y-35313958D02*
X107626723Y-35266339D01*
X107626723Y-35266339D02*
X107721961Y-35218720D01*
X107721961Y-35218720D02*
X107817200Y-35123482D01*
X107817200Y-35123482D02*
X107864819Y-34980625D01*
X107864819Y-34980625D02*
X107864819Y-34742530D01*
X107198152Y-36171101D02*
X107864819Y-36171101D01*
X106817200Y-35933006D02*
X107531485Y-35694911D01*
X107531485Y-35694911D02*
X107531485Y-36313958D01*
X261297916Y-97234580D02*
X261345535Y-97282200D01*
X261345535Y-97282200D02*
X261488392Y-97329819D01*
X261488392Y-97329819D02*
X261583630Y-97329819D01*
X261583630Y-97329819D02*
X261726487Y-97282200D01*
X261726487Y-97282200D02*
X261821725Y-97186961D01*
X261821725Y-97186961D02*
X261869344Y-97091723D01*
X261869344Y-97091723D02*
X261916963Y-96901247D01*
X261916963Y-96901247D02*
X261916963Y-96758390D01*
X261916963Y-96758390D02*
X261869344Y-96567914D01*
X261869344Y-96567914D02*
X261821725Y-96472676D01*
X261821725Y-96472676D02*
X261726487Y-96377438D01*
X261726487Y-96377438D02*
X261583630Y-96329819D01*
X261583630Y-96329819D02*
X261488392Y-96329819D01*
X261488392Y-96329819D02*
X261345535Y-96377438D01*
X261345535Y-96377438D02*
X261297916Y-96425057D01*
X260440773Y-96329819D02*
X260631249Y-96329819D01*
X260631249Y-96329819D02*
X260726487Y-96377438D01*
X260726487Y-96377438D02*
X260774106Y-96425057D01*
X260774106Y-96425057D02*
X260869344Y-96567914D01*
X260869344Y-96567914D02*
X260916963Y-96758390D01*
X260916963Y-96758390D02*
X260916963Y-97139342D01*
X260916963Y-97139342D02*
X260869344Y-97234580D01*
X260869344Y-97234580D02*
X260821725Y-97282200D01*
X260821725Y-97282200D02*
X260726487Y-97329819D01*
X260726487Y-97329819D02*
X260536011Y-97329819D01*
X260536011Y-97329819D02*
X260440773Y-97282200D01*
X260440773Y-97282200D02*
X260393154Y-97234580D01*
X260393154Y-97234580D02*
X260345535Y-97139342D01*
X260345535Y-97139342D02*
X260345535Y-96901247D01*
X260345535Y-96901247D02*
X260393154Y-96806009D01*
X260393154Y-96806009D02*
X260440773Y-96758390D01*
X260440773Y-96758390D02*
X260536011Y-96710771D01*
X260536011Y-96710771D02*
X260726487Y-96710771D01*
X260726487Y-96710771D02*
X260821725Y-96758390D01*
X260821725Y-96758390D02*
X260869344Y-96806009D01*
X260869344Y-96806009D02*
X260916963Y-96901247D01*
X264386069Y-72113095D02*
X265195592Y-72113095D01*
X265195592Y-72113095D02*
X265290830Y-72160714D01*
X265290830Y-72160714D02*
X265338450Y-72208333D01*
X265338450Y-72208333D02*
X265386069Y-72303571D01*
X265386069Y-72303571D02*
X265386069Y-72494047D01*
X265386069Y-72494047D02*
X265338450Y-72589285D01*
X265338450Y-72589285D02*
X265290830Y-72636904D01*
X265290830Y-72636904D02*
X265195592Y-72684523D01*
X265195592Y-72684523D02*
X264386069Y-72684523D01*
X265386069Y-73684523D02*
X265386069Y-73113095D01*
X265386069Y-73398809D02*
X264386069Y-73398809D01*
X264386069Y-73398809D02*
X264528926Y-73303571D01*
X264528926Y-73303571D02*
X264624164Y-73208333D01*
X264624164Y-73208333D02*
X264671783Y-73113095D01*
X49014582Y-90157200D02*
X48871725Y-90204819D01*
X48871725Y-90204819D02*
X48633630Y-90204819D01*
X48633630Y-90204819D02*
X48538392Y-90157200D01*
X48538392Y-90157200D02*
X48490773Y-90109580D01*
X48490773Y-90109580D02*
X48443154Y-90014342D01*
X48443154Y-90014342D02*
X48443154Y-89919104D01*
X48443154Y-89919104D02*
X48490773Y-89823866D01*
X48490773Y-89823866D02*
X48538392Y-89776247D01*
X48538392Y-89776247D02*
X48633630Y-89728628D01*
X48633630Y-89728628D02*
X48824106Y-89681009D01*
X48824106Y-89681009D02*
X48919344Y-89633390D01*
X48919344Y-89633390D02*
X48966963Y-89585771D01*
X48966963Y-89585771D02*
X49014582Y-89490533D01*
X49014582Y-89490533D02*
X49014582Y-89395295D01*
X49014582Y-89395295D02*
X48966963Y-89300057D01*
X48966963Y-89300057D02*
X48919344Y-89252438D01*
X48919344Y-89252438D02*
X48824106Y-89204819D01*
X48824106Y-89204819D02*
X48586011Y-89204819D01*
X48586011Y-89204819D02*
X48443154Y-89252438D01*
X48109820Y-89204819D02*
X47871725Y-90204819D01*
X47871725Y-90204819D02*
X47681249Y-89490533D01*
X47681249Y-89490533D02*
X47490773Y-90204819D01*
X47490773Y-90204819D02*
X47252678Y-89204819D01*
X46919344Y-89300057D02*
X46871725Y-89252438D01*
X46871725Y-89252438D02*
X46776487Y-89204819D01*
X46776487Y-89204819D02*
X46538392Y-89204819D01*
X46538392Y-89204819D02*
X46443154Y-89252438D01*
X46443154Y-89252438D02*
X46395535Y-89300057D01*
X46395535Y-89300057D02*
X46347916Y-89395295D01*
X46347916Y-89395295D02*
X46347916Y-89490533D01*
X46347916Y-89490533D02*
X46395535Y-89633390D01*
X46395535Y-89633390D02*
X46966963Y-90204819D01*
X46966963Y-90204819D02*
X46347916Y-90204819D01*
X242140830Y-99382142D02*
X242188450Y-99334523D01*
X242188450Y-99334523D02*
X242236069Y-99191666D01*
X242236069Y-99191666D02*
X242236069Y-99096428D01*
X242236069Y-99096428D02*
X242188450Y-98953571D01*
X242188450Y-98953571D02*
X242093211Y-98858333D01*
X242093211Y-98858333D02*
X241997973Y-98810714D01*
X241997973Y-98810714D02*
X241807497Y-98763095D01*
X241807497Y-98763095D02*
X241664640Y-98763095D01*
X241664640Y-98763095D02*
X241474164Y-98810714D01*
X241474164Y-98810714D02*
X241378926Y-98858333D01*
X241378926Y-98858333D02*
X241283688Y-98953571D01*
X241283688Y-98953571D02*
X241236069Y-99096428D01*
X241236069Y-99096428D02*
X241236069Y-99191666D01*
X241236069Y-99191666D02*
X241283688Y-99334523D01*
X241283688Y-99334523D02*
X241331307Y-99382142D01*
X242236069Y-100334523D02*
X242236069Y-99763095D01*
X242236069Y-100048809D02*
X241236069Y-100048809D01*
X241236069Y-100048809D02*
X241378926Y-99953571D01*
X241378926Y-99953571D02*
X241474164Y-99858333D01*
X241474164Y-99858333D02*
X241521783Y-99763095D01*
X241236069Y-100667857D02*
X241236069Y-101334523D01*
X241236069Y-101334523D02*
X242236069Y-100905952D01*
X255368154Y-92279819D02*
X255368154Y-93089342D01*
X255368154Y-93089342D02*
X255320535Y-93184580D01*
X255320535Y-93184580D02*
X255272916Y-93232200D01*
X255272916Y-93232200D02*
X255177678Y-93279819D01*
X255177678Y-93279819D02*
X254987202Y-93279819D01*
X254987202Y-93279819D02*
X254891964Y-93232200D01*
X254891964Y-93232200D02*
X254844345Y-93184580D01*
X254844345Y-93184580D02*
X254796726Y-93089342D01*
X254796726Y-93089342D02*
X254796726Y-92279819D01*
X254368154Y-92375057D02*
X254320535Y-92327438D01*
X254320535Y-92327438D02*
X254225297Y-92279819D01*
X254225297Y-92279819D02*
X253987202Y-92279819D01*
X253987202Y-92279819D02*
X253891964Y-92327438D01*
X253891964Y-92327438D02*
X253844345Y-92375057D01*
X253844345Y-92375057D02*
X253796726Y-92470295D01*
X253796726Y-92470295D02*
X253796726Y-92565533D01*
X253796726Y-92565533D02*
X253844345Y-92708390D01*
X253844345Y-92708390D02*
X254415773Y-93279819D01*
X254415773Y-93279819D02*
X253796726Y-93279819D01*
X243527494Y-85239456D02*
X244099913Y-85138441D01*
X243931555Y-85643517D02*
X244638661Y-84936410D01*
X244638661Y-84936410D02*
X244369287Y-84667036D01*
X244369287Y-84667036D02*
X244268272Y-84633364D01*
X244268272Y-84633364D02*
X244200929Y-84633364D01*
X244200929Y-84633364D02*
X244099913Y-84667036D01*
X244099913Y-84667036D02*
X243998898Y-84768051D01*
X243998898Y-84768051D02*
X243965226Y-84869067D01*
X243965226Y-84869067D02*
X243965226Y-84936410D01*
X243965226Y-84936410D02*
X243998898Y-85037425D01*
X243998898Y-85037425D02*
X244268272Y-85306799D01*
X243392807Y-84161960D02*
X242921402Y-84633364D01*
X243830539Y-84060945D02*
X243493822Y-84734380D01*
X243493822Y-84734380D02*
X243056089Y-84296647D01*
X198352319Y-72763214D02*
X197352319Y-72763214D01*
X197352319Y-72763214D02*
X197352319Y-73001309D01*
X197352319Y-73001309D02*
X197399938Y-73144166D01*
X197399938Y-73144166D02*
X197495176Y-73239404D01*
X197495176Y-73239404D02*
X197590414Y-73287023D01*
X197590414Y-73287023D02*
X197780890Y-73334642D01*
X197780890Y-73334642D02*
X197923747Y-73334642D01*
X197923747Y-73334642D02*
X198114223Y-73287023D01*
X198114223Y-73287023D02*
X198209461Y-73239404D01*
X198209461Y-73239404D02*
X198304700Y-73144166D01*
X198304700Y-73144166D02*
X198352319Y-73001309D01*
X198352319Y-73001309D02*
X198352319Y-72763214D01*
X197352319Y-73667976D02*
X197352319Y-74287023D01*
X197352319Y-74287023D02*
X197733271Y-73953690D01*
X197733271Y-73953690D02*
X197733271Y-74096547D01*
X197733271Y-74096547D02*
X197780890Y-74191785D01*
X197780890Y-74191785D02*
X197828509Y-74239404D01*
X197828509Y-74239404D02*
X197923747Y-74287023D01*
X197923747Y-74287023D02*
X198161842Y-74287023D01*
X198161842Y-74287023D02*
X198257080Y-74239404D01*
X198257080Y-74239404D02*
X198304700Y-74191785D01*
X198304700Y-74191785D02*
X198352319Y-74096547D01*
X198352319Y-74096547D02*
X198352319Y-73810833D01*
X198352319Y-73810833D02*
X198304700Y-73715595D01*
X198304700Y-73715595D02*
X198257080Y-73667976D01*
X197447557Y-74667976D02*
X197399938Y-74715595D01*
X197399938Y-74715595D02*
X197352319Y-74810833D01*
X197352319Y-74810833D02*
X197352319Y-75048928D01*
X197352319Y-75048928D02*
X197399938Y-75144166D01*
X197399938Y-75144166D02*
X197447557Y-75191785D01*
X197447557Y-75191785D02*
X197542795Y-75239404D01*
X197542795Y-75239404D02*
X197638033Y-75239404D01*
X197638033Y-75239404D02*
X197780890Y-75191785D01*
X197780890Y-75191785D02*
X198352319Y-74620357D01*
X198352319Y-74620357D02*
X198352319Y-75239404D01*
X261397916Y-86534819D02*
X261731249Y-86058628D01*
X261969344Y-86534819D02*
X261969344Y-85534819D01*
X261969344Y-85534819D02*
X261588392Y-85534819D01*
X261588392Y-85534819D02*
X261493154Y-85582438D01*
X261493154Y-85582438D02*
X261445535Y-85630057D01*
X261445535Y-85630057D02*
X261397916Y-85725295D01*
X261397916Y-85725295D02*
X261397916Y-85868152D01*
X261397916Y-85868152D02*
X261445535Y-85963390D01*
X261445535Y-85963390D02*
X261493154Y-86011009D01*
X261493154Y-86011009D02*
X261588392Y-86058628D01*
X261588392Y-86058628D02*
X261969344Y-86058628D01*
X260445535Y-86534819D02*
X261016963Y-86534819D01*
X260731249Y-86534819D02*
X260731249Y-85534819D01*
X260731249Y-85534819D02*
X260826487Y-85677676D01*
X260826487Y-85677676D02*
X260921725Y-85772914D01*
X260921725Y-85772914D02*
X261016963Y-85820533D01*
X242547916Y-94665214D02*
X242595535Y-94712834D01*
X242595535Y-94712834D02*
X242738392Y-94760453D01*
X242738392Y-94760453D02*
X242833630Y-94760453D01*
X242833630Y-94760453D02*
X242976487Y-94712834D01*
X242976487Y-94712834D02*
X243071725Y-94617595D01*
X243071725Y-94617595D02*
X243119344Y-94522357D01*
X243119344Y-94522357D02*
X243166963Y-94331881D01*
X243166963Y-94331881D02*
X243166963Y-94189024D01*
X243166963Y-94189024D02*
X243119344Y-93998548D01*
X243119344Y-93998548D02*
X243071725Y-93903310D01*
X243071725Y-93903310D02*
X242976487Y-93808072D01*
X242976487Y-93808072D02*
X242833630Y-93760453D01*
X242833630Y-93760453D02*
X242738392Y-93760453D01*
X242738392Y-93760453D02*
X242595535Y-93808072D01*
X242595535Y-93808072D02*
X242547916Y-93855691D01*
X241643154Y-93760453D02*
X242119344Y-93760453D01*
X242119344Y-93760453D02*
X242166963Y-94236643D01*
X242166963Y-94236643D02*
X242119344Y-94189024D01*
X242119344Y-94189024D02*
X242024106Y-94141405D01*
X242024106Y-94141405D02*
X241786011Y-94141405D01*
X241786011Y-94141405D02*
X241690773Y-94189024D01*
X241690773Y-94189024D02*
X241643154Y-94236643D01*
X241643154Y-94236643D02*
X241595535Y-94331881D01*
X241595535Y-94331881D02*
X241595535Y-94569976D01*
X241595535Y-94569976D02*
X241643154Y-94665214D01*
X241643154Y-94665214D02*
X241690773Y-94712834D01*
X241690773Y-94712834D02*
X241786011Y-94760453D01*
X241786011Y-94760453D02*
X242024106Y-94760453D01*
X242024106Y-94760453D02*
X242119344Y-94712834D01*
X242119344Y-94712834D02*
X242166963Y-94665214D01*
X74527319Y-53316339D02*
X73527319Y-53316339D01*
X73527319Y-53316339D02*
X73527319Y-53554434D01*
X73527319Y-53554434D02*
X73574938Y-53697291D01*
X73574938Y-53697291D02*
X73670176Y-53792529D01*
X73670176Y-53792529D02*
X73765414Y-53840148D01*
X73765414Y-53840148D02*
X73955890Y-53887767D01*
X73955890Y-53887767D02*
X74098747Y-53887767D01*
X74098747Y-53887767D02*
X74289223Y-53840148D01*
X74289223Y-53840148D02*
X74384461Y-53792529D01*
X74384461Y-53792529D02*
X74479700Y-53697291D01*
X74479700Y-53697291D02*
X74527319Y-53554434D01*
X74527319Y-53554434D02*
X74527319Y-53316339D01*
X74527319Y-54840148D02*
X74527319Y-54268720D01*
X74527319Y-54554434D02*
X73527319Y-54554434D01*
X73527319Y-54554434D02*
X73670176Y-54459196D01*
X73670176Y-54459196D02*
X73765414Y-54363958D01*
X73765414Y-54363958D02*
X73813033Y-54268720D01*
X73860652Y-55697291D02*
X74527319Y-55697291D01*
X73479700Y-55459196D02*
X74193985Y-55221101D01*
X74193985Y-55221101D02*
X74193985Y-55840148D01*
X252636069Y-103208333D02*
X252159878Y-102875000D01*
X252636069Y-102636905D02*
X251636069Y-102636905D01*
X251636069Y-102636905D02*
X251636069Y-103017857D01*
X251636069Y-103017857D02*
X251683688Y-103113095D01*
X251683688Y-103113095D02*
X251731307Y-103160714D01*
X251731307Y-103160714D02*
X251826545Y-103208333D01*
X251826545Y-103208333D02*
X251969402Y-103208333D01*
X251969402Y-103208333D02*
X252064640Y-103160714D01*
X252064640Y-103160714D02*
X252112259Y-103113095D01*
X252112259Y-103113095D02*
X252159878Y-103017857D01*
X252159878Y-103017857D02*
X252159878Y-102636905D01*
X251636069Y-104065476D02*
X251636069Y-103875000D01*
X251636069Y-103875000D02*
X251683688Y-103779762D01*
X251683688Y-103779762D02*
X251731307Y-103732143D01*
X251731307Y-103732143D02*
X251874164Y-103636905D01*
X251874164Y-103636905D02*
X252064640Y-103589286D01*
X252064640Y-103589286D02*
X252445592Y-103589286D01*
X252445592Y-103589286D02*
X252540830Y-103636905D01*
X252540830Y-103636905D02*
X252588450Y-103684524D01*
X252588450Y-103684524D02*
X252636069Y-103779762D01*
X252636069Y-103779762D02*
X252636069Y-103970238D01*
X252636069Y-103970238D02*
X252588450Y-104065476D01*
X252588450Y-104065476D02*
X252540830Y-104113095D01*
X252540830Y-104113095D02*
X252445592Y-104160714D01*
X252445592Y-104160714D02*
X252207497Y-104160714D01*
X252207497Y-104160714D02*
X252112259Y-104113095D01*
X252112259Y-104113095D02*
X252064640Y-104065476D01*
X252064640Y-104065476D02*
X252017021Y-103970238D01*
X252017021Y-103970238D02*
X252017021Y-103779762D01*
X252017021Y-103779762D02*
X252064640Y-103684524D01*
X252064640Y-103684524D02*
X252112259Y-103636905D01*
X252112259Y-103636905D02*
X252207497Y-103589286D01*
X245344838Y-88647112D02*
X245344838Y-88714456D01*
X245344838Y-88714456D02*
X245412182Y-88849143D01*
X245412182Y-88849143D02*
X245479525Y-88916486D01*
X245479525Y-88916486D02*
X245614212Y-88983830D01*
X245614212Y-88983830D02*
X245748899Y-88983830D01*
X245748899Y-88983830D02*
X245849914Y-88950158D01*
X245849914Y-88950158D02*
X246018273Y-88849143D01*
X246018273Y-88849143D02*
X246119288Y-88748128D01*
X246119288Y-88748128D02*
X246220304Y-88579769D01*
X246220304Y-88579769D02*
X246253975Y-88478754D01*
X246253975Y-88478754D02*
X246253975Y-88344067D01*
X246253975Y-88344067D02*
X246186632Y-88209380D01*
X246186632Y-88209380D02*
X246119288Y-88142036D01*
X246119288Y-88142036D02*
X245984601Y-88074693D01*
X245984601Y-88074693D02*
X245917258Y-88074693D01*
X245277495Y-87906334D02*
X245378510Y-87940006D01*
X245378510Y-87940006D02*
X245445853Y-87940006D01*
X245445853Y-87940006D02*
X245546869Y-87906334D01*
X245546869Y-87906334D02*
X245580540Y-87872662D01*
X245580540Y-87872662D02*
X245614212Y-87771647D01*
X245614212Y-87771647D02*
X245614212Y-87704303D01*
X245614212Y-87704303D02*
X245580540Y-87603288D01*
X245580540Y-87603288D02*
X245445853Y-87468601D01*
X245445853Y-87468601D02*
X245344838Y-87434929D01*
X245344838Y-87434929D02*
X245277495Y-87434929D01*
X245277495Y-87434929D02*
X245176479Y-87468601D01*
X245176479Y-87468601D02*
X245142808Y-87502273D01*
X245142808Y-87502273D02*
X245109136Y-87603288D01*
X245109136Y-87603288D02*
X245109136Y-87670632D01*
X245109136Y-87670632D02*
X245142808Y-87771647D01*
X245142808Y-87771647D02*
X245277495Y-87906334D01*
X245277495Y-87906334D02*
X245311166Y-88007349D01*
X245311166Y-88007349D02*
X245311166Y-88074693D01*
X245311166Y-88074693D02*
X245277495Y-88175708D01*
X245277495Y-88175708D02*
X245142808Y-88310395D01*
X245142808Y-88310395D02*
X245041792Y-88344067D01*
X245041792Y-88344067D02*
X244974449Y-88344067D01*
X244974449Y-88344067D02*
X244873434Y-88310395D01*
X244873434Y-88310395D02*
X244738747Y-88175708D01*
X244738747Y-88175708D02*
X244705075Y-88074693D01*
X244705075Y-88074693D02*
X244705075Y-88007349D01*
X244705075Y-88007349D02*
X244738747Y-87906334D01*
X244738747Y-87906334D02*
X244873434Y-87771647D01*
X244873434Y-87771647D02*
X244974449Y-87737975D01*
X244974449Y-87737975D02*
X245041792Y-87737975D01*
X245041792Y-87737975D02*
X245142808Y-87771647D01*
X262646069Y-34266339D02*
X261646069Y-34266339D01*
X261646069Y-34266339D02*
X261646069Y-34504434D01*
X261646069Y-34504434D02*
X261693688Y-34647291D01*
X261693688Y-34647291D02*
X261788926Y-34742529D01*
X261788926Y-34742529D02*
X261884164Y-34790148D01*
X261884164Y-34790148D02*
X262074640Y-34837767D01*
X262074640Y-34837767D02*
X262217497Y-34837767D01*
X262217497Y-34837767D02*
X262407973Y-34790148D01*
X262407973Y-34790148D02*
X262503211Y-34742529D01*
X262503211Y-34742529D02*
X262598450Y-34647291D01*
X262598450Y-34647291D02*
X262646069Y-34504434D01*
X262646069Y-34504434D02*
X262646069Y-34266339D01*
X262646069Y-35790148D02*
X262646069Y-35218720D01*
X262646069Y-35504434D02*
X261646069Y-35504434D01*
X261646069Y-35504434D02*
X261788926Y-35409196D01*
X261788926Y-35409196D02*
X261884164Y-35313958D01*
X261884164Y-35313958D02*
X261931783Y-35218720D01*
X261741307Y-36171101D02*
X261693688Y-36218720D01*
X261693688Y-36218720D02*
X261646069Y-36313958D01*
X261646069Y-36313958D02*
X261646069Y-36552053D01*
X261646069Y-36552053D02*
X261693688Y-36647291D01*
X261693688Y-36647291D02*
X261741307Y-36694910D01*
X261741307Y-36694910D02*
X261836545Y-36742529D01*
X261836545Y-36742529D02*
X261931783Y-36742529D01*
X261931783Y-36742529D02*
X262074640Y-36694910D01*
X262074640Y-36694910D02*
X262646069Y-36123482D01*
X262646069Y-36123482D02*
X262646069Y-36742529D01*
X212639819Y-91416339D02*
X211639819Y-91416339D01*
X211639819Y-91416339D02*
X211639819Y-91654434D01*
X211639819Y-91654434D02*
X211687438Y-91797291D01*
X211687438Y-91797291D02*
X211782676Y-91892529D01*
X211782676Y-91892529D02*
X211877914Y-91940148D01*
X211877914Y-91940148D02*
X212068390Y-91987767D01*
X212068390Y-91987767D02*
X212211247Y-91987767D01*
X212211247Y-91987767D02*
X212401723Y-91940148D01*
X212401723Y-91940148D02*
X212496961Y-91892529D01*
X212496961Y-91892529D02*
X212592200Y-91797291D01*
X212592200Y-91797291D02*
X212639819Y-91654434D01*
X212639819Y-91654434D02*
X212639819Y-91416339D01*
X211973152Y-92844910D02*
X212639819Y-92844910D01*
X211592200Y-92606815D02*
X212306485Y-92368720D01*
X212306485Y-92368720D02*
X212306485Y-92987767D01*
X212639819Y-93892529D02*
X212639819Y-93321101D01*
X212639819Y-93606815D02*
X211639819Y-93606815D01*
X211639819Y-93606815D02*
X211782676Y-93511577D01*
X211782676Y-93511577D02*
X211877914Y-93416339D01*
X211877914Y-93416339D02*
X211925533Y-93321101D01*
X88814819Y-34742530D02*
X87814819Y-34742530D01*
X87814819Y-34742530D02*
X87814819Y-34980625D01*
X87814819Y-34980625D02*
X87862438Y-35123482D01*
X87862438Y-35123482D02*
X87957676Y-35218720D01*
X87957676Y-35218720D02*
X88052914Y-35266339D01*
X88052914Y-35266339D02*
X88243390Y-35313958D01*
X88243390Y-35313958D02*
X88386247Y-35313958D01*
X88386247Y-35313958D02*
X88576723Y-35266339D01*
X88576723Y-35266339D02*
X88671961Y-35218720D01*
X88671961Y-35218720D02*
X88767200Y-35123482D01*
X88767200Y-35123482D02*
X88814819Y-34980625D01*
X88814819Y-34980625D02*
X88814819Y-34742530D01*
X87814819Y-35647292D02*
X87814819Y-36266339D01*
X87814819Y-36266339D02*
X88195771Y-35933006D01*
X88195771Y-35933006D02*
X88195771Y-36075863D01*
X88195771Y-36075863D02*
X88243390Y-36171101D01*
X88243390Y-36171101D02*
X88291009Y-36218720D01*
X88291009Y-36218720D02*
X88386247Y-36266339D01*
X88386247Y-36266339D02*
X88624342Y-36266339D01*
X88624342Y-36266339D02*
X88719580Y-36218720D01*
X88719580Y-36218720D02*
X88767200Y-36171101D01*
X88767200Y-36171101D02*
X88814819Y-36075863D01*
X88814819Y-36075863D02*
X88814819Y-35790149D01*
X88814819Y-35790149D02*
X88767200Y-35694911D01*
X88767200Y-35694911D02*
X88719580Y-35647292D01*
X260378147Y-88329952D02*
X260445491Y-88329952D01*
X260445491Y-88329952D02*
X260580178Y-88262608D01*
X260580178Y-88262608D02*
X260647521Y-88195265D01*
X260647521Y-88195265D02*
X260714865Y-88060578D01*
X260714865Y-88060578D02*
X260714865Y-87925891D01*
X260714865Y-87925891D02*
X260681193Y-87824876D01*
X260681193Y-87824876D02*
X260580178Y-87656517D01*
X260580178Y-87656517D02*
X260479163Y-87555502D01*
X260479163Y-87555502D02*
X260310804Y-87454486D01*
X260310804Y-87454486D02*
X260209789Y-87420815D01*
X260209789Y-87420815D02*
X260075102Y-87420815D01*
X260075102Y-87420815D02*
X259940415Y-87488158D01*
X259940415Y-87488158D02*
X259873071Y-87555502D01*
X259873071Y-87555502D02*
X259805728Y-87690189D01*
X259805728Y-87690189D02*
X259805728Y-87757532D01*
X259536354Y-88026906D02*
X259469010Y-88026906D01*
X259469010Y-88026906D02*
X259367995Y-88060578D01*
X259367995Y-88060578D02*
X259199636Y-88228937D01*
X259199636Y-88228937D02*
X259165964Y-88329952D01*
X259165964Y-88329952D02*
X259165964Y-88397295D01*
X259165964Y-88397295D02*
X259199636Y-88498311D01*
X259199636Y-88498311D02*
X259266980Y-88565654D01*
X259266980Y-88565654D02*
X259401667Y-88632998D01*
X259401667Y-88632998D02*
X260209789Y-88632998D01*
X260209789Y-88632998D02*
X259772056Y-89070730D01*
X240840830Y-99382142D02*
X240888450Y-99334523D01*
X240888450Y-99334523D02*
X240936069Y-99191666D01*
X240936069Y-99191666D02*
X240936069Y-99096428D01*
X240936069Y-99096428D02*
X240888450Y-98953571D01*
X240888450Y-98953571D02*
X240793211Y-98858333D01*
X240793211Y-98858333D02*
X240697973Y-98810714D01*
X240697973Y-98810714D02*
X240507497Y-98763095D01*
X240507497Y-98763095D02*
X240364640Y-98763095D01*
X240364640Y-98763095D02*
X240174164Y-98810714D01*
X240174164Y-98810714D02*
X240078926Y-98858333D01*
X240078926Y-98858333D02*
X239983688Y-98953571D01*
X239983688Y-98953571D02*
X239936069Y-99096428D01*
X239936069Y-99096428D02*
X239936069Y-99191666D01*
X239936069Y-99191666D02*
X239983688Y-99334523D01*
X239983688Y-99334523D02*
X240031307Y-99382142D01*
X240936069Y-100334523D02*
X240936069Y-99763095D01*
X240936069Y-100048809D02*
X239936069Y-100048809D01*
X239936069Y-100048809D02*
X240078926Y-99953571D01*
X240078926Y-99953571D02*
X240174164Y-99858333D01*
X240174164Y-99858333D02*
X240221783Y-99763095D01*
X239936069Y-101239285D02*
X239936069Y-100763095D01*
X239936069Y-100763095D02*
X240412259Y-100715476D01*
X240412259Y-100715476D02*
X240364640Y-100763095D01*
X240364640Y-100763095D02*
X240317021Y-100858333D01*
X240317021Y-100858333D02*
X240317021Y-101096428D01*
X240317021Y-101096428D02*
X240364640Y-101191666D01*
X240364640Y-101191666D02*
X240412259Y-101239285D01*
X240412259Y-101239285D02*
X240507497Y-101286904D01*
X240507497Y-101286904D02*
X240745592Y-101286904D01*
X240745592Y-101286904D02*
X240840830Y-101239285D01*
X240840830Y-101239285D02*
X240888450Y-101191666D01*
X240888450Y-101191666D02*
X240936069Y-101096428D01*
X240936069Y-101096428D02*
X240936069Y-100858333D01*
X240936069Y-100858333D02*
X240888450Y-100763095D01*
X240888450Y-100763095D02*
X240840830Y-100715476D01*
X131677319Y-53316339D02*
X130677319Y-53316339D01*
X130677319Y-53316339D02*
X130677319Y-53554434D01*
X130677319Y-53554434D02*
X130724938Y-53697291D01*
X130724938Y-53697291D02*
X130820176Y-53792529D01*
X130820176Y-53792529D02*
X130915414Y-53840148D01*
X130915414Y-53840148D02*
X131105890Y-53887767D01*
X131105890Y-53887767D02*
X131248747Y-53887767D01*
X131248747Y-53887767D02*
X131439223Y-53840148D01*
X131439223Y-53840148D02*
X131534461Y-53792529D01*
X131534461Y-53792529D02*
X131629700Y-53697291D01*
X131629700Y-53697291D02*
X131677319Y-53554434D01*
X131677319Y-53554434D02*
X131677319Y-53316339D01*
X131677319Y-54840148D02*
X131677319Y-54268720D01*
X131677319Y-54554434D02*
X130677319Y-54554434D01*
X130677319Y-54554434D02*
X130820176Y-54459196D01*
X130820176Y-54459196D02*
X130915414Y-54363958D01*
X130915414Y-54363958D02*
X130963033Y-54268720D01*
X130677319Y-55173482D02*
X130677319Y-55840148D01*
X130677319Y-55840148D02*
X131677319Y-55411577D01*
X242524107Y-93109580D02*
X242571726Y-93157200D01*
X242571726Y-93157200D02*
X242714583Y-93204819D01*
X242714583Y-93204819D02*
X242809821Y-93204819D01*
X242809821Y-93204819D02*
X242952678Y-93157200D01*
X242952678Y-93157200D02*
X243047916Y-93061961D01*
X243047916Y-93061961D02*
X243095535Y-92966723D01*
X243095535Y-92966723D02*
X243143154Y-92776247D01*
X243143154Y-92776247D02*
X243143154Y-92633390D01*
X243143154Y-92633390D02*
X243095535Y-92442914D01*
X243095535Y-92442914D02*
X243047916Y-92347676D01*
X243047916Y-92347676D02*
X242952678Y-92252438D01*
X242952678Y-92252438D02*
X242809821Y-92204819D01*
X242809821Y-92204819D02*
X242714583Y-92204819D01*
X242714583Y-92204819D02*
X242571726Y-92252438D01*
X242571726Y-92252438D02*
X242524107Y-92300057D01*
X241571726Y-93204819D02*
X242143154Y-93204819D01*
X241857440Y-93204819D02*
X241857440Y-92204819D01*
X241857440Y-92204819D02*
X241952678Y-92347676D01*
X241952678Y-92347676D02*
X242047916Y-92442914D01*
X242047916Y-92442914D02*
X242143154Y-92490533D01*
X240952678Y-92204819D02*
X240857440Y-92204819D01*
X240857440Y-92204819D02*
X240762202Y-92252438D01*
X240762202Y-92252438D02*
X240714583Y-92300057D01*
X240714583Y-92300057D02*
X240666964Y-92395295D01*
X240666964Y-92395295D02*
X240619345Y-92585771D01*
X240619345Y-92585771D02*
X240619345Y-92823866D01*
X240619345Y-92823866D02*
X240666964Y-93014342D01*
X240666964Y-93014342D02*
X240714583Y-93109580D01*
X240714583Y-93109580D02*
X240762202Y-93157200D01*
X240762202Y-93157200D02*
X240857440Y-93204819D01*
X240857440Y-93204819D02*
X240952678Y-93204819D01*
X240952678Y-93204819D02*
X241047916Y-93157200D01*
X241047916Y-93157200D02*
X241095535Y-93109580D01*
X241095535Y-93109580D02*
X241143154Y-93014342D01*
X241143154Y-93014342D02*
X241190773Y-92823866D01*
X241190773Y-92823866D02*
X241190773Y-92585771D01*
X241190773Y-92585771D02*
X241143154Y-92395295D01*
X241143154Y-92395295D02*
X241095535Y-92300057D01*
X241095535Y-92300057D02*
X241047916Y-92252438D01*
X241047916Y-92252438D02*
X240952678Y-92204819D01*
X60239819Y-72763214D02*
X59239819Y-72763214D01*
X59239819Y-72763214D02*
X59239819Y-73001309D01*
X59239819Y-73001309D02*
X59287438Y-73144166D01*
X59287438Y-73144166D02*
X59382676Y-73239404D01*
X59382676Y-73239404D02*
X59477914Y-73287023D01*
X59477914Y-73287023D02*
X59668390Y-73334642D01*
X59668390Y-73334642D02*
X59811247Y-73334642D01*
X59811247Y-73334642D02*
X60001723Y-73287023D01*
X60001723Y-73287023D02*
X60096961Y-73239404D01*
X60096961Y-73239404D02*
X60192200Y-73144166D01*
X60192200Y-73144166D02*
X60239819Y-73001309D01*
X60239819Y-73001309D02*
X60239819Y-72763214D01*
X59335057Y-73715595D02*
X59287438Y-73763214D01*
X59287438Y-73763214D02*
X59239819Y-73858452D01*
X59239819Y-73858452D02*
X59239819Y-74096547D01*
X59239819Y-74096547D02*
X59287438Y-74191785D01*
X59287438Y-74191785D02*
X59335057Y-74239404D01*
X59335057Y-74239404D02*
X59430295Y-74287023D01*
X59430295Y-74287023D02*
X59525533Y-74287023D01*
X59525533Y-74287023D02*
X59668390Y-74239404D01*
X59668390Y-74239404D02*
X60239819Y-73667976D01*
X60239819Y-73667976D02*
X60239819Y-74287023D01*
X59239819Y-75191785D02*
X59239819Y-74715595D01*
X59239819Y-74715595D02*
X59716009Y-74667976D01*
X59716009Y-74667976D02*
X59668390Y-74715595D01*
X59668390Y-74715595D02*
X59620771Y-74810833D01*
X59620771Y-74810833D02*
X59620771Y-75048928D01*
X59620771Y-75048928D02*
X59668390Y-75144166D01*
X59668390Y-75144166D02*
X59716009Y-75191785D01*
X59716009Y-75191785D02*
X59811247Y-75239404D01*
X59811247Y-75239404D02*
X60049342Y-75239404D01*
X60049342Y-75239404D02*
X60144580Y-75191785D01*
X60144580Y-75191785D02*
X60192200Y-75144166D01*
X60192200Y-75144166D02*
X60239819Y-75048928D01*
X60239819Y-75048928D02*
X60239819Y-74810833D01*
X60239819Y-74810833D02*
X60192200Y-74715595D01*
X60192200Y-74715595D02*
X60144580Y-74667976D01*
X112627319Y-53316339D02*
X111627319Y-53316339D01*
X111627319Y-53316339D02*
X111627319Y-53554434D01*
X111627319Y-53554434D02*
X111674938Y-53697291D01*
X111674938Y-53697291D02*
X111770176Y-53792529D01*
X111770176Y-53792529D02*
X111865414Y-53840148D01*
X111865414Y-53840148D02*
X112055890Y-53887767D01*
X112055890Y-53887767D02*
X112198747Y-53887767D01*
X112198747Y-53887767D02*
X112389223Y-53840148D01*
X112389223Y-53840148D02*
X112484461Y-53792529D01*
X112484461Y-53792529D02*
X112579700Y-53697291D01*
X112579700Y-53697291D02*
X112627319Y-53554434D01*
X112627319Y-53554434D02*
X112627319Y-53316339D01*
X112627319Y-54840148D02*
X112627319Y-54268720D01*
X112627319Y-54554434D02*
X111627319Y-54554434D01*
X111627319Y-54554434D02*
X111770176Y-54459196D01*
X111770176Y-54459196D02*
X111865414Y-54363958D01*
X111865414Y-54363958D02*
X111913033Y-54268720D01*
X111627319Y-55697291D02*
X111627319Y-55506815D01*
X111627319Y-55506815D02*
X111674938Y-55411577D01*
X111674938Y-55411577D02*
X111722557Y-55363958D01*
X111722557Y-55363958D02*
X111865414Y-55268720D01*
X111865414Y-55268720D02*
X112055890Y-55221101D01*
X112055890Y-55221101D02*
X112436842Y-55221101D01*
X112436842Y-55221101D02*
X112532080Y-55268720D01*
X112532080Y-55268720D02*
X112579700Y-55316339D01*
X112579700Y-55316339D02*
X112627319Y-55411577D01*
X112627319Y-55411577D02*
X112627319Y-55602053D01*
X112627319Y-55602053D02*
X112579700Y-55697291D01*
X112579700Y-55697291D02*
X112532080Y-55744910D01*
X112532080Y-55744910D02*
X112436842Y-55792529D01*
X112436842Y-55792529D02*
X112198747Y-55792529D01*
X112198747Y-55792529D02*
X112103509Y-55744910D01*
X112103509Y-55744910D02*
X112055890Y-55697291D01*
X112055890Y-55697291D02*
X112008271Y-55602053D01*
X112008271Y-55602053D02*
X112008271Y-55411577D01*
X112008271Y-55411577D02*
X112055890Y-55316339D01*
X112055890Y-55316339D02*
X112103509Y-55268720D01*
X112103509Y-55268720D02*
X112198747Y-55221101D01*
X233817069Y-91416339D02*
X232817069Y-91416339D01*
X232817069Y-91416339D02*
X232817069Y-91654434D01*
X232817069Y-91654434D02*
X232864688Y-91797291D01*
X232864688Y-91797291D02*
X232959926Y-91892529D01*
X232959926Y-91892529D02*
X233055164Y-91940148D01*
X233055164Y-91940148D02*
X233245640Y-91987767D01*
X233245640Y-91987767D02*
X233388497Y-91987767D01*
X233388497Y-91987767D02*
X233578973Y-91940148D01*
X233578973Y-91940148D02*
X233674211Y-91892529D01*
X233674211Y-91892529D02*
X233769450Y-91797291D01*
X233769450Y-91797291D02*
X233817069Y-91654434D01*
X233817069Y-91654434D02*
X233817069Y-91416339D01*
X233150402Y-92844910D02*
X233817069Y-92844910D01*
X232769450Y-92606815D02*
X233483735Y-92368720D01*
X233483735Y-92368720D02*
X233483735Y-92987767D01*
X232912307Y-93321101D02*
X232864688Y-93368720D01*
X232864688Y-93368720D02*
X232817069Y-93463958D01*
X232817069Y-93463958D02*
X232817069Y-93702053D01*
X232817069Y-93702053D02*
X232864688Y-93797291D01*
X232864688Y-93797291D02*
X232912307Y-93844910D01*
X232912307Y-93844910D02*
X233007545Y-93892529D01*
X233007545Y-93892529D02*
X233102783Y-93892529D01*
X233102783Y-93892529D02*
X233245640Y-93844910D01*
X233245640Y-93844910D02*
X233817069Y-93273482D01*
X233817069Y-93273482D02*
X233817069Y-93892529D01*
X183906069Y-91416339D02*
X182906069Y-91416339D01*
X182906069Y-91416339D02*
X182906069Y-91654434D01*
X182906069Y-91654434D02*
X182953688Y-91797291D01*
X182953688Y-91797291D02*
X183048926Y-91892529D01*
X183048926Y-91892529D02*
X183144164Y-91940148D01*
X183144164Y-91940148D02*
X183334640Y-91987767D01*
X183334640Y-91987767D02*
X183477497Y-91987767D01*
X183477497Y-91987767D02*
X183667973Y-91940148D01*
X183667973Y-91940148D02*
X183763211Y-91892529D01*
X183763211Y-91892529D02*
X183858450Y-91797291D01*
X183858450Y-91797291D02*
X183906069Y-91654434D01*
X183906069Y-91654434D02*
X183906069Y-91416339D01*
X183239402Y-92844910D02*
X183906069Y-92844910D01*
X182858450Y-92606815D02*
X183572735Y-92368720D01*
X183572735Y-92368720D02*
X183572735Y-92987767D01*
X182906069Y-93559196D02*
X182906069Y-93654434D01*
X182906069Y-93654434D02*
X182953688Y-93749672D01*
X182953688Y-93749672D02*
X183001307Y-93797291D01*
X183001307Y-93797291D02*
X183096545Y-93844910D01*
X183096545Y-93844910D02*
X183287021Y-93892529D01*
X183287021Y-93892529D02*
X183525116Y-93892529D01*
X183525116Y-93892529D02*
X183715592Y-93844910D01*
X183715592Y-93844910D02*
X183810830Y-93797291D01*
X183810830Y-93797291D02*
X183858450Y-93749672D01*
X183858450Y-93749672D02*
X183906069Y-93654434D01*
X183906069Y-93654434D02*
X183906069Y-93559196D01*
X183906069Y-93559196D02*
X183858450Y-93463958D01*
X183858450Y-93463958D02*
X183810830Y-93416339D01*
X183810830Y-93416339D02*
X183715592Y-93368720D01*
X183715592Y-93368720D02*
X183525116Y-93321101D01*
X183525116Y-93321101D02*
X183287021Y-93321101D01*
X183287021Y-93321101D02*
X183096545Y-93368720D01*
X183096545Y-93368720D02*
X183001307Y-93416339D01*
X183001307Y-93416339D02*
X182953688Y-93463958D01*
X182953688Y-93463958D02*
X182906069Y-93559196D01*
X69764819Y-34742530D02*
X68764819Y-34742530D01*
X68764819Y-34742530D02*
X68764819Y-34980625D01*
X68764819Y-34980625D02*
X68812438Y-35123482D01*
X68812438Y-35123482D02*
X68907676Y-35218720D01*
X68907676Y-35218720D02*
X69002914Y-35266339D01*
X69002914Y-35266339D02*
X69193390Y-35313958D01*
X69193390Y-35313958D02*
X69336247Y-35313958D01*
X69336247Y-35313958D02*
X69526723Y-35266339D01*
X69526723Y-35266339D02*
X69621961Y-35218720D01*
X69621961Y-35218720D02*
X69717200Y-35123482D01*
X69717200Y-35123482D02*
X69764819Y-34980625D01*
X69764819Y-34980625D02*
X69764819Y-34742530D01*
X68860057Y-35694911D02*
X68812438Y-35742530D01*
X68812438Y-35742530D02*
X68764819Y-35837768D01*
X68764819Y-35837768D02*
X68764819Y-36075863D01*
X68764819Y-36075863D02*
X68812438Y-36171101D01*
X68812438Y-36171101D02*
X68860057Y-36218720D01*
X68860057Y-36218720D02*
X68955295Y-36266339D01*
X68955295Y-36266339D02*
X69050533Y-36266339D01*
X69050533Y-36266339D02*
X69193390Y-36218720D01*
X69193390Y-36218720D02*
X69764819Y-35647292D01*
X69764819Y-35647292D02*
X69764819Y-36266339D01*
X255293154Y-78969819D02*
X255293154Y-79779342D01*
X255293154Y-79779342D02*
X255245535Y-79874580D01*
X255245535Y-79874580D02*
X255197916Y-79922200D01*
X255197916Y-79922200D02*
X255102678Y-79969819D01*
X255102678Y-79969819D02*
X254912202Y-79969819D01*
X254912202Y-79969819D02*
X254816964Y-79922200D01*
X254816964Y-79922200D02*
X254769345Y-79874580D01*
X254769345Y-79874580D02*
X254721726Y-79779342D01*
X254721726Y-79779342D02*
X254721726Y-78969819D01*
X254340773Y-78969819D02*
X253721726Y-78969819D01*
X253721726Y-78969819D02*
X254055059Y-79350771D01*
X254055059Y-79350771D02*
X253912202Y-79350771D01*
X253912202Y-79350771D02*
X253816964Y-79398390D01*
X253816964Y-79398390D02*
X253769345Y-79446009D01*
X253769345Y-79446009D02*
X253721726Y-79541247D01*
X253721726Y-79541247D02*
X253721726Y-79779342D01*
X253721726Y-79779342D02*
X253769345Y-79874580D01*
X253769345Y-79874580D02*
X253816964Y-79922200D01*
X253816964Y-79922200D02*
X253912202Y-79969819D01*
X253912202Y-79969819D02*
X254197916Y-79969819D01*
X254197916Y-79969819D02*
X254293154Y-79922200D01*
X254293154Y-79922200D02*
X254340773Y-79874580D01*
X53096069Y-53316339D02*
X52096069Y-53316339D01*
X52096069Y-53316339D02*
X52096069Y-53554434D01*
X52096069Y-53554434D02*
X52143688Y-53697291D01*
X52143688Y-53697291D02*
X52238926Y-53792529D01*
X52238926Y-53792529D02*
X52334164Y-53840148D01*
X52334164Y-53840148D02*
X52524640Y-53887767D01*
X52524640Y-53887767D02*
X52667497Y-53887767D01*
X52667497Y-53887767D02*
X52857973Y-53840148D01*
X52857973Y-53840148D02*
X52953211Y-53792529D01*
X52953211Y-53792529D02*
X53048450Y-53697291D01*
X53048450Y-53697291D02*
X53096069Y-53554434D01*
X53096069Y-53554434D02*
X53096069Y-53316339D01*
X53096069Y-54840148D02*
X53096069Y-54268720D01*
X53096069Y-54554434D02*
X52096069Y-54554434D01*
X52096069Y-54554434D02*
X52238926Y-54459196D01*
X52238926Y-54459196D02*
X52334164Y-54363958D01*
X52334164Y-54363958D02*
X52381783Y-54268720D01*
X52096069Y-55173482D02*
X52096069Y-55792529D01*
X52096069Y-55792529D02*
X52477021Y-55459196D01*
X52477021Y-55459196D02*
X52477021Y-55602053D01*
X52477021Y-55602053D02*
X52524640Y-55697291D01*
X52524640Y-55697291D02*
X52572259Y-55744910D01*
X52572259Y-55744910D02*
X52667497Y-55792529D01*
X52667497Y-55792529D02*
X52905592Y-55792529D01*
X52905592Y-55792529D02*
X53000830Y-55744910D01*
X53000830Y-55744910D02*
X53048450Y-55697291D01*
X53048450Y-55697291D02*
X53096069Y-55602053D01*
X53096069Y-55602053D02*
X53096069Y-55316339D01*
X53096069Y-55316339D02*
X53048450Y-55221101D01*
X53048450Y-55221101D02*
X53000830Y-55173482D01*
X207597916Y-45584580D02*
X207645535Y-45632200D01*
X207645535Y-45632200D02*
X207788392Y-45679819D01*
X207788392Y-45679819D02*
X207883630Y-45679819D01*
X207883630Y-45679819D02*
X208026487Y-45632200D01*
X208026487Y-45632200D02*
X208121725Y-45536961D01*
X208121725Y-45536961D02*
X208169344Y-45441723D01*
X208169344Y-45441723D02*
X208216963Y-45251247D01*
X208216963Y-45251247D02*
X208216963Y-45108390D01*
X208216963Y-45108390D02*
X208169344Y-44917914D01*
X208169344Y-44917914D02*
X208121725Y-44822676D01*
X208121725Y-44822676D02*
X208026487Y-44727438D01*
X208026487Y-44727438D02*
X207883630Y-44679819D01*
X207883630Y-44679819D02*
X207788392Y-44679819D01*
X207788392Y-44679819D02*
X207645535Y-44727438D01*
X207645535Y-44727438D02*
X207597916Y-44775057D01*
X206645535Y-45679819D02*
X207216963Y-45679819D01*
X206931249Y-45679819D02*
X206931249Y-44679819D01*
X206931249Y-44679819D02*
X207026487Y-44822676D01*
X207026487Y-44822676D02*
X207121725Y-44917914D01*
X207121725Y-44917914D02*
X207216963Y-44965533D01*
X261438807Y-89461322D02*
X261506151Y-89461322D01*
X261506151Y-89461322D02*
X261640838Y-89393978D01*
X261640838Y-89393978D02*
X261708181Y-89326635D01*
X261708181Y-89326635D02*
X261775525Y-89191948D01*
X261775525Y-89191948D02*
X261775525Y-89057261D01*
X261775525Y-89057261D02*
X261741853Y-88956246D01*
X261741853Y-88956246D02*
X261640838Y-88787887D01*
X261640838Y-88787887D02*
X261539823Y-88686872D01*
X261539823Y-88686872D02*
X261371464Y-88585856D01*
X261371464Y-88585856D02*
X261270449Y-88552185D01*
X261270449Y-88552185D02*
X261135762Y-88552185D01*
X261135762Y-88552185D02*
X261001075Y-88619528D01*
X261001075Y-88619528D02*
X260933731Y-88686872D01*
X260933731Y-88686872D02*
X260866388Y-88821559D01*
X260866388Y-88821559D02*
X260866388Y-88888902D01*
X260563342Y-89057261D02*
X260091937Y-89528665D01*
X260091937Y-89528665D02*
X261102090Y-89932726D01*
X84052319Y-72763214D02*
X83052319Y-72763214D01*
X83052319Y-72763214D02*
X83052319Y-73001309D01*
X83052319Y-73001309D02*
X83099938Y-73144166D01*
X83099938Y-73144166D02*
X83195176Y-73239404D01*
X83195176Y-73239404D02*
X83290414Y-73287023D01*
X83290414Y-73287023D02*
X83480890Y-73334642D01*
X83480890Y-73334642D02*
X83623747Y-73334642D01*
X83623747Y-73334642D02*
X83814223Y-73287023D01*
X83814223Y-73287023D02*
X83909461Y-73239404D01*
X83909461Y-73239404D02*
X84004700Y-73144166D01*
X84004700Y-73144166D02*
X84052319Y-73001309D01*
X84052319Y-73001309D02*
X84052319Y-72763214D01*
X83147557Y-73715595D02*
X83099938Y-73763214D01*
X83099938Y-73763214D02*
X83052319Y-73858452D01*
X83052319Y-73858452D02*
X83052319Y-74096547D01*
X83052319Y-74096547D02*
X83099938Y-74191785D01*
X83099938Y-74191785D02*
X83147557Y-74239404D01*
X83147557Y-74239404D02*
X83242795Y-74287023D01*
X83242795Y-74287023D02*
X83338033Y-74287023D01*
X83338033Y-74287023D02*
X83480890Y-74239404D01*
X83480890Y-74239404D02*
X84052319Y-73667976D01*
X84052319Y-73667976D02*
X84052319Y-74287023D01*
X83052319Y-75144166D02*
X83052319Y-74953690D01*
X83052319Y-74953690D02*
X83099938Y-74858452D01*
X83099938Y-74858452D02*
X83147557Y-74810833D01*
X83147557Y-74810833D02*
X83290414Y-74715595D01*
X83290414Y-74715595D02*
X83480890Y-74667976D01*
X83480890Y-74667976D02*
X83861842Y-74667976D01*
X83861842Y-74667976D02*
X83957080Y-74715595D01*
X83957080Y-74715595D02*
X84004700Y-74763214D01*
X84004700Y-74763214D02*
X84052319Y-74858452D01*
X84052319Y-74858452D02*
X84052319Y-75048928D01*
X84052319Y-75048928D02*
X84004700Y-75144166D01*
X84004700Y-75144166D02*
X83957080Y-75191785D01*
X83957080Y-75191785D02*
X83861842Y-75239404D01*
X83861842Y-75239404D02*
X83623747Y-75239404D01*
X83623747Y-75239404D02*
X83528509Y-75191785D01*
X83528509Y-75191785D02*
X83480890Y-75144166D01*
X83480890Y-75144166D02*
X83433271Y-75048928D01*
X83433271Y-75048928D02*
X83433271Y-74858452D01*
X83433271Y-74858452D02*
X83480890Y-74763214D01*
X83480890Y-74763214D02*
X83528509Y-74715595D01*
X83528509Y-74715595D02*
X83623747Y-74667976D01*
X126914819Y-34742530D02*
X125914819Y-34742530D01*
X125914819Y-34742530D02*
X125914819Y-34980625D01*
X125914819Y-34980625D02*
X125962438Y-35123482D01*
X125962438Y-35123482D02*
X126057676Y-35218720D01*
X126057676Y-35218720D02*
X126152914Y-35266339D01*
X126152914Y-35266339D02*
X126343390Y-35313958D01*
X126343390Y-35313958D02*
X126486247Y-35313958D01*
X126486247Y-35313958D02*
X126676723Y-35266339D01*
X126676723Y-35266339D02*
X126771961Y-35218720D01*
X126771961Y-35218720D02*
X126867200Y-35123482D01*
X126867200Y-35123482D02*
X126914819Y-34980625D01*
X126914819Y-34980625D02*
X126914819Y-34742530D01*
X125914819Y-36218720D02*
X125914819Y-35742530D01*
X125914819Y-35742530D02*
X126391009Y-35694911D01*
X126391009Y-35694911D02*
X126343390Y-35742530D01*
X126343390Y-35742530D02*
X126295771Y-35837768D01*
X126295771Y-35837768D02*
X126295771Y-36075863D01*
X126295771Y-36075863D02*
X126343390Y-36171101D01*
X126343390Y-36171101D02*
X126391009Y-36218720D01*
X126391009Y-36218720D02*
X126486247Y-36266339D01*
X126486247Y-36266339D02*
X126724342Y-36266339D01*
X126724342Y-36266339D02*
X126819580Y-36218720D01*
X126819580Y-36218720D02*
X126867200Y-36171101D01*
X126867200Y-36171101D02*
X126914819Y-36075863D01*
X126914819Y-36075863D02*
X126914819Y-35837768D01*
X126914819Y-35837768D02*
X126867200Y-35742530D01*
X126867200Y-35742530D02*
X126819580Y-35694911D01*
X201136069Y-41891666D02*
X201850354Y-41891666D01*
X201850354Y-41891666D02*
X201993211Y-41844047D01*
X201993211Y-41844047D02*
X202088450Y-41748809D01*
X202088450Y-41748809D02*
X202136069Y-41605952D01*
X202136069Y-41605952D02*
X202136069Y-41510714D01*
X202136069Y-42891666D02*
X202136069Y-42320238D01*
X202136069Y-42605952D02*
X201136069Y-42605952D01*
X201136069Y-42605952D02*
X201278926Y-42510714D01*
X201278926Y-42510714D02*
X201374164Y-42415476D01*
X201374164Y-42415476D02*
X201421783Y-42320238D01*
X150727319Y-53316339D02*
X149727319Y-53316339D01*
X149727319Y-53316339D02*
X149727319Y-53554434D01*
X149727319Y-53554434D02*
X149774938Y-53697291D01*
X149774938Y-53697291D02*
X149870176Y-53792529D01*
X149870176Y-53792529D02*
X149965414Y-53840148D01*
X149965414Y-53840148D02*
X150155890Y-53887767D01*
X150155890Y-53887767D02*
X150298747Y-53887767D01*
X150298747Y-53887767D02*
X150489223Y-53840148D01*
X150489223Y-53840148D02*
X150584461Y-53792529D01*
X150584461Y-53792529D02*
X150679700Y-53697291D01*
X150679700Y-53697291D02*
X150727319Y-53554434D01*
X150727319Y-53554434D02*
X150727319Y-53316339D01*
X150727319Y-54840148D02*
X150727319Y-54268720D01*
X150727319Y-54554434D02*
X149727319Y-54554434D01*
X149727319Y-54554434D02*
X149870176Y-54459196D01*
X149870176Y-54459196D02*
X149965414Y-54363958D01*
X149965414Y-54363958D02*
X150013033Y-54268720D01*
X150155890Y-55411577D02*
X150108271Y-55316339D01*
X150108271Y-55316339D02*
X150060652Y-55268720D01*
X150060652Y-55268720D02*
X149965414Y-55221101D01*
X149965414Y-55221101D02*
X149917795Y-55221101D01*
X149917795Y-55221101D02*
X149822557Y-55268720D01*
X149822557Y-55268720D02*
X149774938Y-55316339D01*
X149774938Y-55316339D02*
X149727319Y-55411577D01*
X149727319Y-55411577D02*
X149727319Y-55602053D01*
X149727319Y-55602053D02*
X149774938Y-55697291D01*
X149774938Y-55697291D02*
X149822557Y-55744910D01*
X149822557Y-55744910D02*
X149917795Y-55792529D01*
X149917795Y-55792529D02*
X149965414Y-55792529D01*
X149965414Y-55792529D02*
X150060652Y-55744910D01*
X150060652Y-55744910D02*
X150108271Y-55697291D01*
X150108271Y-55697291D02*
X150155890Y-55602053D01*
X150155890Y-55602053D02*
X150155890Y-55411577D01*
X150155890Y-55411577D02*
X150203509Y-55316339D01*
X150203509Y-55316339D02*
X150251128Y-55268720D01*
X150251128Y-55268720D02*
X150346366Y-55221101D01*
X150346366Y-55221101D02*
X150536842Y-55221101D01*
X150536842Y-55221101D02*
X150632080Y-55268720D01*
X150632080Y-55268720D02*
X150679700Y-55316339D01*
X150679700Y-55316339D02*
X150727319Y-55411577D01*
X150727319Y-55411577D02*
X150727319Y-55602053D01*
X150727319Y-55602053D02*
X150679700Y-55697291D01*
X150679700Y-55697291D02*
X150632080Y-55744910D01*
X150632080Y-55744910D02*
X150536842Y-55792529D01*
X150536842Y-55792529D02*
X150346366Y-55792529D01*
X150346366Y-55792529D02*
X150251128Y-55744910D01*
X150251128Y-55744910D02*
X150203509Y-55697291D01*
X150203509Y-55697291D02*
X150155890Y-55602053D01*
X122152319Y-72763214D02*
X121152319Y-72763214D01*
X121152319Y-72763214D02*
X121152319Y-73001309D01*
X121152319Y-73001309D02*
X121199938Y-73144166D01*
X121199938Y-73144166D02*
X121295176Y-73239404D01*
X121295176Y-73239404D02*
X121390414Y-73287023D01*
X121390414Y-73287023D02*
X121580890Y-73334642D01*
X121580890Y-73334642D02*
X121723747Y-73334642D01*
X121723747Y-73334642D02*
X121914223Y-73287023D01*
X121914223Y-73287023D02*
X122009461Y-73239404D01*
X122009461Y-73239404D02*
X122104700Y-73144166D01*
X122104700Y-73144166D02*
X122152319Y-73001309D01*
X122152319Y-73001309D02*
X122152319Y-72763214D01*
X121247557Y-73715595D02*
X121199938Y-73763214D01*
X121199938Y-73763214D02*
X121152319Y-73858452D01*
X121152319Y-73858452D02*
X121152319Y-74096547D01*
X121152319Y-74096547D02*
X121199938Y-74191785D01*
X121199938Y-74191785D02*
X121247557Y-74239404D01*
X121247557Y-74239404D02*
X121342795Y-74287023D01*
X121342795Y-74287023D02*
X121438033Y-74287023D01*
X121438033Y-74287023D02*
X121580890Y-74239404D01*
X121580890Y-74239404D02*
X122152319Y-73667976D01*
X122152319Y-73667976D02*
X122152319Y-74287023D01*
X121580890Y-74858452D02*
X121533271Y-74763214D01*
X121533271Y-74763214D02*
X121485652Y-74715595D01*
X121485652Y-74715595D02*
X121390414Y-74667976D01*
X121390414Y-74667976D02*
X121342795Y-74667976D01*
X121342795Y-74667976D02*
X121247557Y-74715595D01*
X121247557Y-74715595D02*
X121199938Y-74763214D01*
X121199938Y-74763214D02*
X121152319Y-74858452D01*
X121152319Y-74858452D02*
X121152319Y-75048928D01*
X121152319Y-75048928D02*
X121199938Y-75144166D01*
X121199938Y-75144166D02*
X121247557Y-75191785D01*
X121247557Y-75191785D02*
X121342795Y-75239404D01*
X121342795Y-75239404D02*
X121390414Y-75239404D01*
X121390414Y-75239404D02*
X121485652Y-75191785D01*
X121485652Y-75191785D02*
X121533271Y-75144166D01*
X121533271Y-75144166D02*
X121580890Y-75048928D01*
X121580890Y-75048928D02*
X121580890Y-74858452D01*
X121580890Y-74858452D02*
X121628509Y-74763214D01*
X121628509Y-74763214D02*
X121676128Y-74715595D01*
X121676128Y-74715595D02*
X121771366Y-74667976D01*
X121771366Y-74667976D02*
X121961842Y-74667976D01*
X121961842Y-74667976D02*
X122057080Y-74715595D01*
X122057080Y-74715595D02*
X122104700Y-74763214D01*
X122104700Y-74763214D02*
X122152319Y-74858452D01*
X122152319Y-74858452D02*
X122152319Y-75048928D01*
X122152319Y-75048928D02*
X122104700Y-75144166D01*
X122104700Y-75144166D02*
X122057080Y-75191785D01*
X122057080Y-75191785D02*
X121961842Y-75239404D01*
X121961842Y-75239404D02*
X121771366Y-75239404D01*
X121771366Y-75239404D02*
X121676128Y-75191785D01*
X121676128Y-75191785D02*
X121628509Y-75144166D01*
X121628509Y-75144166D02*
X121580890Y-75048928D01*
X245977319Y-53316339D02*
X244977319Y-53316339D01*
X244977319Y-53316339D02*
X244977319Y-53554434D01*
X244977319Y-53554434D02*
X245024938Y-53697291D01*
X245024938Y-53697291D02*
X245120176Y-53792529D01*
X245120176Y-53792529D02*
X245215414Y-53840148D01*
X245215414Y-53840148D02*
X245405890Y-53887767D01*
X245405890Y-53887767D02*
X245548747Y-53887767D01*
X245548747Y-53887767D02*
X245739223Y-53840148D01*
X245739223Y-53840148D02*
X245834461Y-53792529D01*
X245834461Y-53792529D02*
X245929700Y-53697291D01*
X245929700Y-53697291D02*
X245977319Y-53554434D01*
X245977319Y-53554434D02*
X245977319Y-53316339D01*
X245072557Y-54268720D02*
X245024938Y-54316339D01*
X245024938Y-54316339D02*
X244977319Y-54411577D01*
X244977319Y-54411577D02*
X244977319Y-54649672D01*
X244977319Y-54649672D02*
X245024938Y-54744910D01*
X245024938Y-54744910D02*
X245072557Y-54792529D01*
X245072557Y-54792529D02*
X245167795Y-54840148D01*
X245167795Y-54840148D02*
X245263033Y-54840148D01*
X245263033Y-54840148D02*
X245405890Y-54792529D01*
X245405890Y-54792529D02*
X245977319Y-54221101D01*
X245977319Y-54221101D02*
X245977319Y-54840148D01*
X244977319Y-55173482D02*
X244977319Y-55792529D01*
X244977319Y-55792529D02*
X245358271Y-55459196D01*
X245358271Y-55459196D02*
X245358271Y-55602053D01*
X245358271Y-55602053D02*
X245405890Y-55697291D01*
X245405890Y-55697291D02*
X245453509Y-55744910D01*
X245453509Y-55744910D02*
X245548747Y-55792529D01*
X245548747Y-55792529D02*
X245786842Y-55792529D01*
X245786842Y-55792529D02*
X245882080Y-55744910D01*
X245882080Y-55744910D02*
X245929700Y-55697291D01*
X245929700Y-55697291D02*
X245977319Y-55602053D01*
X245977319Y-55602053D02*
X245977319Y-55316339D01*
X245977319Y-55316339D02*
X245929700Y-55221101D01*
X245929700Y-55221101D02*
X245882080Y-55173482D01*
X169777319Y-53316339D02*
X168777319Y-53316339D01*
X168777319Y-53316339D02*
X168777319Y-53554434D01*
X168777319Y-53554434D02*
X168824938Y-53697291D01*
X168824938Y-53697291D02*
X168920176Y-53792529D01*
X168920176Y-53792529D02*
X169015414Y-53840148D01*
X169015414Y-53840148D02*
X169205890Y-53887767D01*
X169205890Y-53887767D02*
X169348747Y-53887767D01*
X169348747Y-53887767D02*
X169539223Y-53840148D01*
X169539223Y-53840148D02*
X169634461Y-53792529D01*
X169634461Y-53792529D02*
X169729700Y-53697291D01*
X169729700Y-53697291D02*
X169777319Y-53554434D01*
X169777319Y-53554434D02*
X169777319Y-53316339D01*
X169777319Y-54840148D02*
X169777319Y-54268720D01*
X169777319Y-54554434D02*
X168777319Y-54554434D01*
X168777319Y-54554434D02*
X168920176Y-54459196D01*
X168920176Y-54459196D02*
X169015414Y-54363958D01*
X169015414Y-54363958D02*
X169063033Y-54268720D01*
X169777319Y-55316339D02*
X169777319Y-55506815D01*
X169777319Y-55506815D02*
X169729700Y-55602053D01*
X169729700Y-55602053D02*
X169682080Y-55649672D01*
X169682080Y-55649672D02*
X169539223Y-55744910D01*
X169539223Y-55744910D02*
X169348747Y-55792529D01*
X169348747Y-55792529D02*
X168967795Y-55792529D01*
X168967795Y-55792529D02*
X168872557Y-55744910D01*
X168872557Y-55744910D02*
X168824938Y-55697291D01*
X168824938Y-55697291D02*
X168777319Y-55602053D01*
X168777319Y-55602053D02*
X168777319Y-55411577D01*
X168777319Y-55411577D02*
X168824938Y-55316339D01*
X168824938Y-55316339D02*
X168872557Y-55268720D01*
X168872557Y-55268720D02*
X168967795Y-55221101D01*
X168967795Y-55221101D02*
X169205890Y-55221101D01*
X169205890Y-55221101D02*
X169301128Y-55268720D01*
X169301128Y-55268720D02*
X169348747Y-55316339D01*
X169348747Y-55316339D02*
X169396366Y-55411577D01*
X169396366Y-55411577D02*
X169396366Y-55602053D01*
X169396366Y-55602053D02*
X169348747Y-55697291D01*
X169348747Y-55697291D02*
X169301128Y-55744910D01*
X169301128Y-55744910D02*
X169205890Y-55792529D01*
X251190830Y-88582142D02*
X251238450Y-88534523D01*
X251238450Y-88534523D02*
X251286069Y-88391666D01*
X251286069Y-88391666D02*
X251286069Y-88296428D01*
X251286069Y-88296428D02*
X251238450Y-88153571D01*
X251238450Y-88153571D02*
X251143211Y-88058333D01*
X251143211Y-88058333D02*
X251047973Y-88010714D01*
X251047973Y-88010714D02*
X250857497Y-87963095D01*
X250857497Y-87963095D02*
X250714640Y-87963095D01*
X250714640Y-87963095D02*
X250524164Y-88010714D01*
X250524164Y-88010714D02*
X250428926Y-88058333D01*
X250428926Y-88058333D02*
X250333688Y-88153571D01*
X250333688Y-88153571D02*
X250286069Y-88296428D01*
X250286069Y-88296428D02*
X250286069Y-88391666D01*
X250286069Y-88391666D02*
X250333688Y-88534523D01*
X250333688Y-88534523D02*
X250381307Y-88582142D01*
X251286069Y-89534523D02*
X251286069Y-88963095D01*
X251286069Y-89248809D02*
X250286069Y-89248809D01*
X250286069Y-89248809D02*
X250428926Y-89153571D01*
X250428926Y-89153571D02*
X250524164Y-89058333D01*
X250524164Y-89058333D02*
X250571783Y-88963095D01*
X250286069Y-90391666D02*
X250286069Y-90201190D01*
X250286069Y-90201190D02*
X250333688Y-90105952D01*
X250333688Y-90105952D02*
X250381307Y-90058333D01*
X250381307Y-90058333D02*
X250524164Y-89963095D01*
X250524164Y-89963095D02*
X250714640Y-89915476D01*
X250714640Y-89915476D02*
X251095592Y-89915476D01*
X251095592Y-89915476D02*
X251190830Y-89963095D01*
X251190830Y-89963095D02*
X251238450Y-90010714D01*
X251238450Y-90010714D02*
X251286069Y-90105952D01*
X251286069Y-90105952D02*
X251286069Y-90296428D01*
X251286069Y-90296428D02*
X251238450Y-90391666D01*
X251238450Y-90391666D02*
X251190830Y-90439285D01*
X251190830Y-90439285D02*
X251095592Y-90486904D01*
X251095592Y-90486904D02*
X250857497Y-90486904D01*
X250857497Y-90486904D02*
X250762259Y-90439285D01*
X250762259Y-90439285D02*
X250714640Y-90391666D01*
X250714640Y-90391666D02*
X250667021Y-90296428D01*
X250667021Y-90296428D02*
X250667021Y-90105952D01*
X250667021Y-90105952D02*
X250714640Y-90010714D01*
X250714640Y-90010714D02*
X250762259Y-89963095D01*
X250762259Y-89963095D02*
X250857497Y-89915476D01*
X145964819Y-34742530D02*
X144964819Y-34742530D01*
X144964819Y-34742530D02*
X144964819Y-34980625D01*
X144964819Y-34980625D02*
X145012438Y-35123482D01*
X145012438Y-35123482D02*
X145107676Y-35218720D01*
X145107676Y-35218720D02*
X145202914Y-35266339D01*
X145202914Y-35266339D02*
X145393390Y-35313958D01*
X145393390Y-35313958D02*
X145536247Y-35313958D01*
X145536247Y-35313958D02*
X145726723Y-35266339D01*
X145726723Y-35266339D02*
X145821961Y-35218720D01*
X145821961Y-35218720D02*
X145917200Y-35123482D01*
X145917200Y-35123482D02*
X145964819Y-34980625D01*
X145964819Y-34980625D02*
X145964819Y-34742530D01*
X144964819Y-36171101D02*
X144964819Y-35980625D01*
X144964819Y-35980625D02*
X145012438Y-35885387D01*
X145012438Y-35885387D02*
X145060057Y-35837768D01*
X145060057Y-35837768D02*
X145202914Y-35742530D01*
X145202914Y-35742530D02*
X145393390Y-35694911D01*
X145393390Y-35694911D02*
X145774342Y-35694911D01*
X145774342Y-35694911D02*
X145869580Y-35742530D01*
X145869580Y-35742530D02*
X145917200Y-35790149D01*
X145917200Y-35790149D02*
X145964819Y-35885387D01*
X145964819Y-35885387D02*
X145964819Y-36075863D01*
X145964819Y-36075863D02*
X145917200Y-36171101D01*
X145917200Y-36171101D02*
X145869580Y-36218720D01*
X145869580Y-36218720D02*
X145774342Y-36266339D01*
X145774342Y-36266339D02*
X145536247Y-36266339D01*
X145536247Y-36266339D02*
X145441009Y-36218720D01*
X145441009Y-36218720D02*
X145393390Y-36171101D01*
X145393390Y-36171101D02*
X145345771Y-36075863D01*
X145345771Y-36075863D02*
X145345771Y-35885387D01*
X145345771Y-35885387D02*
X145393390Y-35790149D01*
X145393390Y-35790149D02*
X145441009Y-35742530D01*
X145441009Y-35742530D02*
X145536247Y-35694911D01*
D11*
%TO.C,D38*%
X123301250Y-91060000D02*
X123301250Y-95070000D01*
X123301250Y-95070000D02*
X125301250Y-95070000D01*
X125301250Y-91060000D02*
X125301250Y-95070000D01*
%TO.C,C18*%
X251671831Y-86565000D02*
X251390669Y-86565000D01*
X251671831Y-87585000D02*
X251390669Y-87585000D01*
%TO.C,C12*%
X259171250Y-100884419D02*
X259171250Y-101165581D01*
X260191250Y-100884419D02*
X260191250Y-101165581D01*
%TO.C,D15*%
X90122500Y-52880625D02*
X90122500Y-56890625D01*
X90122500Y-56890625D02*
X92122500Y-56890625D01*
X92122500Y-52880625D02*
X92122500Y-56890625D01*
%TO.C,D10*%
X218710000Y-33830625D02*
X218710000Y-37840625D01*
X218710000Y-37840625D02*
X220710000Y-37840625D01*
X220710000Y-33830625D02*
X220710000Y-37840625D01*
%TO.C,SW1*%
X44961250Y-84760000D02*
X44961250Y-86840000D01*
X45741250Y-83570000D02*
X46231250Y-83080000D01*
X45741250Y-88030000D02*
X46231250Y-88520000D01*
X46231250Y-83080000D02*
X49131250Y-83080000D01*
X46231250Y-88520000D02*
X49131250Y-88520000D01*
X49621250Y-83570000D02*
X49131250Y-83080000D01*
X49621250Y-88030000D02*
X49131250Y-88520000D01*
X50401250Y-84760000D02*
X50401250Y-86840000D01*
%TO.C,D30*%
X156797500Y-72327500D02*
X156797500Y-76337500D01*
X156797500Y-76337500D02*
X158797500Y-76337500D01*
X158797500Y-72327500D02*
X158797500Y-76337500D01*
%TO.C,D8*%
X180610000Y-33830625D02*
X180610000Y-37840625D01*
X180610000Y-37840625D02*
X182610000Y-37840625D01*
X182610000Y-33830625D02*
X182610000Y-37840625D01*
%TO.C,D37*%
X94885000Y-90980625D02*
X94885000Y-94990625D01*
X94885000Y-94990625D02*
X96885000Y-94990625D01*
X96885000Y-90980625D02*
X96885000Y-94990625D01*
%TO.C,D1*%
X47260000Y-33830625D02*
X47260000Y-37840625D01*
X47260000Y-37840625D02*
X49260000Y-37840625D01*
X49260000Y-33830625D02*
X49260000Y-37840625D01*
%TO.C,D33*%
X213947500Y-72327500D02*
X213947500Y-76337500D01*
X213947500Y-76337500D02*
X215947500Y-76337500D01*
X215947500Y-72327500D02*
X215947500Y-76337500D01*
%TO.C,C14*%
X256646866Y-88639427D02*
X256845677Y-88440616D01*
X257368115Y-89360676D02*
X257566926Y-89161865D01*
%TO.C,D22*%
X220431250Y-55425000D02*
X220431250Y-59435000D01*
X220431250Y-59435000D02*
X222431250Y-59435000D01*
X222431250Y-55425000D02*
X222431250Y-59435000D01*
%TO.C,D24*%
X261572500Y-52880625D02*
X261572500Y-56890625D01*
X261572500Y-56890625D02*
X263572500Y-56890625D01*
X263572500Y-52880625D02*
X263572500Y-56890625D01*
%TO.C,R5*%
X250158750Y-100537742D02*
X250158750Y-101012258D01*
X251203750Y-100537742D02*
X251203750Y-101012258D01*
%TO.C,D35*%
X254428750Y-72327500D02*
X254428750Y-76337500D01*
X254428750Y-76337500D02*
X256428750Y-76337500D01*
X256428750Y-72327500D02*
X256428750Y-76337500D01*
%TO.C,D7*%
X161560000Y-33830625D02*
X161560000Y-37840625D01*
X161560000Y-37840625D02*
X163560000Y-37840625D01*
X163560000Y-33830625D02*
X163560000Y-37840625D01*
%TO.C,D29*%
X137747500Y-72327500D02*
X137747500Y-76337500D01*
X137747500Y-76337500D02*
X139747500Y-76337500D01*
X139747500Y-72327500D02*
X139747500Y-76337500D01*
%TO.C,R3*%
X246379553Y-85862230D02*
X246044020Y-85526697D01*
X247118480Y-85123303D02*
X246782947Y-84787770D01*
%TO.C,C11*%
X245871831Y-95465000D02*
X245590669Y-95465000D01*
X245871831Y-96485000D02*
X245590669Y-96485000D01*
%TO.C,D31*%
X175847500Y-72327500D02*
X175847500Y-76337500D01*
X175847500Y-76337500D02*
X177847500Y-76337500D01*
X177847500Y-72327500D02*
X177847500Y-76337500D01*
%TO.C,D39*%
X152035000Y-90980625D02*
X152035000Y-94990625D01*
X152035000Y-94990625D02*
X154035000Y-94990625D01*
X154035000Y-90980625D02*
X154035000Y-94990625D01*
%TO.C,D11*%
X237760000Y-33830625D02*
X237760000Y-37840625D01*
X237760000Y-37840625D02*
X239760000Y-37840625D01*
X239760000Y-33830625D02*
X239760000Y-37840625D01*
%TO.C,D9*%
X199660000Y-33830625D02*
X199660000Y-37840625D01*
X199660000Y-37840625D02*
X201660000Y-37840625D01*
X201660000Y-33830625D02*
X201660000Y-37840625D01*
%TO.C,C9*%
X246170031Y-91435030D02*
X245971220Y-91236219D01*
X246891280Y-90713781D02*
X246692469Y-90514970D01*
%TO.C,D27*%
X99647500Y-72327500D02*
X99647500Y-76337500D01*
X99647500Y-76337500D02*
X101647500Y-76337500D01*
X101647500Y-72327500D02*
X101647500Y-76337500D01*
%TO.C,D34*%
X232997500Y-72327500D02*
X232997500Y-76337500D01*
X232997500Y-76337500D02*
X234997500Y-76337500D01*
X234997500Y-72327500D02*
X234997500Y-76337500D01*
%TO.C,D21*%
X204422500Y-52880625D02*
X204422500Y-56890625D01*
X204422500Y-56890625D02*
X206422500Y-56890625D01*
X206422500Y-52880625D02*
X206422500Y-56890625D01*
%TO.C,D20*%
X185372500Y-52880625D02*
X185372500Y-56890625D01*
X185372500Y-56890625D02*
X187372500Y-56890625D01*
X187372500Y-52880625D02*
X187372500Y-56890625D01*
%TO.C,C13*%
X257671250Y-101165581D02*
X257671250Y-100884419D01*
X258691250Y-101165581D02*
X258691250Y-100884419D01*
%TO.C,C3*%
X248671250Y-100634419D02*
X248671250Y-100915581D01*
X249691250Y-100634419D02*
X249691250Y-100915581D01*
%TO.C,D36*%
X73453750Y-90980625D02*
X73453750Y-94990625D01*
X73453750Y-94990625D02*
X75453750Y-94990625D01*
X75453750Y-90980625D02*
X75453750Y-94990625D01*
%TO.C,C4*%
X258490669Y-97889998D02*
X258771831Y-97889998D01*
X258490669Y-98909998D02*
X258771831Y-98909998D01*
%TO.C,R2*%
X260993992Y-82152500D02*
X261468508Y-82152500D01*
X260993992Y-83197500D02*
X261468508Y-83197500D01*
%TO.C,D4*%
X104410000Y-33830625D02*
X104410000Y-37840625D01*
X104410000Y-37840625D02*
X106410000Y-37840625D01*
X106410000Y-33830625D02*
X106410000Y-37840625D01*
%TO.C,C6*%
X258490669Y-96365000D02*
X258771831Y-96365000D01*
X258490669Y-97385000D02*
X258771831Y-97385000D01*
%TO.C,U1*%
X257021250Y-77385001D02*
X257021249Y-73625001D01*
X258281249Y-77385001D02*
X257021250Y-77385001D01*
X262581251Y-77385001D02*
X263841250Y-77385001D01*
X263841250Y-77385001D02*
X263841251Y-73625001D01*
X257121250Y-72345001D02*
X256791250Y-72585001D01*
X256791250Y-72105001D01*
X257121250Y-72345001D01*
G36*
X257121250Y-72345001D02*
G01*
X256791250Y-72585001D01*
X256791250Y-72105001D01*
X257121250Y-72345001D01*
G37*
%TO.C,SW2*%
X44961250Y-92310000D02*
X44961250Y-94390000D01*
X45741250Y-91120000D02*
X46231250Y-90630000D01*
X45741250Y-95580000D02*
X46231250Y-96070000D01*
X46231250Y-90630000D02*
X49131250Y-90630000D01*
X46231250Y-96070000D02*
X49131250Y-96070000D01*
X49621250Y-91120000D02*
X49131250Y-90630000D01*
X49621250Y-95580000D02*
X49131250Y-96070000D01*
X50401250Y-92310000D02*
X50401250Y-94390000D01*
%TO.C,C17*%
X247121251Y-99884419D02*
X247121251Y-100165581D01*
X248141251Y-99884419D02*
X248141251Y-100165581D01*
%TO.C,U2*%
X248983750Y-91465000D02*
X249633749Y-91465000D01*
X248983750Y-92114999D02*
X248983750Y-91465000D01*
X248983750Y-98035001D02*
X248983750Y-98685000D01*
X248983750Y-98685000D02*
X249633749Y-98685000D01*
X255903750Y-91465000D02*
X255553751Y-91465000D01*
X256203750Y-91705000D02*
X256203750Y-92114999D01*
X256203750Y-98035001D02*
X256203750Y-98685000D01*
X256203750Y-98685000D02*
X255553751Y-98685000D01*
X256203750Y-91465000D02*
X255963750Y-91135000D01*
X256443750Y-91135000D01*
X256203750Y-91465000D01*
G36*
X256203750Y-91465000D02*
G01*
X255963750Y-91135000D01*
X256443750Y-91135000D01*
X256203750Y-91465000D01*
G37*
%TO.C,R4*%
X245329553Y-86912230D02*
X244994020Y-86576697D01*
X246068480Y-86173303D02*
X245732947Y-85837770D01*
%TO.C,D32*%
X194897500Y-72327500D02*
X194897500Y-76337500D01*
X194897500Y-76337500D02*
X196897500Y-76337500D01*
X196897500Y-72327500D02*
X196897500Y-76337500D01*
%TO.C,R1*%
X261468508Y-84127500D02*
X260993992Y-84127500D01*
X261468508Y-85172500D02*
X260993992Y-85172500D01*
%TO.C,C5*%
X244971831Y-93795635D02*
X244690669Y-93795635D01*
X244971831Y-94815635D02*
X244690669Y-94815635D01*
%TO.C,D14*%
X71072500Y-52880625D02*
X71072500Y-56890625D01*
X71072500Y-56890625D02*
X73072500Y-56890625D01*
X73072500Y-52880625D02*
X73072500Y-56890625D01*
%TO.C,R6*%
X251658750Y-100687742D02*
X251658750Y-101162258D01*
X252703750Y-100687742D02*
X252703750Y-101162258D01*
%TO.C,C8*%
X247170031Y-90285030D02*
X246971220Y-90086219D01*
X247891280Y-89563781D02*
X247692469Y-89364970D01*
%TO.C,D12*%
X259191250Y-33830625D02*
X259191250Y-37840625D01*
X259191250Y-37840625D02*
X261191250Y-37840625D01*
X261191250Y-33830625D02*
X261191250Y-37840625D01*
%TO.C,D41*%
X209185000Y-90980625D02*
X209185000Y-94990625D01*
X209185000Y-94990625D02*
X211185000Y-94990625D01*
X211185000Y-90980625D02*
X211185000Y-94990625D01*
%TO.C,D3*%
X85360000Y-33830625D02*
X85360000Y-37840625D01*
X85360000Y-37840625D02*
X87360000Y-37840625D01*
X87360000Y-33830625D02*
X87360000Y-37840625D01*
%TO.C,C2*%
X257725204Y-89717765D02*
X257924015Y-89518954D01*
X258446453Y-90439014D02*
X258645264Y-90240203D01*
%TO.C,C15*%
X245571250Y-99884419D02*
X245571250Y-100165581D01*
X246591250Y-99884419D02*
X246591250Y-100165581D01*
%TO.C,D17*%
X128222500Y-52880625D02*
X128222500Y-56890625D01*
X128222500Y-56890625D02*
X130222500Y-56890625D01*
X130222500Y-52880625D02*
X130222500Y-56890625D01*
%TO.C,C10*%
X244971831Y-92240000D02*
X244690669Y-92240000D01*
X244971831Y-93260000D02*
X244690669Y-93260000D01*
%TO.C,D25*%
X56785000Y-72327500D02*
X56785000Y-76337500D01*
X56785000Y-76337500D02*
X58785000Y-76337500D01*
X58785000Y-72327500D02*
X58785000Y-76337500D01*
%TO.C,D16*%
X109172500Y-52880625D02*
X109172500Y-56890625D01*
X109172500Y-56890625D02*
X111172500Y-56890625D01*
X111172500Y-52880625D02*
X111172500Y-56890625D01*
%TO.C,D42*%
X230362250Y-90980625D02*
X230362250Y-94990625D01*
X230362250Y-94990625D02*
X232362250Y-94990625D01*
X232362250Y-90980625D02*
X232362250Y-94990625D01*
%TO.C,D40*%
X180451250Y-90980625D02*
X180451250Y-94990625D01*
X180451250Y-94990625D02*
X182451250Y-94990625D01*
X182451250Y-90980625D02*
X182451250Y-94990625D01*
%TO.C,D2*%
X66310000Y-33830625D02*
X66310000Y-37840625D01*
X66310000Y-37840625D02*
X68310000Y-37840625D01*
X68310000Y-33830625D02*
X68310000Y-37840625D01*
%TO.C,U3*%
X251806250Y-80350000D02*
X254531250Y-80350000D01*
X251806250Y-80610000D02*
X251806250Y-80350000D01*
X251806250Y-85540000D02*
X251806250Y-85800000D01*
X251806250Y-85800000D02*
X254531250Y-85800000D01*
X257256250Y-80350000D02*
X254531250Y-80350000D01*
X257256250Y-80610000D02*
X257256250Y-80350000D01*
X257256250Y-85540000D02*
X257256250Y-85800000D01*
X257256250Y-85800000D02*
X254531250Y-85800000D01*
X258038750Y-80610000D02*
X257798750Y-80280000D01*
X258278750Y-80280000D01*
X258038750Y-80610000D01*
G36*
X258038750Y-80610000D02*
G01*
X257798750Y-80280000D01*
X258278750Y-80280000D01*
X258038750Y-80610000D01*
G37*
%TO.C,D13*%
X49641250Y-52880625D02*
X49641250Y-56890625D01*
X49641250Y-56890625D02*
X51641250Y-56890625D01*
X51641250Y-52880625D02*
X51641250Y-56890625D01*
%TO.C,C1*%
X207265670Y-43215000D02*
X207546830Y-43215000D01*
X207265670Y-44235000D02*
X207546830Y-44235000D01*
%TO.C,C7*%
X258821220Y-90813781D02*
X259020031Y-90614970D01*
X259542469Y-91535030D02*
X259741280Y-91336219D01*
%TO.C,D26*%
X80597500Y-72327500D02*
X80597500Y-76337500D01*
X80597500Y-76337500D02*
X82597500Y-76337500D01*
X82597500Y-72327500D02*
X82597500Y-76337500D01*
%TO.C,D5*%
X123460000Y-33830625D02*
X123460000Y-37840625D01*
X123460000Y-37840625D02*
X125460000Y-37840625D01*
X125460000Y-33830625D02*
X125460000Y-37840625D01*
D10*
%TO.C,J1*%
X199231250Y-44225000D02*
X199231250Y-40225000D01*
X201031250Y-39225000D02*
X203431250Y-39225000D01*
X203431250Y-39225000D02*
X203431250Y-40225000D01*
X203431250Y-44225000D02*
X203431250Y-45225000D01*
X203431250Y-45225000D02*
X201031250Y-45225000D01*
D11*
%TO.C,D18*%
X147272500Y-52880625D02*
X147272500Y-56890625D01*
X147272500Y-56890625D02*
X149272500Y-56890625D01*
X149272500Y-52880625D02*
X149272500Y-56890625D01*
%TO.C,D28*%
X118697500Y-72327500D02*
X118697500Y-76337500D01*
X118697500Y-76337500D02*
X120697500Y-76337500D01*
X120697500Y-72327500D02*
X120697500Y-76337500D01*
%TO.C,D23*%
X242522500Y-52880625D02*
X242522500Y-56890625D01*
X242522500Y-56890625D02*
X244522500Y-56890625D01*
X244522500Y-52880625D02*
X244522500Y-56890625D01*
%TO.C,D19*%
X166322500Y-52880625D02*
X166322500Y-56890625D01*
X166322500Y-56890625D02*
X168322500Y-56890625D01*
X168322500Y-52880625D02*
X168322500Y-56890625D01*
%TO.C,C16*%
X251671250Y-89465581D02*
X251671250Y-89184419D01*
X252691250Y-89465581D02*
X252691250Y-89184419D01*
%TO.C,D6*%
X142510000Y-33830625D02*
X142510000Y-37840625D01*
X142510000Y-37840625D02*
X144510000Y-37840625D01*
X144510000Y-33830625D02*
X144510000Y-37840625D01*
%TD*%
%LPC*%
D12*
%TO.C,MX16*%
X96361250Y-52943125D03*
D13*
X101441250Y-52943125D03*
D12*
X106521250Y-52943125D03*
D14*
X97631250Y-50403125D03*
X103981250Y-47863125D03*
%TD*%
D12*
%TO.C,MX32*%
X182086250Y-71993125D03*
D13*
X187166250Y-71993125D03*
D12*
X192246250Y-71993125D03*
D14*
X183356250Y-69453125D03*
X189706250Y-66913125D03*
%TD*%
D12*
%TO.C,MX12*%
X246380000Y-33893125D03*
D13*
X251460000Y-33893125D03*
D12*
X256540000Y-33893125D03*
D14*
X247650000Y-31353125D03*
X254000000Y-28813125D03*
%TD*%
D12*
%TO.C,MX6*%
X129698750Y-33893125D03*
D13*
X134778750Y-33893125D03*
D12*
X139858750Y-33893125D03*
D14*
X130968750Y-31353125D03*
X137318750Y-28813125D03*
%TD*%
D12*
%TO.C,MX27*%
X86836250Y-71993125D03*
D13*
X91916250Y-71993125D03*
D12*
X96996250Y-71993125D03*
D14*
X88106250Y-69453125D03*
X94456250Y-66913125D03*
%TD*%
D12*
%TO.C,MX35*%
X241617500Y-71993125D03*
D13*
X246697500Y-71993125D03*
D12*
X251777500Y-71993125D03*
D14*
X242887500Y-69453125D03*
X249237500Y-66913125D03*
%TD*%
D15*
%TO.C,REF\u002A\u002A*%
X103790750Y-83203175D03*
D16*
X103790750Y-98413175D03*
D15*
X127666750Y-83203175D03*
D16*
X127666750Y-98413175D03*
%TD*%
D12*
%TO.C,MX38*%
X110648750Y-91043125D03*
D13*
X115728750Y-91043125D03*
D12*
X120808750Y-91043125D03*
D14*
X111918750Y-88503125D03*
X118268750Y-85963125D03*
%TD*%
D12*
%TO.C,MX28*%
X105886250Y-71993125D03*
D13*
X110966250Y-71993125D03*
D12*
X116046250Y-71993125D03*
D14*
X107156250Y-69453125D03*
X113506250Y-66913125D03*
%TD*%
D12*
%TO.C,MX40*%
X167798750Y-91043125D03*
D13*
X172878750Y-91043125D03*
D12*
X177958750Y-91043125D03*
D14*
X169068750Y-88503125D03*
X175418750Y-85963125D03*
%TD*%
D12*
%TO.C,MX1*%
X34448750Y-33893125D03*
D13*
X39528750Y-33893125D03*
D12*
X44608750Y-33893125D03*
D14*
X35718750Y-31353125D03*
X42068750Y-28813125D03*
%TD*%
D12*
%TO.C,MX31*%
X163036250Y-71993125D03*
D13*
X168116250Y-71993125D03*
D12*
X173196250Y-71993125D03*
D14*
X164306250Y-69453125D03*
X170656250Y-66913125D03*
%TD*%
D12*
%TO.C,MX36*%
X60642500Y-91043125D03*
D13*
X65722500Y-91043125D03*
D12*
X70802500Y-91043125D03*
D14*
X61912500Y-88503125D03*
X68262500Y-85963125D03*
%TD*%
D12*
%TO.C,MX42*%
X217805000Y-91043125D03*
D13*
X222885000Y-91043125D03*
D12*
X227965000Y-91043125D03*
D14*
X219075000Y-88503125D03*
X225425000Y-85963125D03*
%TD*%
D12*
%TO.C,MX26*%
X67786250Y-71993125D03*
D13*
X72866250Y-71993125D03*
D12*
X77946250Y-71993125D03*
D14*
X69056250Y-69453125D03*
X75406250Y-66913125D03*
%TD*%
D12*
%TO.C,MX34*%
X220186250Y-71993125D03*
D13*
X225266250Y-71993125D03*
D12*
X230346250Y-71993125D03*
D14*
X221456250Y-69453125D03*
X227806250Y-66913125D03*
%TD*%
D12*
%TO.C,MX37*%
X82073750Y-91043125D03*
D13*
X87153750Y-91043125D03*
D12*
X92233750Y-91043125D03*
D14*
X83343750Y-88503125D03*
X89693750Y-85963125D03*
%TD*%
D12*
%TO.C,MX10*%
X205898750Y-33893125D03*
D13*
X210978750Y-33893125D03*
D12*
X216058750Y-33893125D03*
D14*
X207168750Y-31353125D03*
X213518750Y-28813125D03*
%TD*%
D12*
%TO.C,MX20*%
X172561250Y-52943125D03*
D13*
X177641250Y-52943125D03*
D12*
X182721250Y-52943125D03*
D14*
X173831250Y-50403125D03*
X180181250Y-47863125D03*
%TD*%
D12*
%TO.C,MX30*%
X143986250Y-71993125D03*
D13*
X149066250Y-71993125D03*
D12*
X154146250Y-71993125D03*
D14*
X145256250Y-69453125D03*
X151606250Y-66913125D03*
%TD*%
D12*
%TO.C,MX23*%
X229711250Y-52943125D03*
D13*
X234791250Y-52943125D03*
D12*
X239871250Y-52943125D03*
D14*
X230981250Y-50403125D03*
X237331250Y-47863125D03*
%TD*%
D12*
%TO.C,MX13*%
X36830000Y-52943125D03*
D13*
X41910000Y-52943125D03*
D12*
X46990000Y-52943125D03*
D14*
X38100000Y-50403125D03*
X44450000Y-47863125D03*
%TD*%
D12*
%TO.C,MX2*%
X53498750Y-33893125D03*
D13*
X58578750Y-33893125D03*
D12*
X63658750Y-33893125D03*
D14*
X54768750Y-31353125D03*
X61118750Y-28813125D03*
%TD*%
D12*
%TO.C,MX18*%
X134461250Y-52943125D03*
D13*
X139541250Y-52943125D03*
D12*
X144621250Y-52943125D03*
D14*
X135731250Y-50403125D03*
X142081250Y-47863125D03*
%TD*%
D12*
%TO.C,MX24*%
X248761250Y-52943125D03*
D13*
X253841250Y-52943125D03*
D12*
X258921250Y-52943125D03*
D14*
X250031250Y-50403125D03*
X256381250Y-47863125D03*
%TD*%
D12*
%TO.C,MX7*%
X148748750Y-33893125D03*
D13*
X153828750Y-33893125D03*
D12*
X158908750Y-33893125D03*
D14*
X150018750Y-31353125D03*
X156368750Y-28813125D03*
%TD*%
D12*
%TO.C,MX5*%
X110648750Y-33893125D03*
D13*
X115728750Y-33893125D03*
D12*
X120808750Y-33893125D03*
D14*
X111918750Y-31353125D03*
X118268750Y-28813125D03*
%TD*%
D12*
%TO.C,MX33*%
X201136250Y-71993125D03*
D13*
X206216250Y-71993125D03*
D12*
X211296250Y-71993125D03*
D14*
X202406250Y-69453125D03*
X208756250Y-66913125D03*
%TD*%
D12*
%TO.C,MX4*%
X91598750Y-33893125D03*
D13*
X96678750Y-33893125D03*
D12*
X101758750Y-33893125D03*
D14*
X92868750Y-31353125D03*
X99218750Y-28813125D03*
%TD*%
D12*
%TO.C,MX11*%
X224948750Y-33893125D03*
D13*
X230028750Y-33893125D03*
D12*
X235108750Y-33893125D03*
D14*
X226218750Y-31353125D03*
X232568750Y-28813125D03*
%TD*%
D12*
%TO.C,MX9*%
X186848750Y-33893125D03*
D13*
X191928750Y-33893125D03*
D12*
X197008750Y-33893125D03*
D14*
X188118750Y-31353125D03*
X194468750Y-28813125D03*
%TD*%
D12*
%TO.C,MX19*%
X153511250Y-52943125D03*
D13*
X158591250Y-52943125D03*
D12*
X163671250Y-52943125D03*
D14*
X154781250Y-50403125D03*
X161131250Y-47863125D03*
%TD*%
D12*
%TO.C,MX14*%
X58261250Y-52943125D03*
D13*
X63341250Y-52943125D03*
D12*
X68421250Y-52943125D03*
D14*
X59531250Y-50403125D03*
X65881250Y-47863125D03*
%TD*%
D12*
%TO.C,MX39*%
X139223750Y-91043125D03*
D13*
X144303750Y-91043125D03*
D12*
X149383750Y-91043125D03*
D14*
X140493750Y-88503125D03*
X146843750Y-85963125D03*
%TD*%
D12*
%TO.C,MX17*%
X115411250Y-52943125D03*
D13*
X120491250Y-52943125D03*
D12*
X125571250Y-52943125D03*
D14*
X116681250Y-50403125D03*
X123031250Y-47863125D03*
%TD*%
D15*
%TO.C,REF\u002A\u002A*%
X160940750Y-83203175D03*
D16*
X160940750Y-98413175D03*
D15*
X184816750Y-83203175D03*
D16*
X184816750Y-98413175D03*
%TD*%
D12*
%TO.C,MX22*%
X210661250Y-52943125D03*
D13*
X215741250Y-52943125D03*
D12*
X220821250Y-52943125D03*
D14*
X211931250Y-50403125D03*
X218281250Y-47863125D03*
%TD*%
D12*
%TO.C,MX41*%
X196373750Y-91043125D03*
D13*
X201453750Y-91043125D03*
D12*
X206533750Y-91043125D03*
D14*
X197643750Y-88503125D03*
X203993750Y-85963125D03*
%TD*%
D12*
%TO.C,MX21*%
X191611250Y-52943125D03*
D13*
X196691250Y-52943125D03*
D12*
X201771250Y-52943125D03*
D14*
X192881250Y-50403125D03*
X199231250Y-47863125D03*
%TD*%
D12*
%TO.C,MX8*%
X167798750Y-33893125D03*
D13*
X172878750Y-33893125D03*
D12*
X177958750Y-33893125D03*
D14*
X169068750Y-31353125D03*
X175418750Y-28813125D03*
%TD*%
D12*
%TO.C,MX29*%
X124936250Y-71993125D03*
D13*
X130016250Y-71993125D03*
D12*
X135096250Y-71993125D03*
D14*
X126206250Y-69453125D03*
X132556250Y-66913125D03*
%TD*%
D12*
%TO.C,MX3*%
X72548750Y-33893125D03*
D13*
X77628750Y-33893125D03*
D12*
X82708750Y-33893125D03*
D14*
X73818750Y-31353125D03*
X80168750Y-28813125D03*
%TD*%
D12*
%TO.C,MX15*%
X77311250Y-52943125D03*
D13*
X82391250Y-52943125D03*
D12*
X87471250Y-52943125D03*
D14*
X78581250Y-50403125D03*
X84931250Y-47863125D03*
%TD*%
D12*
%TO.C,MX25*%
X43973750Y-71993125D03*
D13*
X49053750Y-71993125D03*
D12*
X54133750Y-71993125D03*
D14*
X45243750Y-69453125D03*
X51593750Y-66913125D03*
%TD*%
D17*
%TO.C,D38*%
X124301250Y-94360000D03*
X124301250Y-91060000D03*
%TD*%
D18*
%TO.C,C18*%
X250756250Y-87075000D03*
X252306250Y-87075000D03*
%TD*%
D19*
%TO.C,C12*%
X259681250Y-101800000D03*
X259681250Y-100250000D03*
%TD*%
D17*
%TO.C,D15*%
X91122500Y-56180625D03*
X91122500Y-52880625D03*
%TD*%
%TO.C,D10*%
X219710000Y-37130625D03*
X219710000Y-33830625D03*
%TD*%
D20*
%TO.C,SW1*%
X50781250Y-83950000D03*
X44581250Y-83950000D03*
X50781250Y-87650000D03*
X44581250Y-87650000D03*
%TD*%
D17*
%TO.C,D30*%
X157797500Y-75627500D03*
X157797500Y-72327500D03*
%TD*%
%TO.C,D8*%
X181610000Y-37130625D03*
X181610000Y-33830625D03*
%TD*%
%TO.C,D37*%
X95885000Y-94280625D03*
X95885000Y-90980625D03*
%TD*%
%TO.C,D1*%
X48260000Y-37130625D03*
X48260000Y-33830625D03*
%TD*%
%TO.C,D33*%
X214947500Y-75627500D03*
X214947500Y-72327500D03*
%TD*%
D21*
%TO.C,C14*%
X257654904Y-88352638D03*
X256558888Y-89448654D03*
%TD*%
D17*
%TO.C,D22*%
X221431250Y-58725000D03*
X221431250Y-55425000D03*
%TD*%
%TO.C,D24*%
X262572500Y-56180625D03*
X262572500Y-52880625D03*
%TD*%
D22*
%TO.C,R5*%
X250681250Y-101600000D03*
X250681250Y-99950000D03*
%TD*%
D17*
%TO.C,D35*%
X255428750Y-75627500D03*
X255428750Y-72327500D03*
%TD*%
%TO.C,D7*%
X162560000Y-37130625D03*
X162560000Y-33830625D03*
%TD*%
%TO.C,D29*%
X138747500Y-75627500D03*
X138747500Y-72327500D03*
%TD*%
D23*
%TO.C,R3*%
X245997887Y-84741637D03*
X247164613Y-85908363D03*
%TD*%
D18*
%TO.C,C11*%
X244956250Y-95975000D03*
X246506250Y-95975000D03*
%TD*%
D17*
%TO.C,D31*%
X176847500Y-75627500D03*
X176847500Y-72327500D03*
%TD*%
%TO.C,D39*%
X153035000Y-94280625D03*
X153035000Y-90980625D03*
%TD*%
%TO.C,D11*%
X238760000Y-37130625D03*
X238760000Y-33830625D03*
%TD*%
D24*
%TO.C,Y1*%
X254208250Y-100124998D03*
X256408250Y-100124998D03*
X256408250Y-101725002D03*
X254208250Y-101725002D03*
%TD*%
D17*
%TO.C,D9*%
X200660000Y-37130625D03*
X200660000Y-33830625D03*
%TD*%
D25*
%TO.C,C9*%
X245883242Y-90426992D03*
X246979258Y-91523008D03*
%TD*%
D17*
%TO.C,D27*%
X100647500Y-75627500D03*
X100647500Y-72327500D03*
%TD*%
%TO.C,D34*%
X233997500Y-75627500D03*
X233997500Y-72327500D03*
%TD*%
%TO.C,D21*%
X205422500Y-56180625D03*
X205422500Y-52880625D03*
%TD*%
%TO.C,D20*%
X186372500Y-56180625D03*
X186372500Y-52880625D03*
%TD*%
D26*
%TO.C,C13*%
X258181250Y-100250000D03*
X258181250Y-101800000D03*
%TD*%
D19*
%TO.C,C3*%
X249181250Y-101550000D03*
X249181250Y-100000000D03*
%TD*%
D17*
%TO.C,D36*%
X74453750Y-94280625D03*
X74453750Y-90980625D03*
%TD*%
D27*
%TO.C,C4*%
X259406250Y-98399998D03*
X257856250Y-98399998D03*
%TD*%
D28*
%TO.C,R2*%
X262056250Y-82675000D03*
X260406250Y-82675000D03*
%TD*%
D17*
%TO.C,D4*%
X105410000Y-37130625D03*
X105410000Y-33830625D03*
%TD*%
D27*
%TO.C,C6*%
X259406250Y-96875000D03*
X257856250Y-96875000D03*
%TD*%
D29*
%TO.C,U1*%
X258131250Y-72325001D03*
X260431250Y-72325002D03*
D30*
X260431250Y-78625000D03*
D29*
X262731250Y-72325001D03*
%TD*%
D20*
%TO.C,SW2*%
X50781250Y-91500000D03*
X44581250Y-91500000D03*
X50781250Y-95200000D03*
X44581250Y-95200000D03*
%TD*%
D19*
%TO.C,C17*%
X247631251Y-100800000D03*
X247631251Y-99250000D03*
%TD*%
D31*
%TO.C,U2*%
X256031250Y-92475000D03*
X256031250Y-92875001D03*
X256031250Y-93275000D03*
X256031250Y-93675000D03*
X256031250Y-94075000D03*
X256031250Y-94474999D03*
X256031250Y-94875000D03*
X256031250Y-95275000D03*
X256031250Y-95675001D03*
X256031250Y-96075000D03*
X256031250Y-96475000D03*
X256031250Y-96875000D03*
X256031250Y-97274999D03*
X256031250Y-97675000D03*
D32*
X255193750Y-98512500D03*
X254793749Y-98512500D03*
X254393750Y-98512500D03*
X253993750Y-98512500D03*
X253593750Y-98512500D03*
X253193751Y-98512500D03*
X252793750Y-98512500D03*
X252393750Y-98512500D03*
X251993749Y-98512500D03*
X251593750Y-98512500D03*
X251193750Y-98512500D03*
X250793750Y-98512500D03*
X250393751Y-98512500D03*
X249993750Y-98512500D03*
D31*
X249156250Y-97675000D03*
X249156250Y-97274999D03*
X249156250Y-96875000D03*
X249156250Y-96475000D03*
X249156250Y-96075000D03*
X249156250Y-95675001D03*
X249156250Y-95275000D03*
X249156250Y-94875000D03*
X249156250Y-94474999D03*
X249156250Y-94075000D03*
X249156250Y-93675000D03*
X249156250Y-93275000D03*
X249156250Y-92875001D03*
X249156250Y-92475000D03*
D32*
X249993750Y-91637500D03*
X250393751Y-91637500D03*
X250793750Y-91637500D03*
X251193750Y-91637500D03*
X251593750Y-91637500D03*
X251993749Y-91637500D03*
X252393750Y-91637500D03*
X252793750Y-91637500D03*
X253193751Y-91637500D03*
X253593750Y-91637500D03*
X253993750Y-91637500D03*
X254393750Y-91637500D03*
X254793749Y-91637500D03*
X255193750Y-91637500D03*
D33*
X252593750Y-95075000D03*
%TD*%
D23*
%TO.C,R4*%
X244947887Y-85791637D03*
X246114613Y-86958363D03*
%TD*%
D17*
%TO.C,D32*%
X195897500Y-75627500D03*
X195897500Y-72327500D03*
%TD*%
D34*
%TO.C,R1*%
X260406250Y-84650000D03*
X262056250Y-84650000D03*
%TD*%
D18*
%TO.C,C5*%
X244056250Y-94305635D03*
X245606250Y-94305635D03*
%TD*%
D17*
%TO.C,D14*%
X72072500Y-56180625D03*
X72072500Y-52880625D03*
%TD*%
D22*
%TO.C,R6*%
X252181250Y-101750000D03*
X252181250Y-100100000D03*
%TD*%
D25*
%TO.C,C8*%
X246883242Y-89276992D03*
X247979258Y-90373008D03*
%TD*%
D17*
%TO.C,D12*%
X260191250Y-37130625D03*
X260191250Y-33830625D03*
%TD*%
%TO.C,D41*%
X210185000Y-94280625D03*
X210185000Y-90980625D03*
%TD*%
%TO.C,D3*%
X86360000Y-37130625D03*
X86360000Y-33830625D03*
%TD*%
D21*
%TO.C,C2*%
X258733242Y-89430976D03*
X257637226Y-90526992D03*
%TD*%
D19*
%TO.C,C15*%
X246081250Y-100800000D03*
X246081250Y-99250000D03*
%TD*%
D17*
%TO.C,D17*%
X129222500Y-56180625D03*
X129222500Y-52880625D03*
%TD*%
D18*
%TO.C,C10*%
X244056250Y-92750000D03*
X245606250Y-92750000D03*
%TD*%
D17*
%TO.C,D25*%
X57785000Y-75627500D03*
X57785000Y-72327500D03*
%TD*%
%TO.C,D16*%
X110172500Y-56180625D03*
X110172500Y-52880625D03*
%TD*%
%TO.C,D42*%
X231362250Y-94280625D03*
X231362250Y-90980625D03*
%TD*%
%TO.C,D40*%
X181451250Y-94280625D03*
X181451250Y-90980625D03*
%TD*%
%TO.C,D2*%
X67310000Y-37130625D03*
X67310000Y-33830625D03*
%TD*%
D35*
%TO.C,U3*%
X258131250Y-81170000D03*
X258131250Y-82440000D03*
X258131250Y-83710000D03*
X258131250Y-84980000D03*
X250931250Y-84980000D03*
X250931250Y-83710000D03*
X250931250Y-82440000D03*
X250931250Y-81170000D03*
%TD*%
D17*
%TO.C,D13*%
X50641250Y-56180625D03*
X50641250Y-52880625D03*
%TD*%
D27*
%TO.C,C1*%
X208181250Y-43725000D03*
X206631250Y-43725000D03*
%TD*%
D21*
%TO.C,C7*%
X259829258Y-90526992D03*
X258733242Y-91623008D03*
%TD*%
D17*
%TO.C,D26*%
X81597500Y-75627500D03*
X81597500Y-72327500D03*
%TD*%
%TO.C,D5*%
X124460000Y-37130625D03*
X124460000Y-33830625D03*
%TD*%
D36*
%TO.C,J1*%
X199931250Y-45025000D03*
X199931250Y-39425000D03*
D37*
X203806250Y-43725000D03*
X203806249Y-42725000D03*
X203806249Y-41725000D03*
X203806250Y-40725000D03*
%TD*%
D17*
%TO.C,D18*%
X148272500Y-56180625D03*
X148272500Y-52880625D03*
%TD*%
%TO.C,D28*%
X119697500Y-75627500D03*
X119697500Y-72327500D03*
%TD*%
%TO.C,D23*%
X243522500Y-56180625D03*
X243522500Y-52880625D03*
%TD*%
%TO.C,D19*%
X167322500Y-56180625D03*
X167322500Y-52880625D03*
%TD*%
D26*
%TO.C,C16*%
X252181250Y-88550000D03*
X252181250Y-90100000D03*
%TD*%
D17*
%TO.C,D6*%
X143510000Y-37130625D03*
X143510000Y-33830625D03*
%TD*%
%LPD*%
M02*
