M48
; DRILL file {KiCad 8.0.8} date 2025-06-07T17:32:44+0200
; FORMAT={-:-/ absolute / inch / decimal}
; #@! TF.CreationDate,2025-06-07T17:32:44+02:00
; #@! TF.GenerationSoftware,Kicad,Pcbnew,8.0.8
; #@! TF.FileFunction,Plated,1,2,PTH
FMAT,2
INCH
; #@! TA.AperFunction,Plated,PTH,ViaDrill
T1C0.0118
; #@! TA.AperFunction,Plated,PTH,ComponentDrill
T2C0.0591
%
G90
G05
T1
X8.6636Y-1.6953
X8.8182Y-2.2726
X8.89Y-1.6959
X8.9186Y-2.2766
X9.1686Y-3.7116
X9.3339Y-2.9774
X9.3989Y-2.9774
X9.516Y-3.7539
X9.6193Y-3.812
X9.6449Y-3.5226
X9.6489Y-3.8317
X9.6725Y-3.8509
X9.7Y-2.1836
X9.7Y-2.2401
X9.7075Y-3.7191
X9.732Y-3.6994
X9.7532Y-3.8671
X9.7571Y-3.6802
X9.7764Y-3.6605
X9.7985Y-3.8868
X9.8438Y-3.8081
X9.8477Y-3.8415
X9.8831Y-3.4862
X9.891Y-3.8455
X9.8989Y-3.9734
X9.9245Y-3.6407
X9.9446Y-3.7431
X9.95Y-3.8455
X9.9579Y-3.9734
X9.9737Y-3.6407
X10.017Y-3.8455
X10.0524Y-3.9734
X10.076Y-3.3022
X10.0938Y-3.8907
X10.1134Y-2.9775
X10.1134Y-3.66
X10.1199Y-3.6925
X10.1843Y-3.7096
X10.1946Y-3.9788
X10.2178Y-3.7175
X10.2237Y-3.4242
X10.2493Y-3.7215
X10.2512Y-3.7608
X10.2985Y-1.4616
X10.2985Y-3.2096
X10.3024Y-3.4872
X10.3575Y-3.3337
X10.391Y-2.2136
T2
X1.4062Y-1.2344
X1.5Y-1.9844
X1.6562Y-1.1344
X1.75Y-1.8844
X1.7812Y-2.7344
X2.0312Y-2.6344
X2.1562Y-1.2344
X2.3438Y-1.9844
X2.4062Y-1.1344
X2.4375Y-3.4844
X2.5938Y-1.8844
X2.6875Y-3.3844
X2.7188Y-2.7344
X2.9062Y-1.2344
X2.9688Y-2.6344
X3.0938Y-1.9844
X3.1562Y-1.1344
X3.2812Y-3.4844
X3.3438Y-1.8844
X3.4688Y-2.7344
X3.5312Y-3.3844
X3.6562Y-1.2344
X3.7188Y-2.6344
X3.8438Y-1.9844
X3.9062Y-1.1344
X4.0938Y-1.8844
X4.2188Y-2.7344
X4.4062Y-1.2344
X4.4062Y-3.4844
X4.4688Y-2.6344
X4.5938Y-1.9844
X4.6562Y-1.1344
X4.6562Y-3.3844
X4.8438Y-1.8844
X4.9688Y-2.7344
X5.1562Y-1.2344
X5.2188Y-2.6344
X5.3438Y-1.9844
X5.4062Y-1.1344
X5.5312Y-3.4844
X5.5938Y-1.8844
X5.7188Y-2.7344
X5.7812Y-3.3844
X5.9062Y-1.2344
X5.9688Y-2.6344
X6.0938Y-1.9844
X6.1562Y-1.1344
X6.3438Y-1.8844
X6.4688Y-2.7344
X6.6562Y-1.2344
X6.6562Y-3.4844
X6.7188Y-2.6344
X6.8438Y-1.9844
X6.9062Y-1.1344
X6.9062Y-3.3844
X7.0938Y-1.8844
X7.2188Y-2.7344
X7.4062Y-1.2344
X7.4688Y-2.6344
X7.5938Y-1.9844
X7.6562Y-1.1344
X7.7812Y-3.4844
X7.8438Y-1.8844
X7.9688Y-2.7344
X8.0312Y-3.3844
X8.1562Y-1.2344
X8.2188Y-2.6344
X8.3438Y-1.9844
X8.4062Y-1.1344
X8.5938Y-1.8844
X8.625Y-3.4844
X8.7188Y-2.7344
X8.875Y-3.3844
X8.9062Y-1.2344
X8.9688Y-2.6344
X9.0938Y-1.9844
X9.1562Y-1.1344
X9.3438Y-1.8844
X9.5625Y-2.7344
X9.75Y-1.2344
X9.8125Y-2.6344
X9.8438Y-1.9844
X10.0Y-1.1344
X10.0938Y-1.8844
M30
