0
SECTION
2
HEADER
9
$INSUNITS
70
4
0
ENDSEC
0
SECTION
2
TABLES
0
TABLE
2
LTYPE
0
LTYPE
72
65
70
64
2
CONTINUOUS
3
______
73
0
40
0
0
ENDTAB
0
TABLE
2
LAYER
0
ENDTAB
0
ENDSEC
0
SECTION
2
ENTITIES
0
LINE
8
0
10
3.025
20
-2.525
11
16.025
21
-2.525
0
LINE
8
0
10
3.025
20
-16.525
11
16.025
21
-16.525
0
LINE
8
0
10
2.525
20
-3.025
11
2.525
21
-16.025
0
LINE
8
0
10
16.525
20
-3.025
11
16.525
21
-16.025
0
ARC
8
0
10
3.025
20
-3.025
40
0.5
50
90
51
180
0
ARC
8
0
10
16.025
20
-3.025
40
0.5
50
0
51
90
0
ARC
8
0
10
3.025
20
-16.025
40
0.5
50
180
51
270
0
ARC
8
0
10
16.025
20
-16.025
40
0.5
50
270
51
0
0
LINE
8
0
10
22.075
20
-2.525
11
35.075
21
-2.525
0
LINE
8
0
10
22.075
20
-16.525
11
35.075
21
-16.525
0
LINE
8
0
10
21.575
20
-3.025
11
21.575
21
-16.025
0
LINE
8
0
10
35.575
20
-3.025
11
35.575
21
-16.025
0
ARC
8
0
10
22.075
20
-3.025
40
0.5
50
90
51
180
0
ARC
8
0
10
35.075
20
-3.025
40
0.5
50
0
51
90
0
ARC
8
0
10
22.075
20
-16.025
40
0.5
50
180
51
270
0
ARC
8
0
10
35.075
20
-16.025
40
0.5
50
270
51
0
0
LINE
8
0
10
41.125
20
-2.525
11
54.125
21
-2.525
0
LINE
8
0
10
41.125
20
-16.525
11
54.125
21
-16.525
0
LINE
8
0
10
40.625
20
-3.025
11
40.625
21
-16.025
0
LINE
8
0
10
54.625
20
-3.025
11
54.625
21
-16.025
0
ARC
8
0
10
41.125
20
-3.025
40
0.5
50
90
51
180
0
ARC
8
0
10
54.125
20
-3.025
40
0.5
50
0
51
90
0
ARC
8
0
10
41.125
20
-16.025
40
0.5
50
180
51
270
0
ARC
8
0
10
54.125
20
-16.025
40
0.5
50
270
51
0
0
LINE
8
0
10
60.175
20
-2.525
11
73.175
21
-2.525
0
LINE
8
0
10
60.175
20
-16.525
11
73.175
21
-16.525
0
LINE
8
0
10
59.675
20
-3.025
11
59.675
21
-16.025
0
LINE
8
0
10
73.675
20
-3.025
11
73.675
21
-16.025
0
ARC
8
0
10
60.175
20
-3.025
40
0.5
50
90
51
180
0
ARC
8
0
10
73.175
20
-3.025
40
0.5
50
0
51
90
0
ARC
8
0
10
60.175
20
-16.025
40
0.5
50
180
51
270
0
ARC
8
0
10
73.175
20
-16.025
40
0.5
50
270
51
0
0
LINE
8
0
10
79.225
20
-2.525
11
92.225
21
-2.525
0
LINE
8
0
10
79.225
20
-16.525
11
92.225
21
-16.525
0
LINE
8
0
10
78.725
20
-3.025
11
78.725
21
-16.025
0
LINE
8
0
10
92.725
20
-3.025
11
92.725
21
-16.025
0
ARC
8
0
10
79.225
20
-3.025
40
0.5
50
90
51
180
0
ARC
8
0
10
92.225
20
-3.025
40
0.5
50
0
51
90
0
ARC
8
0
10
79.225
20
-16.025
40
0.5
50
180
51
270
0
ARC
8
0
10
92.225
20
-16.025
40
0.5
50
270
51
0
0
LINE
8
0
10
98.275
20
-2.525
11
111.275
21
-2.525
0
LINE
8
0
10
98.275
20
-16.525
11
111.275
21
-16.525
0
LINE
8
0
10
97.775
20
-3.025
11
97.775
21
-16.025
0
LINE
8
0
10
111.775
20
-3.025
11
111.775
21
-16.025
0
ARC
8
0
10
98.275
20
-3.025
40
0.5
50
90
51
180
0
ARC
8
0
10
111.275
20
-3.025
40
0.5
50
0
51
90
0
ARC
8
0
10
98.275
20
-16.025
40
0.5
50
180
51
270
0
ARC
8
0
10
111.275
20
-16.025
40
0.5
50
270
51
0
0
LINE
8
0
10
117.325
20
-2.525
11
130.325
21
-2.525
0
LINE
8
0
10
117.325
20
-16.525
11
130.325
21
-16.525
0
LINE
8
0
10
116.825
20
-3.025
11
116.825
21
-16.025
0
LINE
8
0
10
130.825
20
-3.025
11
130.825
21
-16.025
0
ARC
8
0
10
117.325
20
-3.025
40
0.5
50
90
51
180
0
ARC
8
0
10
130.325
20
-3.025
40
0.5
50
0
51
90
0
ARC
8
0
10
117.325
20
-16.025
40
0.5
50
180
51
270
0
ARC
8
0
10
130.325
20
-16.025
40
0.5
50
270
51
0
0
LINE
8
0
10
136.375
20
-2.525
11
149.375
21
-2.525
0
LINE
8
0
10
136.375
20
-16.525
11
149.375
21
-16.525
0
LINE
8
0
10
135.875
20
-3.025
11
135.875
21
-16.025
0
LINE
8
0
10
149.875
20
-3.025
11
149.875
21
-16.025
0
ARC
8
0
10
136.375
20
-3.025
40
0.5
50
90
51
180
0
ARC
8
0
10
149.375
20
-3.025
40
0.5
50
0
51
90
0
ARC
8
0
10
136.375
20
-16.025
40
0.5
50
180
51
270
0
ARC
8
0
10
149.375
20
-16.025
40
0.5
50
270
51
0
0
LINE
8
0
10
155.425
20
-2.525
11
168.425
21
-2.525
0
LINE
8
0
10
155.425
20
-16.525
11
168.425
21
-16.525
0
LINE
8
0
10
154.925
20
-3.025
11
154.925
21
-16.025
0
LINE
8
0
10
168.925
20
-3.025
11
168.925
21
-16.025
0
ARC
8
0
10
155.425
20
-3.025
40
0.5
50
90
51
180
0
ARC
8
0
10
168.425
20
-3.025
40
0.5
50
0
51
90
0
ARC
8
0
10
155.425
20
-16.025
40
0.5
50
180
51
270
0
ARC
8
0
10
168.425
20
-16.025
40
0.5
50
270
51
0
0
LINE
8
0
10
174.475
20
-2.525
11
187.475
21
-2.525
0
LINE
8
0
10
174.475
20
-16.525
11
187.475
21
-16.525
0
LINE
8
0
10
173.975
20
-3.025
11
173.975
21
-16.025
0
LINE
8
0
10
187.975
20
-3.025
11
187.975
21
-16.025
0
ARC
8
0
10
174.475
20
-3.025
40
0.5
50
90
51
180
0
ARC
8
0
10
187.475
20
-3.025
40
0.5
50
0
51
90
0
ARC
8
0
10
174.475
20
-16.025
40
0.5
50
180
51
270
0
ARC
8
0
10
187.475
20
-16.025
40
0.5
50
270
51
0
0
LINE
8
0
10
193.525
20
-2.525
11
206.525
21
-2.525
0
LINE
8
0
10
193.525
20
-16.525
11
206.525
21
-16.525
0
LINE
8
0
10
193.025
20
-3.025
11
193.025
21
-16.025
0
LINE
8
0
10
207.025
20
-3.025
11
207.025
21
-16.025
0
ARC
8
0
10
193.525
20
-3.025
40
0.5
50
90
51
180
0
ARC
8
0
10
206.525
20
-3.025
40
0.5
50
0
51
90
0
ARC
8
0
10
193.525
20
-16.025
40
0.5
50
180
51
270
0
ARC
8
0
10
206.525
20
-16.025
40
0.5
50
270
51
0
0
LINE
8
0
10
214.95625
20
-2.525
11
227.95625
21
-2.525
0
LINE
8
0
10
214.95625
20
-16.525
11
227.95625
21
-16.525
0
LINE
8
0
10
214.45625
20
-3.025
11
214.45625
21
-16.025
0
LINE
8
0
10
228.45625
20
-3.025
11
228.45625
21
-16.025
0
ARC
8
0
10
214.95625
20
-3.025
40
0.5
50
90
51
180
0
ARC
8
0
10
227.95625
20
-3.025
40
0.5
50
0
51
90
0
ARC
8
0
10
214.95625
20
-16.025
40
0.5
50
180
51
270
0
ARC
8
0
10
227.95625
20
-16.025
40
0.5
50
270
51
0
0
LINE
8
0
10
5.40625
20
-21.575
11
18.40625
21
-21.575
0
LINE
8
0
10
5.40625
20
-35.575
11
18.40625
21
-35.575
0
LINE
8
0
10
4.90625
20
-22.075
11
4.90625
21
-35.075
0
LINE
8
0
10
18.90625
20
-22.075
11
18.90625
21
-35.075
0
ARC
8
0
10
5.40625
20
-22.075
40
0.5
50
90
51
180
0
ARC
8
0
10
18.40625
20
-22.075
40
0.5
50
0
51
90
0
ARC
8
0
10
5.40625
20
-35.075
40
0.5
50
180
51
270
0
ARC
8
0
10
18.40625
20
-35.075
40
0.5
50
270
51
0
0
LINE
8
0
10
26.8375
20
-21.575
11
39.8375
21
-21.575
0
LINE
8
0
10
26.8375
20
-35.575
11
39.8375
21
-35.575
0
LINE
8
0
10
26.3375
20
-22.075
11
26.3375
21
-35.075
0
LINE
8
0
10
40.3375
20
-22.075
11
40.3375
21
-35.075
0
ARC
8
0
10
26.8375
20
-22.075
40
0.5
50
90
51
180
0
ARC
8
0
10
39.8375
20
-22.075
40
0.5
50
0
51
90
0
ARC
8
0
10
26.8375
20
-35.075
40
0.5
50
180
51
270
0
ARC
8
0
10
39.8375
20
-35.075
40
0.5
50
270
51
0
0
LINE
8
0
10
45.8875
20
-21.575
11
58.8875
21
-21.575
0
LINE
8
0
10
45.8875
20
-35.575
11
58.8875
21
-35.575
0
LINE
8
0
10
45.3875
20
-22.075
11
45.3875
21
-35.075
0
LINE
8
0
10
59.3875
20
-22.075
11
59.3875
21
-35.075
0
ARC
8
0
10
45.8875
20
-22.075
40
0.5
50
90
51
180
0
ARC
8
0
10
58.8875
20
-22.075
40
0.5
50
0
51
90
0
ARC
8
0
10
45.8875
20
-35.075
40
0.5
50
180
51
270
0
ARC
8
0
10
58.8875
20
-35.075
40
0.5
50
270
51
0
0
LINE
8
0
10
64.9375
20
-21.575
11
77.9375
21
-21.575
0
LINE
8
0
10
64.9375
20
-35.575
11
77.9375
21
-35.575
0
LINE
8
0
10
64.4375
20
-22.075
11
64.4375
21
-35.075
0
LINE
8
0
10
78.4375
20
-22.075
11
78.4375
21
-35.075
0
ARC
8
0
10
64.9375
20
-22.075
40
0.5
50
90
51
180
0
ARC
8
0
10
77.9375
20
-22.075
40
0.5
50
0
51
90
0
ARC
8
0
10
64.9375
20
-35.075
40
0.5
50
180
51
270
0
ARC
8
0
10
77.9375
20
-35.075
40
0.5
50
270
51
0
0
LINE
8
0
10
83.9875
20
-21.575
11
96.9875
21
-21.575
0
LINE
8
0
10
83.9875
20
-35.575
11
96.9875
21
-35.575
0
LINE
8
0
10
83.4875
20
-22.075
11
83.4875
21
-35.075
0
LINE
8
0
10
97.4875
20
-22.075
11
97.4875
21
-35.075
0
ARC
8
0
10
83.9875
20
-22.075
40
0.5
50
90
51
180
0
ARC
8
0
10
96.9875
20
-22.075
40
0.5
50
0
51
90
0
ARC
8
0
10
83.9875
20
-35.075
40
0.5
50
180
51
270
0
ARC
8
0
10
96.9875
20
-35.075
40
0.5
50
270
51
0
0
LINE
8
0
10
103.0375
20
-21.575
11
116.0375
21
-21.575
0
LINE
8
0
10
103.0375
20
-35.575
11
116.0375
21
-35.575
0
LINE
8
0
10
102.5375
20
-22.075
11
102.5375
21
-35.075
0
LINE
8
0
10
116.5375
20
-22.075
11
116.5375
21
-35.075
0
ARC
8
0
10
103.0375
20
-22.075
40
0.5
50
90
51
180
0
ARC
8
0
10
116.0375
20
-22.075
40
0.5
50
0
51
90
0
ARC
8
0
10
103.0375
20
-35.075
40
0.5
50
180
51
270
0
ARC
8
0
10
116.0375
20
-35.075
40
0.5
50
270
51
0
0
LINE
8
0
10
122.0875
20
-21.575
11
135.0875
21
-21.575
0
LINE
8
0
10
122.0875
20
-35.575
11
135.0875
21
-35.575
0
LINE
8
0
10
121.5875
20
-22.075
11
121.5875
21
-35.075
0
LINE
8
0
10
135.5875
20
-22.075
11
135.5875
21
-35.075
0
ARC
8
0
10
122.0875
20
-22.075
40
0.5
50
90
51
180
0
ARC
8
0
10
135.0875
20
-22.075
40
0.5
50
0
51
90
0
ARC
8
0
10
122.0875
20
-35.075
40
0.5
50
180
51
270
0
ARC
8
0
10
135.0875
20
-35.075
40
0.5
50
270
51
0
0
LINE
8
0
10
141.1375
20
-21.575
11
154.1375
21
-21.575
0
LINE
8
0
10
141.1375
20
-35.575
11
154.1375
21
-35.575
0
LINE
8
0
10
140.6375
20
-22.075
11
140.6375
21
-35.075
0
LINE
8
0
10
154.6375
20
-22.075
11
154.6375
21
-35.075
0
ARC
8
0
10
141.1375
20
-22.075
40
0.5
50
90
51
180
0
ARC
8
0
10
154.1375
20
-22.075
40
0.5
50
0
51
90
0
ARC
8
0
10
141.1375
20
-35.075
40
0.5
50
180
51
270
0
ARC
8
0
10
154.1375
20
-35.075
40
0.5
50
270
51
0
0
LINE
8
0
10
160.1875
20
-21.575
11
173.1875
21
-21.575
0
LINE
8
0
10
160.1875
20
-35.575
11
173.1875
21
-35.575
0
LINE
8
0
10
159.6875
20
-22.075
11
159.6875
21
-35.075
0
LINE
8
0
10
173.6875
20
-22.075
11
173.6875
21
-35.075
0
ARC
8
0
10
160.1875
20
-22.075
40
0.5
50
90
51
180
0
ARC
8
0
10
173.1875
20
-22.075
40
0.5
50
0
51
90
0
ARC
8
0
10
160.1875
20
-35.075
40
0.5
50
180
51
270
0
ARC
8
0
10
173.1875
20
-35.075
40
0.5
50
270
51
0
0
LINE
8
0
10
179.2375
20
-21.575
11
192.2375
21
-21.575
0
LINE
8
0
10
179.2375
20
-35.575
11
192.2375
21
-35.575
0
LINE
8
0
10
178.7375
20
-22.075
11
178.7375
21
-35.075
0
LINE
8
0
10
192.7375
20
-22.075
11
192.7375
21
-35.075
0
ARC
8
0
10
179.2375
20
-22.075
40
0.5
50
90
51
180
0
ARC
8
0
10
192.2375
20
-22.075
40
0.5
50
0
51
90
0
ARC
8
0
10
179.2375
20
-35.075
40
0.5
50
180
51
270
0
ARC
8
0
10
192.2375
20
-35.075
40
0.5
50
270
51
0
0
LINE
8
0
10
198.2875
20
-21.575
11
211.2875
21
-21.575
0
LINE
8
0
10
198.2875
20
-35.575
11
211.2875
21
-35.575
0
LINE
8
0
10
197.7875
20
-22.075
11
197.7875
21
-35.075
0
LINE
8
0
10
211.7875
20
-22.075
11
211.7875
21
-35.075
0
ARC
8
0
10
198.2875
20
-22.075
40
0.5
50
90
51
180
0
ARC
8
0
10
211.2875
20
-22.075
40
0.5
50
0
51
90
0
ARC
8
0
10
198.2875
20
-35.075
40
0.5
50
180
51
270
0
ARC
8
0
10
211.2875
20
-35.075
40
0.5
50
270
51
0
0
LINE
8
0
10
217.3375
20
-21.575
11
230.3375
21
-21.575
0
LINE
8
0
10
217.3375
20
-35.575
11
230.3375
21
-35.575
0
LINE
8
0
10
216.8375
20
-22.075
11
216.8375
21
-35.075
0
LINE
8
0
10
230.8375
20
-22.075
11
230.8375
21
-35.075
0
ARC
8
0
10
217.3375
20
-22.075
40
0.5
50
90
51
180
0
ARC
8
0
10
230.3375
20
-22.075
40
0.5
50
0
51
90
0
ARC
8
0
10
217.3375
20
-35.075
40
0.5
50
180
51
270
0
ARC
8
0
10
230.3375
20
-35.075
40
0.5
50
270
51
0
0
LINE
8
0
10
12.55
20
-40.625
11
25.55
21
-40.625
0
LINE
8
0
10
12.55
20
-54.625
11
25.55
21
-54.625
0
LINE
8
0
10
12.05
20
-41.125
11
12.05
21
-54.125
0
LINE
8
0
10
26.05
20
-41.125
11
26.05
21
-54.125
0
ARC
8
0
10
12.55
20
-41.125
40
0.5
50
90
51
180
0
ARC
8
0
10
25.55
20
-41.125
40
0.5
50
0
51
90
0
ARC
8
0
10
12.55
20
-54.125
40
0.5
50
180
51
270
0
ARC
8
0
10
25.55
20
-54.125
40
0.5
50
270
51
0
0
LINE
8
0
10
36.3625
20
-40.625
11
49.3625
21
-40.625
0
LINE
8
0
10
36.3625
20
-54.625
11
49.3625
21
-54.625
0
LINE
8
0
10
35.8625
20
-41.125
11
35.8625
21
-54.125
0
LINE
8
0
10
49.8625
20
-41.125
11
49.8625
21
-54.125
0
ARC
8
0
10
36.3625
20
-41.125
40
0.5
50
90
51
180
0
ARC
8
0
10
49.3625
20
-41.125
40
0.5
50
0
51
90
0
ARC
8
0
10
36.3625
20
-54.125
40
0.5
50
180
51
270
0
ARC
8
0
10
49.3625
20
-54.125
40
0.5
50
270
51
0
0
LINE
8
0
10
55.4125
20
-40.625
11
68.4125
21
-40.625
0
LINE
8
0
10
55.4125
20
-54.625
11
68.4125
21
-54.625
0
LINE
8
0
10
54.9125
20
-41.125
11
54.9125
21
-54.125
0
LINE
8
0
10
68.9125
20
-41.125
11
68.9125
21
-54.125
0
ARC
8
0
10
55.4125
20
-41.125
40
0.5
50
90
51
180
0
ARC
8
0
10
68.4125
20
-41.125
40
0.5
50
0
51
90
0
ARC
8
0
10
55.4125
20
-54.125
40
0.5
50
180
51
270
0
ARC
8
0
10
68.4125
20
-54.125
40
0.5
50
270
51
0
0
LINE
8
0
10
74.4625
20
-40.625
11
87.4625
21
-40.625
0
LINE
8
0
10
74.4625
20
-54.625
11
87.4625
21
-54.625
0
LINE
8
0
10
73.9625
20
-41.125
11
73.9625
21
-54.125
0
LINE
8
0
10
87.9625
20
-41.125
11
87.9625
21
-54.125
0
ARC
8
0
10
74.4625
20
-41.125
40
0.5
50
90
51
180
0
ARC
8
0
10
87.4625
20
-41.125
40
0.5
50
0
51
90
0
ARC
8
0
10
74.4625
20
-54.125
40
0.5
50
180
51
270
0
ARC
8
0
10
87.4625
20
-54.125
40
0.5
50
270
51
0
0
LINE
8
0
10
93.5125
20
-40.625
11
106.5125
21
-40.625
0
LINE
8
0
10
93.5125
20
-54.625
11
106.5125
21
-54.625
0
LINE
8
0
10
93.0125
20
-41.125
11
93.0125
21
-54.125
0
LINE
8
0
10
107.0125
20
-41.125
11
107.0125
21
-54.125
0
ARC
8
0
10
93.5125
20
-41.125
40
0.5
50
90
51
180
0
ARC
8
0
10
106.5125
20
-41.125
40
0.5
50
0
51
90
0
ARC
8
0
10
93.5125
20
-54.125
40
0.5
50
180
51
270
0
ARC
8
0
10
106.5125
20
-54.125
40
0.5
50
270
51
0
0
LINE
8
0
10
112.5625
20
-40.625
11
125.5625
21
-40.625
0
LINE
8
0
10
112.5625
20
-54.625
11
125.5625
21
-54.625
0
LINE
8
0
10
112.0625
20
-41.125
11
112.0625
21
-54.125
0
LINE
8
0
10
126.0625
20
-41.125
11
126.0625
21
-54.125
0
ARC
8
0
10
112.5625
20
-41.125
40
0.5
50
90
51
180
0
ARC
8
0
10
125.5625
20
-41.125
40
0.5
50
0
51
90
0
ARC
8
0
10
112.5625
20
-54.125
40
0.5
50
180
51
270
0
ARC
8
0
10
125.5625
20
-54.125
40
0.5
50
270
51
0
0
LINE
8
0
10
131.6125
20
-40.625
11
144.6125
21
-40.625
0
LINE
8
0
10
131.6125
20
-54.625
11
144.6125
21
-54.625
0
LINE
8
0
10
131.1125
20
-41.125
11
131.1125
21
-54.125
0
LINE
8
0
10
145.1125
20
-41.125
11
145.1125
21
-54.125
0
ARC
8
0
10
131.6125
20
-41.125
40
0.5
50
90
51
180
0
ARC
8
0
10
144.6125
20
-41.125
40
0.5
50
0
51
90
0
ARC
8
0
10
131.6125
20
-54.125
40
0.5
50
180
51
270
0
ARC
8
0
10
144.6125
20
-54.125
40
0.5
50
270
51
0
0
LINE
8
0
10
150.6625
20
-40.625
11
163.6625
21
-40.625
0
LINE
8
0
10
150.6625
20
-54.625
11
163.6625
21
-54.625
0
LINE
8
0
10
150.1625
20
-41.125
11
150.1625
21
-54.125
0
LINE
8
0
10
164.1625
20
-41.125
11
164.1625
21
-54.125
0
ARC
8
0
10
150.6625
20
-41.125
40
0.5
50
90
51
180
0
ARC
8
0
10
163.6625
20
-41.125
40
0.5
50
0
51
90
0
ARC
8
0
10
150.6625
20
-54.125
40
0.5
50
180
51
270
0
ARC
8
0
10
163.6625
20
-54.125
40
0.5
50
270
51
0
0
LINE
8
0
10
169.7125
20
-40.625
11
182.7125
21
-40.625
0
LINE
8
0
10
169.7125
20
-54.625
11
182.7125
21
-54.625
0
LINE
8
0
10
169.2125
20
-41.125
11
169.2125
21
-54.125
0
LINE
8
0
10
183.2125
20
-41.125
11
183.2125
21
-54.125
0
ARC
8
0
10
169.7125
20
-41.125
40
0.5
50
90
51
180
0
ARC
8
0
10
182.7125
20
-41.125
40
0.5
50
0
51
90
0
ARC
8
0
10
169.7125
20
-54.125
40
0.5
50
180
51
270
0
ARC
8
0
10
182.7125
20
-54.125
40
0.5
50
270
51
0
0
LINE
8
0
10
188.7625
20
-40.625
11
201.7625
21
-40.625
0
LINE
8
0
10
188.7625
20
-54.625
11
201.7625
21
-54.625
0
LINE
8
0
10
188.2625
20
-41.125
11
188.2625
21
-54.125
0
LINE
8
0
10
202.2625
20
-41.125
11
202.2625
21
-54.125
0
ARC
8
0
10
188.7625
20
-41.125
40
0.5
50
90
51
180
0
ARC
8
0
10
201.7625
20
-41.125
40
0.5
50
0
51
90
0
ARC
8
0
10
188.7625
20
-54.125
40
0.5
50
180
51
270
0
ARC
8
0
10
201.7625
20
-54.125
40
0.5
50
270
51
0
0
LINE
8
0
10
210.19375
20
-40.625
11
223.19375
21
-40.625
0
LINE
8
0
10
210.19375
20
-54.625
11
223.19375
21
-54.625
0
LINE
8
0
10
209.69375
20
-41.125
11
209.69375
21
-54.125
0
LINE
8
0
10
223.69375
20
-41.125
11
223.69375
21
-54.125
0
ARC
8
0
10
210.19375
20
-41.125
40
0.5
50
90
51
180
0
ARC
8
0
10
223.19375
20
-41.125
40
0.5
50
0
51
90
0
ARC
8
0
10
210.19375
20
-54.125
40
0.5
50
180
51
270
0
ARC
8
0
10
223.19375
20
-54.125
40
0.5
50
270
51
0
0
LINE
8
0
10
31.6
20
-59.675
11
44.6
21
-59.675
0
LINE
8
0
10
31.6
20
-73.675
11
44.6
21
-73.675
0
LINE
8
0
10
31.1
20
-60.175
11
31.1
21
-73.175
0
LINE
8
0
10
45.1
20
-60.175
11
45.1
21
-73.175
0
ARC
8
0
10
31.6
20
-60.175
40
0.5
50
90
51
180
0
ARC
8
0
10
44.6
20
-60.175
40
0.5
50
0
51
90
0
ARC
8
0
10
31.6
20
-73.175
40
0.5
50
180
51
270
0
ARC
8
0
10
44.6
20
-73.175
40
0.5
50
270
51
0
0
LINE
8
0
10
53.03125
20
-59.675
11
66.03125
21
-59.675
0
LINE
8
0
10
53.03125
20
-73.675
11
66.03125
21
-73.675
0
LINE
8
0
10
52.53125
20
-60.175
11
52.53125
21
-73.175
0
LINE
8
0
10
66.53125
20
-60.175
11
66.53125
21
-73.175
0
ARC
8
0
10
53.03125
20
-60.175
40
0.5
50
90
51
180
0
ARC
8
0
10
66.03125
20
-60.175
40
0.5
50
0
51
90
0
ARC
8
0
10
53.03125
20
-73.175
40
0.5
50
180
51
270
0
ARC
8
0
10
66.03125
20
-73.175
40
0.5
50
270
51
0
0
LINE
8
0
10
81.60625
20
-59.675
11
94.60625
21
-59.675
0
LINE
8
0
10
81.60625
20
-73.675
11
94.60625
21
-73.675
0
LINE
8
0
10
81.10625
20
-60.175
11
81.10625
21
-73.175
0
LINE
8
0
10
95.10625
20
-60.175
11
95.10625
21
-73.175
0
ARC
8
0
10
81.60625
20
-60.175
40
0.5
50
90
51
180
0
ARC
8
0
10
94.60625
20
-60.175
40
0.5
50
0
51
90
0
ARC
8
0
10
81.60625
20
-73.175
40
0.5
50
180
51
270
0
ARC
8
0
10
94.60625
20
-73.175
40
0.5
50
270
51
0
0
LINE
8
0
10
73.34085
20
-60.9854
11
78.99565
21
-60.9854
0
LINE
8
0
10
79.49565
20
-61.4854
11
79.49565
21
-61.7982
0
LINE
8
0
10
79.49565
20
-61.7982
11
88.10625
21
-61.7982
0
LINE
8
0
10
88.10625
20
-72.4916
11
79.99565
21
-72.4916
0
LINE
8
0
10
79.49565
20
-72.9916
11
79.49565
21
-73.279
0
LINE
8
0
10
79.49565
20
-73.279
11
78.19225
21
-73.279
0
LINE
8
0
10
77.69225
20
-73.779
11
77.69225
21
-73.9474
0
LINE
8
0
10
77.19225
20
-74.4474
11
75.14425
21
-74.4474
0
LINE
8
0
10
74.64425
20
-73.9474
11
74.64425
21
-73.779
0
LINE
8
0
10
74.14425
20
-73.279
11
73.34085
21
-73.279
0
LINE
8
0
10
72.84085
20
-72.779
11
72.84085
21
-67.683
0
LINE
8
0
10
72.34085
20
-67.183
11
71.97725
21
-67.183
0
LINE
8
0
10
71.97725
20
-67.183
11
71.97725
21
-64.889
0
LINE
8
0
10
72.47725
20
-64.389
11
72.84085
21
-64.389
0
LINE
8
0
10
72.84085
20
-64.389
11
72.84085
21
-61.4854
0
ARC
8
0
10
78.99565
20
-61.4854
40
0.5
50
0
51
90
0
ARC
8
0
10
79.99565
20
-72.9916
40
0.5
50
90
51
180
0
ARC
8
0
10
78.19225
20
-73.779
40
0.5
50
90
51
180
0
ARC
8
0
10
77.19225
20
-73.9474
40
0.5
50
270
51
0
0
ARC
8
0
10
75.14425
20
-73.9474
40
0.5
50
180
51
270
0
ARC
8
0
10
74.14425
20
-73.779
40
0.5
50
0
51
90
0
ARC
8
0
10
73.34085
20
-72.779
40
0.5
50
180
51
270
0
ARC
8
0
10
72.34085
20
-67.683
40
0.5
50
0
51
90
0
ARC
8
0
10
72.47725
20
-64.889
40
0.5
50
90
51
180
0
ARC
8
0
10
73.34085
20
-61.4854
40
0.5
50
90
51
180
0
LINE
8
0
10
102.87165
20
-60.9854
11
97.21685
21
-60.9854
0
LINE
8
0
10
96.71685
20
-61.4854
11
96.71685
21
-61.7982
0
LINE
8
0
10
96.71685
20
-61.7982
11
88.10625
21
-61.7982
0
LINE
8
0
10
88.10625
20
-72.4916
11
96.21685
21
-72.4916
0
LINE
8
0
10
96.71685
20
-72.9916
11
96.71685
21
-73.279
0
LINE
8
0
10
96.71685
20
-73.279
11
98.02025
21
-73.279
0
LINE
8
0
10
98.52025
20
-73.779
11
98.52025
21
-73.9474
0
LINE
8
0
10
99.02025
20
-74.4474
11
101.06825
21
-74.4474
0
LINE
8
0
10
101.56825
20
-73.9474
11
101.56825
21
-73.779
0
LINE
8
0
10
102.06825
20
-73.279
11
102.87165
21
-73.279
0
LINE
8
0
10
103.37165
20
-72.779
11
103.37165
21
-67.683
0
LINE
8
0
10
103.87165
20
-67.183
11
104.23525
21
-67.183
0
LINE
8
0
10
104.23525
20
-67.183
11
104.23525
21
-64.889
0
LINE
8
0
10
103.73525
20
-64.389
11
103.37165
21
-64.389
0
LINE
8
0
10
103.37165
20
-64.389
11
103.37165
21
-61.4854
0
ARC
8
0
10
97.21685
20
-61.4854
40
0.5
50
90
51
180
0
ARC
8
0
10
96.21685
20
-72.9916
40
0.5
50
0
51
90
0
ARC
8
0
10
98.02025
20
-73.779
40
0.5
50
0
51
90
0
ARC
8
0
10
99.02025
20
-73.9474
40
0.5
50
180
51
270
0
ARC
8
0
10
101.06825
20
-73.9474
40
0.5
50
270
51
0
0
ARC
8
0
10
102.06825
20
-73.779
40
0.5
50
90
51
180
0
ARC
8
0
10
102.87165
20
-72.779
40
0.5
50
270
51
0
0
ARC
8
0
10
103.87165
20
-67.683
40
0.5
50
90
51
180
0
ARC
8
0
10
103.73525
20
-64.889
40
0.5
50
0
51
90
0
ARC
8
0
10
102.87165
20
-61.4854
40
0.5
50
0
51
90
0
LINE
8
0
10
110.18125
20
-59.675
11
123.18125
21
-59.675
0
LINE
8
0
10
110.18125
20
-73.675
11
123.18125
21
-73.675
0
LINE
8
0
10
109.68125
20
-60.175
11
109.68125
21
-73.175
0
LINE
8
0
10
123.68125
20
-60.175
11
123.68125
21
-73.175
0
ARC
8
0
10
110.18125
20
-60.175
40
0.5
50
90
51
180
0
ARC
8
0
10
123.18125
20
-60.175
40
0.5
50
0
51
90
0
ARC
8
0
10
110.18125
20
-73.175
40
0.5
50
180
51
270
0
ARC
8
0
10
123.18125
20
-73.175
40
0.5
50
270
51
0
0
LINE
8
0
10
138.75625
20
-59.675
11
151.75625
21
-59.675
0
LINE
8
0
10
138.75625
20
-73.675
11
151.75625
21
-73.675
0
LINE
8
0
10
138.25625
20
-60.175
11
138.25625
21
-73.175
0
LINE
8
0
10
152.25625
20
-60.175
11
152.25625
21
-73.175
0
ARC
8
0
10
138.75625
20
-60.175
40
0.5
50
90
51
180
0
ARC
8
0
10
151.75625
20
-60.175
40
0.5
50
0
51
90
0
ARC
8
0
10
138.75625
20
-73.175
40
0.5
50
180
51
270
0
ARC
8
0
10
151.75625
20
-73.175
40
0.5
50
270
51
0
0
LINE
8
0
10
130.49085
20
-60.9854
11
136.14565
21
-60.9854
0
LINE
8
0
10
136.64565
20
-61.4854
11
136.64565
21
-61.7982
0
LINE
8
0
10
136.64565
20
-61.7982
11
145.25625
21
-61.7982
0
LINE
8
0
10
145.25625
20
-72.4916
11
137.14565
21
-72.4916
0
LINE
8
0
10
136.64565
20
-72.9916
11
136.64565
21
-73.279
0
LINE
8
0
10
136.64565
20
-73.279
11
135.34225
21
-73.279
0
LINE
8
0
10
134.84225
20
-73.779
11
134.84225
21
-73.9474
0
LINE
8
0
10
134.34225
20
-74.4474
11
132.29425
21
-74.4474
0
LINE
8
0
10
131.79425
20
-73.9474
11
131.79425
21
-73.779
0
LINE
8
0
10
131.29425
20
-73.279
11
130.49085
21
-73.279
0
LINE
8
0
10
129.99085
20
-72.779
11
129.99085
21
-67.683
0
LINE
8
0
10
129.49085
20
-67.183
11
129.12725
21
-67.183
0
LINE
8
0
10
129.12725
20
-67.183
11
129.12725
21
-64.889
0
LINE
8
0
10
129.62725
20
-64.389
11
129.99085
21
-64.389
0
LINE
8
0
10
129.99085
20
-64.389
11
129.99085
21
-61.4854
0
ARC
8
0
10
136.14565
20
-61.4854
40
0.5
50
0
51
90
0
ARC
8
0
10
137.14565
20
-72.9916
40
0.5
50
90
51
180
0
ARC
8
0
10
135.34225
20
-73.779
40
0.5
50
90
51
180
0
ARC
8
0
10
134.34225
20
-73.9474
40
0.5
50
270
51
0
0
ARC
8
0
10
132.29425
20
-73.9474
40
0.5
50
180
51
270
0
ARC
8
0
10
131.29425
20
-73.779
40
0.5
50
0
51
90
0
ARC
8
0
10
130.49085
20
-72.779
40
0.5
50
180
51
270
0
ARC
8
0
10
129.49085
20
-67.683
40
0.5
50
0
51
90
0
ARC
8
0
10
129.62725
20
-64.889
40
0.5
50
90
51
180
0
ARC
8
0
10
130.49085
20
-61.4854
40
0.5
50
90
51
180
0
LINE
8
0
10
160.02165
20
-60.9854
11
154.36685
21
-60.9854
0
LINE
8
0
10
153.86685
20
-61.4854
11
153.86685
21
-61.7982
0
LINE
8
0
10
153.86685
20
-61.7982
11
145.25625
21
-61.7982
0
LINE
8
0
10
145.25625
20
-72.4916
11
153.36685
21
-72.4916
0
LINE
8
0
10
153.86685
20
-72.9916
11
153.86685
21
-73.279
0
LINE
8
0
10
153.86685
20
-73.279
11
155.17025
21
-73.279
0
LINE
8
0
10
155.67025
20
-73.779
11
155.67025
21
-73.9474
0
LINE
8
0
10
156.17025
20
-74.4474
11
158.21825
21
-74.4474
0
LINE
8
0
10
158.71825
20
-73.9474
11
158.71825
21
-73.779
0
LINE
8
0
10
159.21825
20
-73.279
11
160.02165
21
-73.279
0
LINE
8
0
10
160.52165
20
-72.779
11
160.52165
21
-67.683
0
LINE
8
0
10
161.02165
20
-67.183
11
161.38525
21
-67.183
0
LINE
8
0
10
161.38525
20
-67.183
11
161.38525
21
-64.889
0
LINE
8
0
10
160.88525
20
-64.389
11
160.52165
21
-64.389
0
LINE
8
0
10
160.52165
20
-64.389
11
160.52165
21
-61.4854
0
ARC
8
0
10
154.36685
20
-61.4854
40
0.5
50
90
51
180
0
ARC
8
0
10
153.36685
20
-72.9916
40
0.5
50
0
51
90
0
ARC
8
0
10
155.17025
20
-73.779
40
0.5
50
0
51
90
0
ARC
8
0
10
156.17025
20
-73.9474
40
0.5
50
180
51
270
0
ARC
8
0
10
158.21825
20
-73.9474
40
0.5
50
270
51
0
0
ARC
8
0
10
159.21825
20
-73.779
40
0.5
50
90
51
180
0
ARC
8
0
10
160.02165
20
-72.779
40
0.5
50
270
51
0
0
ARC
8
0
10
161.02165
20
-67.683
40
0.5
50
90
51
180
0
ARC
8
0
10
160.88525
20
-64.889
40
0.5
50
0
51
90
0
ARC
8
0
10
160.02165
20
-61.4854
40
0.5
50
0
51
90
0
LINE
8
0
10
167.33125
20
-59.675
11
180.33125
21
-59.675
0
LINE
8
0
10
167.33125
20
-73.675
11
180.33125
21
-73.675
0
LINE
8
0
10
166.83125
20
-60.175
11
166.83125
21
-73.175
0
LINE
8
0
10
180.83125
20
-60.175
11
180.83125
21
-73.175
0
ARC
8
0
10
167.33125
20
-60.175
40
0.5
50
90
51
180
0
ARC
8
0
10
180.33125
20
-60.175
40
0.5
50
0
51
90
0
ARC
8
0
10
167.33125
20
-73.175
40
0.5
50
180
51
270
0
ARC
8
0
10
180.33125
20
-73.175
40
0.5
50
270
51
0
0
LINE
8
0
10
188.7625
20
-59.675
11
201.7625
21
-59.675
0
LINE
8
0
10
188.7625
20
-73.675
11
201.7625
21
-73.675
0
LINE
8
0
10
188.2625
20
-60.175
11
188.2625
21
-73.175
0
LINE
8
0
10
202.2625
20
-60.175
11
202.2625
21
-73.175
0
ARC
8
0
10
188.7625
20
-60.175
40
0.5
50
90
51
180
0
ARC
8
0
10
201.7625
20
-60.175
40
0.5
50
0
51
90
0
ARC
8
0
10
188.7625
20
-73.175
40
0.5
50
180
51
270
0
ARC
8
0
10
201.7625
20
-73.175
40
0.5
50
270
51
0
0
LINE
8
0
10
0
20
-76.2
11
233.3625
21
-76.2
0
LINE
8
0
10
0
20
0
11
233.3625
21
0
0
LINE
8
0
10
0
20
-76.2
11
0
21
0
0
LINE
8
0
10
233.3625
20
-76.2
11
233.3625
21
0
0
ENDSEC
0
EOF