  0
SECTION
  2
HEADER
  9
$ANGBASE
  50
0.0
  9
$ANGDIR
  70
1
  9
$MEASUREMENT
  70
1
  0
ENDSEC
  0
SECTION
  2
TABLES
  0
TABLE
  2
LTYPE
  70
4
  0
LTYPE
  5
40F
  2
CONTINUOUS
  70
0
  3
Solid line
  72
65
  73
0
  40
0.0
  0
LTYPE
  5
410
  2
DASHDOT
 70
0
  3
Dash Dot ____ _ ____ _
 72
65
 73
4
 40
2.0
 49
1.25
 49
-0.25
 49
0.25
 49
-0.25
  0
LTYPE
  5
411
  2
DASHED
 70
0
  3
Dashed __ __ __ __ __
 72
65
 73
2
 40
0.75
 49
0.5
 49
-0.25
  0
LTYPE
  5
43B
  2
DOTTED
 70
0
  3
Dotted .  .  .  .
 72
65
 73
2
 40
0.2
 49
0.0
 49
-0.2
  0
ENDTAB
  0
TABLE
  2
STYLE
  70
4
  0
STYLE
  2
KICAD
  70
0
  40
0
  41
1
  42
1
  50
0
  71
0
  3
isocp.shx
  0
STYLE
  2
KICADB
  70
0
  40
0
  41
1
  42
1
  50
0
  71
0
  3
isocp.shx
  0
STYLE
  2
KICADI
  70
0
  40
0
  41
1
  42
1
  50
15
  71
0
  3
isocp.shx
  0
STYLE
  2
KICADBI
  70
0
  40
0
  41
1
  42
1
  50
15
  71
0
  3
isocp.shx
  0
ENDTAB
  0
TABLE
  2
LAYER
  70
1
  0
LAYER
  2
BLACK
  70
0
  62
7
  6
CONTINUOUS
  0
ENDTAB
  0
ENDSEC
  0
SECTION
  2
ENTITIES
0
LINE
8
BLACK
6
CONTINUOUS
10
267.5812500000000114
20
-21.3499999999999979
11
267.8455700000000093
21
-21.3673179999999974
0
LINE
8
BLACK
6
CONTINUOUS
10
267.8455700000000093
20
-21.3673179999999974
11
268.1053679999999986
21
-21.4189889999999998
0
LINE
8
BLACK
6
CONTINUOUS
10
268.1053679999999986
20
-21.4189889999999998
11
268.3561990000000037
21
-21.5041289999999989
0
LINE
8
BLACK
6
CONTINUOUS
10
268.3561990000000037
20
-21.5041289999999989
11
268.5937710000000038
21
-21.6212820000000008
0
LINE
8
BLACK
6
CONTINUOUS
10
268.5937710000000038
20
-21.6212820000000008
11
268.8140179999999759
21
-21.7684420000000003
0
LINE
8
BLACK
6
CONTINUOUS
10
268.8140179999999759
20
-21.7684420000000003
11
269.0131729999999948
21
-21.943090999999999
0
LINE
8
BLACK
6
CONTINUOUS
10
269.0131729999999948
20
-21.943090999999999
11
269.1878279999999677
21
-22.1422409999999985
0
LINE
8
BLACK
6
CONTINUOUS
10
269.1878279999999677
20
-22.1422409999999985
11
269.3349929999999972
21
-22.3624849999999995
0
LINE
8
BLACK
6
CONTINUOUS
10
269.3349929999999972
20
-22.3624849999999995
11
269.4521510000000148
21
-22.6000540000000001
0
LINE
8
BLACK
6
CONTINUOUS
10
269.4521510000000148
20
-22.6000540000000001
11
269.5372979999999643
21
-22.8508829999999996
0
LINE
8
BLACK
6
CONTINUOUS
10
269.5372979999999643
20
-22.8508829999999996
11
269.5889750000000049
21
-23.1106799999999986
0
LINE
8
BLACK
6
CONTINUOUS
10
269.5889750000000049
20
-23.1106799999999986
11
269.6062999999999761
21
-23.375
0
LINE
8
BLACK
6
CONTINUOUS
10
269.6062999999999761
20
-23.375
11
269.6062499999999886
21
-23.375
0
LINE
8
BLACK
6
CONTINUOUS
10
269.6062499999999886
20
-23.375
11
269.6062499999999886
21
-102.375
0
LINE
8
BLACK
6
CONTINUOUS
10
269.6062499999999886
20
-102.375
11
269.5889260000000149
21
-102.6393130000000014
0
LINE
8
BLACK
6
CONTINUOUS
10
269.5889260000000149
20
-102.6393130000000014
11
269.5372489999999743
21
-102.8991039999999941
0
LINE
8
BLACK
6
CONTINUOUS
10
269.5372489999999743
20
-102.8991039999999941
11
269.4521049999999605
21
-103.149926999999991
0
LINE
8
BLACK
6
CONTINUOUS
10
269.4521049999999605
20
-103.149926999999991
11
269.3349499999999921
21
-103.3874899999999997
0
LINE
8
BLACK
6
CONTINUOUS
10
269.3349499999999921
20
-103.3874899999999997
11
269.1877880000000118
21
-103.6077279999999945
0
LINE
8
BLACK
6
CONTINUOUS
10
269.1877880000000118
20
-103.6077279999999945
11
269.0131379999999695
21
-103.8068739999999934
0
LINE
8
BLACK
6
CONTINUOUS
10
269.0131379999999695
20
-103.8068739999999934
11
268.8139879999999948
21
-103.9815189999999916
0
LINE
8
BLACK
6
CONTINUOUS
10
268.8139879999999948
20
-103.9815189999999916
11
268.5937460000000101
21
-104.1286750000000012
0
LINE
8
BLACK
6
CONTINUOUS
10
268.5937460000000101
20
-104.1286750000000012
11
268.3561799999999948
21
-104.2458239999999989
0
LINE
8
BLACK
6
CONTINUOUS
10
268.3561799999999948
20
-104.2458239999999989
11
268.1053549999999746
21
-104.3309619999999995
0
LINE
8
BLACK
6
CONTINUOUS
10
268.1053549999999746
20
-104.3309619999999995
11
267.8455629999999701
21
-104.382632000000001
0
LINE
8
BLACK
6
CONTINUOUS
10
267.8455629999999701
20
-104.382632000000001
11
267.5816249999999741
21
-104.3999249999999961
0
LINE
8
BLACK
6
CONTINUOUS
10
267.5816249999999741
20
-104.3999249999999961
11
267.5812500000000114
21
-104.3999999999999915
0
LINE
8
BLACK
6
CONTINUOUS
10
267.5812500000000114
20
-104.3999999999999915
11
267.5812490000000139
21
-104.3999999999999915
0
LINE
8
BLACK
6
CONTINUOUS
10
267.5812490000000139
20
-104.3999999999999915
11
25.5812499999999972
21
-104.3999999999999915
0
LINE
8
BLACK
6
CONTINUOUS
10
25.5812499999999972
20
-104.3999999999999915
11
25.3169339999999998
21
-104.3826759999999894
0
LINE
8
BLACK
6
CONTINUOUS
10
25.3169339999999998
20
-104.3826759999999894
11
25.0571409999999979
21
-104.3309999999999889
0
LINE
8
BLACK
6
CONTINUOUS
10
25.0571409999999979
20
-104.3309999999999889
11
24.8063159999999989
21
-104.2458559999999892
0
LINE
8
BLACK
6
CONTINUOUS
10
24.8063159999999989
20
-104.2458559999999892
11
24.5687499999999979
21
-104.1287009999999924
0
LINE
8
BLACK
6
CONTINUOUS
10
24.5687499999999979
20
-104.1287009999999924
11
24.3485079999999989
21
-103.9815409999999929
0
LINE
8
BLACK
6
CONTINUOUS
10
24.3485079999999989
20
-103.9815409999999929
11
24.1493590000000005
21
-103.8068909999999931
0
LINE
8
BLACK
6
CONTINUOUS
10
24.1493590000000005
20
-103.8068909999999931
11
23.9747089999999972
21
-103.6077420000000018
0
LINE
8
BLACK
6
CONTINUOUS
10
23.9747089999999972
20
-103.6077420000000018
11
23.8275489999999976
21
-103.3874999999999886
0
LINE
8
BLACK
6
CONTINUOUS
10
23.8275489999999976
20
-103.3874999999999886
11
23.7103939999999973
21
-103.1499340000000018
0
LINE
8
BLACK
6
CONTINUOUS
10
23.7103939999999973
20
-103.1499340000000018
11
23.6252499999999976
21
-102.8991089999999957
0
LINE
8
BLACK
6
CONTINUOUS
10
23.6252499999999976
20
-102.8991089999999957
11
23.5735740000000007
21
-102.6393159999999938
0
LINE
8
BLACK
6
CONTINUOUS
10
23.5735740000000007
20
-102.6393159999999938
11
23.5562499999999986
21
-102.375
0
LINE
8
BLACK
6
CONTINUOUS
10
23.5562499999999986
20
-102.375
11
23.5562499999999986
21
-23.375
0
LINE
8
BLACK
6
CONTINUOUS
10
23.5562499999999986
20
-23.375
11
23.5735740000000007
21
-23.1106839999999991
0
LINE
8
BLACK
6
CONTINUOUS
10
23.5735740000000007
20
-23.1106839999999991
11
23.6252499999999976
21
-22.8508910000000007
0
LINE
8
BLACK
6
CONTINUOUS
10
23.6252499999999976
20
-22.8508910000000007
11
23.7103939999999973
21
-22.6000659999999982
0
LINE
8
BLACK
6
CONTINUOUS
10
23.7103939999999973
20
-22.6000659999999982
11
23.8275489999999976
21
-22.3625000000000007
0
LINE
8
BLACK
6
CONTINUOUS
10
23.8275489999999976
20
-22.3625000000000007
11
23.9747089999999972
21
-22.1422579999999982
0
LINE
8
BLACK
6
CONTINUOUS
10
23.9747089999999972
20
-22.1422579999999982
11
24.1493590000000005
21
-21.9431089999999998
0
LINE
8
BLACK
6
CONTINUOUS
10
24.1493590000000005
20
-21.9431089999999998
11
24.3485079999999989
21
-21.768459
0
LINE
8
BLACK
6
CONTINUOUS
10
24.3485079999999989
20
-21.768459
11
24.5687499999999979
21
-21.6212990000000005
0
LINE
8
BLACK
6
CONTINUOUS
10
24.5687499999999979
20
-21.6212990000000005
11
24.8063159999999989
21
-21.5041440000000001
0
LINE
8
BLACK
6
CONTINUOUS
10
24.8063159999999989
20
-21.5041440000000001
11
25.0571409999999979
21
-21.4190000000000005
0
LINE
8
BLACK
6
CONTINUOUS
10
25.0571409999999979
20
-21.4190000000000005
11
25.3169339999999998
21
-21.367324
0
LINE
8
BLACK
6
CONTINUOUS
10
25.3169339999999998
20
-21.367324
11
25.5812499999999972
21
-21.3499999999999979
0
LINE
8
BLACK
6
CONTINUOUS
10
25.5812499999999972
20
-21.3499999999999979
11
267.5812500000000114
21
-21.3499999999999979
0
LINE
8
BLACK
6
CONTINUOUS
10
267.5812510000000088
20
-21.3999999999999986
11
267.5812500000000114
21
-21.3999989999999976
0
LINE
8
BLACK
6
CONTINUOUS
10
267.5812500000000114
20
-21.3999989999999976
11
267.5812500000000114
21
-21.3999999999999986
0
LINE
8
BLACK
6
CONTINUOUS
10
267.5812500000000114
20
-21.3999999999999986
11
25.5812499999999972
21
-21.3999999999999986
0
LINE
8
BLACK
6
CONTINUOUS
10
25.5812499999999972
20
-21.3999999999999986
11
25.4518019999999972
21
-21.3999999999999986
0
LINE
8
BLACK
6
CONTINUOUS
10
25.4518019999999972
20
-21.3999999999999986
11
25.1951199999999993
21
-21.4337929999999979
0
LINE
8
BLACK
6
CONTINUOUS
10
25.1951199999999993
20
-21.4337929999999979
11
24.9450450000000004
21
-21.5007999999999981
0
LINE
8
BLACK
6
CONTINUOUS
10
24.9450450000000004
20
-21.5007999999999981
11
24.7058549999999997
21
-21.5998749999999973
0
LINE
8
BLACK
6
CONTINUOUS
10
24.7058549999999997
20
-21.5998749999999973
11
24.4816439999999993
21
-21.7293239999999983
0
LINE
8
BLACK
6
CONTINUOUS
10
24.4816439999999993
20
-21.7293239999999983
11
24.2762479999999989
21
-21.8869299999999996
0
LINE
8
BLACK
6
CONTINUOUS
10
24.2762479999999989
20
-21.8869299999999996
11
24.0931800000000003
21
-22.0699979999999982
0
LINE
8
BLACK
6
CONTINUOUS
10
24.0931800000000003
20
-22.0699979999999982
11
23.935573999999999
21
-22.2753939999999986
0
LINE
8
BLACK
6
CONTINUOUS
10
23.935573999999999
20
-22.2753939999999986
11
23.806124999999998
21
-22.499604999999999
0
LINE
8
BLACK
6
CONTINUOUS
10
23.806124999999998
20
-22.499604999999999
11
23.7070499999999988
21
-22.7387949999999996
0
LINE
8
BLACK
6
CONTINUOUS
10
23.7070499999999988
20
-22.7387949999999996
11
23.6400429999999986
21
-22.9888699999999986
0
LINE
8
BLACK
6
CONTINUOUS
10
23.6400429999999986
20
-22.9888699999999986
11
23.6062499999999993
21
-23.245552
0
LINE
8
BLACK
6
CONTINUOUS
10
23.6062499999999993
20
-23.245552
11
23.6062499999999993
21
-23.375
0
LINE
8
BLACK
6
CONTINUOUS
10
23.6062499999999993
20
-23.375
11
23.6062499999999993
21
-102.375
0
LINE
8
BLACK
6
CONTINUOUS
10
23.6062499999999993
20
-102.375
11
23.6062499999999993
21
-102.5044479999999965
0
LINE
8
BLACK
6
CONTINUOUS
10
23.6062499999999993
20
-102.5044479999999965
11
23.6400429999999986
21
-102.7611299999999943
0
LINE
8
BLACK
6
CONTINUOUS
10
23.6400429999999986
20
-102.7611299999999943
11
23.7070499999999988
21
-103.0112049999999897
0
LINE
8
BLACK
6
CONTINUOUS
10
23.7070499999999988
20
-103.0112049999999897
11
23.806124999999998
21
-103.2503949999999975
0
LINE
8
BLACK
6
CONTINUOUS
10
23.806124999999998
20
-103.2503949999999975
11
23.935573999999999
21
-103.4746059999999943
0
LINE
8
BLACK
6
CONTINUOUS
10
23.935573999999999
20
-103.4746059999999943
11
24.0931800000000003
21
-103.6800020000000018
0
LINE
8
BLACK
6
CONTINUOUS
10
24.0931800000000003
20
-103.6800020000000018
11
24.2762479999999989
21
-103.8630699999999933
0
LINE
8
BLACK
6
CONTINUOUS
10
24.2762479999999989
20
-103.8630699999999933
11
24.4816439999999993
21
-104.0206759999999946
0
LINE
8
BLACK
6
CONTINUOUS
10
24.4816439999999993
20
-104.0206759999999946
11
24.7058549999999997
21
-104.1501249999999885
0
LINE
8
BLACK
6
CONTINUOUS
10
24.7058549999999997
20
-104.1501249999999885
11
24.9450450000000004
21
-104.2492000000000019
0
LINE
8
BLACK
6
CONTINUOUS
10
24.9450450000000004
20
-104.2492000000000019
11
25.1951199999999993
21
-104.3162069999999915
0
LINE
8
BLACK
6
CONTINUOUS
10
25.1951199999999993
20
-104.3162069999999915
11
25.4518019999999972
21
-104.3499999999999943
0
LINE
8
BLACK
6
CONTINUOUS
10
25.4518019999999972
20
-104.3499999999999943
11
25.5812499999999972
21
-104.3499999999999943
0
LINE
8
BLACK
6
CONTINUOUS
10
25.5812499999999972
20
-104.3499999999999943
11
267.5812500000000114
21
-104.3499999999999943
0
LINE
8
BLACK
6
CONTINUOUS
10
267.5812500000000114
20
-104.3499999999999943
11
267.5812510000000088
21
-104.3499999999999943
0
LINE
8
BLACK
6
CONTINUOUS
10
267.5812510000000088
20
-104.3499999999999943
11
267.5812510000000088
21
-104.3499499999999927
0
LINE
8
BLACK
6
CONTINUOUS
10
267.5812510000000088
20
-104.3499499999999927
11
267.7106979999999794
21
-104.3499539999999968
0
LINE
8
BLACK
6
CONTINUOUS
10
267.7106979999999794
20
-104.3499539999999968
11
267.9673779999999965
21
-104.316166999999993
0
LINE
8
BLACK
6
CONTINUOUS
10
267.9673779999999965
20
-104.316166999999993
11
268.2174519999999802
21
-104.2491649999999908
0
LINE
8
BLACK
6
CONTINUOUS
10
268.2174519999999802
20
-104.2491649999999908
11
268.4566409999999905
21
-104.1500949999999932
0
LINE
8
BLACK
6
CONTINUOUS
10
268.4566409999999905
20
-104.1500949999999932
11
268.6808520000000158
21
-104.0206519999999983
0
LINE
8
BLACK
6
CONTINUOUS
10
268.6808520000000158
20
-104.0206519999999983
11
268.8862489999999639
21
-103.8630500000000012
0
LINE
8
BLACK
6
CONTINUOUS
10
268.8862489999999639
20
-103.8630500000000012
11
269.0693170000000123
21
-103.6799859999999995
0
LINE
8
BLACK
6
CONTINUOUS
10
269.0693170000000123
20
-103.6799859999999995
11
269.2269239999999968
21
-103.4745929999999987
0
LINE
8
BLACK
6
CONTINUOUS
10
269.2269239999999968
20
-103.4745929999999987
11
269.3563729999999623
21
-103.2503849999999943
0
LINE
8
BLACK
6
CONTINUOUS
10
269.3563729999999623
20
-103.2503849999999943
11
269.4554489999999873
21
-103.0111989999999906
0
LINE
8
BLACK
6
CONTINUOUS
10
269.4554489999999873
20
-103.0111989999999906
11
269.5224569999999744
21
-102.7611259999999902
0
LINE
8
BLACK
6
CONTINUOUS
10
269.5224569999999744
20
-102.7611259999999902
11
269.5562499999999773
21
-102.504446999999999
0
LINE
8
BLACK
6
CONTINUOUS
10
269.5562499999999773
20
-102.504446999999999
11
269.5562499999999773
21
-102.375
0
LINE
8
BLACK
6
CONTINUOUS
10
269.5562499999999773
20
-102.375
11
269.5562499999999773
21
-23.375
0
LINE
8
BLACK
6
CONTINUOUS
10
269.5562499999999773
20
-23.375
11
269.5562999999999647
21
-23.3747480000000003
0
LINE
8
BLACK
6
CONTINUOUS
10
269.5562999999999647
20
-23.3747480000000003
11
269.5562999999999647
21
-23.2455499999999979
0
LINE
8
BLACK
6
CONTINUOUS
10
269.5562999999999647
20
-23.2455499999999979
11
269.5225059999999644
21
-22.9888639999999995
0
LINE
8
BLACK
6
CONTINUOUS
10
269.5225059999999644
20
-22.9888639999999995
11
269.4554969999999798
21
-22.738785
0
LINE
8
BLACK
6
CONTINUOUS
10
269.4554969999999798
20
-22.738785
11
269.3564179999999624
21
-22.4995919999999998
0
LINE
8
BLACK
6
CONTINUOUS
10
269.3564179999999624
20
-22.4995919999999998
11
269.2269660000000044
21
-22.2753789999999974
0
LINE
8
BLACK
6
CONTINUOUS
10
269.2269660000000044
20
-22.2753789999999974
11
269.0693549999999732
21
-22.0699809999999985
0
LINE
8
BLACK
6
CONTINUOUS
10
269.0693549999999732
20
-22.0699809999999985
11
268.8862819999999942
21
-21.8869119999999988
0
LINE
8
BLACK
6
CONTINUOUS
10
268.8862819999999942
20
-21.8869119999999988
11
268.6808800000000019
21
-21.7293069999999986
0
LINE
8
BLACK
6
CONTINUOUS
10
268.6808800000000019
20
-21.7293069999999986
11
268.4566629999999918
21
-21.5998599999999996
0
LINE
8
BLACK
6
CONTINUOUS
10
268.4566629999999918
20
-21.5998599999999996
11
268.2174679999999967
21
-21.500786999999999
0
LINE
8
BLACK
6
CONTINUOUS
10
268.2174679999999967
20
-21.500786999999999
11
267.9673879999999713
21
-21.4337839999999993
0
LINE
8
BLACK
6
CONTINUOUS
10
267.9673879999999713
20
-21.4337839999999993
11
267.7107009999999718
21
-21.399996999999999
0
LINE
8
BLACK
6
CONTINUOUS
10
267.7107009999999718
20
-21.399996999999999
11
267.5812510000000088
21
-21.3999999999999986
0
CIRCLE
8
BLACK
10
96.2571169999999938
20
-52.9248519999999942
40
0.875
0
CIRCLE
8
BLACK
10
101.3371169999999921
20
-52.9248519999999942
40
2.
0
CIRCLE
8
BLACK
10
106.4171169999999904
20
-52.9248519999999942
40
0.875
0
CIRCLE
8
BLACK
10
97.5271169999999898
20
-50.3848519999999951
40
0.75
0
CIRCLE
8
BLACK
10
103.8771169999999984
20
-47.8448519999999959
40
0.75
0
CIRCLE
8
BLACK
10
181.9821169999999881
20
-71.9748519999999985
40
0.875
0
CIRCLE
8
BLACK
10
187.0621170000000006
20
-71.9748519999999985
40
2.
0
CIRCLE
8
BLACK
10
192.1421169999999847
20
-71.9748519999999985
40
0.875
0
CIRCLE
8
BLACK
10
183.2521169999999984
20
-69.4348519999999922
40
0.75
0
CIRCLE
8
BLACK
10
189.6021169999999927
20
-66.8948520000000002
40
0.75
0
CIRCLE
8
BLACK
10
246.2758669999999768
20
-33.8748519999999971
40
0.875
0
CIRCLE
8
BLACK
10
251.3558669999999893
20
-33.8748519999999971
40
2.
0
CIRCLE
8
BLACK
10
256.4358669999999734
20
-33.8748519999999971
40
0.875
0
CIRCLE
8
BLACK
10
247.545866999999987
20
-31.3348519999999979
40
0.75
0
CIRCLE
8
BLACK
10
253.8958669999999813
20
-28.7948519999999988
40
0.75
0
CIRCLE
8
BLACK
10
129.5946169999999995
20
-33.8748519999999971
40
0.875
0
CIRCLE
8
BLACK
10
134.6746169999999836
20
-33.8748519999999971
40
2.
0
CIRCLE
8
BLACK
10
139.7546169999999961
20
-33.8748519999999971
40
0.875
0
CIRCLE
8
BLACK
10
130.8646169999999813
20
-31.3348519999999979
40
0.75
0
CIRCLE
8
BLACK
10
137.2146170000000041
20
-28.7948519999999988
40
0.75
0
CIRCLE
8
BLACK
10
86.7321170000000023
20
-71.9748519999999985
40
0.875
0
CIRCLE
8
BLACK
10
91.8121170000000006
20
-71.9748519999999985
40
2.
0
CIRCLE
8
BLACK
10
96.8921169999999989
20
-71.9748519999999985
40
0.875
0
CIRCLE
8
BLACK
10
88.0021169999999984
20
-69.4348519999999922
40
0.75
0
CIRCLE
8
BLACK
10
94.3521169999999927
20
-66.8948520000000002
40
0.75
0
CIRCLE
8
BLACK
10
241.5133669999999881
20
-71.9748519999999985
40
0.875
0
CIRCLE
8
BLACK
10
246.5933670000000006
20
-71.9748519999999985
40
2.
0
CIRCLE
8
BLACK
10
251.6733669999999847
20
-71.9748519999999985
40
0.875
0
CIRCLE
8
BLACK
10
242.7833669999999984
20
-69.4348519999999922
40
0.75
0
CIRCLE
8
BLACK
10
249.1333669999999927
20
-66.8948520000000002
40
0.75
0
CIRCLE
8
BLACK
10
106.0609429999999946
20
-83.1974069999999983
40
1.524
0
CIRCLE
8
BLACK
10
106.0609429999999946
20
-98.4074069999999921
40
1.9939
0
CIRCLE
8
BLACK
10
129.9369429999999852
20
-83.1974069999999983
40
1.524
0
CIRCLE
8
BLACK
10
129.9369429999999852
20
-98.4074069999999921
40
1.9939
0
CIRCLE
8
BLACK
10
112.9189429999999987
20
-91.0373570000000001
40
0.875
0
CIRCLE
8
BLACK
10
117.998942999999997
20
-91.0373570000000001
40
2.
0
CIRCLE
8
BLACK
10
123.0789429999999953
20
-91.0373570000000001
40
0.875
0
CIRCLE
8
BLACK
10
114.1889429999999948
20
-88.4973569999999938
40
0.75
0
CIRCLE
8
BLACK
10
120.5389429999999891
20
-85.9573570000000018
40
0.75
0
CIRCLE
8
BLACK
10
105.7821169999999995
20
-71.9748519999999985
40
0.875
0
CIRCLE
8
BLACK
10
110.8621169999999978
20
-71.9748519999999985
40
2.
0
CIRCLE
8
BLACK
10
115.9421169999999961
20
-71.9748519999999985
40
0.875
0
CIRCLE
8
BLACK
10
107.0521169999999955
20
-69.4348519999999922
40
0.75
0
CIRCLE
8
BLACK
10
113.4021169999999898
20
-66.8948520000000002
40
0.75
0
CIRCLE
8
BLACK
10
170.0689429999999902
20
-91.0373570000000001
40
0.875
0
CIRCLE
8
BLACK
10
175.1489430000000027
20
-91.0373570000000001
40
2.
0
CIRCLE
8
BLACK
10
180.2289429999999868
20
-91.0373570000000001
40
0.875
0
CIRCLE
8
BLACK
10
171.3389430000000004
20
-88.4973569999999938
40
0.75
0
CIRCLE
8
BLACK
10
177.6889429999999948
20
-85.9573570000000018
40
0.75
0
CIRCLE
8
BLACK
10
34.3446169999999995
20
-33.8748519999999971
40
0.875
0
CIRCLE
8
BLACK
10
39.4246169999999978
20
-33.8748519999999971
40
2.
0
CIRCLE
8
BLACK
10
44.5046169999999961
20
-33.8748519999999971
40
0.875
0
CIRCLE
8
BLACK
10
35.6146169999999955
20
-31.3348519999999979
40
0.75
0
CIRCLE
8
BLACK
10
41.9646169999999969
20
-28.7948519999999988
40
0.75
0
CIRCLE
8
BLACK
10
162.9321170000000052
20
-71.9748519999999985
40
0.875
0
CIRCLE
8
BLACK
10
168.0121169999999893
20
-71.9748519999999985
40
2.
0
CIRCLE
8
BLACK
10
173.0921170000000018
20
-71.9748519999999985
40
0.875
0
CIRCLE
8
BLACK
10
164.202116999999987
20
-69.4348519999999922
40
0.75
0
CIRCLE
8
BLACK
10
170.5521169999999813
20
-66.8948520000000002
40
0.75
0
CIRCLE
8
BLACK
10
62.9126929999999973
20
-91.0373570000000001
40
0.875
0
CIRCLE
8
BLACK
10
67.9926930000000027
20
-91.0373570000000001
40
2.
0
CIRCLE
8
BLACK
10
73.072693000000001
20
-91.0373570000000001
40
0.875
0
CIRCLE
8
BLACK
10
64.1826930000000004
20
-88.4973569999999938
40
0.75
0
CIRCLE
8
BLACK
10
70.5326929999999948
20
-85.9573570000000018
40
0.75
0
CIRCLE
8
BLACK
10
220.0751929999999845
20
-91.0373570000000001
40
0.875
0
CIRCLE
8
BLACK
10
225.155192999999997
20
-91.0373570000000001
40
2.
0
CIRCLE
8
BLACK
10
230.2351929999999811
20
-91.0373570000000001
40
0.875
0
CIRCLE
8
BLACK
10
221.3451929999999948
20
-88.4973569999999938
40
0.75
0
CIRCLE
8
BLACK
10
227.6951929999999891
20
-85.9573570000000018
40
0.75
0
CIRCLE
8
BLACK
10
67.682116999999991
20
-71.9748519999999985
40
0.875
0
CIRCLE
8
BLACK
10
72.7621170000000035
20
-71.9748519999999985
40
2.
0
CIRCLE
8
BLACK
10
77.8421170000000018
20
-71.9748519999999985
40
0.875
0
CIRCLE
8
BLACK
10
68.9521170000000012
20
-69.4348519999999922
40
0.75
0
CIRCLE
8
BLACK
10
75.3021169999999955
20
-66.8948520000000002
40
0.75
0
CIRCLE
8
BLACK
10
220.0821169999999825
20
-71.9748519999999985
40
0.875
0
CIRCLE
8
BLACK
10
225.162116999999995
20
-71.9748519999999985
40
2.
0
CIRCLE
8
BLACK
10
230.242116999999979
20
-71.9748519999999985
40
0.875
0
CIRCLE
8
BLACK
10
221.3521169999999927
20
-69.4348519999999922
40
0.75
0
CIRCLE
8
BLACK
10
227.702116999999987
20
-66.8948520000000002
40
0.75
0
CIRCLE
8
BLACK
10
84.3439429999999959
20
-91.0373570000000001
40
0.875
0
CIRCLE
8
BLACK
10
89.4239429999999942
20
-91.0373570000000001
40
2.
0
CIRCLE
8
BLACK
10
94.5039429999999925
20
-91.0373570000000001
40
0.875
0
CIRCLE
8
BLACK
10
85.6139429999999919
20
-88.4973569999999938
40
0.75
0
CIRCLE
8
BLACK
10
91.9639430000000004
20
-85.9573570000000018
40
0.75
0
CIRCLE
8
BLACK
10
205.7946169999999881
20
-33.8748519999999971
40
0.875
0
CIRCLE
8
BLACK
10
210.8746170000000006
20
-33.8748519999999971
40
2.
0
CIRCLE
8
BLACK
10
215.9546169999999847
20
-33.8748519999999971
40
0.875
0
CIRCLE
8
BLACK
10
207.0646169999999984
20
-31.3348519999999979
40
0.75
0
CIRCLE
8
BLACK
10
213.4146169999999927
20
-28.7948519999999988
40
0.75
0
CIRCLE
8
BLACK
10
172.4571169999999825
20
-52.9248519999999942
40
0.875
0
CIRCLE
8
BLACK
10
177.537116999999995
20
-52.9248519999999942
40
2.
0
CIRCLE
8
BLACK
10
182.617116999999979
20
-52.9248519999999942
40
0.875
0
CIRCLE
8
BLACK
10
173.7271169999999927
20
-50.3848519999999951
40
0.75
0
CIRCLE
8
BLACK
10
180.077116999999987
20
-47.8448519999999959
40
0.75
0
CIRCLE
8
BLACK
10
143.8821169999999938
20
-71.9748519999999985
40
0.875
0
CIRCLE
8
BLACK
10
148.9621170000000063
20
-71.9748519999999985
40
2.
0
CIRCLE
8
BLACK
10
154.0421169999999904
20
-71.9748519999999985
40
0.875
0
CIRCLE
8
BLACK
10
145.1521170000000041
20
-69.4348519999999922
40
0.75
0
CIRCLE
8
BLACK
10
151.5021169999999984
20
-66.8948520000000002
40
0.75
0
CIRCLE
8
BLACK
10
229.6071169999999881
20
-52.9248519999999942
40
0.875
0
CIRCLE
8
BLACK
10
234.6871170000000006
20
-52.9248519999999942
40
2.
0
CIRCLE
8
BLACK
10
239.7671169999999847
20
-52.9248519999999942
40
0.875
0
CIRCLE
8
BLACK
10
230.8771169999999984
20
-50.3848519999999951
40
0.75
0
CIRCLE
8
BLACK
10
237.2271169999999927
20
-47.8448519999999959
40
0.75
0
CIRCLE
8
BLACK
10
36.7258670000000009
20
-52.9248519999999942
40
0.875
0
CIRCLE
8
BLACK
10
41.8058669999999992
20
-52.9248519999999942
40
2.
0
CIRCLE
8
BLACK
10
46.8858669999999975
20
-52.9248519999999942
40
0.875
0
CIRCLE
8
BLACK
10
37.9958669999999969
20
-50.3848519999999951
40
0.75
0
CIRCLE
8
BLACK
10
44.3458669999999984
20
-47.8448519999999959
40
0.75
0
CIRCLE
8
BLACK
10
53.3946169999999967
20
-33.8748519999999971
40
0.875
0
CIRCLE
8
BLACK
10
58.474616999999995
20
-33.8748519999999971
40
2.
0
CIRCLE
8
BLACK
10
63.5546170000000004
20
-33.8748519999999971
40
0.875
0
CIRCLE
8
BLACK
10
54.6646169999999998
20
-31.3348519999999979
40
0.75
0
CIRCLE
8
BLACK
10
61.0146169999999941
20
-28.7948519999999988
40
0.75
0
CIRCLE
8
BLACK
10
134.3571169999999881
20
-52.9248519999999942
40
0.875
0
CIRCLE
8
BLACK
10
139.4371170000000006
20
-52.9248519999999942
40
2.
0
CIRCLE
8
BLACK
10
144.5171169999999847
20
-52.9248519999999942
40
0.875
0
CIRCLE
8
BLACK
10
135.6271169999999984
20
-50.3848519999999951
40
0.75
0
CIRCLE
8
BLACK
10
141.9771169999999927
20
-47.8448519999999959
40
0.75
0
CIRCLE
8
BLACK
10
248.6571169999999995
20
-52.9248519999999942
40
0.875
0
CIRCLE
8
BLACK
10
253.7371169999999836
20
-52.9248519999999942
40
2.
0
CIRCLE
8
BLACK
10
258.8171169999999961
20
-52.9248519999999942
40
0.875
0
CIRCLE
8
BLACK
10
249.9271169999999813
20
-50.3848519999999951
40
0.75
0
CIRCLE
8
BLACK
10
256.2771169999999756
20
-47.8448519999999959
40
0.75
0
CIRCLE
8
BLACK
10
148.6446169999999825
20
-33.8748519999999971
40
0.875
0
CIRCLE
8
BLACK
10
153.724616999999995
20
-33.8748519999999971
40
2.
0
CIRCLE
8
BLACK
10
158.804616999999979
20
-33.8748519999999971
40
0.875
0
CIRCLE
8
BLACK
10
149.9146169999999927
20
-31.3348519999999979
40
0.75
0
CIRCLE
8
BLACK
10
156.264616999999987
20
-28.7948519999999988
40
0.75
0
CIRCLE
8
BLACK
10
110.5446169999999881
20
-33.8748519999999971
40
0.875
0
CIRCLE
8
BLACK
10
115.6246170000000006
20
-33.8748519999999971
40
2.
0
CIRCLE
8
BLACK
10
120.7046169999999989
20
-33.8748519999999971
40
0.875
0
CIRCLE
8
BLACK
10
111.8146169999999984
20
-31.3348519999999979
40
0.75
0
CIRCLE
8
BLACK
10
118.1646169999999927
20
-28.7948519999999988
40
0.75
0
CIRCLE
8
BLACK
10
201.0321169999999995
20
-71.9748519999999985
40
0.875
0
CIRCLE
8
BLACK
10
206.1121169999999836
20
-71.9748519999999985
40
2.
0
CIRCLE
8
BLACK
10
211.1921169999999961
20
-71.9748519999999985
40
0.875
0
CIRCLE
8
BLACK
10
202.3021169999999813
20
-69.4348519999999922
40
0.75
0
CIRCLE
8
BLACK
10
208.6521170000000041
20
-66.8948520000000002
40
0.75
0
CIRCLE
8
BLACK
10
91.494616999999991
20
-33.8748519999999971
40
0.875
0
CIRCLE
8
BLACK
10
96.5746169999999893
20
-33.8748519999999971
40
2.
0
CIRCLE
8
BLACK
10
101.6546170000000018
20
-33.8748519999999971
40
0.875
0
CIRCLE
8
BLACK
10
92.7646170000000012
20
-31.3348519999999979
40
0.75
0
CIRCLE
8
BLACK
10
99.1146169999999955
20
-28.7948519999999988
40
0.75
0
CIRCLE
8
BLACK
10
224.8446169999999995
20
-33.8748519999999971
40
0.875
0
CIRCLE
8
BLACK
10
229.9246169999999836
20
-33.8748519999999971
40
2.
0
CIRCLE
8
BLACK
10
235.0046169999999961
20
-33.8748519999999971
40
0.875
0
CIRCLE
8
BLACK
10
226.1146169999999813
20
-31.3348519999999979
40
0.75
0
CIRCLE
8
BLACK
10
232.4646169999999756
20
-28.7948519999999988
40
0.75
0
CIRCLE
8
BLACK
10
186.7446170000000052
20
-33.8748519999999971
40
0.875
0
CIRCLE
8
BLACK
10
191.8246169999999893
20
-33.8748519999999971
40
2.
0
CIRCLE
8
BLACK
10
196.9046170000000018
20
-33.8748519999999971
40
0.875
0
CIRCLE
8
BLACK
10
188.014616999999987
20
-31.3348519999999979
40
0.75
0
CIRCLE
8
BLACK
10
194.3646169999999813
20
-28.7948519999999988
40
0.75
0
CIRCLE
8
BLACK
10
153.4071169999999995
20
-52.9248519999999942
40
0.875
0
CIRCLE
8
BLACK
10
158.4871169999999836
20
-52.9248519999999942
40
2.
0
CIRCLE
8
BLACK
10
163.5671169999999961
20
-52.9248519999999942
40
0.875
0
CIRCLE
8
BLACK
10
154.6771169999999813
20
-50.3848519999999951
40
0.75
0
CIRCLE
8
BLACK
10
161.0271170000000041
20
-47.8448519999999959
40
0.75
0
CIRCLE
8
BLACK
10
58.1571169999999995
20
-52.9248519999999942
40
0.875
0
CIRCLE
8
BLACK
10
63.2371169999999978
20
-52.9248519999999942
40
2.
0
CIRCLE
8
BLACK
10
68.3171169999999961
20
-52.9248519999999942
40
0.875
0
CIRCLE
8
BLACK
10
59.4271169999999955
20
-50.3848519999999951
40
0.75
0
CIRCLE
8
BLACK
10
65.7771170000000041
20
-47.8448519999999959
40
0.75
0
CIRCLE
8
BLACK
10
141.4939430000000016
20
-91.0373570000000001
40
0.875
0
CIRCLE
8
BLACK
10
146.5739429999999857
20
-91.0373570000000001
40
2.
0
CIRCLE
8
BLACK
10
151.6539429999999982
20
-91.0373570000000001
40
0.875
0
CIRCLE
8
BLACK
10
142.7639429999999834
20
-88.4973569999999938
40
0.75
0
CIRCLE
8
BLACK
10
149.1139430000000061
20
-85.9573570000000018
40
0.75
0
CIRCLE
8
BLACK
10
115.307116999999991
20
-52.9248519999999942
40
0.875
0
CIRCLE
8
BLACK
10
120.3871169999999893
20
-52.9248519999999942
40
2.
0
CIRCLE
8
BLACK
10
125.4671169999999876
20
-52.9248519999999942
40
0.875
0
CIRCLE
8
BLACK
10
116.5771170000000012
20
-50.3848519999999951
40
0.75
0
CIRCLE
8
BLACK
10
122.9271169999999955
20
-47.8448519999999959
40
0.75
0
CIRCLE
8
BLACK
10
163.2109429999999861
20
-83.1974069999999983
40
1.524
0
CIRCLE
8
BLACK
10
163.2109429999999861
20
-98.4074069999999921
40
1.9939
0
CIRCLE
8
BLACK
10
187.0869429999999909
20
-83.1974069999999983
40
1.524
0
CIRCLE
8
BLACK
10
187.0869429999999909
20
-98.4074069999999921
40
1.9939
0
CIRCLE
8
BLACK
10
210.5571169999999768
20
-52.9248519999999942
40
0.875
0
CIRCLE
8
BLACK
10
215.6371169999999893
20
-52.9248519999999942
40
2.
0
CIRCLE
8
BLACK
10
220.7171170000000018
20
-52.9248519999999942
40
0.875
0
CIRCLE
8
BLACK
10
211.827116999999987
20
-50.3848519999999951
40
0.75
0
CIRCLE
8
BLACK
10
218.1771169999999813
20
-47.8448519999999959
40
0.75
0
CIRCLE
8
BLACK
10
198.6439429999999788
20
-91.0373570000000001
40
0.875
0
CIRCLE
8
BLACK
10
203.7239429999999913
20
-91.0373570000000001
40
2.
0
CIRCLE
8
BLACK
10
208.8039430000000038
20
-91.0373570000000001
40
0.875
0
CIRCLE
8
BLACK
10
199.9139429999999891
20
-88.4973569999999938
40
0.75
0
CIRCLE
8
BLACK
10
206.2639429999999834
20
-85.9573570000000018
40
0.75
0
CIRCLE
8
BLACK
10
191.5071169999999938
20
-52.9248519999999942
40
0.875
0
CIRCLE
8
BLACK
10
196.5871169999999779
20
-52.9248519999999942
40
2.
0
CIRCLE
8
BLACK
10
201.6671169999999904
20
-52.9248519999999942
40
0.875
0
CIRCLE
8
BLACK
10
192.7771170000000041
20
-50.3848519999999951
40
0.75
0
CIRCLE
8
BLACK
10
199.1271169999999984
20
-47.8448519999999959
40
0.75
0
CIRCLE
8
BLACK
10
167.6946169999999938
20
-33.8748519999999971
40
0.875
0
CIRCLE
8
BLACK
10
172.7746170000000063
20
-33.8748519999999971
40
2.
0
CIRCLE
8
BLACK
10
177.8546169999999904
20
-33.8748519999999971
40
0.875
0
CIRCLE
8
BLACK
10
168.9646170000000041
20
-31.3348519999999979
40
0.75
0
CIRCLE
8
BLACK
10
175.3146169999999984
20
-28.7948519999999988
40
0.75
0
CIRCLE
8
BLACK
10
124.8321169999999967
20
-71.9748519999999985
40
0.875
0
CIRCLE
8
BLACK
10
129.912116999999995
20
-71.9748519999999985
40
2.
0
CIRCLE
8
BLACK
10
134.9921170000000075
20
-71.9748519999999985
40
0.875
0
CIRCLE
8
BLACK
10
126.1021169999999927
20
-69.4348519999999922
40
0.75
0
CIRCLE
8
BLACK
10
132.452116999999987
20
-66.8948520000000002
40
0.75
0
CIRCLE
8
BLACK
10
72.4446169999999938
20
-33.8748519999999971
40
0.875
0
CIRCLE
8
BLACK
10
77.5246169999999921
20
-33.8748519999999971
40
2.
0
CIRCLE
8
BLACK
10
82.6046169999999904
20
-33.8748519999999971
40
0.875
0
CIRCLE
8
BLACK
10
73.7146169999999898
20
-31.3348519999999979
40
0.75
0
CIRCLE
8
BLACK
10
80.0646169999999984
20
-28.7948519999999988
40
0.75
0
CIRCLE
8
BLACK
10
77.2071169999999967
20
-52.9248519999999942
40
0.875
0
CIRCLE
8
BLACK
10
82.287116999999995
20
-52.9248519999999942
40
2.
0
CIRCLE
8
BLACK
10
87.3671169999999933
20
-52.9248519999999942
40
0.875
0
CIRCLE
8
BLACK
10
78.4771169999999927
20
-50.3848519999999951
40
0.75
0
CIRCLE
8
BLACK
10
84.8271170000000012
20
-47.8448519999999959
40
0.75
0
CIRCLE
8
BLACK
10
43.8696169999999981
20
-71.9748519999999985
40
0.875
0
CIRCLE
8
BLACK
10
48.9496169999999964
20
-71.9748519999999985
40
2.
0
CIRCLE
8
BLACK
10
54.0296169999999947
20
-71.9748519999999985
40
0.875
0
CIRCLE
8
BLACK
10
45.1396170000000012
20
-69.4348519999999922
40
0.75
0
CIRCLE
8
BLACK
10
51.4896169999999955
20
-66.8948520000000002
40
0.75
0
CIRCLE
8
BLACK
10
96.2571169999999938
20
-52.9248519999999942
40
0.874999
0
CIRCLE
8
BLACK
10
101.3371169999999921
20
-52.9248519999999942
40
1.9999989999999999
0
CIRCLE
8
BLACK
10
106.4171169999999904
20
-52.9248519999999942
40
0.874999
0
CIRCLE
8
BLACK
10
97.5271169999999898
20
-50.3848519999999951
40
0.75
0
CIRCLE
8
BLACK
10
103.8771169999999984
20
-47.8448519999999959
40
0.75
0
CIRCLE
8
BLACK
10
181.9821169999999881
20
-71.9748519999999985
40
0.874999
0
CIRCLE
8
BLACK
10
187.0621170000000006
20
-71.9748519999999985
40
1.9999989999999999
0
CIRCLE
8
BLACK
10
192.1421169999999847
20
-71.9748519999999985
40
0.874999
0
CIRCLE
8
BLACK
10
183.2521169999999984
20
-69.4348519999999922
40
0.75
0
CIRCLE
8
BLACK
10
189.6021169999999927
20
-66.8948520000000002
40
0.75
0
CIRCLE
8
BLACK
10
246.2758669999999768
20
-33.8748519999999971
40
0.874999
0
CIRCLE
8
BLACK
10
251.3558669999999893
20
-33.8748519999999971
40
1.9999989999999999
0
CIRCLE
8
BLACK
10
256.4358669999999734
20
-33.8748519999999971
40
0.874999
0
CIRCLE
8
BLACK
10
247.545866999999987
20
-31.3348519999999979
40
0.75
0
CIRCLE
8
BLACK
10
253.8958669999999813
20
-28.7948519999999988
40
0.75
0
CIRCLE
8
BLACK
10
129.5946169999999995
20
-33.8748519999999971
40
0.874999
0
CIRCLE
8
BLACK
10
134.6746169999999836
20
-33.8748519999999971
40
1.9999989999999999
0
CIRCLE
8
BLACK
10
139.7546169999999961
20
-33.8748519999999971
40
0.874999
0
CIRCLE
8
BLACK
10
130.8646169999999813
20
-31.3348519999999979
40
0.75
0
CIRCLE
8
BLACK
10
137.2146170000000041
20
-28.7948519999999988
40
0.75
0
CIRCLE
8
BLACK
10
86.7321170000000023
20
-71.9748519999999985
40
0.874999
0
CIRCLE
8
BLACK
10
91.8121170000000006
20
-71.9748519999999985
40
1.9999989999999999
0
CIRCLE
8
BLACK
10
96.8921169999999989
20
-71.9748519999999985
40
0.874999
0
CIRCLE
8
BLACK
10
88.0021169999999984
20
-69.4348519999999922
40
0.75
0
CIRCLE
8
BLACK
10
94.3521169999999927
20
-66.8948520000000002
40
0.75
0
CIRCLE
8
BLACK
10
241.5133669999999881
20
-71.9748519999999985
40
0.874999
0
CIRCLE
8
BLACK
10
246.5933670000000006
20
-71.9748519999999985
40
1.9999989999999999
0
CIRCLE
8
BLACK
10
251.6733669999999847
20
-71.9748519999999985
40
0.874999
0
CIRCLE
8
BLACK
10
242.7833669999999984
20
-69.4348519999999922
40
0.75
0
CIRCLE
8
BLACK
10
249.1333669999999927
20
-66.8948520000000002
40
0.75
0
CIRCLE
8
BLACK
10
106.0609429999999946
20
-83.1974069999999983
40
1.5239989999999999
0
CIRCLE
8
BLACK
10
106.0609429999999946
20
-98.4074069999999921
40
1.9938989999999999
0
CIRCLE
8
BLACK
10
129.9369429999999852
20
-83.1974069999999983
40
1.5239989999999999
0
CIRCLE
8
BLACK
10
129.9369429999999852
20
-98.4074069999999921
40
1.9938989999999999
0
CIRCLE
8
BLACK
10
112.9189429999999987
20
-91.0373570000000001
40
0.874999
0
CIRCLE
8
BLACK
10
117.998942999999997
20
-91.0373570000000001
40
1.9999989999999999
0
CIRCLE
8
BLACK
10
123.0789429999999953
20
-91.0373570000000001
40
0.874999
0
CIRCLE
8
BLACK
10
114.1889429999999948
20
-88.4973569999999938
40
0.75
0
CIRCLE
8
BLACK
10
120.5389429999999891
20
-85.9573570000000018
40
0.75
0
CIRCLE
8
BLACK
10
105.7821169999999995
20
-71.9748519999999985
40
0.874999
0
CIRCLE
8
BLACK
10
110.8621169999999978
20
-71.9748519999999985
40
1.9999989999999999
0
CIRCLE
8
BLACK
10
115.9421169999999961
20
-71.9748519999999985
40
0.874999
0
CIRCLE
8
BLACK
10
107.0521169999999955
20
-69.4348519999999922
40
0.75
0
CIRCLE
8
BLACK
10
113.4021169999999898
20
-66.8948520000000002
40
0.75
0
CIRCLE
8
BLACK
10
170.0689429999999902
20
-91.0373570000000001
40
0.874999
0
CIRCLE
8
BLACK
10
175.1489430000000027
20
-91.0373570000000001
40
1.9999989999999999
0
CIRCLE
8
BLACK
10
180.2289429999999868
20
-91.0373570000000001
40
0.874999
0
CIRCLE
8
BLACK
10
171.3389430000000004
20
-88.4973569999999938
40
0.75
0
CIRCLE
8
BLACK
10
177.6889429999999948
20
-85.9573570000000018
40
0.75
0
CIRCLE
8
BLACK
10
34.3446169999999995
20
-33.8748519999999971
40
0.874999
0
CIRCLE
8
BLACK
10
39.4246169999999978
20
-33.8748519999999971
40
1.9999989999999999
0
CIRCLE
8
BLACK
10
44.5046169999999961
20
-33.8748519999999971
40
0.874999
0
CIRCLE
8
BLACK
10
35.6146169999999955
20
-31.3348519999999979
40
0.75
0
CIRCLE
8
BLACK
10
41.9646169999999969
20
-28.7948519999999988
40
0.75
0
CIRCLE
8
BLACK
10
162.9321170000000052
20
-71.9748519999999985
40
0.874999
0
CIRCLE
8
BLACK
10
168.0121169999999893
20
-71.9748519999999985
40
1.9999989999999999
0
CIRCLE
8
BLACK
10
173.0921170000000018
20
-71.9748519999999985
40
0.874999
0
CIRCLE
8
BLACK
10
164.202116999999987
20
-69.4348519999999922
40
0.75
0
CIRCLE
8
BLACK
10
170.5521169999999813
20
-66.8948520000000002
40
0.75
0
CIRCLE
8
BLACK
10
62.9126929999999973
20
-91.0373570000000001
40
0.874999
0
CIRCLE
8
BLACK
10
67.9926930000000027
20
-91.0373570000000001
40
1.9999989999999999
0
CIRCLE
8
BLACK
10
73.072693000000001
20
-91.0373570000000001
40
0.874999
0
CIRCLE
8
BLACK
10
64.1826930000000004
20
-88.4973569999999938
40
0.75
0
CIRCLE
8
BLACK
10
70.5326929999999948
20
-85.9573570000000018
40
0.75
0
CIRCLE
8
BLACK
10
220.0751929999999845
20
-91.0373570000000001
40
0.874999
0
CIRCLE
8
BLACK
10
225.155192999999997
20
-91.0373570000000001
40
1.9999989999999999
0
CIRCLE
8
BLACK
10
230.2351929999999811
20
-91.0373570000000001
40
0.874999
0
CIRCLE
8
BLACK
10
221.3451929999999948
20
-88.4973569999999938
40
0.75
0
CIRCLE
8
BLACK
10
227.6951929999999891
20
-85.9573570000000018
40
0.75
0
CIRCLE
8
BLACK
10
67.682116999999991
20
-71.9748519999999985
40
0.874999
0
CIRCLE
8
BLACK
10
72.7621170000000035
20
-71.9748519999999985
40
1.9999989999999999
0
CIRCLE
8
BLACK
10
77.8421170000000018
20
-71.9748519999999985
40
0.874999
0
CIRCLE
8
BLACK
10
68.9521170000000012
20
-69.4348519999999922
40
0.75
0
CIRCLE
8
BLACK
10
75.3021169999999955
20
-66.8948520000000002
40
0.75
0
CIRCLE
8
BLACK
10
220.0821169999999825
20
-71.9748519999999985
40
0.874999
0
CIRCLE
8
BLACK
10
225.162116999999995
20
-71.9748519999999985
40
1.9999989999999999
0
CIRCLE
8
BLACK
10
230.242116999999979
20
-71.9748519999999985
40
0.874999
0
CIRCLE
8
BLACK
10
221.3521169999999927
20
-69.4348519999999922
40
0.75
0
CIRCLE
8
BLACK
10
227.702116999999987
20
-66.8948520000000002
40
0.75
0
CIRCLE
8
BLACK
10
84.3439429999999959
20
-91.0373570000000001
40
0.874999
0
CIRCLE
8
BLACK
10
89.4239429999999942
20
-91.0373570000000001
40
1.9999989999999999
0
CIRCLE
8
BLACK
10
94.5039429999999925
20
-91.0373570000000001
40
0.874999
0
CIRCLE
8
BLACK
10
85.6139429999999919
20
-88.4973569999999938
40
0.75
0
CIRCLE
8
BLACK
10
91.9639430000000004
20
-85.9573570000000018
40
0.75
0
CIRCLE
8
BLACK
10
205.7946169999999881
20
-33.8748519999999971
40
0.874999
0
CIRCLE
8
BLACK
10
210.8746170000000006
20
-33.8748519999999971
40
1.9999989999999999
0
CIRCLE
8
BLACK
10
215.9546169999999847
20
-33.8748519999999971
40
0.874999
0
CIRCLE
8
BLACK
10
207.0646169999999984
20
-31.3348519999999979
40
0.75
0
CIRCLE
8
BLACK
10
213.4146169999999927
20
-28.7948519999999988
40
0.75
0
CIRCLE
8
BLACK
10
172.4571169999999825
20
-52.9248519999999942
40
0.874999
0
CIRCLE
8
BLACK
10
177.537116999999995
20
-52.9248519999999942
40
1.9999989999999999
0
CIRCLE
8
BLACK
10
182.617116999999979
20
-52.9248519999999942
40
0.874999
0
CIRCLE
8
BLACK
10
173.7271169999999927
20
-50.3848519999999951
40
0.75
0
CIRCLE
8
BLACK
10
180.077116999999987
20
-47.8448519999999959
40
0.75
0
CIRCLE
8
BLACK
10
143.8821169999999938
20
-71.9748519999999985
40
0.874999
0
CIRCLE
8
BLACK
10
148.9621170000000063
20
-71.9748519999999985
40
1.9999989999999999
0
CIRCLE
8
BLACK
10
154.0421169999999904
20
-71.9748519999999985
40
0.874999
0
CIRCLE
8
BLACK
10
145.1521170000000041
20
-69.4348519999999922
40
0.75
0
CIRCLE
8
BLACK
10
151.5021169999999984
20
-66.8948520000000002
40
0.75
0
CIRCLE
8
BLACK
10
229.6071169999999881
20
-52.9248519999999942
40
0.874999
0
CIRCLE
8
BLACK
10
234.6871170000000006
20
-52.9248519999999942
40
1.9999989999999999
0
CIRCLE
8
BLACK
10
239.7671169999999847
20
-52.9248519999999942
40
0.874999
0
CIRCLE
8
BLACK
10
230.8771169999999984
20
-50.3848519999999951
40
0.75
0
CIRCLE
8
BLACK
10
237.2271169999999927
20
-47.8448519999999959
40
0.75
0
CIRCLE
8
BLACK
10
36.7258670000000009
20
-52.9248519999999942
40
0.874999
0
CIRCLE
8
BLACK
10
41.8058669999999992
20
-52.9248519999999942
40
1.9999989999999999
0
CIRCLE
8
BLACK
10
46.8858669999999975
20
-52.9248519999999942
40
0.874999
0
CIRCLE
8
BLACK
10
37.9958669999999969
20
-50.3848519999999951
40
0.75
0
CIRCLE
8
BLACK
10
44.3458669999999984
20
-47.8448519999999959
40
0.75
0
CIRCLE
8
BLACK
10
53.3946169999999967
20
-33.8748519999999971
40
0.874999
0
CIRCLE
8
BLACK
10
58.474616999999995
20
-33.8748519999999971
40
1.9999989999999999
0
CIRCLE
8
BLACK
10
63.5546170000000004
20
-33.8748519999999971
40
0.874999
0
CIRCLE
8
BLACK
10
54.6646169999999998
20
-31.3348519999999979
40
0.75
0
CIRCLE
8
BLACK
10
61.0146169999999941
20
-28.7948519999999988
40
0.75
0
CIRCLE
8
BLACK
10
134.3571169999999881
20
-52.9248519999999942
40
0.874999
0
CIRCLE
8
BLACK
10
139.4371170000000006
20
-52.9248519999999942
40
1.9999989999999999
0
CIRCLE
8
BLACK
10
144.5171169999999847
20
-52.9248519999999942
40
0.874999
0
CIRCLE
8
BLACK
10
135.6271169999999984
20
-50.3848519999999951
40
0.75
0
CIRCLE
8
BLACK
10
141.9771169999999927
20
-47.8448519999999959
40
0.75
0
CIRCLE
8
BLACK
10
248.6571169999999995
20
-52.9248519999999942
40
0.874999
0
CIRCLE
8
BLACK
10
253.7371169999999836
20
-52.9248519999999942
40
1.9999989999999999
0
CIRCLE
8
BLACK
10
258.8171169999999961
20
-52.9248519999999942
40
0.874999
0
CIRCLE
8
BLACK
10
249.9271169999999813
20
-50.3848519999999951
40
0.75
0
CIRCLE
8
BLACK
10
256.2771169999999756
20
-47.8448519999999959
40
0.75
0
CIRCLE
8
BLACK
10
148.6446169999999825
20
-33.8748519999999971
40
0.874999
0
CIRCLE
8
BLACK
10
153.724616999999995
20
-33.8748519999999971
40
1.9999989999999999
0
CIRCLE
8
BLACK
10
158.804616999999979
20
-33.8748519999999971
40
0.874999
0
CIRCLE
8
BLACK
10
149.9146169999999927
20
-31.3348519999999979
40
0.75
0
CIRCLE
8
BLACK
10
156.264616999999987
20
-28.7948519999999988
40
0.75
0
CIRCLE
8
BLACK
10
110.5446169999999881
20
-33.8748519999999971
40
0.874999
0
CIRCLE
8
BLACK
10
115.6246170000000006
20
-33.8748519999999971
40
1.9999989999999999
0
CIRCLE
8
BLACK
10
120.7046169999999989
20
-33.8748519999999971
40
0.874999
0
CIRCLE
8
BLACK
10
111.8146169999999984
20
-31.3348519999999979
40
0.75
0
CIRCLE
8
BLACK
10
118.1646169999999927
20
-28.7948519999999988
40
0.75
0
CIRCLE
8
BLACK
10
201.0321169999999995
20
-71.9748519999999985
40
0.874999
0
CIRCLE
8
BLACK
10
206.1121169999999836
20
-71.9748519999999985
40
1.9999989999999999
0
CIRCLE
8
BLACK
10
211.1921169999999961
20
-71.9748519999999985
40
0.874999
0
CIRCLE
8
BLACK
10
202.3021169999999813
20
-69.4348519999999922
40
0.75
0
CIRCLE
8
BLACK
10
208.6521170000000041
20
-66.8948520000000002
40
0.75
0
CIRCLE
8
BLACK
10
91.494616999999991
20
-33.8748519999999971
40
0.874999
0
CIRCLE
8
BLACK
10
96.5746169999999893
20
-33.8748519999999971
40
1.9999989999999999
0
CIRCLE
8
BLACK
10
101.6546170000000018
20
-33.8748519999999971
40
0.874999
0
CIRCLE
8
BLACK
10
92.7646170000000012
20
-31.3348519999999979
40
0.75
0
CIRCLE
8
BLACK
10
99.1146169999999955
20
-28.7948519999999988
40
0.75
0
CIRCLE
8
BLACK
10
224.8446169999999995
20
-33.8748519999999971
40
0.874999
0
CIRCLE
8
BLACK
10
229.9246169999999836
20
-33.8748519999999971
40
1.9999989999999999
0
CIRCLE
8
BLACK
10
235.0046169999999961
20
-33.8748519999999971
40
0.874999
0
CIRCLE
8
BLACK
10
226.1146169999999813
20
-31.3348519999999979
40
0.75
0
CIRCLE
8
BLACK
10
232.4646169999999756
20
-28.7948519999999988
40
0.75
0
CIRCLE
8
BLACK
10
186.7446170000000052
20
-33.8748519999999971
40
0.874999
0
CIRCLE
8
BLACK
10
191.8246169999999893
20
-33.8748519999999971
40
1.9999989999999999
0
CIRCLE
8
BLACK
10
196.9046170000000018
20
-33.8748519999999971
40
0.874999
0
CIRCLE
8
BLACK
10
188.014616999999987
20
-31.3348519999999979
40
0.75
0
CIRCLE
8
BLACK
10
194.3646169999999813
20
-28.7948519999999988
40
0.75
0
CIRCLE
8
BLACK
10
153.4071169999999995
20
-52.9248519999999942
40
0.874999
0
CIRCLE
8
BLACK
10
158.4871169999999836
20
-52.9248519999999942
40
1.9999989999999999
0
CIRCLE
8
BLACK
10
163.5671169999999961
20
-52.9248519999999942
40
0.874999
0
CIRCLE
8
BLACK
10
154.6771169999999813
20
-50.3848519999999951
40
0.75
0
CIRCLE
8
BLACK
10
161.0271170000000041
20
-47.8448519999999959
40
0.75
0
CIRCLE
8
BLACK
10
58.1571169999999995
20
-52.9248519999999942
40
0.874999
0
CIRCLE
8
BLACK
10
63.2371169999999978
20
-52.9248519999999942
40
1.9999989999999999
0
CIRCLE
8
BLACK
10
68.3171169999999961
20
-52.9248519999999942
40
0.874999
0
CIRCLE
8
BLACK
10
59.4271169999999955
20
-50.3848519999999951
40
0.75
0
CIRCLE
8
BLACK
10
65.7771170000000041
20
-47.8448519999999959
40
0.75
0
CIRCLE
8
BLACK
10
141.4939430000000016
20
-91.0373570000000001
40
0.874999
0
CIRCLE
8
BLACK
10
146.5739429999999857
20
-91.0373570000000001
40
1.9999989999999999
0
CIRCLE
8
BLACK
10
151.6539429999999982
20
-91.0373570000000001
40
0.874999
0
CIRCLE
8
BLACK
10
142.7639429999999834
20
-88.4973569999999938
40
0.75
0
CIRCLE
8
BLACK
10
149.1139430000000061
20
-85.9573570000000018
40
0.75
0
CIRCLE
8
BLACK
10
115.307116999999991
20
-52.9248519999999942
40
0.874999
0
CIRCLE
8
BLACK
10
120.3871169999999893
20
-52.9248519999999942
40
1.9999989999999999
0
CIRCLE
8
BLACK
10
125.4671169999999876
20
-52.9248519999999942
40
0.874999
0
CIRCLE
8
BLACK
10
116.5771170000000012
20
-50.3848519999999951
40
0.75
0
CIRCLE
8
BLACK
10
122.9271169999999955
20
-47.8448519999999959
40
0.75
0
CIRCLE
8
BLACK
10
163.2109429999999861
20
-83.1974069999999983
40
1.5239989999999999
0
CIRCLE
8
BLACK
10
163.2109429999999861
20
-98.4074069999999921
40
1.9938989999999999
0
CIRCLE
8
BLACK
10
187.0869429999999909
20
-83.1974069999999983
40
1.5239989999999999
0
CIRCLE
8
BLACK
10
187.0869429999999909
20
-98.4074069999999921
40
1.9938989999999999
0
CIRCLE
8
BLACK
10
210.5571169999999768
20
-52.9248519999999942
40
0.874999
0
CIRCLE
8
BLACK
10
215.6371169999999893
20
-52.9248519999999942
40
1.9999989999999999
0
CIRCLE
8
BLACK
10
220.7171170000000018
20
-52.9248519999999942
40
0.874999
0
CIRCLE
8
BLACK
10
211.827116999999987
20
-50.3848519999999951
40
0.75
0
CIRCLE
8
BLACK
10
218.1771169999999813
20
-47.8448519999999959
40
0.75
0
CIRCLE
8
BLACK
10
198.6439429999999788
20
-91.0373570000000001
40
0.874999
0
CIRCLE
8
BLACK
10
203.7239429999999913
20
-91.0373570000000001
40
1.9999989999999999
0
CIRCLE
8
BLACK
10
208.8039430000000038
20
-91.0373570000000001
40
0.874999
0
CIRCLE
8
BLACK
10
199.9139429999999891
20
-88.4973569999999938
40
0.75
0
CIRCLE
8
BLACK
10
206.2639429999999834
20
-85.9573570000000018
40
0.75
0
CIRCLE
8
BLACK
10
191.5071169999999938
20
-52.9248519999999942
40
0.874999
0
CIRCLE
8
BLACK
10
196.5871169999999779
20
-52.9248519999999942
40
1.9999989999999999
0
CIRCLE
8
BLACK
10
201.6671169999999904
20
-52.9248519999999942
40
0.874999
0
CIRCLE
8
BLACK
10
192.7771170000000041
20
-50.3848519999999951
40
0.75
0
CIRCLE
8
BLACK
10
199.1271169999999984
20
-47.8448519999999959
40
0.75
0
CIRCLE
8
BLACK
10
167.6946169999999938
20
-33.8748519999999971
40
0.874999
0
CIRCLE
8
BLACK
10
172.7746170000000063
20
-33.8748519999999971
40
1.9999989999999999
0
CIRCLE
8
BLACK
10
177.8546169999999904
20
-33.8748519999999971
40
0.874999
0
CIRCLE
8
BLACK
10
168.9646170000000041
20
-31.3348519999999979
40
0.75
0
CIRCLE
8
BLACK
10
175.3146169999999984
20
-28.7948519999999988
40
0.75
0
CIRCLE
8
BLACK
10
124.8321169999999967
20
-71.9748519999999985
40
0.874999
0
CIRCLE
8
BLACK
10
129.912116999999995
20
-71.9748519999999985
40
1.9999989999999999
0
CIRCLE
8
BLACK
10
134.9921170000000075
20
-71.9748519999999985
40
0.874999
0
CIRCLE
8
BLACK
10
126.1021169999999927
20
-69.4348519999999922
40
0.75
0
CIRCLE
8
BLACK
10
132.452116999999987
20
-66.8948520000000002
40
0.75
0
CIRCLE
8
BLACK
10
72.4446169999999938
20
-33.8748519999999971
40
0.874999
0
CIRCLE
8
BLACK
10
77.5246169999999921
20
-33.8748519999999971
40
1.9999989999999999
0
CIRCLE
8
BLACK
10
82.6046169999999904
20
-33.8748519999999971
40
0.874999
0
CIRCLE
8
BLACK
10
73.7146169999999898
20
-31.3348519999999979
40
0.75
0
CIRCLE
8
BLACK
10
80.0646169999999984
20
-28.7948519999999988
40
0.75
0
CIRCLE
8
BLACK
10
77.2071169999999967
20
-52.9248519999999942
40
0.874999
0
CIRCLE
8
BLACK
10
82.287116999999995
20
-52.9248519999999942
40
1.9999989999999999
0
CIRCLE
8
BLACK
10
87.3671169999999933
20
-52.9248519999999942
40
0.874999
0
CIRCLE
8
BLACK
10
78.4771169999999927
20
-50.3848519999999951
40
0.75
0
CIRCLE
8
BLACK
10
84.8271170000000012
20
-47.8448519999999959
40
0.75
0
CIRCLE
8
BLACK
10
43.8696169999999981
20
-71.9748519999999985
40
0.874999
0
CIRCLE
8
BLACK
10
48.9496169999999964
20
-71.9748519999999985
40
1.9999989999999999
0
CIRCLE
8
BLACK
10
54.0296169999999947
20
-71.9748519999999985
40
0.874999
0
CIRCLE
8
BLACK
10
45.1396170000000012
20
-69.4348519999999922
40
0.75
0
CIRCLE
8
BLACK
10
51.4896169999999955
20
-66.8948520000000002
40
0.75
  0
ENDSEC
  0
EOF
