M48
; DRILL file {KiCad 9.0.7} date 2026-03-03T18:28:18+0100
; FORMAT={-:-/ absolute / inch / decimal}
; #@! TF.CreationDate,2026-03-03T18:28:18+01:00
; #@! TF.GenerationSoftware,Kicad,Pcbnew,9.0.7
; #@! TF.FileFunction,NonPlated,1,2,NPTH
FMAT,2
INCH
; #@! TA.AperFunction,NonPlated,NPTH,ComponentDrill
T1C0.0689
; #@! TA.AperFunction,NonPlated,NPTH,ComponentDrill
T2C0.1200
; #@! TA.AperFunction,NonPlated,NPTH,ComponentDrill
T3C0.1570
; #@! TA.AperFunction,NonPlated,NPTH,ComponentDrill
T4C0.1575
%
G90
G05
T1
X1.3522Y-1.3337
X1.4459Y-2.0837
X1.7272Y-2.8337
X1.7522Y-1.3337
X1.8459Y-2.0837
X2.1022Y-1.3337
X2.1272Y-2.8337
X2.2897Y-2.0837
X2.4769Y-3.5841
X2.5022Y-1.3337
X2.6647Y-2.8337
X2.6897Y-2.0837
X2.8522Y-1.3337
X2.8769Y-3.5841
X3.0397Y-2.0837
X3.0647Y-2.8337
X3.2522Y-1.3337
X3.3206Y-3.5841
X3.4147Y-2.8337
X3.4397Y-2.0837
X3.6022Y-1.3337
X3.7206Y-3.5841
X3.7897Y-2.0837
X3.8147Y-2.8337
X4.0022Y-1.3337
X4.1647Y-2.8337
X4.1897Y-2.0837
X4.3522Y-1.3337
X4.4456Y-3.5841
X4.5397Y-2.0837
X4.5647Y-2.8337
X4.7522Y-1.3337
X4.8456Y-3.5841
X4.9147Y-2.8337
X4.9397Y-2.0837
X5.1022Y-1.3337
X5.2897Y-2.0837
X5.3147Y-2.8337
X5.5022Y-1.3337
X5.5706Y-3.5841
X5.6647Y-2.8337
X5.6897Y-2.0837
X5.8522Y-1.3337
X5.9706Y-3.5841
X6.0397Y-2.0837
X6.0647Y-2.8337
X6.2522Y-1.3337
X6.4147Y-2.8337
X6.4397Y-2.0837
X6.6022Y-1.3337
X6.6956Y-3.5841
X6.7897Y-2.0837
X6.8147Y-2.8337
X7.0022Y-1.3337
X7.0956Y-3.5841
X7.1647Y-2.8337
X7.1897Y-2.0837
X7.3522Y-1.3337
X7.5397Y-2.0837
X7.5647Y-2.8337
X7.7522Y-1.3337
X7.8206Y-3.5841
X7.9147Y-2.8337
X7.9397Y-2.0837
X8.1022Y-1.3337
X8.2206Y-3.5841
X8.2897Y-2.0837
X8.3147Y-2.8337
X8.5022Y-1.3337
X8.6644Y-3.5841
X8.6647Y-2.8337
X8.6897Y-2.0837
X8.8522Y-1.3337
X9.0397Y-2.0837
X9.0644Y-3.5841
X9.0647Y-2.8337
X9.2522Y-1.3337
X9.4397Y-2.0837
X9.5084Y-2.8337
X9.6959Y-1.3337
X9.7897Y-2.0837
X9.9084Y-2.8337
X10.0959Y-1.3337
X10.1897Y-2.0837
T2
X4.1756Y-3.2755
X5.1156Y-3.2755
X6.4256Y-3.2755
X7.3656Y-3.2755
T3
X4.1756Y-3.8743
X5.1156Y-3.8743
X6.4256Y-3.8743
X7.3656Y-3.8743
T4
X1.5522Y-1.3337
X1.6459Y-2.0837
X1.9272Y-2.8337
X2.3022Y-1.3337
X2.4897Y-2.0837
X2.6769Y-3.5841
X2.8647Y-2.8337
X3.0522Y-1.3337
X3.2397Y-2.0837
X3.5206Y-3.5841
X3.6147Y-2.8337
X3.8022Y-1.3337
X3.9897Y-2.0837
X4.3647Y-2.8337
X4.5522Y-1.3337
X4.6456Y-3.5841
X4.7397Y-2.0837
X5.1147Y-2.8337
X5.3022Y-1.3337
X5.4897Y-2.0837
X5.7706Y-3.5841
X5.8647Y-2.8337
X6.0522Y-1.3337
X6.2397Y-2.0837
X6.6147Y-2.8337
X6.8022Y-1.3337
X6.8956Y-3.5841
X6.9897Y-2.0837
X7.3647Y-2.8337
X7.5522Y-1.3337
X7.7397Y-2.0837
X8.0206Y-3.5841
X8.1147Y-2.8337
X8.3022Y-1.3337
X8.4897Y-2.0837
X8.8644Y-3.5841
X8.8647Y-2.8337
X9.0522Y-1.3337
X9.2397Y-2.0837
X9.7084Y-2.8337
X9.8959Y-1.3337
X9.9897Y-2.0837
M30
