M48
; DRILL file {KiCad 9.0.7} date 2026-03-03T18:28:18+0100
; FORMAT={-:-/ absolute / inch / decimal}
; #@! TF.CreationDate,2026-03-03T18:28:18+01:00
; #@! TF.GenerationSoftware,Kicad,Pcbnew,9.0.7
; #@! TF.FileFunction,Plated,1,2,PTH
FMAT,2
INCH
; #@! TA.AperFunction,Plated,PTH,ViaDrill
T1C0.0118
; #@! TA.AperFunction,Plated,PTH,ComponentDrill
T2C0.0591
%
G90
G05
T1
X1.0284Y-1.0415
X1.0284Y-1.2415
X1.0284Y-1.4415
X1.0284Y-1.6415
X1.0284Y-1.8415
X1.0284Y-2.0415
X1.0284Y-2.2415
X1.0284Y-2.4415
X1.0284Y-2.6415
X1.0284Y-2.8415
X1.0284Y-3.0415
X1.0284Y-3.2415
X1.0284Y-3.4415
X1.0284Y-3.6415
X1.0284Y-3.8415
X1.0284Y-4.0415
X1.1284Y-0.9415
X1.2284Y-4.0415
X1.3284Y-0.9415
X1.4284Y-4.0415
X1.5284Y-0.9415
X1.6284Y-4.0415
X1.7284Y-0.9415
X1.8284Y-4.0415
X1.9284Y-0.9415
X2.0284Y-4.0415
X2.1284Y-0.9415
X2.2284Y-4.0415
X2.3284Y-0.9415
X2.4284Y-4.0415
X2.5284Y-0.9415
X2.6284Y-4.0415
X2.7284Y-0.9415
X2.8284Y-4.0415
X2.9284Y-0.9415
X3.0284Y-4.0415
X3.1284Y-0.9415
X3.2284Y-4.0415
X3.3284Y-0.9415
X3.4284Y-4.0415
X3.5284Y-0.9415
X3.6284Y-4.0415
X3.7284Y-0.9415
X3.8284Y-4.0415
X3.9284Y-0.9415
X4.0284Y-4.0415
X4.1284Y-0.9415
X4.2284Y-4.0415
X4.3284Y-0.9415
X4.4284Y-4.0415
X4.5284Y-0.9415
X4.6284Y-4.0415
X4.7284Y-0.9415
X4.8284Y-4.0415
X4.9284Y-0.9415
X5.0284Y-4.0415
X5.1284Y-0.9415
X5.2284Y-4.0415
X5.3284Y-0.9415
X5.4284Y-4.0415
X5.5284Y-0.9415
X5.6284Y-4.0415
X5.7284Y-0.9415
X5.8284Y-4.0415
X5.9284Y-0.9415
X6.0284Y-4.0415
X6.1284Y-0.9415
X6.2284Y-4.0415
X6.3284Y-0.9415
X6.4284Y-4.0415
X6.5284Y-0.9415
X6.6284Y-4.0415
X6.7284Y-0.9415
X6.8284Y-4.0415
X6.9284Y-0.9415
X7.0284Y-4.0415
X7.1284Y-0.9415
X7.2284Y-4.0415
X7.3284Y-0.9415
X7.4284Y-4.0415
X7.5284Y-0.9415
X7.6284Y-4.0415
X7.7284Y-0.9415
X7.8284Y-4.0415
X7.9284Y-0.9415
X8.0284Y-4.0415
X8.1284Y-0.9415
X8.2284Y-4.0415
X8.3284Y-0.9415
X8.4284Y-4.0415
X8.5284Y-0.9415
X8.6284Y-4.0415
X8.6595Y-1.6946
X8.7284Y-0.9415
X8.8141Y-2.2719
X8.8284Y-4.0415
X8.8859Y-1.6951
X8.9145Y-2.2759
X8.9284Y-0.9415
X9.0284Y-4.0415
X9.1284Y-0.9415
X9.2284Y-4.0415
X9.2778Y-3.6339
X9.3284Y-0.9415
X9.3298Y-2.9766
X9.3948Y-2.9766
X9.4284Y-4.0415
X9.5119Y-3.7532
X9.5284Y-0.9415
X9.6152Y-3.8113
X9.6284Y-4.0415
X9.6408Y-3.5219
X9.6448Y-3.831
X9.6684Y-3.8502
X9.6959Y-2.1829
X9.6959Y-2.2394
X9.7034Y-3.7183
X9.7279Y-3.6986
X9.7284Y-0.9415
X9.7491Y-3.8664
X9.753Y-3.6795
X9.7723Y-3.6598
X9.7944Y-3.8861
X9.8284Y-4.0415
X9.8397Y-3.8074
X9.8436Y-3.8408
X9.879Y-3.4855
X9.8869Y-3.8448
X9.8948Y-3.9727
X9.9204Y-3.64
X9.9284Y-0.9415
X9.9405Y-3.7424
X9.9459Y-3.8448
X9.9538Y-3.9727
X9.9696Y-3.64
X10.0129Y-3.8448
X10.0483Y-3.9727
X10.0719Y-3.3014
X10.0897Y-3.89
X10.1093Y-2.9767
X10.1093Y-3.6593
X10.1158Y-3.6918
X10.1284Y-0.9415
X10.1802Y-3.7089
X10.1905Y-3.9781
X10.2137Y-3.7168
X10.2196Y-3.4235
X10.2284Y-4.0415
X10.2452Y-3.7207
X10.2471Y-3.7601
X10.2944Y-1.4609
X10.2944Y-3.2089
X10.2983Y-3.4865
X10.3284Y-0.9415
X10.3534Y-3.3329
X10.3869Y-2.2129
X10.4284Y-4.0415
X10.5284Y-0.9415
X10.5284Y-1.1415
X10.5284Y-1.3415
X10.5284Y-1.5415
X10.5284Y-1.7415
X10.5284Y-1.9415
X10.5284Y-2.1415
X10.5284Y-2.3415
X10.5284Y-2.5415
X10.5284Y-2.7415
X10.5284Y-2.9415
X10.5284Y-3.1415
X10.5284Y-3.3415
X10.5284Y-3.5415
X10.5284Y-3.7415
X10.5284Y-3.9415
T2
X1.4022Y-1.2337
X1.4959Y-1.9837
X1.6522Y-1.1337
X1.7459Y-1.8837
X1.7772Y-2.7337
X2.0272Y-2.6337
X2.1522Y-1.2337
X2.3397Y-1.9837
X2.4022Y-1.1337
X2.5269Y-3.4841
X2.5897Y-1.8837
X2.7147Y-2.7337
X2.7769Y-3.3841
X2.9022Y-1.2337
X2.9647Y-2.6337
X3.0897Y-1.9837
X3.1522Y-1.1337
X3.3397Y-1.8837
X3.3706Y-3.4841
X3.4647Y-2.7337
X3.6206Y-3.3841
X3.6522Y-1.2337
X3.7147Y-2.6337
X3.8397Y-1.9837
X3.9022Y-1.1337
X4.0897Y-1.8837
X4.2147Y-2.7337
X4.4022Y-1.2337
X4.4647Y-2.6337
X4.4956Y-3.4841
X4.5897Y-1.9837
X4.6522Y-1.1337
X4.7456Y-3.3841
X4.8397Y-1.8837
X4.9647Y-2.7337
X5.1522Y-1.2337
X5.2147Y-2.6337
X5.3397Y-1.9837
X5.4022Y-1.1337
X5.5897Y-1.8837
X5.6206Y-3.4841
X5.7147Y-2.7337
X5.8706Y-3.3841
X5.9022Y-1.2337
X5.9647Y-2.6337
X6.0897Y-1.9837
X6.1522Y-1.1337
X6.3397Y-1.8837
X6.4647Y-2.7337
X6.6522Y-1.2337
X6.7147Y-2.6337
X6.7456Y-3.4841
X6.8397Y-1.9837
X6.9022Y-1.1337
X6.9956Y-3.3841
X7.0897Y-1.8837
X7.2147Y-2.7337
X7.4022Y-1.2337
X7.4647Y-2.6337
X7.5897Y-1.9837
X7.6522Y-1.1337
X7.8397Y-1.8837
X7.8706Y-3.4841
X7.9647Y-2.7337
X8.1206Y-3.3841
X8.1522Y-1.2337
X8.2147Y-2.6337
X8.3397Y-1.9837
X8.4022Y-1.1337
X8.5897Y-1.8837
X8.7144Y-3.4841
X8.7147Y-2.7337
X8.9022Y-1.2337
X8.9644Y-3.3841
X8.9647Y-2.6337
X9.0897Y-1.9837
X9.1522Y-1.1337
X9.3397Y-1.8837
X9.5584Y-2.7337
X9.7459Y-1.2337
X9.8084Y-2.6337
X9.8397Y-1.9837
X9.9959Y-1.1337
X10.0897Y-1.8837
M30
