%TF.GenerationSoftware,KiCad,Pcbnew,9.0.7*%
%TF.CreationDate,2026-03-03T18:28:18+01:00*%
%TF.ProjectId,PancakeXXL V2-rounded,50616e63-616b-4655-9858-4c2056322d72,rev?*%
%TF.SameCoordinates,Original*%
%TF.FileFunction,Soldermask,Top*%
%TF.FilePolarity,Negative*%
%FSLAX46Y46*%
G04 Gerber Fmt 4.6, Leading zero omitted, Abs format (unit mm)*
G04 Created by KiCad (PCBNEW 9.0.7) date 2026-03-03 18:28:18*
%MOMM*%
%LPD*%
G01*
G04 APERTURE LIST*
%ADD10C,2.500000*%
G04 APERTURE END LIST*
D10*
%TO.C,MX16*%
X97527117Y-50384852D03*
X103877117Y-47844852D03*
%TD*%
%TO.C,MX32*%
X183252117Y-69434852D03*
X189602117Y-66894852D03*
%TD*%
%TO.C,MX12*%
X247545867Y-31334852D03*
X253895867Y-28794852D03*
%TD*%
%TO.C,MX6*%
X130864617Y-31334852D03*
X137214617Y-28794852D03*
%TD*%
%TO.C,MX27*%
X88002117Y-69434852D03*
X94352117Y-66894852D03*
%TD*%
%TO.C,MX35*%
X242783367Y-69434852D03*
X249133367Y-66894852D03*
%TD*%
%TO.C,MX38*%
X114188943Y-88497357D03*
X120538943Y-85957357D03*
%TD*%
%TO.C,MX28*%
X107052117Y-69434852D03*
X113402117Y-66894852D03*
%TD*%
%TO.C,MX40*%
X171338943Y-88497357D03*
X177688943Y-85957357D03*
%TD*%
%TO.C,MX1*%
X35614617Y-31334852D03*
X41964617Y-28794852D03*
%TD*%
%TO.C,MX31*%
X164202117Y-69434852D03*
X170552117Y-66894852D03*
%TD*%
%TO.C,MX36*%
X64182693Y-88497357D03*
X70532693Y-85957357D03*
%TD*%
%TO.C,MX42*%
X221345193Y-88497357D03*
X227695193Y-85957357D03*
%TD*%
%TO.C,MX26*%
X68952117Y-69434852D03*
X75302117Y-66894852D03*
%TD*%
%TO.C,MX34*%
X221352117Y-69434852D03*
X227702117Y-66894852D03*
%TD*%
%TO.C,MX37*%
X85613943Y-88497357D03*
X91963943Y-85957357D03*
%TD*%
%TO.C,MX10*%
X207064617Y-31334852D03*
X213414617Y-28794852D03*
%TD*%
%TO.C,MX20*%
X173727117Y-50384852D03*
X180077117Y-47844852D03*
%TD*%
%TO.C,MX30*%
X145152117Y-69434852D03*
X151502117Y-66894852D03*
%TD*%
%TO.C,MX23*%
X230877117Y-50384852D03*
X237227117Y-47844852D03*
%TD*%
%TO.C,MX13*%
X37995867Y-50384852D03*
X44345867Y-47844852D03*
%TD*%
%TO.C,MX2*%
X54664617Y-31334852D03*
X61014617Y-28794852D03*
%TD*%
%TO.C,MX18*%
X135627117Y-50384852D03*
X141977117Y-47844852D03*
%TD*%
%TO.C,MX24*%
X249927117Y-50384852D03*
X256277117Y-47844852D03*
%TD*%
%TO.C,MX7*%
X149914617Y-31334852D03*
X156264617Y-28794852D03*
%TD*%
%TO.C,MX5*%
X111814617Y-31334852D03*
X118164617Y-28794852D03*
%TD*%
%TO.C,MX33*%
X202302117Y-69434852D03*
X208652117Y-66894852D03*
%TD*%
%TO.C,MX4*%
X92764617Y-31334852D03*
X99114617Y-28794852D03*
%TD*%
%TO.C,MX11*%
X226114617Y-31334852D03*
X232464617Y-28794852D03*
%TD*%
%TO.C,MX9*%
X188014617Y-31334852D03*
X194364617Y-28794852D03*
%TD*%
%TO.C,MX19*%
X154677117Y-50384852D03*
X161027117Y-47844852D03*
%TD*%
%TO.C,MX14*%
X59427117Y-50384852D03*
X65777117Y-47844852D03*
%TD*%
%TO.C,MX39*%
X142763943Y-88497357D03*
X149113943Y-85957357D03*
%TD*%
%TO.C,MX17*%
X116577117Y-50384852D03*
X122927117Y-47844852D03*
%TD*%
%TO.C,MX22*%
X211827117Y-50384852D03*
X218177117Y-47844852D03*
%TD*%
%TO.C,MX41*%
X199913943Y-88497357D03*
X206263943Y-85957357D03*
%TD*%
%TO.C,MX21*%
X192777117Y-50384852D03*
X199127117Y-47844852D03*
%TD*%
%TO.C,MX8*%
X168964617Y-31334852D03*
X175314617Y-28794852D03*
%TD*%
%TO.C,MX29*%
X126102117Y-69434852D03*
X132452117Y-66894852D03*
%TD*%
%TO.C,MX3*%
X73714617Y-31334852D03*
X80064617Y-28794852D03*
%TD*%
%TO.C,MX15*%
X78477117Y-50384852D03*
X84827117Y-47844852D03*
%TD*%
%TO.C,MX25*%
X45139617Y-69434852D03*
X51489617Y-66894852D03*
%TD*%
M02*
