M48
; DRILL file {KiCad 9.0.5} date 2025-11-30T17:03:48+0100
; FORMAT={-:-/ absolute / metric / decimal}
; #@! TF.CreationDate,2025-11-30T17:03:48+01:00
; #@! TF.GenerationSoftware,Kicad,Pcbnew,9.0.5
; #@! TF.FileFunction,Plated,1,2,PTH
FMAT,2
METRIC
; #@! TA.AperFunction,Plated,PTH,ViaDrill
T1C0.300
; #@! TA.AperFunction,Plated,PTH,ComponentDrill
T2C1.500
%
G90
G05
T1
X219.952Y-43.043
X223.877Y-57.707
X225.702Y-43.057
X226.427Y-57.807
X235.656Y-92.3
X236.977Y-75.607
X238.627Y-75.607
X241.602Y-95.332
X244.227Y-96.807
X244.877Y-89.457
X244.977Y-97.307
X245.577Y-97.796
X246.277Y-55.445
X246.277Y-56.88
X246.465Y-94.446
X247.089Y-93.946
X247.627Y-98.207
X247.727Y-93.458
X248.217Y-92.958
X248.777Y-98.707
X249.927Y-96.707
X250.027Y-97.557
X250.927Y-88.532
X251.127Y-97.657
X251.327Y-100.907
X251.977Y-92.457
X252.49Y-95.057
X252.627Y-97.657
X252.827Y-100.907
X253.227Y-92.457
X254.327Y-97.657
X255.227Y-100.907
X255.827Y-83.857
X256.277Y-98.807
X256.777Y-75.609
X256.777Y-92.946
X256.942Y-93.771
X258.577Y-94.207
X258.84Y-101.044
X259.427Y-94.407
X259.577Y-86.957
X260.227Y-94.507
X260.277Y-95.507
X261.477Y-37.107
X261.477Y-81.507
X261.577Y-88.557
X262.977Y-84.657
X263.827Y-56.207
T2
X35.615Y-31.335
X37.996Y-50.385
X41.965Y-28.795
X44.346Y-47.845
X45.14Y-69.435
X51.49Y-66.895
X54.665Y-31.335
X59.427Y-50.385
X61.015Y-28.795
X64.183Y-88.497
X65.777Y-47.845
X68.952Y-69.435
X70.533Y-85.957
X73.715Y-31.335
X75.302Y-66.895
X78.477Y-50.385
X80.065Y-28.795
X84.827Y-47.845
X85.614Y-88.497
X88.002Y-69.435
X91.964Y-85.957
X92.765Y-31.335
X94.352Y-66.895
X97.527Y-50.385
X99.115Y-28.795
X103.877Y-47.845
X107.052Y-69.435
X111.815Y-31.335
X113.402Y-66.895
X114.189Y-88.497
X116.577Y-50.385
X118.165Y-28.795
X120.539Y-85.957
X122.927Y-47.845
X126.102Y-69.435
X130.865Y-31.335
X132.452Y-66.895
X135.627Y-50.385
X137.215Y-28.795
X141.977Y-47.845
X142.764Y-88.497
X145.152Y-69.435
X149.114Y-85.957
X149.915Y-31.335
X151.502Y-66.895
X154.677Y-50.385
X156.265Y-28.795
X161.027Y-47.845
X164.202Y-69.435
X168.965Y-31.335
X170.552Y-66.895
X171.339Y-88.497
X173.727Y-50.385
X175.315Y-28.795
X177.689Y-85.957
X180.077Y-47.845
X183.252Y-69.435
X188.015Y-31.335
X189.602Y-66.895
X192.777Y-50.385
X194.365Y-28.795
X199.127Y-47.845
X199.914Y-88.497
X202.302Y-69.435
X206.264Y-85.957
X207.065Y-31.335
X208.652Y-66.895
X211.827Y-50.385
X213.415Y-28.795
X218.177Y-47.845
X221.345Y-88.497
X221.352Y-69.435
X226.115Y-31.335
X227.695Y-85.957
X227.702Y-66.895
X230.877Y-50.385
X232.465Y-28.795
X237.227Y-47.845
X242.783Y-69.435
X247.546Y-31.335
X249.133Y-66.895
X249.927Y-50.385
X253.896Y-28.795
X256.277Y-47.845
M30
