  0
SECTION
  2
HEADER
  9
$ANGBASE
  50
0.0
  9
$ANGDIR
  70
1
  9
$MEASUREMENT
  70
1
  0
ENDSEC
  0
SECTION
  2
TABLES
  0
TABLE
  2
LTYPE
  70
4
  0
LTYPE
  5
40F
  2
CONTINUOUS
  70
0
  3
Solid line
  72
65
  73
0
  40
0.0
  0
LTYPE
  5
410
  2
DASHDOT
 70
0
  3
Dash Dot ____ _ ____ _
 72
65
 73
4
 40
2.0
 49
1.25
 49
-0.25
 49
0.25
 49
-0.25
  0
LTYPE
  5
411
  2
DASHED
 70
0
  3
Dashed __ __ __ __ __
 72
65
 73
2
 40
0.75
 49
0.5
 49
-0.25
  0
LTYPE
  5
43B
  2
DOTTED
 70
0
  3
Dotted .  .  .  .
 72
65
 73
2
 40
0.2
 49
0.0
 49
-0.2
  0
ENDTAB
  0
TABLE
  2
STYLE
  70
4
  0
STYLE
  2
KICAD
  70
0
  40
0
  41
1
  42
1
  50
0
  71
0
  3
isocp.shx
  0
STYLE
  2
KICADB
  70
0
  40
0
  41
1
  42
1
  50
0
  71
0
  3
isocp.shx
  0
STYLE
  2
KICADI
  70
0
  40
0
  41
1
  42
1
  50
15
  71
0
  3
isocp.shx
  0
STYLE
  2
KICADBI
  70
0
  40
0
  41
1
  42
1
  50
15
  71
0
  3
isocp.shx
  0
ENDTAB
  0
TABLE
  2
LAYER
  70
1
  0
LAYER
  2
BLACK
  70
0
  62
7
  6
CONTINUOUS
  0
ENDTAB
  0
ENDSEC
  0
SECTION
  2
ENTITIES
0
LINE
8
BLACK
6
CONTINUOUS
10
175.1951369999999883
20
-88.1632729999999896
11
175.1989429999999857
21
-88.1824069999999978
0
LINE
8
BLACK
6
CONTINUOUS
10
175.1989429999999857
20
-88.1824069999999978
11
175.1989429999999857
21
-90.1324070000000006
0
LINE
8
BLACK
6
CONTINUOUS
10
175.1989429999999857
20
-90.1324070000000006
11
177.1489430000000027
21
-90.1324070000000006
0
LINE
8
BLACK
6
CONTINUOUS
10
177.1489430000000027
20
-90.1324070000000006
11
177.1680769999999825
21
-90.1362129999999979
0
LINE
8
BLACK
6
CONTINUOUS
10
177.1680769999999825
20
-90.1362129999999979
11
177.1951369999999883
21
-90.1632729999999896
0
LINE
8
BLACK
6
CONTINUOUS
10
177.1951369999999883
20
-90.1632729999999896
11
177.1951369999999883
21
-90.2015409999999918
0
LINE
8
BLACK
6
CONTINUOUS
10
177.1951369999999883
20
-90.2015409999999918
11
177.1680769999999825
21
-90.2286009999999976
0
LINE
8
BLACK
6
CONTINUOUS
10
177.1680769999999825
20
-90.2286009999999976
11
177.1489430000000027
21
-90.2324069999999949
0
LINE
8
BLACK
6
CONTINUOUS
10
177.1489430000000027
20
-90.2324069999999949
11
175.1989429999999857
21
-90.2324069999999949
0
LINE
8
BLACK
6
CONTINUOUS
10
175.1989429999999857
20
-90.2324069999999949
11
175.1989429999999857
21
-92.1824069999999978
0
LINE
8
BLACK
6
CONTINUOUS
10
175.1989429999999857
20
-92.1824069999999978
11
175.1951369999999883
21
-92.2015409999999918
0
LINE
8
BLACK
6
CONTINUOUS
10
175.1951369999999883
20
-92.2015409999999918
11
175.1680769999999825
21
-92.2286009999999976
0
LINE
8
BLACK
6
CONTINUOUS
10
175.1680769999999825
20
-92.2286009999999976
11
175.1298089999999945
21
-92.2286009999999976
0
LINE
8
BLACK
6
CONTINUOUS
10
175.1298089999999945
20
-92.2286009999999976
11
175.1027489999999887
21
-92.2015409999999918
0
LINE
8
BLACK
6
CONTINUOUS
10
175.1027489999999887
20
-92.2015409999999918
11
175.0989429999999913
21
-92.1824069999999978
0
LINE
8
BLACK
6
CONTINUOUS
10
175.0989429999999913
20
-92.1824069999999978
11
175.0989429999999913
21
-90.2324069999999949
0
LINE
8
BLACK
6
CONTINUOUS
10
175.0989429999999913
20
-90.2324069999999949
11
173.1489430000000027
21
-90.2324069999999949
0
LINE
8
BLACK
6
CONTINUOUS
10
173.1489430000000027
20
-90.2324069999999949
11
173.1298089999999945
21
-90.2286009999999976
0
LINE
8
BLACK
6
CONTINUOUS
10
173.1298089999999945
20
-90.2286009999999976
11
173.1027489999999887
21
-90.2015409999999918
0
LINE
8
BLACK
6
CONTINUOUS
10
173.1027489999999887
20
-90.2015409999999918
11
173.1027489999999887
21
-90.1632729999999896
0
LINE
8
BLACK
6
CONTINUOUS
10
173.1027489999999887
20
-90.1632729999999896
11
173.1298089999999945
21
-90.1362129999999979
0
LINE
8
BLACK
6
CONTINUOUS
10
173.1298089999999945
20
-90.1362129999999979
11
173.1489430000000027
21
-90.1324070000000006
0
LINE
8
BLACK
6
CONTINUOUS
10
173.1489430000000027
20
-90.1324070000000006
11
175.0989429999999913
21
-90.1324070000000006
0
LINE
8
BLACK
6
CONTINUOUS
10
175.0989429999999913
20
-90.1324070000000006
11
175.0989429999999913
21
-88.1824069999999978
0
LINE
8
BLACK
6
CONTINUOUS
10
175.0989429999999913
20
-88.1824069999999978
11
175.1027489999999887
21
-88.1632729999999896
0
LINE
8
BLACK
6
CONTINUOUS
10
175.1027489999999887
20
-88.1632729999999896
11
175.1298089999999945
21
-88.1362129999999979
0
LINE
8
BLACK
6
CONTINUOUS
10
175.1298089999999945
20
-88.1362129999999979
11
175.1680769999999825
21
-88.1362129999999979
0
LINE
8
BLACK
6
CONTINUOUS
10
175.1680769999999825
20
-88.1362129999999979
11
175.1951369999999883
21
-88.1632729999999896
0
LINE
8
BLACK
6
CONTINUOUS
10
118.0451369999999969
20
-88.1632729999999896
11
118.0489429999999942
21
-88.1824069999999978
0
LINE
8
BLACK
6
CONTINUOUS
10
118.0489429999999942
20
-88.1824069999999978
11
118.0489429999999942
21
-90.1324070000000006
0
LINE
8
BLACK
6
CONTINUOUS
10
118.0489429999999942
20
-90.1324070000000006
11
119.998942999999997
21
-90.1324070000000006
0
LINE
8
BLACK
6
CONTINUOUS
10
119.998942999999997
20
-90.1324070000000006
11
120.018076999999991
21
-90.1362129999999979
0
LINE
8
BLACK
6
CONTINUOUS
10
120.018076999999991
20
-90.1362129999999979
11
120.0451369999999969
21
-90.1632729999999896
0
LINE
8
BLACK
6
CONTINUOUS
10
120.0451369999999969
20
-90.1632729999999896
11
120.0451369999999969
21
-90.2015409999999918
0
LINE
8
BLACK
6
CONTINUOUS
10
120.0451369999999969
20
-90.2015409999999918
11
120.018076999999991
21
-90.2286009999999976
0
LINE
8
BLACK
6
CONTINUOUS
10
120.018076999999991
20
-90.2286009999999976
11
119.998942999999997
21
-90.2324069999999949
0
LINE
8
BLACK
6
CONTINUOUS
10
119.998942999999997
20
-90.2324069999999949
11
118.0489429999999942
21
-90.2324069999999949
0
LINE
8
BLACK
6
CONTINUOUS
10
118.0489429999999942
20
-90.2324069999999949
11
118.0489429999999942
21
-92.1824069999999978
0
LINE
8
BLACK
6
CONTINUOUS
10
118.0489429999999942
20
-92.1824069999999978
11
118.0451369999999969
21
-92.2015409999999918
0
LINE
8
BLACK
6
CONTINUOUS
10
118.0451369999999969
20
-92.2015409999999918
11
118.018076999999991
21
-92.2286009999999976
0
LINE
8
BLACK
6
CONTINUOUS
10
118.018076999999991
20
-92.2286009999999976
11
117.9798089999999888
21
-92.2286009999999976
0
LINE
8
BLACK
6
CONTINUOUS
10
117.9798089999999888
20
-92.2286009999999976
11
117.9527489999999972
21
-92.2015409999999918
0
LINE
8
BLACK
6
CONTINUOUS
10
117.9527489999999972
20
-92.2015409999999918
11
117.9489429999999999
21
-92.1824069999999978
0
LINE
8
BLACK
6
CONTINUOUS
10
117.9489429999999999
20
-92.1824069999999978
11
117.9489429999999999
21
-90.2324069999999949
0
LINE
8
BLACK
6
CONTINUOUS
10
117.9489429999999999
20
-90.2324069999999949
11
115.998942999999997
21
-90.2324069999999949
0
LINE
8
BLACK
6
CONTINUOUS
10
115.998942999999997
20
-90.2324069999999949
11
115.9798089999999888
21
-90.2286009999999976
0
LINE
8
BLACK
6
CONTINUOUS
10
115.9798089999999888
20
-90.2286009999999976
11
115.9527489999999972
21
-90.2015409999999918
0
LINE
8
BLACK
6
CONTINUOUS
10
115.9527489999999972
20
-90.2015409999999918
11
115.9527489999999972
21
-90.1632729999999896
0
LINE
8
BLACK
6
CONTINUOUS
10
115.9527489999999972
20
-90.1632729999999896
11
115.9798089999999888
21
-90.1362129999999979
0
LINE
8
BLACK
6
CONTINUOUS
10
115.9798089999999888
20
-90.1362129999999979
11
115.998942999999997
21
-90.1324070000000006
0
LINE
8
BLACK
6
CONTINUOUS
10
115.998942999999997
20
-90.1324070000000006
11
117.9489429999999999
21
-90.1324070000000006
0
LINE
8
BLACK
6
CONTINUOUS
10
117.9489429999999999
20
-90.1324070000000006
11
117.9489429999999999
21
-88.1824069999999978
0
LINE
8
BLACK
6
CONTINUOUS
10
117.9489429999999999
20
-88.1824069999999978
11
117.9527489999999972
21
-88.1632729999999896
0
LINE
8
BLACK
6
CONTINUOUS
10
117.9527489999999972
20
-88.1632729999999896
11
117.9798089999999888
21
-88.1362129999999979
0
LINE
8
BLACK
6
CONTINUOUS
10
117.9798089999999888
20
-88.1362129999999979
11
118.018076999999991
21
-88.1362129999999979
0
LINE
8
BLACK
6
CONTINUOUS
10
118.018076999999991
20
-88.1362129999999979
11
118.0451369999999969
21
-88.1632729999999896
0
LINE
8
BLACK
6
CONTINUOUS
10
48.9496169999999964
20
-24.2998519999999978
11
67.9996170000000006
21
-24.2998519999999978
0
LINE
8
BLACK
6
CONTINUOUS
10
67.9996170000000006
20
-24.2998519999999978
11
87.0496169999999978
21
-24.2998519999999978
0
LINE
8
BLACK
6
CONTINUOUS
10
87.0496169999999978
20
-24.2998519999999978
11
106.099616999999995
21
-24.2998519999999978
0
LINE
8
BLACK
6
CONTINUOUS
10
106.099616999999995
20
-24.2998519999999978
11
125.1496169999999921
21
-24.2998519999999978
0
LINE
8
BLACK
6
CONTINUOUS
10
125.1496169999999921
20
-24.2998519999999978
11
144.1996169999999893
21
-24.2998519999999978
0
LINE
8
BLACK
6
CONTINUOUS
10
144.1996169999999893
20
-24.2998519999999978
11
163.2496170000000006
21
-24.2998519999999978
0
LINE
8
BLACK
6
CONTINUOUS
10
163.2496170000000006
20
-24.2998519999999978
11
182.2996169999999836
21
-24.2998519999999978
0
LINE
8
BLACK
6
CONTINUOUS
10
182.2996169999999836
20
-24.2998519999999978
11
201.349616999999995
21
-24.2998519999999978
0
LINE
8
BLACK
6
CONTINUOUS
10
201.349616999999995
20
-24.2998519999999978
11
220.3996169999999779
21
-24.2998519999999978
0
LINE
8
BLACK
6
CONTINUOUS
10
220.3996169999999779
20
-24.2998519999999978
11
239.4496169999999893
21
-24.2998519999999978
0
LINE
8
BLACK
6
CONTINUOUS
10
239.4496169999999893
20
-24.2998519999999978
11
263.2621169999999893
21
-24.2998519999999978
0
LINE
8
BLACK
6
CONTINUOUS
10
263.2621169999999893
20
-24.2998519999999978
11
263.2812509999999975
21
-24.3036579999999987
0
LINE
8
BLACK
6
CONTINUOUS
10
263.2812509999999975
20
-24.3036579999999987
11
263.3083110000000033
21
-24.3307179999999974
0
LINE
8
BLACK
6
CONTINUOUS
10
263.3083110000000033
20
-24.3307179999999974
11
263.3121170000000006
21
-24.3498519999999985
0
LINE
8
BLACK
6
CONTINUOUS
10
263.3121170000000006
20
-24.3498519999999985
11
263.3121170000000006
21
-43.3998519999999957
0
LINE
8
BLACK
6
CONTINUOUS
10
263.3121170000000006
20
-43.3998519999999957
11
263.3121170000000006
21
-62.4498519999999999
0
LINE
8
BLACK
6
CONTINUOUS
10
263.3121170000000006
20
-62.4498519999999999
11
263.3083110000000033
21
-62.4689859999999939
0
LINE
8
BLACK
6
CONTINUOUS
10
263.3083110000000033
20
-62.4689859999999939
11
263.2812509999999975
21
-62.4960459999999998
0
LINE
8
BLACK
6
CONTINUOUS
10
263.2812509999999975
20
-62.4960459999999998
11
263.2621169999999893
21
-62.4998519999999971
0
LINE
8
BLACK
6
CONTINUOUS
10
263.2621169999999893
20
-62.4998519999999971
11
258.549617000000012
21
-62.4998519999999971
0
LINE
8
BLACK
6
CONTINUOUS
10
258.549617000000012
20
-62.4998519999999971
11
258.549617000000012
21
-81.49985199999999
0
LINE
8
BLACK
6
CONTINUOUS
10
258.549617000000012
20
-81.49985199999999
11
258.5458110000000147
21
-81.5189859999999982
0
LINE
8
BLACK
6
CONTINUOUS
10
258.5458110000000147
20
-81.5189859999999982
11
258.5187510000000088
21
-81.5460459999999898
0
LINE
8
BLACK
6
CONTINUOUS
10
258.5187510000000088
20
-81.5460459999999898
11
258.4996170000000006
21
-81.5498520000000013
0
LINE
8
BLACK
6
CONTINUOUS
10
258.4996170000000006
20
-81.5498520000000013
11
237.11144299999998
21
-81.5498520000000013
0
LINE
8
BLACK
6
CONTINUOUS
10
237.11144299999998
20
-81.5498520000000013
11
237.11144299999998
21
-100.5623569999999916
0
LINE
8
BLACK
6
CONTINUOUS
10
237.11144299999998
20
-100.5623569999999916
11
237.1076369999999827
21
-100.5814909999999998
0
LINE
8
BLACK
6
CONTINUOUS
10
237.1076369999999827
20
-100.5814909999999998
11
237.0805769999999768
21
-100.6085509999999914
0
LINE
8
BLACK
6
CONTINUOUS
10
237.0805769999999768
20
-100.6085509999999914
11
237.061442999999997
21
-100.6123569999999887
0
LINE
8
BLACK
6
CONTINUOUS
10
237.061442999999997
20
-100.6123569999999887
11
213.248942999999997
21
-100.6123569999999887
0
LINE
8
BLACK
6
CONTINUOUS
10
213.248942999999997
20
-100.6123569999999887
11
194.1989429999999857
21
-100.6123569999999887
0
LINE
8
BLACK
6
CONTINUOUS
10
194.1989429999999857
20
-100.6123569999999887
11
156.0989429999999913
21
-100.6123569999999887
0
LINE
8
BLACK
6
CONTINUOUS
10
156.0989429999999913
20
-100.6123569999999887
11
137.04894299999998
21
-100.6123569999999887
0
LINE
8
BLACK
6
CONTINUOUS
10
137.04894299999998
20
-100.6123569999999887
11
98.9489429999999999
21
-100.6123569999999887
0
LINE
8
BLACK
6
CONTINUOUS
10
98.9489429999999999
20
-100.6123569999999887
11
79.8989430000000027
21
-100.6123569999999887
0
LINE
8
BLACK
6
CONTINUOUS
10
79.8989430000000027
20
-100.6123569999999887
11
56.0864429999999956
21
-100.6123569999999887
0
LINE
8
BLACK
6
CONTINUOUS
10
56.0864429999999956
20
-100.6123569999999887
11
56.0673089999999945
21
-100.6085509999999914
0
LINE
8
BLACK
6
CONTINUOUS
10
56.0673089999999945
20
-100.6085509999999914
11
56.0402489999999958
21
-100.5814909999999998
0
LINE
8
BLACK
6
CONTINUOUS
10
56.0402489999999958
20
-100.5814909999999998
11
56.0364429999999984
21
-100.5623569999999916
0
LINE
8
BLACK
6
CONTINUOUS
10
56.0364429999999984
20
-100.5623569999999916
11
56.0364429999999984
21
-81.5498520000000013
0
LINE
8
BLACK
6
CONTINUOUS
10
56.0364429999999984
20
-81.5498520000000013
11
34.662116999999995
21
-81.5498520000000013
0
LINE
8
BLACK
6
CONTINUOUS
10
34.662116999999995
20
-81.5498520000000013
11
34.642983000000001
21
-81.5460459999999898
0
LINE
8
BLACK
6
CONTINUOUS
10
34.642983000000001
20
-81.5460459999999898
11
34.6159229999999951
21
-81.5189859999999982
0
LINE
8
BLACK
6
CONTINUOUS
10
34.6159229999999951
20
-81.5189859999999982
11
34.6121169999999978
21
-81.49985199999999
0
LINE
8
BLACK
6
CONTINUOUS
10
34.6121169999999978
20
-81.49985199999999
11
34.6121169999999978
21
-62.4998519999999971
0
LINE
8
BLACK
6
CONTINUOUS
10
34.6121169999999978
20
-62.4998519999999971
11
29.8996169999999992
21
-62.4998519999999971
0
LINE
8
BLACK
6
CONTINUOUS
10
29.8996169999999992
20
-62.4998519999999971
11
29.8804829999999981
21
-62.4960459999999998
0
LINE
8
BLACK
6
CONTINUOUS
10
29.8804829999999981
20
-62.4960459999999998
11
29.8534229999999994
21
-62.4689859999999939
0
LINE
8
BLACK
6
CONTINUOUS
10
29.8534229999999994
20
-62.4689859999999939
11
29.8496169999999985
21
-62.4498519999999999
0
LINE
8
BLACK
6
CONTINUOUS
10
29.8496169999999985
20
-62.4498519999999999
11
29.8496169999999985
21
-43.3998519999999957
0
LINE
8
BLACK
6
CONTINUOUS
10
29.8496169999999985
20
-43.3998519999999957
11
29.8496169999999985
21
-24.3498519999999985
0
LINE
8
BLACK
6
CONTINUOUS
10
29.8496169999999985
20
-24.3498519999999985
11
29.8534229999999994
21
-24.3307179999999974
0
LINE
8
BLACK
6
CONTINUOUS
10
29.8534229999999994
20
-24.3307179999999974
11
29.8804829999999981
21
-24.3036579999999987
0
LINE
8
BLACK
6
CONTINUOUS
10
29.8804829999999981
20
-24.3036579999999987
11
29.8996169999999992
21
-24.2998519999999978
0
LINE
8
BLACK
6
CONTINUOUS
10
29.8996169999999992
20
-24.2998519999999978
11
48.9496169999999964
21
-24.2998519999999978
0
LINE
8
BLACK
6
CONTINUOUS
10
213.29894299999998
20
-81.5623569999999916
11
213.29894299999998
21
-100.5123569999999944
0
LINE
8
BLACK
6
CONTINUOUS
10
213.29894299999998
20
-100.5123569999999944
11
237.0114429999999857
21
-100.5123569999999944
0
LINE
8
BLACK
6
CONTINUOUS
10
237.0114429999999857
20
-100.5123569999999944
11
237.0114429999999857
21
-81.5623569999999916
0
LINE
8
BLACK
6
CONTINUOUS
10
237.0114429999999857
20
-81.5623569999999916
11
213.29894299999998
21
-81.5623569999999916
0
LINE
8
BLACK
6
CONTINUOUS
10
194.248942999999997
20
-81.5623569999999916
11
194.248942999999997
21
-100.5123569999999944
0
LINE
8
BLACK
6
CONTINUOUS
10
194.248942999999997
20
-100.5123569999999944
11
213.1989429999999857
21
-100.5123569999999944
0
LINE
8
BLACK
6
CONTINUOUS
10
213.1989429999999857
20
-100.5123569999999944
11
213.1989429999999857
21
-81.5623569999999916
0
LINE
8
BLACK
6
CONTINUOUS
10
213.1989429999999857
20
-81.5623569999999916
11
194.248942999999997
21
-81.5623569999999916
0
LINE
8
BLACK
6
CONTINUOUS
10
156.1489430000000027
20
-81.5623569999999916
11
156.1489430000000027
21
-100.5123569999999944
0
LINE
8
BLACK
6
CONTINUOUS
10
156.1489430000000027
20
-100.5123569999999944
11
194.1489430000000027
21
-100.5123569999999944
0
LINE
8
BLACK
6
CONTINUOUS
10
194.1489430000000027
20
-100.5123569999999944
11
194.1489430000000027
21
-81.5623569999999916
0
LINE
8
BLACK
6
CONTINUOUS
10
194.1489430000000027
20
-81.5623569999999916
11
156.1489430000000027
21
-81.5623569999999916
0
LINE
8
BLACK
6
CONTINUOUS
10
137.0989429999999913
20
-81.5623569999999916
11
137.0989429999999913
21
-100.5123569999999944
0
LINE
8
BLACK
6
CONTINUOUS
10
137.0989429999999913
20
-100.5123569999999944
11
156.04894299999998
21
-100.5123569999999944
0
LINE
8
BLACK
6
CONTINUOUS
10
156.04894299999998
20
-100.5123569999999944
11
156.04894299999998
21
-81.5623569999999916
0
LINE
8
BLACK
6
CONTINUOUS
10
156.04894299999998
20
-81.5623569999999916
11
137.0989429999999913
21
-81.5623569999999916
0
LINE
8
BLACK
6
CONTINUOUS
10
98.998942999999997
20
-81.5623569999999916
11
98.998942999999997
21
-100.5123569999999944
0
LINE
8
BLACK
6
CONTINUOUS
10
98.998942999999997
20
-100.5123569999999944
11
136.998942999999997
21
-100.5123569999999944
0
LINE
8
BLACK
6
CONTINUOUS
10
136.998942999999997
20
-100.5123569999999944
11
136.998942999999997
21
-81.5623569999999916
0
LINE
8
BLACK
6
CONTINUOUS
10
136.998942999999997
20
-81.5623569999999916
11
98.998942999999997
21
-81.5623569999999916
0
LINE
8
BLACK
6
CONTINUOUS
10
79.9489429999999999
20
-81.5623569999999916
11
79.9489429999999999
21
-100.5123569999999944
0
LINE
8
BLACK
6
CONTINUOUS
10
79.9489429999999999
20
-100.5123569999999944
11
98.8989429999999885
21
-100.5123569999999944
0
LINE
8
BLACK
6
CONTINUOUS
10
98.8989429999999885
20
-100.5123569999999944
11
98.8989429999999885
21
-81.5623569999999916
0
LINE
8
BLACK
6
CONTINUOUS
10
98.8989429999999885
20
-81.5623569999999916
11
79.9489429999999999
21
-81.5623569999999916
0
LINE
8
BLACK
6
CONTINUOUS
10
56.1364429999999999
20
-81.5623569999999916
11
56.1364429999999999
21
-100.5123569999999944
0
LINE
8
BLACK
6
CONTINUOUS
10
56.1364429999999999
20
-100.5123569999999944
11
79.8489429999999913
21
-100.5123569999999944
0
LINE
8
BLACK
6
CONTINUOUS
10
79.8489429999999913
20
-100.5123569999999944
11
79.8489429999999913
21
-81.5623569999999916
0
LINE
8
BLACK
6
CONTINUOUS
10
79.8489429999999913
20
-81.5623569999999916
11
56.1364429999999999
21
-81.5623569999999916
0
LINE
8
BLACK
6
CONTINUOUS
10
234.7371169999999836
20
-62.4998519999999971
11
234.7371169999999836
21
-81.4498519999999928
0
LINE
8
BLACK
6
CONTINUOUS
10
234.7371169999999836
20
-81.4498519999999928
11
258.4496169999999893
21
-81.4498519999999928
0
LINE
8
BLACK
6
CONTINUOUS
10
258.4496169999999893
20
-81.4498519999999928
11
258.4496169999999893
21
-62.4998519999999971
0
LINE
8
BLACK
6
CONTINUOUS
10
258.4496169999999893
20
-62.4998519999999971
11
244.2121169999999779
21
-62.4998519999999971
0
LINE
8
BLACK
6
CONTINUOUS
10
244.2121169999999779
20
-62.4998519999999971
11
234.7371169999999836
21
-62.4998519999999971
0
LINE
8
BLACK
6
CONTINUOUS
10
215.6871170000000006
20
-62.4998519999999971
11
215.6871170000000006
21
-81.4498519999999928
0
LINE
8
BLACK
6
CONTINUOUS
10
215.6871170000000006
20
-81.4498519999999928
11
234.6371169999999893
21
-81.4498519999999928
0
LINE
8
BLACK
6
CONTINUOUS
10
234.6371169999999893
20
-81.4498519999999928
11
234.6371169999999893
21
-62.4998519999999971
0
LINE
8
BLACK
6
CONTINUOUS
10
234.6371169999999893
20
-62.4998519999999971
11
225.162116999999995
21
-62.4998519999999971
0
LINE
8
BLACK
6
CONTINUOUS
10
225.162116999999995
20
-62.4998519999999971
11
215.6871170000000006
21
-62.4998519999999971
0
LINE
8
BLACK
6
CONTINUOUS
10
196.6371169999999893
20
-62.4998519999999971
11
196.6371169999999893
21
-81.4498519999999928
0
LINE
8
BLACK
6
CONTINUOUS
10
196.6371169999999893
20
-81.4498519999999928
11
215.5871169999999779
21
-81.4498519999999928
0
LINE
8
BLACK
6
CONTINUOUS
10
215.5871169999999779
20
-81.4498519999999928
11
215.5871169999999779
21
-62.4998519999999971
0
LINE
8
BLACK
6
CONTINUOUS
10
215.5871169999999779
20
-62.4998519999999971
11
206.1121169999999836
21
-62.4998519999999971
0
LINE
8
BLACK
6
CONTINUOUS
10
206.1121169999999836
20
-62.4998519999999971
11
196.6371169999999893
21
-62.4998519999999971
0
LINE
8
BLACK
6
CONTINUOUS
10
177.5871169999999779
20
-62.4998519999999971
11
177.5871169999999779
21
-81.4498519999999928
0
LINE
8
BLACK
6
CONTINUOUS
10
177.5871169999999779
20
-81.4498519999999928
11
196.537116999999995
21
-81.4498519999999928
0
LINE
8
BLACK
6
CONTINUOUS
10
196.537116999999995
20
-81.4498519999999928
11
196.537116999999995
21
-62.4998519999999971
0
LINE
8
BLACK
6
CONTINUOUS
10
196.537116999999995
20
-62.4998519999999971
11
187.0621170000000006
21
-62.4998519999999971
0
LINE
8
BLACK
6
CONTINUOUS
10
187.0621170000000006
20
-62.4998519999999971
11
177.5871169999999779
21
-62.4998519999999971
0
LINE
8
BLACK
6
CONTINUOUS
10
158.537116999999995
20
-62.4998519999999971
11
158.537116999999995
21
-81.4498519999999928
0
LINE
8
BLACK
6
CONTINUOUS
10
158.537116999999995
20
-81.4498519999999928
11
177.4871169999999836
21
-81.4498519999999928
0
LINE
8
BLACK
6
CONTINUOUS
10
177.4871169999999836
20
-81.4498519999999928
11
177.4871169999999836
21
-62.4998519999999971
0
LINE
8
BLACK
6
CONTINUOUS
10
177.4871169999999836
20
-62.4998519999999971
11
168.0121169999999893
21
-62.4998519999999971
0
LINE
8
BLACK
6
CONTINUOUS
10
168.0121169999999893
20
-62.4998519999999971
11
158.537116999999995
21
-62.4998519999999971
0
LINE
8
BLACK
6
CONTINUOUS
10
139.4871169999999836
20
-62.4998519999999971
11
139.4871169999999836
21
-81.4498519999999928
0
LINE
8
BLACK
6
CONTINUOUS
10
139.4871169999999836
20
-81.4498519999999928
11
158.4371170000000006
21
-81.4498519999999928
0
LINE
8
BLACK
6
CONTINUOUS
10
158.4371170000000006
20
-81.4498519999999928
11
158.4371170000000006
21
-62.4998519999999971
0
LINE
8
BLACK
6
CONTINUOUS
10
158.4371170000000006
20
-62.4998519999999971
11
148.9621170000000063
21
-62.4998519999999971
0
LINE
8
BLACK
6
CONTINUOUS
10
148.9621170000000063
20
-62.4998519999999971
11
139.4871169999999836
21
-62.4998519999999971
0
LINE
8
BLACK
6
CONTINUOUS
10
120.4371170000000006
20
-62.4998519999999971
11
120.4371170000000006
21
-81.4498519999999928
0
LINE
8
BLACK
6
CONTINUOUS
10
120.4371170000000006
20
-81.4498519999999928
11
139.3871169999999893
21
-81.4498519999999928
0
LINE
8
BLACK
6
CONTINUOUS
10
139.3871169999999893
20
-81.4498519999999928
11
139.3871169999999893
21
-62.4998519999999971
0
LINE
8
BLACK
6
CONTINUOUS
10
139.3871169999999893
20
-62.4998519999999971
11
129.912116999999995
21
-62.4998519999999971
0
LINE
8
BLACK
6
CONTINUOUS
10
129.912116999999995
20
-62.4998519999999971
11
120.4371170000000006
21
-62.4998519999999971
0
LINE
8
BLACK
6
CONTINUOUS
10
101.3871169999999893
20
-62.4998519999999971
11
101.3871169999999893
21
-81.4498519999999928
0
LINE
8
BLACK
6
CONTINUOUS
10
101.3871169999999893
20
-81.4498519999999928
11
120.3371169999999921
21
-81.4498519999999928
0
LINE
8
BLACK
6
CONTINUOUS
10
120.3371169999999921
20
-81.4498519999999928
11
120.3371169999999921
21
-62.4998519999999971
0
LINE
8
BLACK
6
CONTINUOUS
10
120.3371169999999921
20
-62.4998519999999971
11
110.8621169999999978
21
-62.4998519999999971
0
LINE
8
BLACK
6
CONTINUOUS
10
110.8621169999999978
20
-62.4998519999999971
11
101.3871169999999893
21
-62.4998519999999971
0
LINE
8
BLACK
6
CONTINUOUS
10
82.3371169999999921
20
-62.4998519999999971
11
82.3371169999999921
21
-81.4498519999999928
0
LINE
8
BLACK
6
CONTINUOUS
10
82.3371169999999921
20
-81.4498519999999928
11
101.287116999999995
21
-81.4498519999999928
0
LINE
8
BLACK
6
CONTINUOUS
10
101.287116999999995
20
-81.4498519999999928
11
101.287116999999995
21
-62.4998519999999971
0
LINE
8
BLACK
6
CONTINUOUS
10
101.287116999999995
20
-62.4998519999999971
11
91.8121170000000006
21
-62.4998519999999971
0
LINE
8
BLACK
6
CONTINUOUS
10
91.8121170000000006
20
-62.4998519999999971
11
82.3371169999999921
21
-62.4998519999999971
0
LINE
8
BLACK
6
CONTINUOUS
10
63.287116999999995
20
-62.4998519999999971
11
63.287116999999995
21
-81.4498519999999928
0
LINE
8
BLACK
6
CONTINUOUS
10
63.287116999999995
20
-81.4498519999999928
11
82.2371169999999978
21
-81.4498519999999928
0
LINE
8
BLACK
6
CONTINUOUS
10
82.2371169999999978
20
-81.4498519999999928
11
82.2371169999999978
21
-62.4998519999999971
0
LINE
8
BLACK
6
CONTINUOUS
10
82.2371169999999978
20
-62.4998519999999971
11
72.7621170000000035
21
-62.4998519999999971
0
LINE
8
BLACK
6
CONTINUOUS
10
72.7621170000000035
20
-62.4998519999999971
11
63.287116999999995
21
-62.4998519999999971
0
LINE
8
BLACK
6
CONTINUOUS
10
34.7121169999999992
20
-62.4998519999999971
11
34.7121169999999992
21
-81.4498519999999928
0
LINE
8
BLACK
6
CONTINUOUS
10
34.7121169999999992
20
-81.4498519999999928
11
63.1871170000000006
21
-81.4498519999999928
0
LINE
8
BLACK
6
CONTINUOUS
10
63.1871170000000006
20
-81.4498519999999928
11
63.1871170000000006
21
-62.4998519999999971
0
LINE
8
BLACK
6
CONTINUOUS
10
63.1871170000000006
20
-62.4998519999999971
11
53.7121169999999992
21
-62.4998519999999971
0
LINE
8
BLACK
6
CONTINUOUS
10
53.7121169999999992
20
-62.4998519999999971
11
34.7121169999999992
21
-62.4998519999999971
0
LINE
8
BLACK
6
CONTINUOUS
10
244.2621169999999893
20
-43.4498519999999999
11
244.2621169999999893
21
-62.3998519999999957
0
LINE
8
BLACK
6
CONTINUOUS
10
244.2621169999999893
20
-62.3998519999999957
11
258.4996170000000006
21
-62.3998519999999957
0
LINE
8
BLACK
6
CONTINUOUS
10
258.4996170000000006
20
-62.3998519999999957
11
263.2121169999999779
21
-62.3998519999999957
0
LINE
8
BLACK
6
CONTINUOUS
10
263.2121169999999779
20
-62.3998519999999957
11
263.2121169999999779
21
-43.4498519999999999
0
LINE
8
BLACK
6
CONTINUOUS
10
263.2121169999999779
20
-43.4498519999999999
11
244.2621169999999893
21
-43.4498519999999999
0
LINE
8
BLACK
6
CONTINUOUS
10
225.2121169999999779
20
-43.4498519999999999
11
225.2121169999999779
21
-62.3998519999999957
0
LINE
8
BLACK
6
CONTINUOUS
10
225.2121169999999779
20
-62.3998519999999957
11
234.6871170000000006
21
-62.3998519999999957
0
LINE
8
BLACK
6
CONTINUOUS
10
234.6871170000000006
20
-62.3998519999999957
11
244.162116999999995
21
-62.3998519999999957
0
LINE
8
BLACK
6
CONTINUOUS
10
244.162116999999995
20
-62.3998519999999957
11
244.162116999999995
21
-43.4498519999999999
0
LINE
8
BLACK
6
CONTINUOUS
10
244.162116999999995
20
-43.4498519999999999
11
239.4496169999999893
21
-43.4498519999999999
0
LINE
8
BLACK
6
CONTINUOUS
10
239.4496169999999893
20
-43.4498519999999999
11
225.2121169999999779
21
-43.4498519999999999
0
LINE
8
BLACK
6
CONTINUOUS
10
206.162116999999995
20
-43.4498519999999999
11
206.162116999999995
21
-62.3998519999999957
0
LINE
8
BLACK
6
CONTINUOUS
10
206.162116999999995
20
-62.3998519999999957
11
215.6371169999999893
21
-62.3998519999999957
0
LINE
8
BLACK
6
CONTINUOUS
10
215.6371169999999893
20
-62.3998519999999957
11
225.1121169999999836
21
-62.3998519999999957
0
LINE
8
BLACK
6
CONTINUOUS
10
225.1121169999999836
20
-62.3998519999999957
11
225.1121169999999836
21
-43.4498519999999999
0
LINE
8
BLACK
6
CONTINUOUS
10
225.1121169999999836
20
-43.4498519999999999
11
220.3996169999999779
21
-43.4498519999999999
0
LINE
8
BLACK
6
CONTINUOUS
10
220.3996169999999779
20
-43.4498519999999999
11
206.162116999999995
21
-43.4498519999999999
0
LINE
8
BLACK
6
CONTINUOUS
10
187.1121169999999836
20
-43.4498519999999999
11
187.1121169999999836
21
-62.3998519999999957
0
LINE
8
BLACK
6
CONTINUOUS
10
187.1121169999999836
20
-62.3998519999999957
11
196.5871169999999779
21
-62.3998519999999957
0
LINE
8
BLACK
6
CONTINUOUS
10
196.5871169999999779
20
-62.3998519999999957
11
206.0621170000000006
21
-62.3998519999999957
0
LINE
8
BLACK
6
CONTINUOUS
10
206.0621170000000006
20
-62.3998519999999957
11
206.0621170000000006
21
-43.4498519999999999
0
LINE
8
BLACK
6
CONTINUOUS
10
206.0621170000000006
20
-43.4498519999999999
11
201.349616999999995
21
-43.4498519999999999
0
LINE
8
BLACK
6
CONTINUOUS
10
201.349616999999995
20
-43.4498519999999999
11
187.1121169999999836
21
-43.4498519999999999
0
LINE
8
BLACK
6
CONTINUOUS
10
168.0621170000000006
20
-43.4498519999999999
11
168.0621170000000006
21
-62.3998519999999957
0
LINE
8
BLACK
6
CONTINUOUS
10
168.0621170000000006
20
-62.3998519999999957
11
177.537116999999995
21
-62.3998519999999957
0
LINE
8
BLACK
6
CONTINUOUS
10
177.537116999999995
20
-62.3998519999999957
11
187.0121169999999893
21
-62.3998519999999957
0
LINE
8
BLACK
6
CONTINUOUS
10
187.0121169999999893
20
-62.3998519999999957
11
187.0121169999999893
21
-43.4498519999999999
0
LINE
8
BLACK
6
CONTINUOUS
10
187.0121169999999893
20
-43.4498519999999999
11
182.2996169999999836
21
-43.4498519999999999
0
LINE
8
BLACK
6
CONTINUOUS
10
182.2996169999999836
20
-43.4498519999999999
11
168.0621170000000006
21
-43.4498519999999999
0
LINE
8
BLACK
6
CONTINUOUS
10
149.0121169999999893
20
-43.4498519999999999
11
149.0121169999999893
21
-62.3998519999999957
0
LINE
8
BLACK
6
CONTINUOUS
10
149.0121169999999893
20
-62.3998519999999957
11
158.4871169999999836
21
-62.3998519999999957
0
LINE
8
BLACK
6
CONTINUOUS
10
158.4871169999999836
20
-62.3998519999999957
11
167.9621170000000063
21
-62.3998519999999957
0
LINE
8
BLACK
6
CONTINUOUS
10
167.9621170000000063
20
-62.3998519999999957
11
167.9621170000000063
21
-43.4498519999999999
0
LINE
8
BLACK
6
CONTINUOUS
10
167.9621170000000063
20
-43.4498519999999999
11
163.2496170000000006
21
-43.4498519999999999
0
LINE
8
BLACK
6
CONTINUOUS
10
163.2496170000000006
20
-43.4498519999999999
11
149.0121169999999893
21
-43.4498519999999999
0
LINE
8
BLACK
6
CONTINUOUS
10
129.9621170000000063
20
-43.4498519999999999
11
129.9621170000000063
21
-62.3998519999999957
0
LINE
8
BLACK
6
CONTINUOUS
10
129.9621170000000063
20
-62.3998519999999957
11
139.4371170000000006
21
-62.3998519999999957
0
LINE
8
BLACK
6
CONTINUOUS
10
139.4371170000000006
20
-62.3998519999999957
11
148.912116999999995
21
-62.3998519999999957
0
LINE
8
BLACK
6
CONTINUOUS
10
148.912116999999995
20
-62.3998519999999957
11
148.912116999999995
21
-43.4498519999999999
0
LINE
8
BLACK
6
CONTINUOUS
10
148.912116999999995
20
-43.4498519999999999
11
144.1996169999999893
21
-43.4498519999999999
0
LINE
8
BLACK
6
CONTINUOUS
10
144.1996169999999893
20
-43.4498519999999999
11
129.9621170000000063
21
-43.4498519999999999
0
LINE
8
BLACK
6
CONTINUOUS
10
110.912116999999995
20
-43.4498519999999999
11
110.912116999999995
21
-62.3998519999999957
0
LINE
8
BLACK
6
CONTINUOUS
10
110.912116999999995
20
-62.3998519999999957
11
120.3871169999999893
21
-62.3998519999999957
0
LINE
8
BLACK
6
CONTINUOUS
10
120.3871169999999893
20
-62.3998519999999957
11
129.8621169999999836
21
-62.3998519999999957
0
LINE
8
BLACK
6
CONTINUOUS
10
129.8621169999999836
20
-62.3998519999999957
11
129.8621169999999836
21
-43.4498519999999999
0
LINE
8
BLACK
6
CONTINUOUS
10
129.8621169999999836
20
-43.4498519999999999
11
125.1496169999999921
21
-43.4498519999999999
0
LINE
8
BLACK
6
CONTINUOUS
10
125.1496169999999921
20
-43.4498519999999999
11
110.912116999999995
21
-43.4498519999999999
0
LINE
8
BLACK
6
CONTINUOUS
10
91.8621169999999978
20
-43.4498519999999999
11
91.8621169999999978
21
-62.3998519999999957
0
LINE
8
BLACK
6
CONTINUOUS
10
91.8621169999999978
20
-62.3998519999999957
11
101.3371169999999921
21
-62.3998519999999957
0
LINE
8
BLACK
6
CONTINUOUS
10
101.3371169999999921
20
-62.3998519999999957
11
110.8121170000000006
21
-62.3998519999999957
0
LINE
8
BLACK
6
CONTINUOUS
10
110.8121170000000006
20
-62.3998519999999957
11
110.8121170000000006
21
-43.4498519999999999
0
LINE
8
BLACK
6
CONTINUOUS
10
110.8121170000000006
20
-43.4498519999999999
11
106.099616999999995
21
-43.4498519999999999
0
LINE
8
BLACK
6
CONTINUOUS
10
106.099616999999995
20
-43.4498519999999999
11
91.8621169999999978
21
-43.4498519999999999
0
LINE
8
BLACK
6
CONTINUOUS
10
72.8121170000000006
20
-43.4498519999999999
11
72.8121170000000006
21
-62.3998519999999957
0
LINE
8
BLACK
6
CONTINUOUS
10
72.8121170000000006
20
-62.3998519999999957
11
82.287116999999995
21
-62.3998519999999957
0
LINE
8
BLACK
6
CONTINUOUS
10
82.287116999999995
20
-62.3998519999999957
11
91.7621169999999893
21
-62.3998519999999957
0
LINE
8
BLACK
6
CONTINUOUS
10
91.7621169999999893
20
-62.3998519999999957
11
91.7621169999999893
21
-43.4498519999999999
0
LINE
8
BLACK
6
CONTINUOUS
10
91.7621169999999893
20
-43.4498519999999999
11
87.0496169999999978
21
-43.4498519999999999
0
LINE
8
BLACK
6
CONTINUOUS
10
87.0496169999999978
20
-43.4498519999999999
11
72.8121170000000006
21
-43.4498519999999999
0
LINE
8
BLACK
6
CONTINUOUS
10
53.7621169999999964
20
-43.4498519999999999
11
53.7621169999999964
21
-62.3998519999999957
0
LINE
8
BLACK
6
CONTINUOUS
10
53.7621169999999964
20
-62.3998519999999957
11
63.2371169999999978
21
-62.3998519999999957
0
LINE
8
BLACK
6
CONTINUOUS
10
63.2371169999999978
20
-62.3998519999999957
11
72.7121169999999921
21
-62.3998519999999957
0
LINE
8
BLACK
6
CONTINUOUS
10
72.7121169999999921
20
-62.3998519999999957
11
72.7121169999999921
21
-43.4498519999999999
0
LINE
8
BLACK
6
CONTINUOUS
10
72.7121169999999921
20
-43.4498519999999999
11
67.9996170000000006
21
-43.4498519999999999
0
LINE
8
BLACK
6
CONTINUOUS
10
67.9996170000000006
20
-43.4498519999999999
11
53.7621169999999964
21
-43.4498519999999999
0
LINE
8
BLACK
6
CONTINUOUS
10
29.9496169999999999
20
-43.4498519999999999
11
29.9496169999999999
21
-62.3998519999999957
0
LINE
8
BLACK
6
CONTINUOUS
10
29.9496169999999999
20
-62.3998519999999957
11
53.662116999999995
21
-62.3998519999999957
0
LINE
8
BLACK
6
CONTINUOUS
10
53.662116999999995
20
-62.3998519999999957
11
53.662116999999995
21
-43.4498519999999999
0
LINE
8
BLACK
6
CONTINUOUS
10
53.662116999999995
20
-43.4498519999999999
11
48.9496169999999964
21
-43.4498519999999999
0
LINE
8
BLACK
6
CONTINUOUS
10
48.9496169999999964
20
-43.4498519999999999
11
29.9496169999999999
21
-43.4498519999999999
0
LINE
8
BLACK
6
CONTINUOUS
10
239.4996170000000006
20
-24.3998519999999992
11
239.4996170000000006
21
-43.3498519999999985
0
LINE
8
BLACK
6
CONTINUOUS
10
239.4996170000000006
20
-43.3498519999999985
11
244.2121169999999779
21
-43.3498519999999985
0
LINE
8
BLACK
6
CONTINUOUS
10
244.2121169999999779
20
-43.3498519999999985
11
263.2121169999999779
21
-43.3498519999999985
0
LINE
8
BLACK
6
CONTINUOUS
10
263.2121169999999779
20
-43.3498519999999985
11
263.2121169999999779
21
-24.3998519999999992
0
LINE
8
BLACK
6
CONTINUOUS
10
263.2121169999999779
20
-24.3998519999999992
11
239.4996170000000006
21
-24.3998519999999992
0
LINE
8
BLACK
6
CONTINUOUS
10
220.4496169999999893
20
-24.3998519999999992
11
220.4496169999999893
21
-43.3498519999999985
0
LINE
8
BLACK
6
CONTINUOUS
10
220.4496169999999893
20
-43.3498519999999985
11
225.162116999999995
21
-43.3498519999999985
0
LINE
8
BLACK
6
CONTINUOUS
10
225.162116999999995
20
-43.3498519999999985
11
239.3996169999999779
21
-43.3498519999999985
0
LINE
8
BLACK
6
CONTINUOUS
10
239.3996169999999779
20
-43.3498519999999985
11
239.3996169999999779
21
-24.3998519999999992
0
LINE
8
BLACK
6
CONTINUOUS
10
239.3996169999999779
20
-24.3998519999999992
11
220.4496169999999893
21
-24.3998519999999992
0
LINE
8
BLACK
6
CONTINUOUS
10
201.3996169999999779
20
-24.3998519999999992
11
201.3996169999999779
21
-43.3498519999999985
0
LINE
8
BLACK
6
CONTINUOUS
10
201.3996169999999779
20
-43.3498519999999985
11
206.1121169999999836
21
-43.3498519999999985
0
LINE
8
BLACK
6
CONTINUOUS
10
206.1121169999999836
20
-43.3498519999999985
11
220.349616999999995
21
-43.3498519999999985
0
LINE
8
BLACK
6
CONTINUOUS
10
220.349616999999995
20
-43.3498519999999985
11
220.349616999999995
21
-24.3998519999999992
0
LINE
8
BLACK
6
CONTINUOUS
10
220.349616999999995
20
-24.3998519999999992
11
201.3996169999999779
21
-24.3998519999999992
0
LINE
8
BLACK
6
CONTINUOUS
10
182.349616999999995
20
-24.3998519999999992
11
182.349616999999995
21
-43.3498519999999985
0
LINE
8
BLACK
6
CONTINUOUS
10
182.349616999999995
20
-43.3498519999999985
11
187.0621170000000006
21
-43.3498519999999985
0
LINE
8
BLACK
6
CONTINUOUS
10
187.0621170000000006
20
-43.3498519999999985
11
201.2996169999999836
21
-43.3498519999999985
0
LINE
8
BLACK
6
CONTINUOUS
10
201.2996169999999836
20
-43.3498519999999985
11
201.2996169999999836
21
-24.3998519999999992
0
LINE
8
BLACK
6
CONTINUOUS
10
201.2996169999999836
20
-24.3998519999999992
11
182.349616999999995
21
-24.3998519999999992
0
LINE
8
BLACK
6
CONTINUOUS
10
163.2996169999999836
20
-24.3998519999999992
11
163.2996169999999836
21
-43.3498519999999985
0
LINE
8
BLACK
6
CONTINUOUS
10
163.2996169999999836
20
-43.3498519999999985
11
168.0121169999999893
21
-43.3498519999999985
0
LINE
8
BLACK
6
CONTINUOUS
10
168.0121169999999893
20
-43.3498519999999985
11
182.2496170000000006
21
-43.3498519999999985
0
LINE
8
BLACK
6
CONTINUOUS
10
182.2496170000000006
20
-43.3498519999999985
11
182.2496170000000006
21
-24.3998519999999992
0
LINE
8
BLACK
6
CONTINUOUS
10
182.2496170000000006
20
-24.3998519999999992
11
163.2996169999999836
21
-24.3998519999999992
0
LINE
8
BLACK
6
CONTINUOUS
10
144.2496170000000006
20
-24.3998519999999992
11
144.2496170000000006
21
-43.3498519999999985
0
LINE
8
BLACK
6
CONTINUOUS
10
144.2496170000000006
20
-43.3498519999999985
11
148.9621170000000063
21
-43.3498519999999985
0
LINE
8
BLACK
6
CONTINUOUS
10
148.9621170000000063
20
-43.3498519999999985
11
163.1996169999999893
21
-43.3498519999999985
0
LINE
8
BLACK
6
CONTINUOUS
10
163.1996169999999893
20
-43.3498519999999985
11
163.1996169999999893
21
-24.3998519999999992
0
LINE
8
BLACK
6
CONTINUOUS
10
163.1996169999999893
20
-24.3998519999999992
11
144.2496170000000006
21
-24.3998519999999992
0
LINE
8
BLACK
6
CONTINUOUS
10
125.1996169999999893
20
-24.3998519999999992
11
125.1996169999999893
21
-43.3498519999999985
0
LINE
8
BLACK
6
CONTINUOUS
10
125.1996169999999893
20
-43.3498519999999985
11
129.912116999999995
21
-43.3498519999999985
0
LINE
8
BLACK
6
CONTINUOUS
10
129.912116999999995
20
-43.3498519999999985
11
144.1496170000000063
21
-43.3498519999999985
0
LINE
8
BLACK
6
CONTINUOUS
10
144.1496170000000063
20
-43.3498519999999985
11
144.1496170000000063
21
-24.3998519999999992
0
LINE
8
BLACK
6
CONTINUOUS
10
144.1496170000000063
20
-24.3998519999999992
11
125.1996169999999893
21
-24.3998519999999992
0
LINE
8
BLACK
6
CONTINUOUS
10
106.1496169999999921
20
-24.3998519999999992
11
106.1496169999999921
21
-43.3498519999999985
0
LINE
8
BLACK
6
CONTINUOUS
10
106.1496169999999921
20
-43.3498519999999985
11
110.8621169999999978
21
-43.3498519999999985
0
LINE
8
BLACK
6
CONTINUOUS
10
110.8621169999999978
20
-43.3498519999999985
11
125.099616999999995
21
-43.3498519999999985
0
LINE
8
BLACK
6
CONTINUOUS
10
125.099616999999995
20
-43.3498519999999985
11
125.099616999999995
21
-24.3998519999999992
0
LINE
8
BLACK
6
CONTINUOUS
10
125.099616999999995
20
-24.3998519999999992
11
106.1496169999999921
21
-24.3998519999999992
0
LINE
8
BLACK
6
CONTINUOUS
10
87.099616999999995
20
-24.3998519999999992
11
87.099616999999995
21
-43.3498519999999985
0
LINE
8
BLACK
6
CONTINUOUS
10
87.099616999999995
20
-43.3498519999999985
11
91.8121170000000006
21
-43.3498519999999985
0
LINE
8
BLACK
6
CONTINUOUS
10
91.8121170000000006
20
-43.3498519999999985
11
106.0496169999999978
21
-43.3498519999999985
0
LINE
8
BLACK
6
CONTINUOUS
10
106.0496169999999978
20
-43.3498519999999985
11
106.0496169999999978
21
-24.3998519999999992
0
LINE
8
BLACK
6
CONTINUOUS
10
106.0496169999999978
20
-24.3998519999999992
11
87.099616999999995
21
-24.3998519999999992
0
LINE
8
BLACK
6
CONTINUOUS
10
68.0496169999999978
20
-24.3998519999999992
11
68.0496169999999978
21
-43.3498519999999985
0
LINE
8
BLACK
6
CONTINUOUS
10
68.0496169999999978
20
-43.3498519999999985
11
72.7621170000000035
21
-43.3498519999999985
0
LINE
8
BLACK
6
CONTINUOUS
10
72.7621170000000035
20
-43.3498519999999985
11
86.9996170000000006
21
-43.3498519999999985
0
LINE
8
BLACK
6
CONTINUOUS
10
86.9996170000000006
20
-43.3498519999999985
11
86.9996170000000006
21
-24.3998519999999992
0
LINE
8
BLACK
6
CONTINUOUS
10
86.9996170000000006
20
-24.3998519999999992
11
68.0496169999999978
21
-24.3998519999999992
0
LINE
8
BLACK
6
CONTINUOUS
10
48.9996170000000006
20
-24.3998519999999992
11
48.9996170000000006
21
-43.3498519999999985
0
LINE
8
BLACK
6
CONTINUOUS
10
48.9996170000000006
20
-43.3498519999999985
11
53.7121169999999992
21
-43.3498519999999985
0
LINE
8
BLACK
6
CONTINUOUS
10
53.7121169999999992
20
-43.3498519999999985
11
67.9496170000000035
21
-43.3498519999999985
0
LINE
8
BLACK
6
CONTINUOUS
10
67.9496170000000035
20
-43.3498519999999985
11
67.9496170000000035
21
-24.3998519999999992
0
LINE
8
BLACK
6
CONTINUOUS
10
67.9496170000000035
20
-24.3998519999999992
11
48.9996170000000006
21
-24.3998519999999992
0
LINE
8
BLACK
6
CONTINUOUS
10
29.9496169999999999
20
-24.3998519999999992
11
29.9496169999999999
21
-43.3498519999999985
0
LINE
8
BLACK
6
CONTINUOUS
10
29.9496169999999999
20
-43.3498519999999985
11
48.8996169999999992
21
-43.3498519999999985
0
LINE
8
BLACK
6
CONTINUOUS
10
48.8996169999999992
20
-43.3498519999999985
11
48.8996169999999992
21
-24.3998519999999992
0
LINE
8
BLACK
6
CONTINUOUS
10
48.8996169999999992
20
-24.3998519999999992
11
29.9496169999999999
21
-24.3998519999999992
0
LINE
8
BLACK
6
CONTINUOUS
10
267.5812500000000114
20
-21.3499999999999979
11
267.8455700000000093
21
-21.3673179999999974
0
LINE
8
BLACK
6
CONTINUOUS
10
267.8455700000000093
20
-21.3673179999999974
11
268.1053679999999986
21
-21.4189889999999998
0
LINE
8
BLACK
6
CONTINUOUS
10
268.1053679999999986
20
-21.4189889999999998
11
268.3561990000000037
21
-21.5041289999999989
0
LINE
8
BLACK
6
CONTINUOUS
10
268.3561990000000037
20
-21.5041289999999989
11
268.5937710000000038
21
-21.6212820000000008
0
LINE
8
BLACK
6
CONTINUOUS
10
268.5937710000000038
20
-21.6212820000000008
11
268.8140179999999759
21
-21.7684420000000003
0
LINE
8
BLACK
6
CONTINUOUS
10
268.8140179999999759
20
-21.7684420000000003
11
269.0131729999999948
21
-21.943090999999999
0
LINE
8
BLACK
6
CONTINUOUS
10
269.0131729999999948
20
-21.943090999999999
11
269.1878279999999677
21
-22.1422409999999985
0
LINE
8
BLACK
6
CONTINUOUS
10
269.1878279999999677
20
-22.1422409999999985
11
269.3349929999999972
21
-22.3624849999999995
0
LINE
8
BLACK
6
CONTINUOUS
10
269.3349929999999972
20
-22.3624849999999995
11
269.4521510000000148
21
-22.6000540000000001
0
LINE
8
BLACK
6
CONTINUOUS
10
269.4521510000000148
20
-22.6000540000000001
11
269.5372979999999643
21
-22.8508829999999996
0
LINE
8
BLACK
6
CONTINUOUS
10
269.5372979999999643
20
-22.8508829999999996
11
269.5889750000000049
21
-23.1106799999999986
0
LINE
8
BLACK
6
CONTINUOUS
10
269.5889750000000049
20
-23.1106799999999986
11
269.6062999999999761
21
-23.375
0
LINE
8
BLACK
6
CONTINUOUS
10
269.6062999999999761
20
-23.375
11
269.6062499999999886
21
-23.375
0
LINE
8
BLACK
6
CONTINUOUS
10
269.6062499999999886
20
-23.375
11
269.6062499999999886
21
-102.375
0
LINE
8
BLACK
6
CONTINUOUS
10
269.6062499999999886
20
-102.375
11
269.5889260000000149
21
-102.6393130000000014
0
LINE
8
BLACK
6
CONTINUOUS
10
269.5889260000000149
20
-102.6393130000000014
11
269.5372489999999743
21
-102.8991039999999941
0
LINE
8
BLACK
6
CONTINUOUS
10
269.5372489999999743
20
-102.8991039999999941
11
269.4521049999999605
21
-103.149926999999991
0
LINE
8
BLACK
6
CONTINUOUS
10
269.4521049999999605
20
-103.149926999999991
11
269.3349499999999921
21
-103.3874899999999997
0
LINE
8
BLACK
6
CONTINUOUS
10
269.3349499999999921
20
-103.3874899999999997
11
269.1877880000000118
21
-103.6077279999999945
0
LINE
8
BLACK
6
CONTINUOUS
10
269.1877880000000118
20
-103.6077279999999945
11
269.0131379999999695
21
-103.8068739999999934
0
LINE
8
BLACK
6
CONTINUOUS
10
269.0131379999999695
20
-103.8068739999999934
11
268.8139879999999948
21
-103.9815189999999916
0
LINE
8
BLACK
6
CONTINUOUS
10
268.8139879999999948
20
-103.9815189999999916
11
268.5937460000000101
21
-104.1286750000000012
0
LINE
8
BLACK
6
CONTINUOUS
10
268.5937460000000101
20
-104.1286750000000012
11
268.3561799999999948
21
-104.2458239999999989
0
LINE
8
BLACK
6
CONTINUOUS
10
268.3561799999999948
20
-104.2458239999999989
11
268.1053549999999746
21
-104.3309619999999995
0
LINE
8
BLACK
6
CONTINUOUS
10
268.1053549999999746
20
-104.3309619999999995
11
267.8455629999999701
21
-104.382632000000001
0
LINE
8
BLACK
6
CONTINUOUS
10
267.8455629999999701
20
-104.382632000000001
11
267.5816249999999741
21
-104.3999249999999961
0
LINE
8
BLACK
6
CONTINUOUS
10
267.5816249999999741
20
-104.3999249999999961
11
267.5812500000000114
21
-104.3999999999999915
0
LINE
8
BLACK
6
CONTINUOUS
10
267.5812500000000114
20
-104.3999999999999915
11
267.5812490000000139
21
-104.3999999999999915
0
LINE
8
BLACK
6
CONTINUOUS
10
267.5812490000000139
20
-104.3999999999999915
11
25.5812499999999972
21
-104.3999999999999915
0
LINE
8
BLACK
6
CONTINUOUS
10
25.5812499999999972
20
-104.3999999999999915
11
25.3169339999999998
21
-104.3826759999999894
0
LINE
8
BLACK
6
CONTINUOUS
10
25.3169339999999998
20
-104.3826759999999894
11
25.0571409999999979
21
-104.3309999999999889
0
LINE
8
BLACK
6
CONTINUOUS
10
25.0571409999999979
20
-104.3309999999999889
11
24.8063159999999989
21
-104.2458559999999892
0
LINE
8
BLACK
6
CONTINUOUS
10
24.8063159999999989
20
-104.2458559999999892
11
24.5687499999999979
21
-104.1287009999999924
0
LINE
8
BLACK
6
CONTINUOUS
10
24.5687499999999979
20
-104.1287009999999924
11
24.3485079999999989
21
-103.9815409999999929
0
LINE
8
BLACK
6
CONTINUOUS
10
24.3485079999999989
20
-103.9815409999999929
11
24.1493590000000005
21
-103.8068909999999931
0
LINE
8
BLACK
6
CONTINUOUS
10
24.1493590000000005
20
-103.8068909999999931
11
23.9747089999999972
21
-103.6077420000000018
0
LINE
8
BLACK
6
CONTINUOUS
10
23.9747089999999972
20
-103.6077420000000018
11
23.8275489999999976
21
-103.3874999999999886
0
LINE
8
BLACK
6
CONTINUOUS
10
23.8275489999999976
20
-103.3874999999999886
11
23.7103939999999973
21
-103.1499340000000018
0
LINE
8
BLACK
6
CONTINUOUS
10
23.7103939999999973
20
-103.1499340000000018
11
23.6252499999999976
21
-102.8991089999999957
0
LINE
8
BLACK
6
CONTINUOUS
10
23.6252499999999976
20
-102.8991089999999957
11
23.5735740000000007
21
-102.6393159999999938
0
LINE
8
BLACK
6
CONTINUOUS
10
23.5735740000000007
20
-102.6393159999999938
11
23.5562499999999986
21
-102.375
0
LINE
8
BLACK
6
CONTINUOUS
10
23.5562499999999986
20
-102.375
11
23.5562499999999986
21
-23.375
0
LINE
8
BLACK
6
CONTINUOUS
10
23.5562499999999986
20
-23.375
11
23.5735740000000007
21
-23.1106839999999991
0
LINE
8
BLACK
6
CONTINUOUS
10
23.5735740000000007
20
-23.1106839999999991
11
23.6252499999999976
21
-22.8508910000000007
0
LINE
8
BLACK
6
CONTINUOUS
10
23.6252499999999976
20
-22.8508910000000007
11
23.7103939999999973
21
-22.6000659999999982
0
LINE
8
BLACK
6
CONTINUOUS
10
23.7103939999999973
20
-22.6000659999999982
11
23.8275489999999976
21
-22.3625000000000007
0
LINE
8
BLACK
6
CONTINUOUS
10
23.8275489999999976
20
-22.3625000000000007
11
23.9747089999999972
21
-22.1422579999999982
0
LINE
8
BLACK
6
CONTINUOUS
10
23.9747089999999972
20
-22.1422579999999982
11
24.1493590000000005
21
-21.9431089999999998
0
LINE
8
BLACK
6
CONTINUOUS
10
24.1493590000000005
20
-21.9431089999999998
11
24.3485079999999989
21
-21.768459
0
LINE
8
BLACK
6
CONTINUOUS
10
24.3485079999999989
20
-21.768459
11
24.5687499999999979
21
-21.6212990000000005
0
LINE
8
BLACK
6
CONTINUOUS
10
24.5687499999999979
20
-21.6212990000000005
11
24.8063159999999989
21
-21.5041440000000001
0
LINE
8
BLACK
6
CONTINUOUS
10
24.8063159999999989
20
-21.5041440000000001
11
25.0571409999999979
21
-21.4190000000000005
0
LINE
8
BLACK
6
CONTINUOUS
10
25.0571409999999979
20
-21.4190000000000005
11
25.3169339999999998
21
-21.367324
0
LINE
8
BLACK
6
CONTINUOUS
10
25.3169339999999998
20
-21.367324
11
25.5812499999999972
21
-21.3499999999999979
0
LINE
8
BLACK
6
CONTINUOUS
10
25.5812499999999972
20
-21.3499999999999979
11
267.5812500000000114
21
-21.3499999999999979
0
LINE
8
BLACK
6
CONTINUOUS
10
267.5812510000000088
20
-21.3999999999999986
11
267.5812500000000114
21
-21.3999989999999976
0
LINE
8
BLACK
6
CONTINUOUS
10
267.5812500000000114
20
-21.3999989999999976
11
267.5812500000000114
21
-21.3999999999999986
0
LINE
8
BLACK
6
CONTINUOUS
10
267.5812500000000114
20
-21.3999999999999986
11
25.5812499999999972
21
-21.3999999999999986
0
LINE
8
BLACK
6
CONTINUOUS
10
25.5812499999999972
20
-21.3999999999999986
11
25.4518019999999972
21
-21.3999999999999986
0
LINE
8
BLACK
6
CONTINUOUS
10
25.4518019999999972
20
-21.3999999999999986
11
25.1951199999999993
21
-21.4337929999999979
0
LINE
8
BLACK
6
CONTINUOUS
10
25.1951199999999993
20
-21.4337929999999979
11
24.9450450000000004
21
-21.5007999999999981
0
LINE
8
BLACK
6
CONTINUOUS
10
24.9450450000000004
20
-21.5007999999999981
11
24.7058549999999997
21
-21.5998749999999973
0
LINE
8
BLACK
6
CONTINUOUS
10
24.7058549999999997
20
-21.5998749999999973
11
24.4816439999999993
21
-21.7293239999999983
0
LINE
8
BLACK
6
CONTINUOUS
10
24.4816439999999993
20
-21.7293239999999983
11
24.2762479999999989
21
-21.8869299999999996
0
LINE
8
BLACK
6
CONTINUOUS
10
24.2762479999999989
20
-21.8869299999999996
11
24.0931800000000003
21
-22.0699979999999982
0
LINE
8
BLACK
6
CONTINUOUS
10
24.0931800000000003
20
-22.0699979999999982
11
23.935573999999999
21
-22.2753939999999986
0
LINE
8
BLACK
6
CONTINUOUS
10
23.935573999999999
20
-22.2753939999999986
11
23.806124999999998
21
-22.499604999999999
0
LINE
8
BLACK
6
CONTINUOUS
10
23.806124999999998
20
-22.499604999999999
11
23.7070499999999988
21
-22.7387949999999996
0
LINE
8
BLACK
6
CONTINUOUS
10
23.7070499999999988
20
-22.7387949999999996
11
23.6400429999999986
21
-22.9888699999999986
0
LINE
8
BLACK
6
CONTINUOUS
10
23.6400429999999986
20
-22.9888699999999986
11
23.6062499999999993
21
-23.245552
0
LINE
8
BLACK
6
CONTINUOUS
10
23.6062499999999993
20
-23.245552
11
23.6062499999999993
21
-23.375
0
LINE
8
BLACK
6
CONTINUOUS
10
23.6062499999999993
20
-23.375
11
23.6062499999999993
21
-102.375
0
LINE
8
BLACK
6
CONTINUOUS
10
23.6062499999999993
20
-102.375
11
23.6062499999999993
21
-102.5044479999999965
0
LINE
8
BLACK
6
CONTINUOUS
10
23.6062499999999993
20
-102.5044479999999965
11
23.6400429999999986
21
-102.7611299999999943
0
LINE
8
BLACK
6
CONTINUOUS
10
23.6400429999999986
20
-102.7611299999999943
11
23.7070499999999988
21
-103.0112049999999897
0
LINE
8
BLACK
6
CONTINUOUS
10
23.7070499999999988
20
-103.0112049999999897
11
23.806124999999998
21
-103.2503949999999975
0
LINE
8
BLACK
6
CONTINUOUS
10
23.806124999999998
20
-103.2503949999999975
11
23.935573999999999
21
-103.4746059999999943
0
LINE
8
BLACK
6
CONTINUOUS
10
23.935573999999999
20
-103.4746059999999943
11
24.0931800000000003
21
-103.6800020000000018
0
LINE
8
BLACK
6
CONTINUOUS
10
24.0931800000000003
20
-103.6800020000000018
11
24.2762479999999989
21
-103.8630699999999933
0
LINE
8
BLACK
6
CONTINUOUS
10
24.2762479999999989
20
-103.8630699999999933
11
24.4816439999999993
21
-104.0206759999999946
0
LINE
8
BLACK
6
CONTINUOUS
10
24.4816439999999993
20
-104.0206759999999946
11
24.7058549999999997
21
-104.1501249999999885
0
LINE
8
BLACK
6
CONTINUOUS
10
24.7058549999999997
20
-104.1501249999999885
11
24.9450450000000004
21
-104.2492000000000019
0
LINE
8
BLACK
6
CONTINUOUS
10
24.9450450000000004
20
-104.2492000000000019
11
25.1951199999999993
21
-104.3162069999999915
0
LINE
8
BLACK
6
CONTINUOUS
10
25.1951199999999993
20
-104.3162069999999915
11
25.4518019999999972
21
-104.3499999999999943
0
LINE
8
BLACK
6
CONTINUOUS
10
25.4518019999999972
20
-104.3499999999999943
11
25.5812499999999972
21
-104.3499999999999943
0
LINE
8
BLACK
6
CONTINUOUS
10
25.5812499999999972
20
-104.3499999999999943
11
267.5812500000000114
21
-104.3499999999999943
0
LINE
8
BLACK
6
CONTINUOUS
10
267.5812500000000114
20
-104.3499999999999943
11
267.5812510000000088
21
-104.3499999999999943
0
LINE
8
BLACK
6
CONTINUOUS
10
267.5812510000000088
20
-104.3499999999999943
11
267.5812510000000088
21
-104.3499499999999927
0
LINE
8
BLACK
6
CONTINUOUS
10
267.5812510000000088
20
-104.3499499999999927
11
267.7106979999999794
21
-104.3499539999999968
0
LINE
8
BLACK
6
CONTINUOUS
10
267.7106979999999794
20
-104.3499539999999968
11
267.9673779999999965
21
-104.316166999999993
0
LINE
8
BLACK
6
CONTINUOUS
10
267.9673779999999965
20
-104.316166999999993
11
268.2174519999999802
21
-104.2491649999999908
0
LINE
8
BLACK
6
CONTINUOUS
10
268.2174519999999802
20
-104.2491649999999908
11
268.4566409999999905
21
-104.1500949999999932
0
LINE
8
BLACK
6
CONTINUOUS
10
268.4566409999999905
20
-104.1500949999999932
11
268.6808520000000158
21
-104.0206519999999983
0
LINE
8
BLACK
6
CONTINUOUS
10
268.6808520000000158
20
-104.0206519999999983
11
268.8862489999999639
21
-103.8630500000000012
0
LINE
8
BLACK
6
CONTINUOUS
10
268.8862489999999639
20
-103.8630500000000012
11
269.0693170000000123
21
-103.6799859999999995
0
LINE
8
BLACK
6
CONTINUOUS
10
269.0693170000000123
20
-103.6799859999999995
11
269.2269239999999968
21
-103.4745929999999987
0
LINE
8
BLACK
6
CONTINUOUS
10
269.2269239999999968
20
-103.4745929999999987
11
269.3563729999999623
21
-103.2503849999999943
0
LINE
8
BLACK
6
CONTINUOUS
10
269.3563729999999623
20
-103.2503849999999943
11
269.4554489999999873
21
-103.0111989999999906
0
LINE
8
BLACK
6
CONTINUOUS
10
269.4554489999999873
20
-103.0111989999999906
11
269.5224569999999744
21
-102.7611259999999902
0
LINE
8
BLACK
6
CONTINUOUS
10
269.5224569999999744
20
-102.7611259999999902
11
269.5562499999999773
21
-102.504446999999999
0
LINE
8
BLACK
6
CONTINUOUS
10
269.5562499999999773
20
-102.504446999999999
11
269.5562499999999773
21
-102.375
0
LINE
8
BLACK
6
CONTINUOUS
10
269.5562499999999773
20
-102.375
11
269.5562499999999773
21
-23.375
0
LINE
8
BLACK
6
CONTINUOUS
10
269.5562499999999773
20
-23.375
11
269.5562999999999647
21
-23.3747480000000003
0
LINE
8
BLACK
6
CONTINUOUS
10
269.5562999999999647
20
-23.3747480000000003
11
269.5562999999999647
21
-23.2455499999999979
0
LINE
8
BLACK
6
CONTINUOUS
10
269.5562999999999647
20
-23.2455499999999979
11
269.5225059999999644
21
-22.9888639999999995
0
LINE
8
BLACK
6
CONTINUOUS
10
269.5225059999999644
20
-22.9888639999999995
11
269.4554969999999798
21
-22.738785
0
LINE
8
BLACK
6
CONTINUOUS
10
269.4554969999999798
20
-22.738785
11
269.3564179999999624
21
-22.4995919999999998
0
LINE
8
BLACK
6
CONTINUOUS
10
269.3564179999999624
20
-22.4995919999999998
11
269.2269660000000044
21
-22.2753789999999974
0
LINE
8
BLACK
6
CONTINUOUS
10
269.2269660000000044
20
-22.2753789999999974
11
269.0693549999999732
21
-22.0699809999999985
0
LINE
8
BLACK
6
CONTINUOUS
10
269.0693549999999732
20
-22.0699809999999985
11
268.8862819999999942
21
-21.8869119999999988
0
LINE
8
BLACK
6
CONTINUOUS
10
268.8862819999999942
20
-21.8869119999999988
11
268.6808800000000019
21
-21.7293069999999986
0
LINE
8
BLACK
6
CONTINUOUS
10
268.6808800000000019
20
-21.7293069999999986
11
268.4566629999999918
21
-21.5998599999999996
0
LINE
8
BLACK
6
CONTINUOUS
10
268.4566629999999918
20
-21.5998599999999996
11
268.2174679999999967
21
-21.500786999999999
0
LINE
8
BLACK
6
CONTINUOUS
10
268.2174679999999967
20
-21.500786999999999
11
267.9673879999999713
21
-21.4337839999999993
0
LINE
8
BLACK
6
CONTINUOUS
10
267.9673879999999713
20
-21.4337839999999993
11
267.7107009999999718
21
-21.399996999999999
0
LINE
8
BLACK
6
CONTINUOUS
10
267.7107009999999718
20
-21.399996999999999
11
267.5812510000000088
21
-21.3999999999999986
  0
ENDSEC
  0
EOF
