M48
; DRILL file {KiCad 8.0.8} date 2025-03-12T13:11:00+0100
; FORMAT={-:-/ absolute / metric / decimal}
; #@! TF.CreationDate,2025-03-12T13:11:00+01:00
; #@! TF.GenerationSoftware,Kicad,Pcbnew,8.0.8
; #@! TF.FileFunction,Plated,1,2,PTH
FMAT,2
METRIC
; #@! TA.AperFunction,Plated,PTH,ViaDrill
T1C0.300
; #@! TA.AperFunction,Plated,PTH,ComponentDrill
T2C0.830
; #@! TA.AperFunction,Plated,PTH,ComponentDrill
T3C1.500
%
G90
G05
T1
X174.085Y-80.391
X197.453Y-84.455
X218.916Y-81.534
X222.845Y-80.391
X230.473Y-83.947
X230.854Y-81.534
X264.382Y-91.059
X265.017Y-90.043
T2
X237.694Y-83.82
X237.694Y-86.36
X237.694Y-88.9
X237.694Y-91.44
X237.694Y-93.98
X237.694Y-96.52
X237.694Y-99.06
X240.234Y-83.82
X240.234Y-99.06
X242.774Y-83.82
X242.774Y-99.06
X245.314Y-83.82
X245.314Y-99.06
X247.854Y-83.82
X247.854Y-99.06
X250.394Y-83.82
X250.394Y-99.06
X252.934Y-83.82
X252.934Y-99.06
X255.474Y-83.82
X255.474Y-99.06
X258.014Y-83.82
X258.014Y-99.06
X260.554Y-83.82
X260.554Y-99.06
X263.094Y-83.82
X263.094Y-99.06
X265.634Y-83.82
X265.634Y-99.06
X268.174Y-83.82
X268.174Y-99.06
T3
X35.719Y-31.353
X38.1Y-50.403
X42.069Y-28.813
X44.45Y-47.863
X45.244Y-69.453
X51.594Y-66.913
X54.769Y-31.353
X59.531Y-50.403
X61.119Y-28.813
X61.912Y-88.503
X65.881Y-47.863
X68.263Y-85.963
X69.056Y-69.453
X73.819Y-31.353
X75.406Y-66.913
X78.581Y-50.403
X80.169Y-28.813
X83.344Y-88.503
X84.931Y-47.863
X88.106Y-69.453
X89.694Y-85.963
X92.869Y-31.353
X94.456Y-66.913
X97.631Y-50.403
X99.219Y-28.813
X103.981Y-47.863
X107.156Y-69.453
X111.919Y-31.353
X111.919Y-88.503
X113.506Y-66.913
X116.681Y-50.403
X118.269Y-28.813
X118.269Y-85.963
X123.031Y-47.863
X126.206Y-69.453
X130.969Y-31.353
X132.556Y-66.913
X135.731Y-50.403
X137.319Y-28.813
X140.494Y-88.503
X142.081Y-47.863
X145.256Y-69.453
X146.844Y-85.963
X150.019Y-31.353
X151.606Y-66.913
X154.781Y-50.403
X156.369Y-28.813
X161.131Y-47.863
X164.306Y-69.453
X169.069Y-31.353
X169.069Y-88.503
X170.656Y-66.913
X173.831Y-50.403
X175.419Y-28.813
X175.419Y-85.963
X180.181Y-47.863
X183.356Y-69.453
X188.119Y-31.353
X189.706Y-66.913
X192.881Y-50.403
X194.469Y-28.813
X197.644Y-88.503
X199.231Y-47.863
X202.406Y-69.453
X203.994Y-85.963
X207.169Y-31.353
X208.756Y-66.913
X211.931Y-50.403
X213.519Y-28.813
X218.281Y-47.863
X219.075Y-88.503
X221.456Y-69.453
X225.425Y-85.963
X226.219Y-31.353
X227.806Y-66.913
X230.981Y-50.403
X232.569Y-28.813
X237.331Y-47.863
X242.887Y-69.453
X247.65Y-31.353
X249.237Y-66.913
X250.031Y-50.403
X254.0Y-28.813
X256.381Y-47.863
M30
