M48
; DRILL file {KiCad 9.0.5} date 2025-11-30T17:03:48+0100
; FORMAT={-:-/ absolute / metric / decimal}
; #@! TF.CreationDate,2025-11-30T17:03:48+01:00
; #@! TF.GenerationSoftware,Kicad,Pcbnew,9.0.5
; #@! TF.FileFunction,NonPlated,1,2,NPTH
FMAT,2
METRIC
; #@! TA.AperFunction,NonPlated,NPTH,ComponentDrill
T1C1.750
; #@! TA.AperFunction,NonPlated,NPTH,ComponentDrill
T2C3.048
; #@! TA.AperFunction,NonPlated,NPTH,ComponentDrill
T3C3.988
; #@! TA.AperFunction,NonPlated,NPTH,ComponentDrill
T4C4.000
%
G90
G05
T1
X34.345Y-33.875
X36.726Y-52.925
X43.87Y-71.975
X44.505Y-33.875
X46.886Y-52.925
X53.395Y-33.875
X54.03Y-71.975
X58.157Y-52.925
X62.913Y-91.037
X63.555Y-33.875
X67.682Y-71.975
X68.317Y-52.925
X72.445Y-33.875
X73.073Y-91.037
X77.207Y-52.925
X77.842Y-71.975
X82.605Y-33.875
X84.344Y-91.037
X86.732Y-71.975
X87.367Y-52.925
X91.495Y-33.875
X94.504Y-91.037
X96.257Y-52.925
X96.892Y-71.975
X101.655Y-33.875
X105.782Y-71.975
X106.417Y-52.925
X110.545Y-33.875
X112.919Y-91.037
X115.307Y-52.925
X115.942Y-71.975
X120.705Y-33.875
X123.079Y-91.037
X124.832Y-71.975
X125.467Y-52.925
X129.595Y-33.875
X134.357Y-52.925
X134.992Y-71.975
X139.755Y-33.875
X141.494Y-91.037
X143.882Y-71.975
X144.517Y-52.925
X148.645Y-33.875
X151.654Y-91.037
X153.407Y-52.925
X154.042Y-71.975
X158.805Y-33.875
X162.932Y-71.975
X163.567Y-52.925
X167.695Y-33.875
X170.069Y-91.037
X172.457Y-52.925
X173.092Y-71.975
X177.855Y-33.875
X180.229Y-91.037
X181.982Y-71.975
X182.617Y-52.925
X186.745Y-33.875
X191.507Y-52.925
X192.142Y-71.975
X196.905Y-33.875
X198.644Y-91.037
X201.032Y-71.975
X201.667Y-52.925
X205.795Y-33.875
X208.804Y-91.037
X210.557Y-52.925
X211.192Y-71.975
X215.955Y-33.875
X220.075Y-91.037
X220.082Y-71.975
X220.717Y-52.925
X224.845Y-33.875
X229.607Y-52.925
X230.235Y-91.037
X230.242Y-71.975
X235.005Y-33.875
X239.767Y-52.925
X241.513Y-71.975
X246.276Y-33.875
X248.657Y-52.925
X251.673Y-71.975
X256.436Y-33.875
X258.817Y-52.925
T2
X106.061Y-83.197
X129.937Y-83.197
X163.211Y-83.197
X187.087Y-83.197
T3
X106.061Y-98.407
X129.937Y-98.407
X163.211Y-98.407
X187.087Y-98.407
T4
X39.425Y-33.875
X41.806Y-52.925
X48.95Y-71.975
X58.475Y-33.875
X63.237Y-52.925
X67.993Y-91.037
X72.762Y-71.975
X77.525Y-33.875
X82.287Y-52.925
X89.424Y-91.037
X91.812Y-71.975
X96.575Y-33.875
X101.337Y-52.925
X110.862Y-71.975
X115.625Y-33.875
X117.999Y-91.037
X120.387Y-52.925
X129.912Y-71.975
X134.675Y-33.875
X139.437Y-52.925
X146.574Y-91.037
X148.962Y-71.975
X153.725Y-33.875
X158.487Y-52.925
X168.012Y-71.975
X172.775Y-33.875
X175.149Y-91.037
X177.537Y-52.925
X187.062Y-71.975
X191.825Y-33.875
X196.587Y-52.925
X203.724Y-91.037
X206.112Y-71.975
X210.875Y-33.875
X215.637Y-52.925
X225.155Y-91.037
X225.162Y-71.975
X229.925Y-33.875
X234.687Y-52.925
X246.593Y-71.975
X251.356Y-33.875
X253.737Y-52.925
M30
