  0
SECTION
  2
HEADER
  9
$ANGBASE
  50
0.0
  9
$ANGDIR
  70
1
  9
$MEASUREMENT
  70
1
  0
ENDSEC
  0
SECTION
  2
TABLES
  0
TABLE
  2
LTYPE
  70
4
  0
LTYPE
  5
40F
  2
CONTINUOUS
  70
0
  3
Solid line
  72
65
  73
0
  40
0.0
  0
LTYPE
  5
410
  2
DASHDOT
 70
0
  3
Dash Dot ____ _ ____ _
 72
65
 73
4
 40
2.0
 49
1.25
 49
-0.25
 49
0.25
 49
-0.25
  0
LTYPE
  5
411
  2
DASHED
 70
0
  3
Dashed __ __ __ __ __
 72
65
 73
2
 40
0.75
 49
0.5
 49
-0.25
  0
LTYPE
  5
43B
  2
DOTTED
 70
0
  3
Dotted .  .  .  .
 72
65
 73
2
 40
0.2
 49
0.0
 49
-0.2
  0
ENDTAB
  0
TABLE
  2
STYLE
  70
4
  0
STYLE
  2
KICAD
  70
0
  40
0
  41
1
  42
1
  50
0
  71
0
  3
isocp.shx
  0
STYLE
  2
KICADB
  70
0
  40
0
  41
1
  42
1
  50
0
  71
0
  3
isocp.shx
  0
STYLE
  2
KICADI
  70
0
  40
0
  41
1
  42
1
  50
15
  71
0
  3
isocp.shx
  0
STYLE
  2
KICADBI
  70
0
  40
0
  41
1
  42
1
  50
15
  71
0
  3
isocp.shx
  0
ENDTAB
  0
TABLE
  2
LAYER
  70
1
  0
LAYER
  2
BLACK
  70
0
  62
7
  6
CONTINUOUS
  0
ENDTAB
  0
ENDSEC
  0
SECTION
  2
ENTITIES
0
LINE
8
BLACK
6
CONTINUOUS
10
172.9249439999999822
20
-88.1690409999999929
11
172.9287499999999795
21
-88.1881750000000011
0
LINE
8
BLACK
6
CONTINUOUS
10
172.9287499999999795
20
-88.1881750000000011
11
172.9287499999999795
21
-90.1381749999999897
0
LINE
8
BLACK
6
CONTINUOUS
10
172.9287499999999795
20
-90.1381749999999897
11
174.8787499999999966
21
-90.1381749999999897
0
LINE
8
BLACK
6
CONTINUOUS
10
174.8787499999999966
20
-90.1381749999999897
11
174.8978840000000048
21
-90.1419810000000012
0
LINE
8
BLACK
6
CONTINUOUS
10
174.8978840000000048
20
-90.1419810000000012
11
174.9249439999999822
21
-90.1690409999999929
0
LINE
8
BLACK
6
CONTINUOUS
10
174.9249439999999822
20
-90.1690409999999929
11
174.9249439999999822
21
-90.2073089999999951
0
LINE
8
BLACK
6
CONTINUOUS
10
174.9249439999999822
20
-90.2073089999999951
11
174.8978840000000048
21
-90.2343690000000009
0
LINE
8
BLACK
6
CONTINUOUS
10
174.8978840000000048
20
-90.2343690000000009
11
174.8787499999999966
21
-90.2381749999999982
0
LINE
8
BLACK
6
CONTINUOUS
10
174.8787499999999966
20
-90.2381749999999982
11
172.9287499999999795
21
-90.2381749999999982
0
LINE
8
BLACK
6
CONTINUOUS
10
172.9287499999999795
20
-90.2381749999999982
11
172.9287499999999795
21
-92.1881750000000011
0
LINE
8
BLACK
6
CONTINUOUS
10
172.9287499999999795
20
-92.1881750000000011
11
172.9249439999999822
21
-92.2073089999999951
0
LINE
8
BLACK
6
CONTINUOUS
10
172.9249439999999822
20
-92.2073089999999951
11
172.8978840000000048
21
-92.2343690000000009
0
LINE
8
BLACK
6
CONTINUOUS
10
172.8978840000000048
20
-92.2343690000000009
11
172.8596159999999884
21
-92.2343690000000009
0
LINE
8
BLACK
6
CONTINUOUS
10
172.8596159999999884
20
-92.2343690000000009
11
172.8325559999999825
21
-92.2073089999999951
0
LINE
8
BLACK
6
CONTINUOUS
10
172.8325559999999825
20
-92.2073089999999951
11
172.8287499999999852
21
-92.1881750000000011
0
LINE
8
BLACK
6
CONTINUOUS
10
172.8287499999999852
20
-92.1881750000000011
11
172.8287499999999852
21
-90.2381749999999982
0
LINE
8
BLACK
6
CONTINUOUS
10
172.8287499999999852
20
-90.2381749999999982
11
170.8787499999999966
21
-90.2381749999999982
0
LINE
8
BLACK
6
CONTINUOUS
10
170.8787499999999966
20
-90.2381749999999982
11
170.8596159999999884
21
-90.2343690000000009
0
LINE
8
BLACK
6
CONTINUOUS
10
170.8596159999999884
20
-90.2343690000000009
11
170.8325559999999825
21
-90.2073089999999951
0
LINE
8
BLACK
6
CONTINUOUS
10
170.8325559999999825
20
-90.2073089999999951
11
170.8325559999999825
21
-90.1690409999999929
0
LINE
8
BLACK
6
CONTINUOUS
10
170.8325559999999825
20
-90.1690409999999929
11
170.8596159999999884
21
-90.1419810000000012
0
LINE
8
BLACK
6
CONTINUOUS
10
170.8596159999999884
20
-90.1419810000000012
11
170.8787499999999966
21
-90.1381749999999897
0
LINE
8
BLACK
6
CONTINUOUS
10
170.8787499999999966
20
-90.1381749999999897
11
172.8287499999999852
21
-90.1381749999999897
0
LINE
8
BLACK
6
CONTINUOUS
10
172.8287499999999852
20
-90.1381749999999897
11
172.8287499999999852
21
-88.1881750000000011
0
LINE
8
BLACK
6
CONTINUOUS
10
172.8287499999999852
20
-88.1881750000000011
11
172.8325559999999825
21
-88.1690409999999929
0
LINE
8
BLACK
6
CONTINUOUS
10
172.8325559999999825
20
-88.1690409999999929
11
172.8596159999999884
21
-88.1419810000000012
0
LINE
8
BLACK
6
CONTINUOUS
10
172.8596159999999884
20
-88.1419810000000012
11
172.8978840000000048
21
-88.1419810000000012
0
LINE
8
BLACK
6
CONTINUOUS
10
172.8978840000000048
20
-88.1419810000000012
11
172.9249439999999822
21
-88.1690409999999929
0
LINE
8
BLACK
6
CONTINUOUS
10
115.7749439999999908
20
-88.1690409999999929
11
115.7787499999999881
21
-88.1881750000000011
0
LINE
8
BLACK
6
CONTINUOUS
10
115.7787499999999881
20
-88.1881750000000011
11
115.7787499999999881
21
-90.1381749999999897
0
LINE
8
BLACK
6
CONTINUOUS
10
115.7787499999999881
20
-90.1381749999999897
11
117.7287499999999909
21
-90.1381749999999897
0
LINE
8
BLACK
6
CONTINUOUS
10
117.7287499999999909
20
-90.1381749999999897
11
117.7478839999999991
21
-90.1419810000000012
0
LINE
8
BLACK
6
CONTINUOUS
10
117.7478839999999991
20
-90.1419810000000012
11
117.7749439999999908
21
-90.1690409999999929
0
LINE
8
BLACK
6
CONTINUOUS
10
117.7749439999999908
20
-90.1690409999999929
11
117.7749439999999908
21
-90.2073089999999951
0
LINE
8
BLACK
6
CONTINUOUS
10
117.7749439999999908
20
-90.2073089999999951
11
117.7478839999999991
21
-90.2343690000000009
0
LINE
8
BLACK
6
CONTINUOUS
10
117.7478839999999991
20
-90.2343690000000009
11
117.7287499999999909
21
-90.2381749999999982
0
LINE
8
BLACK
6
CONTINUOUS
10
117.7287499999999909
20
-90.2381749999999982
11
115.7787499999999881
21
-90.2381749999999982
0
LINE
8
BLACK
6
CONTINUOUS
10
115.7787499999999881
20
-90.2381749999999982
11
115.7787499999999881
21
-92.1881750000000011
0
LINE
8
BLACK
6
CONTINUOUS
10
115.7787499999999881
20
-92.1881750000000011
11
115.7749439999999908
21
-92.2073089999999951
0
LINE
8
BLACK
6
CONTINUOUS
10
115.7749439999999908
20
-92.2073089999999951
11
115.7478839999999991
21
-92.2343690000000009
0
LINE
8
BLACK
6
CONTINUOUS
10
115.7478839999999991
20
-92.2343690000000009
11
115.7096159999999969
21
-92.2343690000000009
0
LINE
8
BLACK
6
CONTINUOUS
10
115.7096159999999969
20
-92.2343690000000009
11
115.6825559999999911
21
-92.2073089999999951
0
LINE
8
BLACK
6
CONTINUOUS
10
115.6825559999999911
20
-92.2073089999999951
11
115.6787499999999937
21
-92.1881750000000011
0
LINE
8
BLACK
6
CONTINUOUS
10
115.6787499999999937
20
-92.1881750000000011
11
115.6787499999999937
21
-90.2381749999999982
0
LINE
8
BLACK
6
CONTINUOUS
10
115.6787499999999937
20
-90.2381749999999982
11
113.7287499999999909
21
-90.2381749999999982
0
LINE
8
BLACK
6
CONTINUOUS
10
113.7287499999999909
20
-90.2381749999999982
11
113.7096159999999969
21
-90.2343690000000009
0
LINE
8
BLACK
6
CONTINUOUS
10
113.7096159999999969
20
-90.2343690000000009
11
113.6825559999999911
21
-90.2073089999999951
0
LINE
8
BLACK
6
CONTINUOUS
10
113.6825559999999911
20
-90.2073089999999951
11
113.6825559999999911
21
-90.1690409999999929
0
LINE
8
BLACK
6
CONTINUOUS
10
113.6825559999999911
20
-90.1690409999999929
11
113.7096159999999969
21
-90.1419810000000012
0
LINE
8
BLACK
6
CONTINUOUS
10
113.7096159999999969
20
-90.1419810000000012
11
113.7287499999999909
21
-90.1381749999999897
0
LINE
8
BLACK
6
CONTINUOUS
10
113.7287499999999909
20
-90.1381749999999897
11
115.6787499999999937
21
-90.1381749999999897
0
LINE
8
BLACK
6
CONTINUOUS
10
115.6787499999999937
20
-90.1381749999999897
11
115.6787499999999937
21
-88.1881750000000011
0
LINE
8
BLACK
6
CONTINUOUS
10
115.6787499999999937
20
-88.1881750000000011
11
115.6825559999999911
21
-88.1690409999999929
0
LINE
8
BLACK
6
CONTINUOUS
10
115.6825559999999911
20
-88.1690409999999929
11
115.7096159999999969
21
-88.1419810000000012
0
LINE
8
BLACK
6
CONTINUOUS
10
115.7096159999999969
20
-88.1419810000000012
11
115.7478839999999991
21
-88.1419810000000012
0
LINE
8
BLACK
6
CONTINUOUS
10
115.7478839999999991
20
-88.1419810000000012
11
115.7749439999999908
21
-88.1690409999999929
0
LINE
8
BLACK
6
CONTINUOUS
10
49.0537500000000009
20
-24.3181249999999984
11
68.1037499999999909
21
-24.3181249999999984
0
LINE
8
BLACK
6
CONTINUOUS
10
68.1037499999999909
20
-24.3181249999999984
11
87.1537500000000023
21
-24.3181249999999984
0
LINE
8
BLACK
6
CONTINUOUS
10
87.1537500000000023
20
-24.3181249999999984
11
106.2037499999999994
21
-24.3181249999999984
0
LINE
8
BLACK
6
CONTINUOUS
10
106.2037499999999994
20
-24.3181249999999984
11
125.2537499999999966
21
-24.3181249999999984
0
LINE
8
BLACK
6
CONTINUOUS
10
125.2537499999999966
20
-24.3181249999999984
11
144.3037499999999795
21
-24.3181249999999984
0
LINE
8
BLACK
6
CONTINUOUS
10
144.3037499999999795
20
-24.3181249999999984
11
163.3537499999999909
21
-24.3181249999999984
0
LINE
8
BLACK
6
CONTINUOUS
10
163.3537499999999909
20
-24.3181249999999984
11
182.4037500000000023
21
-24.3181249999999984
0
LINE
8
BLACK
6
CONTINUOUS
10
182.4037500000000023
20
-24.3181249999999984
11
201.4537499999999852
21
-24.3181249999999984
0
LINE
8
BLACK
6
CONTINUOUS
10
201.4537499999999852
20
-24.3181249999999984
11
220.5037499999999966
21
-24.3181249999999984
0
LINE
8
BLACK
6
CONTINUOUS
10
220.5037499999999966
20
-24.3181249999999984
11
239.5537499999999795
21
-24.3181249999999984
0
LINE
8
BLACK
6
CONTINUOUS
10
239.5537499999999795
20
-24.3181249999999984
11
263.3662499999999795
21
-24.3181249999999984
0
LINE
8
BLACK
6
CONTINUOUS
10
263.3662499999999795
20
-24.3181249999999984
11
263.3853839999999877
21
-24.3219309999999993
0
LINE
8
BLACK
6
CONTINUOUS
10
263.3853839999999877
20
-24.3219309999999993
11
263.4124439999999936
21
-24.3489909999999981
0
LINE
8
BLACK
6
CONTINUOUS
10
263.4124439999999936
20
-24.3489909999999981
11
263.4162499999999909
21
-24.3681249999999991
0
LINE
8
BLACK
6
CONTINUOUS
10
263.4162499999999909
20
-24.3681249999999991
11
263.4162499999999909
21
-43.4181249999999963
0
LINE
8
BLACK
6
CONTINUOUS
10
263.4162499999999909
20
-43.4181249999999963
11
263.4162499999999909
21
-62.4681250000000006
0
LINE
8
BLACK
6
CONTINUOUS
10
263.4162499999999909
20
-62.4681250000000006
11
263.4124439999999936
21
-62.4872589999999946
0
LINE
8
BLACK
6
CONTINUOUS
10
263.4124439999999936
20
-62.4872589999999946
11
263.3853839999999877
21
-62.5143190000000004
0
LINE
8
BLACK
6
CONTINUOUS
10
263.3853839999999877
20
-62.5143190000000004
11
263.3662499999999795
21
-62.5181249999999977
0
LINE
8
BLACK
6
CONTINUOUS
10
263.3662499999999795
20
-62.5181249999999977
11
258.6537500000000023
21
-62.5181249999999977
0
LINE
8
BLACK
6
CONTINUOUS
10
258.6537500000000023
20
-62.5181249999999977
11
258.6537500000000023
21
-81.5181249999999977
0
LINE
8
BLACK
6
CONTINUOUS
10
258.6537500000000023
20
-81.5181249999999977
11
258.649944000000005
21
-81.5372589999999917
0
LINE
8
BLACK
6
CONTINUOUS
10
258.649944000000005
20
-81.5372589999999917
11
258.6228839999999991
21
-81.5643189999999976
0
LINE
8
BLACK
6
CONTINUOUS
10
258.6228839999999991
20
-81.5643189999999976
11
258.6037499999999909
21
-81.5681249999999949
0
LINE
8
BLACK
6
CONTINUOUS
10
258.6037499999999909
20
-81.5681249999999949
11
234.8412500000000023
21
-81.5681249999999949
0
LINE
8
BLACK
6
CONTINUOUS
10
234.8412500000000023
20
-81.5681249999999949
11
234.8412500000000023
21
-100.5681249999999949
0
LINE
8
BLACK
6
CONTINUOUS
10
234.8412500000000023
20
-100.5681249999999949
11
234.8374439999999765
21
-100.5872589999999889
0
LINE
8
BLACK
6
CONTINUOUS
10
234.8374439999999765
20
-100.5872589999999889
11
234.8103839999999991
21
-100.6143189999999947
0
LINE
8
BLACK
6
CONTINUOUS
10
234.8103839999999991
20
-100.6143189999999947
11
234.7912499999999909
21
-100.618124999999992
0
LINE
8
BLACK
6
CONTINUOUS
10
234.7912499999999909
20
-100.618124999999992
11
210.9787499999999909
21
-100.618124999999992
0
LINE
8
BLACK
6
CONTINUOUS
10
210.9787499999999909
20
-100.618124999999992
11
191.9287499999999795
21
-100.618124999999992
0
LINE
8
BLACK
6
CONTINUOUS
10
191.9287499999999795
20
-100.618124999999992
11
153.8287499999999852
21
-100.618124999999992
0
LINE
8
BLACK
6
CONTINUOUS
10
153.8287499999999852
20
-100.618124999999992
11
134.7787500000000023
21
-100.618124999999992
0
LINE
8
BLACK
6
CONTINUOUS
10
134.7787500000000023
20
-100.618124999999992
11
96.6787499999999937
21
-100.618124999999992
0
LINE
8
BLACK
6
CONTINUOUS
10
96.6787499999999937
20
-100.618124999999992
11
77.6287499999999966
21
-100.618124999999992
0
LINE
8
BLACK
6
CONTINUOUS
10
77.6287499999999966
20
-100.618124999999992
11
53.8162499999999966
21
-100.618124999999992
0
LINE
8
BLACK
6
CONTINUOUS
10
53.8162499999999966
20
-100.618124999999992
11
53.7971159999999955
21
-100.6143189999999947
0
LINE
8
BLACK
6
CONTINUOUS
10
53.7971159999999955
20
-100.6143189999999947
11
53.7700559999999967
21
-100.5872589999999889
0
LINE
8
BLACK
6
CONTINUOUS
10
53.7700559999999967
20
-100.5872589999999889
11
53.7662499999999994
21
-100.5681249999999949
0
LINE
8
BLACK
6
CONTINUOUS
10
53.7662499999999994
20
-100.5681249999999949
11
53.7662499999999994
21
-81.5681249999999949
0
LINE
8
BLACK
6
CONTINUOUS
10
53.7662499999999994
20
-81.5681249999999949
11
34.7662499999999994
21
-81.5681249999999949
0
LINE
8
BLACK
6
CONTINUOUS
10
34.7662499999999994
20
-81.5681249999999949
11
34.7471159999999983
21
-81.5643189999999976
0
LINE
8
BLACK
6
CONTINUOUS
10
34.7471159999999983
20
-81.5643189999999976
11
34.7200559999999996
21
-81.5372589999999917
0
LINE
8
BLACK
6
CONTINUOUS
10
34.7200559999999996
20
-81.5372589999999917
11
34.7162499999999952
21
-81.5181249999999977
0
LINE
8
BLACK
6
CONTINUOUS
10
34.7162499999999952
20
-81.5181249999999977
11
34.7162499999999952
21
-62.5181249999999977
0
LINE
8
BLACK
6
CONTINUOUS
10
34.7162499999999952
20
-62.5181249999999977
11
30.0037500000000001
21
-62.5181249999999977
0
LINE
8
BLACK
6
CONTINUOUS
10
30.0037500000000001
20
-62.5181249999999977
11
29.984615999999999
21
-62.5143190000000004
0
LINE
8
BLACK
6
CONTINUOUS
10
29.984615999999999
20
-62.5143190000000004
11
29.9575560000000003
21
-62.4872589999999946
0
LINE
8
BLACK
6
CONTINUOUS
10
29.9575560000000003
20
-62.4872589999999946
11
29.9537499999999994
21
-62.4681250000000006
0
LINE
8
BLACK
6
CONTINUOUS
10
29.9537499999999994
20
-62.4681250000000006
11
29.9537499999999994
21
-43.4181249999999963
0
LINE
8
BLACK
6
CONTINUOUS
10
29.9537499999999994
20
-43.4181249999999963
11
29.9537499999999994
21
-24.3681249999999991
0
LINE
8
BLACK
6
CONTINUOUS
10
29.9537499999999994
20
-24.3681249999999991
11
29.9575560000000003
21
-24.3489909999999981
0
LINE
8
BLACK
6
CONTINUOUS
10
29.9575560000000003
20
-24.3489909999999981
11
29.984615999999999
21
-24.3219309999999993
0
LINE
8
BLACK
6
CONTINUOUS
10
29.984615999999999
20
-24.3219309999999993
11
30.0037500000000001
21
-24.3181249999999984
0
LINE
8
BLACK
6
CONTINUOUS
10
30.0037500000000001
20
-24.3181249999999984
11
49.0537500000000009
21
-24.3181249999999984
0
LINE
8
BLACK
6
CONTINUOUS
10
211.0287500000000023
20
-81.5681249999999949
11
211.0287500000000023
21
-100.5181249999999977
0
LINE
8
BLACK
6
CONTINUOUS
10
211.0287500000000023
20
-100.5181249999999977
11
234.7412499999999795
21
-100.5181249999999977
0
LINE
8
BLACK
6
CONTINUOUS
10
234.7412499999999795
20
-100.5181249999999977
11
234.7412499999999795
21
-81.5681249999999949
0
LINE
8
BLACK
6
CONTINUOUS
10
234.7412499999999795
20
-81.5681249999999949
11
215.7412499999999795
21
-81.5681249999999949
0
LINE
8
BLACK
6
CONTINUOUS
10
215.7412499999999795
20
-81.5681249999999949
11
211.0287500000000023
21
-81.5681249999999949
0
LINE
8
BLACK
6
CONTINUOUS
10
191.9787499999999909
20
-81.5681249999999949
11
191.9787499999999909
21
-100.5181249999999977
0
LINE
8
BLACK
6
CONTINUOUS
10
191.9787499999999909
20
-100.5181249999999977
11
210.9287499999999795
21
-100.5181249999999977
0
LINE
8
BLACK
6
CONTINUOUS
10
210.9287499999999795
20
-100.5181249999999977
11
210.9287499999999795
21
-81.5681249999999949
0
LINE
8
BLACK
6
CONTINUOUS
10
210.9287499999999795
20
-81.5681249999999949
11
196.6912499999999966
21
-81.5681249999999949
0
LINE
8
BLACK
6
CONTINUOUS
10
196.6912499999999966
20
-81.5681249999999949
11
191.9787499999999909
21
-81.5681249999999949
0
LINE
8
BLACK
6
CONTINUOUS
10
153.8787499999999966
20
-81.5681249999999949
11
153.8787499999999966
21
-100.5181249999999977
0
LINE
8
BLACK
6
CONTINUOUS
10
153.8787499999999966
20
-100.5181249999999977
11
191.8787499999999966
21
-100.5181249999999977
0
LINE
8
BLACK
6
CONTINUOUS
10
191.8787499999999966
20
-100.5181249999999977
11
191.8787499999999966
21
-81.5681249999999949
0
LINE
8
BLACK
6
CONTINUOUS
10
191.8787499999999966
20
-81.5681249999999949
11
177.6412499999999852
21
-81.5681249999999949
0
LINE
8
BLACK
6
CONTINUOUS
10
177.6412499999999852
20
-81.5681249999999949
11
158.5912500000000023
21
-81.5681249999999949
0
LINE
8
BLACK
6
CONTINUOUS
10
158.5912500000000023
20
-81.5681249999999949
11
153.8787499999999966
21
-81.5681249999999949
0
LINE
8
BLACK
6
CONTINUOUS
10
134.8287499999999852
20
-81.5681249999999949
11
134.8287499999999852
21
-100.5181249999999977
0
LINE
8
BLACK
6
CONTINUOUS
10
134.8287499999999852
20
-100.5181249999999977
11
153.7787500000000023
21
-100.5181249999999977
0
LINE
8
BLACK
6
CONTINUOUS
10
153.7787500000000023
20
-100.5181249999999977
11
153.7787500000000023
21
-81.5681249999999949
0
LINE
8
BLACK
6
CONTINUOUS
10
153.7787500000000023
20
-81.5681249999999949
11
139.5412499999999909
21
-81.5681249999999949
0
LINE
8
BLACK
6
CONTINUOUS
10
139.5412499999999909
20
-81.5681249999999949
11
134.8287499999999852
21
-81.5681249999999949
0
LINE
8
BLACK
6
CONTINUOUS
10
96.7287499999999909
20
-81.5681249999999949
11
96.7287499999999909
21
-100.5181249999999977
0
LINE
8
BLACK
6
CONTINUOUS
10
96.7287499999999909
20
-100.5181249999999977
11
134.7287499999999909
21
-100.5181249999999977
0
LINE
8
BLACK
6
CONTINUOUS
10
134.7287499999999909
20
-100.5181249999999977
11
134.7287499999999909
21
-81.5681249999999949
0
LINE
8
BLACK
6
CONTINUOUS
10
134.7287499999999909
20
-81.5681249999999949
11
120.4912499999999937
21
-81.5681249999999949
0
LINE
8
BLACK
6
CONTINUOUS
10
120.4912499999999937
20
-81.5681249999999949
11
101.4412499999999966
21
-81.5681249999999949
0
LINE
8
BLACK
6
CONTINUOUS
10
101.4412499999999966
20
-81.5681249999999949
11
96.7287499999999909
21
-81.5681249999999949
0
LINE
8
BLACK
6
CONTINUOUS
10
77.6787499999999937
20
-81.5681249999999949
11
77.6787499999999937
21
-100.5181249999999977
0
LINE
8
BLACK
6
CONTINUOUS
10
77.6787499999999937
20
-100.5181249999999977
11
96.6287499999999966
21
-100.5181249999999977
0
LINE
8
BLACK
6
CONTINUOUS
10
96.6287499999999966
20
-100.5181249999999977
11
96.6287499999999966
21
-81.5681249999999949
0
LINE
8
BLACK
6
CONTINUOUS
10
96.6287499999999966
20
-81.5681249999999949
11
82.3912499999999994
21
-81.5681249999999949
0
LINE
8
BLACK
6
CONTINUOUS
10
82.3912499999999994
20
-81.5681249999999949
11
77.6787499999999937
21
-81.5681249999999949
0
LINE
8
BLACK
6
CONTINUOUS
10
53.8662500000000009
20
-81.5681249999999949
11
53.8662500000000009
21
-100.5181249999999977
0
LINE
8
BLACK
6
CONTINUOUS
10
53.8662500000000009
20
-100.5181249999999977
11
77.5787499999999994
21
-100.5181249999999977
0
LINE
8
BLACK
6
CONTINUOUS
10
77.5787499999999994
20
-100.5181249999999977
11
77.5787499999999994
21
-81.5681249999999949
0
LINE
8
BLACK
6
CONTINUOUS
10
77.5787499999999994
20
-81.5681249999999949
11
63.3412499999999952
21
-81.5681249999999949
0
LINE
8
BLACK
6
CONTINUOUS
10
63.3412499999999952
20
-81.5681249999999949
11
53.8662500000000009
21
-81.5681249999999949
0
LINE
8
BLACK
6
CONTINUOUS
10
234.8412500000000023
20
-62.5181249999999977
11
234.8412500000000023
21
-81.4681250000000006
0
LINE
8
BLACK
6
CONTINUOUS
10
234.8412500000000023
20
-81.4681250000000006
11
258.5537499999999795
21
-81.4681250000000006
0
LINE
8
BLACK
6
CONTINUOUS
10
258.5537499999999795
20
-81.4681250000000006
11
258.5537499999999795
21
-62.5181249999999977
0
LINE
8
BLACK
6
CONTINUOUS
10
258.5537499999999795
20
-62.5181249999999977
11
244.3162499999999966
21
-62.5181249999999977
0
LINE
8
BLACK
6
CONTINUOUS
10
244.3162499999999966
20
-62.5181249999999977
11
234.8412500000000023
21
-62.5181249999999977
0
LINE
8
BLACK
6
CONTINUOUS
10
215.7912499999999909
20
-62.5181249999999977
11
215.7912499999999909
21
-81.4681250000000006
0
LINE
8
BLACK
6
CONTINUOUS
10
215.7912499999999909
20
-81.4681250000000006
11
234.7412499999999795
21
-81.4681250000000006
0
LINE
8
BLACK
6
CONTINUOUS
10
234.7412499999999795
20
-81.4681250000000006
11
234.7412499999999795
21
-62.5181249999999977
0
LINE
8
BLACK
6
CONTINUOUS
10
234.7412499999999795
20
-62.5181249999999977
11
225.2662499999999852
21
-62.5181249999999977
0
LINE
8
BLACK
6
CONTINUOUS
10
225.2662499999999852
20
-62.5181249999999977
11
215.7912499999999909
21
-62.5181249999999977
0
LINE
8
BLACK
6
CONTINUOUS
10
196.7412499999999795
20
-62.5181249999999977
11
196.7412499999999795
21
-81.4681250000000006
0
LINE
8
BLACK
6
CONTINUOUS
10
196.7412499999999795
20
-81.4681250000000006
11
210.9787499999999909
21
-81.4681250000000006
0
LINE
8
BLACK
6
CONTINUOUS
10
210.9787499999999909
20
-81.4681250000000006
11
215.6912499999999966
21
-81.4681250000000006
0
LINE
8
BLACK
6
CONTINUOUS
10
215.6912499999999966
20
-81.4681250000000006
11
215.6912499999999966
21
-62.5181249999999977
0
LINE
8
BLACK
6
CONTINUOUS
10
215.6912499999999966
20
-62.5181249999999977
11
206.2162500000000023
21
-62.5181249999999977
0
LINE
8
BLACK
6
CONTINUOUS
10
206.2162500000000023
20
-62.5181249999999977
11
196.7412499999999795
21
-62.5181249999999977
0
LINE
8
BLACK
6
CONTINUOUS
10
177.6912499999999966
20
-62.5181249999999977
11
177.6912499999999966
21
-81.4681250000000006
0
LINE
8
BLACK
6
CONTINUOUS
10
177.6912499999999966
20
-81.4681250000000006
11
191.9287499999999795
21
-81.4681250000000006
0
LINE
8
BLACK
6
CONTINUOUS
10
191.9287499999999795
20
-81.4681250000000006
11
196.6412499999999852
21
-81.4681250000000006
0
LINE
8
BLACK
6
CONTINUOUS
10
196.6412499999999852
20
-81.4681250000000006
11
196.6412499999999852
21
-62.5181249999999977
0
LINE
8
BLACK
6
CONTINUOUS
10
196.6412499999999852
20
-62.5181249999999977
11
187.1662499999999909
21
-62.5181249999999977
0
LINE
8
BLACK
6
CONTINUOUS
10
187.1662499999999909
20
-62.5181249999999977
11
177.6912499999999966
21
-62.5181249999999977
0
LINE
8
BLACK
6
CONTINUOUS
10
158.6412499999999852
20
-62.5181249999999977
11
158.6412499999999852
21
-81.4681250000000006
0
LINE
8
BLACK
6
CONTINUOUS
10
158.6412499999999852
20
-81.4681250000000006
11
177.5912500000000023
21
-81.4681250000000006
0
LINE
8
BLACK
6
CONTINUOUS
10
177.5912500000000023
20
-81.4681250000000006
11
177.5912500000000023
21
-62.5181249999999977
0
LINE
8
BLACK
6
CONTINUOUS
10
177.5912500000000023
20
-62.5181249999999977
11
168.1162499999999795
21
-62.5181249999999977
0
LINE
8
BLACK
6
CONTINUOUS
10
168.1162499999999795
20
-62.5181249999999977
11
158.6412499999999852
21
-62.5181249999999977
0
LINE
8
BLACK
6
CONTINUOUS
10
139.5912500000000023
20
-62.5181249999999977
11
139.5912500000000023
21
-81.4681250000000006
0
LINE
8
BLACK
6
CONTINUOUS
10
139.5912500000000023
20
-81.4681250000000006
11
153.8287499999999852
21
-81.4681250000000006
0
LINE
8
BLACK
6
CONTINUOUS
10
153.8287499999999852
20
-81.4681250000000006
11
158.5412499999999909
21
-81.4681250000000006
0
LINE
8
BLACK
6
CONTINUOUS
10
158.5412499999999909
20
-81.4681250000000006
11
158.5412499999999909
21
-62.5181249999999977
0
LINE
8
BLACK
6
CONTINUOUS
10
158.5412499999999909
20
-62.5181249999999977
11
149.0662499999999966
21
-62.5181249999999977
0
LINE
8
BLACK
6
CONTINUOUS
10
149.0662499999999966
20
-62.5181249999999977
11
139.5912500000000023
21
-62.5181249999999977
0
LINE
8
BLACK
6
CONTINUOUS
10
120.5412499999999909
20
-62.5181249999999977
11
120.5412499999999909
21
-81.4681250000000006
0
LINE
8
BLACK
6
CONTINUOUS
10
120.5412499999999909
20
-81.4681250000000006
11
134.7787500000000023
21
-81.4681250000000006
0
LINE
8
BLACK
6
CONTINUOUS
10
134.7787500000000023
20
-81.4681250000000006
11
139.4912499999999795
21
-81.4681250000000006
0
LINE
8
BLACK
6
CONTINUOUS
10
139.4912499999999795
20
-81.4681250000000006
11
139.4912499999999795
21
-62.5181249999999977
0
LINE
8
BLACK
6
CONTINUOUS
10
139.4912499999999795
20
-62.5181249999999977
11
130.0162499999999852
21
-62.5181249999999977
0
LINE
8
BLACK
6
CONTINUOUS
10
130.0162499999999852
20
-62.5181249999999977
11
120.5412499999999909
21
-62.5181249999999977
0
LINE
8
BLACK
6
CONTINUOUS
10
101.4912499999999937
20
-62.5181249999999977
11
101.4912499999999937
21
-81.4681250000000006
0
LINE
8
BLACK
6
CONTINUOUS
10
101.4912499999999937
20
-81.4681250000000006
11
120.4412499999999966
21
-81.4681250000000006
0
LINE
8
BLACK
6
CONTINUOUS
10
120.4412499999999966
20
-81.4681250000000006
11
120.4412499999999966
21
-62.5181249999999977
0
LINE
8
BLACK
6
CONTINUOUS
10
120.4412499999999966
20
-62.5181249999999977
11
110.9662499999999881
21
-62.5181249999999977
0
LINE
8
BLACK
6
CONTINUOUS
10
110.9662499999999881
20
-62.5181249999999977
11
101.4912499999999937
21
-62.5181249999999977
0
LINE
8
BLACK
6
CONTINUOUS
10
82.4412499999999966
20
-62.5181249999999977
11
82.4412499999999966
21
-81.4681250000000006
0
LINE
8
BLACK
6
CONTINUOUS
10
82.4412499999999966
20
-81.4681250000000006
11
96.6787499999999937
21
-81.4681250000000006
0
LINE
8
BLACK
6
CONTINUOUS
10
96.6787499999999937
20
-81.4681250000000006
11
101.3912499999999994
21
-81.4681250000000006
0
LINE
8
BLACK
6
CONTINUOUS
10
101.3912499999999994
20
-81.4681250000000006
11
101.3912499999999994
21
-62.5181249999999977
0
LINE
8
BLACK
6
CONTINUOUS
10
101.3912499999999994
20
-62.5181249999999977
11
91.9162499999999909
21
-62.5181249999999977
0
LINE
8
BLACK
6
CONTINUOUS
10
91.9162499999999909
20
-62.5181249999999977
11
82.4412499999999966
21
-62.5181249999999977
0
LINE
8
BLACK
6
CONTINUOUS
10
63.3912499999999994
20
-62.5181249999999977
11
63.3912499999999994
21
-81.4681250000000006
0
LINE
8
BLACK
6
CONTINUOUS
10
63.3912499999999994
20
-81.4681250000000006
11
77.6287499999999966
21
-81.4681250000000006
0
LINE
8
BLACK
6
CONTINUOUS
10
77.6287499999999966
20
-81.4681250000000006
11
82.3412500000000023
21
-81.4681250000000006
0
LINE
8
BLACK
6
CONTINUOUS
10
82.3412500000000023
20
-81.4681250000000006
11
82.3412500000000023
21
-62.5181249999999977
0
LINE
8
BLACK
6
CONTINUOUS
10
82.3412500000000023
20
-62.5181249999999977
11
72.8662499999999937
21
-62.5181249999999977
0
LINE
8
BLACK
6
CONTINUOUS
10
72.8662499999999937
20
-62.5181249999999977
11
63.3912499999999994
21
-62.5181249999999977
0
LINE
8
BLACK
6
CONTINUOUS
10
34.8162499999999966
20
-62.5181249999999977
11
34.8162499999999966
21
-81.4681250000000006
0
LINE
8
BLACK
6
CONTINUOUS
10
34.8162499999999966
20
-81.4681250000000006
11
63.291249999999998
21
-81.4681250000000006
0
LINE
8
BLACK
6
CONTINUOUS
10
63.291249999999998
20
-81.4681250000000006
11
63.291249999999998
21
-62.5181249999999977
0
LINE
8
BLACK
6
CONTINUOUS
10
63.291249999999998
20
-62.5181249999999977
11
53.8162499999999966
21
-62.5181249999999977
0
LINE
8
BLACK
6
CONTINUOUS
10
53.8162499999999966
20
-62.5181249999999977
11
34.8162499999999966
21
-62.5181249999999977
0
LINE
8
BLACK
6
CONTINUOUS
10
244.3662499999999795
20
-43.4681250000000006
11
244.3662499999999795
21
-62.4181249999999963
0
LINE
8
BLACK
6
CONTINUOUS
10
244.3662499999999795
20
-62.4181249999999963
11
258.6037499999999909
21
-62.4181249999999963
0
LINE
8
BLACK
6
CONTINUOUS
10
258.6037499999999909
20
-62.4181249999999963
11
263.3162499999999682
21
-62.4181249999999963
0
LINE
8
BLACK
6
CONTINUOUS
10
263.3162499999999682
20
-62.4181249999999963
11
263.3162499999999682
21
-43.4681250000000006
0
LINE
8
BLACK
6
CONTINUOUS
10
263.3162499999999682
20
-43.4681250000000006
11
244.3662499999999795
21
-43.4681250000000006
0
LINE
8
BLACK
6
CONTINUOUS
10
225.3162499999999966
20
-43.4681250000000006
11
225.3162499999999966
21
-62.4181249999999963
0
LINE
8
BLACK
6
CONTINUOUS
10
225.3162499999999966
20
-62.4181249999999963
11
234.7912499999999909
21
-62.4181249999999963
0
LINE
8
BLACK
6
CONTINUOUS
10
234.7912499999999909
20
-62.4181249999999963
11
244.2662499999999852
21
-62.4181249999999963
0
LINE
8
BLACK
6
CONTINUOUS
10
244.2662499999999852
20
-62.4181249999999963
11
244.2662499999999852
21
-43.4681250000000006
0
LINE
8
BLACK
6
CONTINUOUS
10
244.2662499999999852
20
-43.4681250000000006
11
239.5537499999999795
21
-43.4681250000000006
0
LINE
8
BLACK
6
CONTINUOUS
10
239.5537499999999795
20
-43.4681250000000006
11
225.3162499999999966
21
-43.4681250000000006
0
LINE
8
BLACK
6
CONTINUOUS
10
206.2662499999999852
20
-43.4681250000000006
11
206.2662499999999852
21
-62.4181249999999963
0
LINE
8
BLACK
6
CONTINUOUS
10
206.2662499999999852
20
-62.4181249999999963
11
215.7412499999999795
21
-62.4181249999999963
0
LINE
8
BLACK
6
CONTINUOUS
10
215.7412499999999795
20
-62.4181249999999963
11
225.2162500000000023
21
-62.4181249999999963
0
LINE
8
BLACK
6
CONTINUOUS
10
225.2162500000000023
20
-62.4181249999999963
11
225.2162500000000023
21
-43.4681250000000006
0
LINE
8
BLACK
6
CONTINUOUS
10
225.2162500000000023
20
-43.4681250000000006
11
220.5037499999999966
21
-43.4681250000000006
0
LINE
8
BLACK
6
CONTINUOUS
10
220.5037499999999966
20
-43.4681250000000006
11
206.2662499999999852
21
-43.4681250000000006
0
LINE
8
BLACK
6
CONTINUOUS
10
187.2162500000000023
20
-43.4681250000000006
11
187.2162500000000023
21
-62.4181249999999963
0
LINE
8
BLACK
6
CONTINUOUS
10
187.2162500000000023
20
-62.4181249999999963
11
196.6912499999999966
21
-62.4181249999999963
0
LINE
8
BLACK
6
CONTINUOUS
10
196.6912499999999966
20
-62.4181249999999963
11
206.1662499999999909
21
-62.4181249999999963
0
LINE
8
BLACK
6
CONTINUOUS
10
206.1662499999999909
20
-62.4181249999999963
11
206.1662499999999909
21
-43.4681250000000006
0
LINE
8
BLACK
6
CONTINUOUS
10
206.1662499999999909
20
-43.4681250000000006
11
201.4537499999999852
21
-43.4681250000000006
0
LINE
8
BLACK
6
CONTINUOUS
10
201.4537499999999852
20
-43.4681250000000006
11
187.2162500000000023
21
-43.4681250000000006
0
LINE
8
BLACK
6
CONTINUOUS
10
168.1662499999999909
20
-43.4681250000000006
11
168.1662499999999909
21
-62.4181249999999963
0
LINE
8
BLACK
6
CONTINUOUS
10
168.1662499999999909
20
-62.4181249999999963
11
177.6412499999999852
21
-62.4181249999999963
0
LINE
8
BLACK
6
CONTINUOUS
10
177.6412499999999852
20
-62.4181249999999963
11
187.1162499999999795
21
-62.4181249999999963
0
LINE
8
BLACK
6
CONTINUOUS
10
187.1162499999999795
20
-62.4181249999999963
11
187.1162499999999795
21
-43.4681250000000006
0
LINE
8
BLACK
6
CONTINUOUS
10
187.1162499999999795
20
-43.4681250000000006
11
182.4037500000000023
21
-43.4681250000000006
0
LINE
8
BLACK
6
CONTINUOUS
10
182.4037500000000023
20
-43.4681250000000006
11
168.1662499999999909
21
-43.4681250000000006
0
LINE
8
BLACK
6
CONTINUOUS
10
149.1162499999999795
20
-43.4681250000000006
11
149.1162499999999795
21
-62.4181249999999963
0
LINE
8
BLACK
6
CONTINUOUS
10
149.1162499999999795
20
-62.4181249999999963
11
158.5912500000000023
21
-62.4181249999999963
0
LINE
8
BLACK
6
CONTINUOUS
10
158.5912500000000023
20
-62.4181249999999963
11
168.0662499999999966
21
-62.4181249999999963
0
LINE
8
BLACK
6
CONTINUOUS
10
168.0662499999999966
20
-62.4181249999999963
11
168.0662499999999966
21
-43.4681250000000006
0
LINE
8
BLACK
6
CONTINUOUS
10
168.0662499999999966
20
-43.4681250000000006
11
163.3537499999999909
21
-43.4681250000000006
0
LINE
8
BLACK
6
CONTINUOUS
10
163.3537499999999909
20
-43.4681250000000006
11
149.1162499999999795
21
-43.4681250000000006
0
LINE
8
BLACK
6
CONTINUOUS
10
130.0662499999999966
20
-43.4681250000000006
11
130.0662499999999966
21
-62.4181249999999963
0
LINE
8
BLACK
6
CONTINUOUS
10
130.0662499999999966
20
-62.4181249999999963
11
139.5412499999999909
21
-62.4181249999999963
0
LINE
8
BLACK
6
CONTINUOUS
10
139.5412499999999909
20
-62.4181249999999963
11
149.0162499999999852
21
-62.4181249999999963
0
LINE
8
BLACK
6
CONTINUOUS
10
149.0162499999999852
20
-62.4181249999999963
11
149.0162499999999852
21
-43.4681250000000006
0
LINE
8
BLACK
6
CONTINUOUS
10
149.0162499999999852
20
-43.4681250000000006
11
144.3037499999999795
21
-43.4681250000000006
0
LINE
8
BLACK
6
CONTINUOUS
10
144.3037499999999795
20
-43.4681250000000006
11
130.0662499999999966
21
-43.4681250000000006
0
LINE
8
BLACK
6
CONTINUOUS
10
111.0162499999999994
20
-43.4681250000000006
11
111.0162499999999994
21
-62.4181249999999963
0
LINE
8
BLACK
6
CONTINUOUS
10
111.0162499999999994
20
-62.4181249999999963
11
120.4912499999999937
21
-62.4181249999999963
0
LINE
8
BLACK
6
CONTINUOUS
10
120.4912499999999937
20
-62.4181249999999963
11
129.9662500000000023
21
-62.4181249999999963
0
LINE
8
BLACK
6
CONTINUOUS
10
129.9662500000000023
20
-62.4181249999999963
11
129.9662500000000023
21
-43.4681250000000006
0
LINE
8
BLACK
6
CONTINUOUS
10
129.9662500000000023
20
-43.4681250000000006
11
125.2537499999999966
21
-43.4681250000000006
0
LINE
8
BLACK
6
CONTINUOUS
10
125.2537499999999966
20
-43.4681250000000006
11
111.0162499999999994
21
-43.4681250000000006
0
LINE
8
BLACK
6
CONTINUOUS
10
91.9662500000000023
20
-43.4681250000000006
11
91.9662500000000023
21
-62.4181249999999963
0
LINE
8
BLACK
6
CONTINUOUS
10
91.9662500000000023
20
-62.4181249999999963
11
101.4412499999999966
21
-62.4181249999999963
0
LINE
8
BLACK
6
CONTINUOUS
10
101.4412499999999966
20
-62.4181249999999963
11
110.9162499999999909
21
-62.4181249999999963
0
LINE
8
BLACK
6
CONTINUOUS
10
110.9162499999999909
20
-62.4181249999999963
11
110.9162499999999909
21
-43.4681250000000006
0
LINE
8
BLACK
6
CONTINUOUS
10
110.9162499999999909
20
-43.4681250000000006
11
106.2037499999999994
21
-43.4681250000000006
0
LINE
8
BLACK
6
CONTINUOUS
10
106.2037499999999994
20
-43.4681250000000006
11
91.9662500000000023
21
-43.4681250000000006
0
LINE
8
BLACK
6
CONTINUOUS
10
72.9162499999999909
20
-43.4681250000000006
11
72.9162499999999909
21
-62.4181249999999963
0
LINE
8
BLACK
6
CONTINUOUS
10
72.9162499999999909
20
-62.4181249999999963
11
82.3912499999999994
21
-62.4181249999999963
0
LINE
8
BLACK
6
CONTINUOUS
10
82.3912499999999994
20
-62.4181249999999963
11
91.8662499999999937
21
-62.4181249999999963
0
LINE
8
BLACK
6
CONTINUOUS
10
91.8662499999999937
20
-62.4181249999999963
11
91.8662499999999937
21
-43.4681250000000006
0
LINE
8
BLACK
6
CONTINUOUS
10
91.8662499999999937
20
-43.4681250000000006
11
87.1537500000000023
21
-43.4681250000000006
0
LINE
8
BLACK
6
CONTINUOUS
10
87.1537500000000023
20
-43.4681250000000006
11
72.9162499999999909
21
-43.4681250000000006
0
LINE
8
BLACK
6
CONTINUOUS
10
53.8662500000000009
20
-43.4681250000000006
11
53.8662500000000009
21
-62.4181249999999963
0
LINE
8
BLACK
6
CONTINUOUS
10
53.8662500000000009
20
-62.4181249999999963
11
63.3412499999999952
21
-62.4181249999999963
0
LINE
8
BLACK
6
CONTINUOUS
10
63.3412499999999952
20
-62.4181249999999963
11
72.8162499999999966
21
-62.4181249999999963
0
LINE
8
BLACK
6
CONTINUOUS
10
72.8162499999999966
20
-62.4181249999999963
11
72.8162499999999966
21
-43.4681250000000006
0
LINE
8
BLACK
6
CONTINUOUS
10
72.8162499999999966
20
-43.4681250000000006
11
68.1037499999999909
21
-43.4681250000000006
0
LINE
8
BLACK
6
CONTINUOUS
10
68.1037499999999909
20
-43.4681250000000006
11
53.8662500000000009
21
-43.4681250000000006
0
LINE
8
BLACK
6
CONTINUOUS
10
30.0537499999999973
20
-43.4681250000000006
11
30.0537499999999973
21
-62.4181249999999963
0
LINE
8
BLACK
6
CONTINUOUS
10
30.0537499999999973
20
-62.4181249999999963
11
53.7662499999999994
21
-62.4181249999999963
0
LINE
8
BLACK
6
CONTINUOUS
10
53.7662499999999994
20
-62.4181249999999963
11
53.7662499999999994
21
-43.4681250000000006
0
LINE
8
BLACK
6
CONTINUOUS
10
53.7662499999999994
20
-43.4681250000000006
11
49.0537500000000009
21
-43.4681250000000006
0
LINE
8
BLACK
6
CONTINUOUS
10
49.0537500000000009
20
-43.4681250000000006
11
30.0537499999999973
21
-43.4681250000000006
0
LINE
8
BLACK
6
CONTINUOUS
10
239.6037499999999909
20
-24.4181249999999999
11
239.6037499999999909
21
-43.3681249999999991
0
LINE
8
BLACK
6
CONTINUOUS
10
239.6037499999999909
20
-43.3681249999999991
11
244.3162499999999966
21
-43.3681249999999991
0
LINE
8
BLACK
6
CONTINUOUS
10
244.3162499999999966
20
-43.3681249999999991
11
263.3162499999999682
21
-43.3681249999999991
0
LINE
8
BLACK
6
CONTINUOUS
10
263.3162499999999682
20
-43.3681249999999991
11
263.3162499999999682
21
-24.4181249999999999
0
LINE
8
BLACK
6
CONTINUOUS
10
263.3162499999999682
20
-24.4181249999999999
11
239.6037499999999909
21
-24.4181249999999999
0
LINE
8
BLACK
6
CONTINUOUS
10
220.5537499999999795
20
-24.4181249999999999
11
220.5537499999999795
21
-43.3681249999999991
0
LINE
8
BLACK
6
CONTINUOUS
10
220.5537499999999795
20
-43.3681249999999991
11
225.2662499999999852
21
-43.3681249999999991
0
LINE
8
BLACK
6
CONTINUOUS
10
225.2662499999999852
20
-43.3681249999999991
11
239.5037499999999966
21
-43.3681249999999991
0
LINE
8
BLACK
6
CONTINUOUS
10
239.5037499999999966
20
-43.3681249999999991
11
239.5037499999999966
21
-24.4181249999999999
0
LINE
8
BLACK
6
CONTINUOUS
10
239.5037499999999966
20
-24.4181249999999999
11
220.5537499999999795
21
-24.4181249999999999
0
LINE
8
BLACK
6
CONTINUOUS
10
201.5037499999999966
20
-24.4181249999999999
11
201.5037499999999966
21
-43.3681249999999991
0
LINE
8
BLACK
6
CONTINUOUS
10
201.5037499999999966
20
-43.3681249999999991
11
206.2162500000000023
21
-43.3681249999999991
0
LINE
8
BLACK
6
CONTINUOUS
10
206.2162500000000023
20
-43.3681249999999991
11
220.4537499999999852
21
-43.3681249999999991
0
LINE
8
BLACK
6
CONTINUOUS
10
220.4537499999999852
20
-43.3681249999999991
11
220.4537499999999852
21
-24.4181249999999999
0
LINE
8
BLACK
6
CONTINUOUS
10
220.4537499999999852
20
-24.4181249999999999
11
201.5037499999999966
21
-24.4181249999999999
0
LINE
8
BLACK
6
CONTINUOUS
10
182.4537499999999852
20
-24.4181249999999999
11
182.4537499999999852
21
-43.3681249999999991
0
LINE
8
BLACK
6
CONTINUOUS
10
182.4537499999999852
20
-43.3681249999999991
11
187.1662499999999909
21
-43.3681249999999991
0
LINE
8
BLACK
6
CONTINUOUS
10
187.1662499999999909
20
-43.3681249999999991
11
201.4037500000000023
21
-43.3681249999999991
0
LINE
8
BLACK
6
CONTINUOUS
10
201.4037500000000023
20
-43.3681249999999991
11
201.4037500000000023
21
-24.4181249999999999
0
LINE
8
BLACK
6
CONTINUOUS
10
201.4037500000000023
20
-24.4181249999999999
11
182.4537499999999852
21
-24.4181249999999999
0
LINE
8
BLACK
6
CONTINUOUS
10
163.4037500000000023
20
-24.4181249999999999
11
163.4037500000000023
21
-43.3681249999999991
0
LINE
8
BLACK
6
CONTINUOUS
10
163.4037500000000023
20
-43.3681249999999991
11
168.1162499999999795
21
-43.3681249999999991
0
LINE
8
BLACK
6
CONTINUOUS
10
168.1162499999999795
20
-43.3681249999999991
11
182.3537499999999909
21
-43.3681249999999991
0
LINE
8
BLACK
6
CONTINUOUS
10
182.3537499999999909
20
-43.3681249999999991
11
182.3537499999999909
21
-24.4181249999999999
0
LINE
8
BLACK
6
CONTINUOUS
10
182.3537499999999909
20
-24.4181249999999999
11
163.4037500000000023
21
-24.4181249999999999
0
LINE
8
BLACK
6
CONTINUOUS
10
144.3537499999999909
20
-24.4181249999999999
11
144.3537499999999909
21
-43.3681249999999991
0
LINE
8
BLACK
6
CONTINUOUS
10
144.3537499999999909
20
-43.3681249999999991
11
149.0662499999999966
21
-43.3681249999999991
0
LINE
8
BLACK
6
CONTINUOUS
10
149.0662499999999966
20
-43.3681249999999991
11
163.3037499999999795
21
-43.3681249999999991
0
LINE
8
BLACK
6
CONTINUOUS
10
163.3037499999999795
20
-43.3681249999999991
11
163.3037499999999795
21
-24.4181249999999999
0
LINE
8
BLACK
6
CONTINUOUS
10
163.3037499999999795
20
-24.4181249999999999
11
144.3537499999999909
21
-24.4181249999999999
0
LINE
8
BLACK
6
CONTINUOUS
10
125.3037499999999937
20
-24.4181249999999999
11
125.3037499999999937
21
-43.3681249999999991
0
LINE
8
BLACK
6
CONTINUOUS
10
125.3037499999999937
20
-43.3681249999999991
11
130.0162499999999852
21
-43.3681249999999991
0
LINE
8
BLACK
6
CONTINUOUS
10
130.0162499999999852
20
-43.3681249999999991
11
144.2537499999999966
21
-43.3681249999999991
0
LINE
8
BLACK
6
CONTINUOUS
10
144.2537499999999966
20
-43.3681249999999991
11
144.2537499999999966
21
-24.4181249999999999
0
LINE
8
BLACK
6
CONTINUOUS
10
144.2537499999999966
20
-24.4181249999999999
11
125.3037499999999937
21
-24.4181249999999999
0
LINE
8
BLACK
6
CONTINUOUS
10
106.2537499999999966
20
-24.4181249999999999
11
106.2537499999999966
21
-43.3681249999999991
0
LINE
8
BLACK
6
CONTINUOUS
10
106.2537499999999966
20
-43.3681249999999991
11
110.9662499999999881
21
-43.3681249999999991
0
LINE
8
BLACK
6
CONTINUOUS
10
110.9662499999999881
20
-43.3681249999999991
11
125.2037499999999994
21
-43.3681249999999991
0
LINE
8
BLACK
6
CONTINUOUS
10
125.2037499999999994
20
-43.3681249999999991
11
125.2037499999999994
21
-24.4181249999999999
0
LINE
8
BLACK
6
CONTINUOUS
10
125.2037499999999994
20
-24.4181249999999999
11
106.2537499999999966
21
-24.4181249999999999
0
LINE
8
BLACK
6
CONTINUOUS
10
87.2037499999999994
20
-24.4181249999999999
11
87.2037499999999994
21
-43.3681249999999991
0
LINE
8
BLACK
6
CONTINUOUS
10
87.2037499999999994
20
-43.3681249999999991
11
91.9162499999999909
21
-43.3681249999999991
0
LINE
8
BLACK
6
CONTINUOUS
10
91.9162499999999909
20
-43.3681249999999991
11
106.1537500000000023
21
-43.3681249999999991
0
LINE
8
BLACK
6
CONTINUOUS
10
106.1537500000000023
20
-43.3681249999999991
11
106.1537500000000023
21
-24.4181249999999999
0
LINE
8
BLACK
6
CONTINUOUS
10
106.1537500000000023
20
-24.4181249999999999
11
87.2037499999999994
21
-24.4181249999999999
0
LINE
8
BLACK
6
CONTINUOUS
10
68.1537500000000023
20
-24.4181249999999999
11
68.1537500000000023
21
-43.3681249999999991
0
LINE
8
BLACK
6
CONTINUOUS
10
68.1537500000000023
20
-43.3681249999999991
11
72.8662499999999937
21
-43.3681249999999991
0
LINE
8
BLACK
6
CONTINUOUS
10
72.8662499999999937
20
-43.3681249999999991
11
87.1037499999999909
21
-43.3681249999999991
0
LINE
8
BLACK
6
CONTINUOUS
10
87.1037499999999909
20
-43.3681249999999991
11
87.1037499999999909
21
-24.4181249999999999
0
LINE
8
BLACK
6
CONTINUOUS
10
87.1037499999999909
20
-24.4181249999999999
11
68.1537500000000023
21
-24.4181249999999999
0
LINE
8
BLACK
6
CONTINUOUS
10
49.103749999999998
20
-24.4181249999999999
11
49.103749999999998
21
-43.3681249999999991
0
LINE
8
BLACK
6
CONTINUOUS
10
49.103749999999998
20
-43.3681249999999991
11
53.8162499999999966
21
-43.3681249999999991
0
LINE
8
BLACK
6
CONTINUOUS
10
53.8162499999999966
20
-43.3681249999999991
11
68.0537499999999937
21
-43.3681249999999991
0
LINE
8
BLACK
6
CONTINUOUS
10
68.0537499999999937
20
-43.3681249999999991
11
68.0537499999999937
21
-24.4181249999999999
0
LINE
8
BLACK
6
CONTINUOUS
10
68.0537499999999937
20
-24.4181249999999999
11
49.103749999999998
21
-24.4181249999999999
0
LINE
8
BLACK
6
CONTINUOUS
10
30.0537499999999973
20
-24.4181249999999999
11
30.0537499999999973
21
-43.3681249999999991
0
LINE
8
BLACK
6
CONTINUOUS
10
30.0537499999999973
20
-43.3681249999999991
11
49.0037499999999966
21
-43.3681249999999991
0
LINE
8
BLACK
6
CONTINUOUS
10
49.0037499999999966
20
-43.3681249999999991
11
49.0037499999999966
21
-24.4181249999999999
0
LINE
8
BLACK
6
CONTINUOUS
10
49.0037499999999966
20
-24.4181249999999999
11
30.0537499999999973
21
-24.4181249999999999
0
LINE
8
BLACK
6
CONTINUOUS
10
267.5812500000000114
20
-21.3499999999999979
11
267.8455700000000093
21
-21.3673179999999974
0
LINE
8
BLACK
6
CONTINUOUS
10
267.8455700000000093
20
-21.3673179999999974
11
268.1053679999999986
21
-21.4189889999999998
0
LINE
8
BLACK
6
CONTINUOUS
10
268.1053679999999986
20
-21.4189889999999998
11
268.3561990000000037
21
-21.5041289999999989
0
LINE
8
BLACK
6
CONTINUOUS
10
268.3561990000000037
20
-21.5041289999999989
11
268.5937710000000038
21
-21.6212820000000008
0
LINE
8
BLACK
6
CONTINUOUS
10
268.5937710000000038
20
-21.6212820000000008
11
268.8140179999999759
21
-21.7684420000000003
0
LINE
8
BLACK
6
CONTINUOUS
10
268.8140179999999759
20
-21.7684420000000003
11
269.0131729999999948
21
-21.943090999999999
0
LINE
8
BLACK
6
CONTINUOUS
10
269.0131729999999948
20
-21.943090999999999
11
269.1878279999999677
21
-22.1422409999999985
0
LINE
8
BLACK
6
CONTINUOUS
10
269.1878279999999677
20
-22.1422409999999985
11
269.3349929999999972
21
-22.3624849999999995
0
LINE
8
BLACK
6
CONTINUOUS
10
269.3349929999999972
20
-22.3624849999999995
11
269.4521510000000148
21
-22.6000540000000001
0
LINE
8
BLACK
6
CONTINUOUS
10
269.4521510000000148
20
-22.6000540000000001
11
269.5372979999999643
21
-22.8508829999999996
0
LINE
8
BLACK
6
CONTINUOUS
10
269.5372979999999643
20
-22.8508829999999996
11
269.5889750000000049
21
-23.1106799999999986
0
LINE
8
BLACK
6
CONTINUOUS
10
269.5889750000000049
20
-23.1106799999999986
11
269.6062999999999761
21
-23.375
0
LINE
8
BLACK
6
CONTINUOUS
10
269.6062999999999761
20
-23.375
11
269.6062499999999886
21
-23.375
0
LINE
8
BLACK
6
CONTINUOUS
10
269.6062499999999886
20
-23.375
11
269.6062499999999886
21
-102.375
0
LINE
8
BLACK
6
CONTINUOUS
10
269.6062499999999886
20
-102.375
11
269.5889260000000149
21
-102.6393130000000014
0
LINE
8
BLACK
6
CONTINUOUS
10
269.5889260000000149
20
-102.6393130000000014
11
269.5372489999999743
21
-102.8991039999999941
0
LINE
8
BLACK
6
CONTINUOUS
10
269.5372489999999743
20
-102.8991039999999941
11
269.4521049999999605
21
-103.149926999999991
0
LINE
8
BLACK
6
CONTINUOUS
10
269.4521049999999605
20
-103.149926999999991
11
269.3349499999999921
21
-103.3874899999999997
0
LINE
8
BLACK
6
CONTINUOUS
10
269.3349499999999921
20
-103.3874899999999997
11
269.1877880000000118
21
-103.6077279999999945
0
LINE
8
BLACK
6
CONTINUOUS
10
269.1877880000000118
20
-103.6077279999999945
11
269.0131379999999695
21
-103.8068739999999934
0
LINE
8
BLACK
6
CONTINUOUS
10
269.0131379999999695
20
-103.8068739999999934
11
268.8139879999999948
21
-103.9815189999999916
0
LINE
8
BLACK
6
CONTINUOUS
10
268.8139879999999948
20
-103.9815189999999916
11
268.5937460000000101
21
-104.1286750000000012
0
LINE
8
BLACK
6
CONTINUOUS
10
268.5937460000000101
20
-104.1286750000000012
11
268.3561799999999948
21
-104.2458239999999989
0
LINE
8
BLACK
6
CONTINUOUS
10
268.3561799999999948
20
-104.2458239999999989
11
268.1053549999999746
21
-104.3309619999999995
0
LINE
8
BLACK
6
CONTINUOUS
10
268.1053549999999746
20
-104.3309619999999995
11
267.8455629999999701
21
-104.382632000000001
0
LINE
8
BLACK
6
CONTINUOUS
10
267.8455629999999701
20
-104.382632000000001
11
267.5816249999999741
21
-104.3999249999999961
0
LINE
8
BLACK
6
CONTINUOUS
10
267.5816249999999741
20
-104.3999249999999961
11
267.5812500000000114
21
-104.3999999999999915
0
LINE
8
BLACK
6
CONTINUOUS
10
267.5812500000000114
20
-104.3999999999999915
11
267.5812490000000139
21
-104.3999999999999915
0
LINE
8
BLACK
6
CONTINUOUS
10
267.5812490000000139
20
-104.3999999999999915
11
25.5812499999999972
21
-104.3999999999999915
0
LINE
8
BLACK
6
CONTINUOUS
10
25.5812499999999972
20
-104.3999999999999915
11
25.3169339999999998
21
-104.3826759999999894
0
LINE
8
BLACK
6
CONTINUOUS
10
25.3169339999999998
20
-104.3826759999999894
11
25.0571409999999979
21
-104.3309999999999889
0
LINE
8
BLACK
6
CONTINUOUS
10
25.0571409999999979
20
-104.3309999999999889
11
24.8063159999999989
21
-104.2458559999999892
0
LINE
8
BLACK
6
CONTINUOUS
10
24.8063159999999989
20
-104.2458559999999892
11
24.5687499999999979
21
-104.1287009999999924
0
LINE
8
BLACK
6
CONTINUOUS
10
24.5687499999999979
20
-104.1287009999999924
11
24.3485079999999989
21
-103.9815409999999929
0
LINE
8
BLACK
6
CONTINUOUS
10
24.3485079999999989
20
-103.9815409999999929
11
24.1493590000000005
21
-103.8068909999999931
0
LINE
8
BLACK
6
CONTINUOUS
10
24.1493590000000005
20
-103.8068909999999931
11
23.9747089999999972
21
-103.6077420000000018
0
LINE
8
BLACK
6
CONTINUOUS
10
23.9747089999999972
20
-103.6077420000000018
11
23.8275489999999976
21
-103.3874999999999886
0
LINE
8
BLACK
6
CONTINUOUS
10
23.8275489999999976
20
-103.3874999999999886
11
23.7103939999999973
21
-103.1499340000000018
0
LINE
8
BLACK
6
CONTINUOUS
10
23.7103939999999973
20
-103.1499340000000018
11
23.6252499999999976
21
-102.8991089999999957
0
LINE
8
BLACK
6
CONTINUOUS
10
23.6252499999999976
20
-102.8991089999999957
11
23.5735740000000007
21
-102.6393159999999938
0
LINE
8
BLACK
6
CONTINUOUS
10
23.5735740000000007
20
-102.6393159999999938
11
23.5562499999999986
21
-102.375
0
LINE
8
BLACK
6
CONTINUOUS
10
23.5562499999999986
20
-102.375
11
23.5562499999999986
21
-23.375
0
LINE
8
BLACK
6
CONTINUOUS
10
23.5562499999999986
20
-23.375
11
23.5735740000000007
21
-23.1106839999999991
0
LINE
8
BLACK
6
CONTINUOUS
10
23.5735740000000007
20
-23.1106839999999991
11
23.6252499999999976
21
-22.8508910000000007
0
LINE
8
BLACK
6
CONTINUOUS
10
23.6252499999999976
20
-22.8508910000000007
11
23.7103939999999973
21
-22.6000659999999982
0
LINE
8
BLACK
6
CONTINUOUS
10
23.7103939999999973
20
-22.6000659999999982
11
23.8275489999999976
21
-22.3625000000000007
0
LINE
8
BLACK
6
CONTINUOUS
10
23.8275489999999976
20
-22.3625000000000007
11
23.9747089999999972
21
-22.1422579999999982
0
LINE
8
BLACK
6
CONTINUOUS
10
23.9747089999999972
20
-22.1422579999999982
11
24.1493590000000005
21
-21.9431089999999998
0
LINE
8
BLACK
6
CONTINUOUS
10
24.1493590000000005
20
-21.9431089999999998
11
24.3485079999999989
21
-21.768459
0
LINE
8
BLACK
6
CONTINUOUS
10
24.3485079999999989
20
-21.768459
11
24.5687499999999979
21
-21.6212990000000005
0
LINE
8
BLACK
6
CONTINUOUS
10
24.5687499999999979
20
-21.6212990000000005
11
24.8063159999999989
21
-21.5041440000000001
0
LINE
8
BLACK
6
CONTINUOUS
10
24.8063159999999989
20
-21.5041440000000001
11
25.0571409999999979
21
-21.4190000000000005
0
LINE
8
BLACK
6
CONTINUOUS
10
25.0571409999999979
20
-21.4190000000000005
11
25.3169339999999998
21
-21.367324
0
LINE
8
BLACK
6
CONTINUOUS
10
25.3169339999999998
20
-21.367324
11
25.5812499999999972
21
-21.3499999999999979
0
LINE
8
BLACK
6
CONTINUOUS
10
25.5812499999999972
20
-21.3499999999999979
11
267.5812500000000114
21
-21.3499999999999979
0
LINE
8
BLACK
6
CONTINUOUS
10
267.5812510000000088
20
-21.3999999999999986
11
267.5812500000000114
21
-21.3999989999999976
0
LINE
8
BLACK
6
CONTINUOUS
10
267.5812500000000114
20
-21.3999989999999976
11
267.5812500000000114
21
-21.3999999999999986
0
LINE
8
BLACK
6
CONTINUOUS
10
267.5812500000000114
20
-21.3999999999999986
11
25.5812499999999972
21
-21.3999999999999986
0
LINE
8
BLACK
6
CONTINUOUS
10
25.5812499999999972
20
-21.3999999999999986
11
25.4518019999999972
21
-21.3999999999999986
0
LINE
8
BLACK
6
CONTINUOUS
10
25.4518019999999972
20
-21.3999999999999986
11
25.1951199999999993
21
-21.4337929999999979
0
LINE
8
BLACK
6
CONTINUOUS
10
25.1951199999999993
20
-21.4337929999999979
11
24.9450450000000004
21
-21.5007999999999981
0
LINE
8
BLACK
6
CONTINUOUS
10
24.9450450000000004
20
-21.5007999999999981
11
24.7058549999999997
21
-21.5998749999999973
0
LINE
8
BLACK
6
CONTINUOUS
10
24.7058549999999997
20
-21.5998749999999973
11
24.4816439999999993
21
-21.7293239999999983
0
LINE
8
BLACK
6
CONTINUOUS
10
24.4816439999999993
20
-21.7293239999999983
11
24.2762479999999989
21
-21.8869299999999996
0
LINE
8
BLACK
6
CONTINUOUS
10
24.2762479999999989
20
-21.8869299999999996
11
24.0931800000000003
21
-22.0699979999999982
0
LINE
8
BLACK
6
CONTINUOUS
10
24.0931800000000003
20
-22.0699979999999982
11
23.935573999999999
21
-22.2753939999999986
0
LINE
8
BLACK
6
CONTINUOUS
10
23.935573999999999
20
-22.2753939999999986
11
23.806124999999998
21
-22.499604999999999
0
LINE
8
BLACK
6
CONTINUOUS
10
23.806124999999998
20
-22.499604999999999
11
23.7070499999999988
21
-22.7387949999999996
0
LINE
8
BLACK
6
CONTINUOUS
10
23.7070499999999988
20
-22.7387949999999996
11
23.6400429999999986
21
-22.9888699999999986
0
LINE
8
BLACK
6
CONTINUOUS
10
23.6400429999999986
20
-22.9888699999999986
11
23.6062499999999993
21
-23.245552
0
LINE
8
BLACK
6
CONTINUOUS
10
23.6062499999999993
20
-23.245552
11
23.6062499999999993
21
-23.375
0
LINE
8
BLACK
6
CONTINUOUS
10
23.6062499999999993
20
-23.375
11
23.6062499999999993
21
-102.375
0
LINE
8
BLACK
6
CONTINUOUS
10
23.6062499999999993
20
-102.375
11
23.6062499999999993
21
-102.5044479999999965
0
LINE
8
BLACK
6
CONTINUOUS
10
23.6062499999999993
20
-102.5044479999999965
11
23.6400429999999986
21
-102.7611299999999943
0
LINE
8
BLACK
6
CONTINUOUS
10
23.6400429999999986
20
-102.7611299999999943
11
23.7070499999999988
21
-103.0112049999999897
0
LINE
8
BLACK
6
CONTINUOUS
10
23.7070499999999988
20
-103.0112049999999897
11
23.806124999999998
21
-103.2503949999999975
0
LINE
8
BLACK
6
CONTINUOUS
10
23.806124999999998
20
-103.2503949999999975
11
23.935573999999999
21
-103.4746059999999943
0
LINE
8
BLACK
6
CONTINUOUS
10
23.935573999999999
20
-103.4746059999999943
11
24.0931800000000003
21
-103.6800020000000018
0
LINE
8
BLACK
6
CONTINUOUS
10
24.0931800000000003
20
-103.6800020000000018
11
24.2762479999999989
21
-103.8630699999999933
0
LINE
8
BLACK
6
CONTINUOUS
10
24.2762479999999989
20
-103.8630699999999933
11
24.4816439999999993
21
-104.0206759999999946
0
LINE
8
BLACK
6
CONTINUOUS
10
24.4816439999999993
20
-104.0206759999999946
11
24.7058549999999997
21
-104.1501249999999885
0
LINE
8
BLACK
6
CONTINUOUS
10
24.7058549999999997
20
-104.1501249999999885
11
24.9450450000000004
21
-104.2492000000000019
0
LINE
8
BLACK
6
CONTINUOUS
10
24.9450450000000004
20
-104.2492000000000019
11
25.1951199999999993
21
-104.3162069999999915
0
LINE
8
BLACK
6
CONTINUOUS
10
25.1951199999999993
20
-104.3162069999999915
11
25.4518019999999972
21
-104.3499999999999943
0
LINE
8
BLACK
6
CONTINUOUS
10
25.4518019999999972
20
-104.3499999999999943
11
25.5812499999999972
21
-104.3499999999999943
0
LINE
8
BLACK
6
CONTINUOUS
10
25.5812499999999972
20
-104.3499999999999943
11
267.5812500000000114
21
-104.3499999999999943
0
LINE
8
BLACK
6
CONTINUOUS
10
267.5812500000000114
20
-104.3499999999999943
11
267.5812510000000088
21
-104.3499999999999943
0
LINE
8
BLACK
6
CONTINUOUS
10
267.5812510000000088
20
-104.3499999999999943
11
267.5812510000000088
21
-104.3499499999999927
0
LINE
8
BLACK
6
CONTINUOUS
10
267.5812510000000088
20
-104.3499499999999927
11
267.7106979999999794
21
-104.3499539999999968
0
LINE
8
BLACK
6
CONTINUOUS
10
267.7106979999999794
20
-104.3499539999999968
11
267.9673779999999965
21
-104.316166999999993
0
LINE
8
BLACK
6
CONTINUOUS
10
267.9673779999999965
20
-104.316166999999993
11
268.2174519999999802
21
-104.2491649999999908
0
LINE
8
BLACK
6
CONTINUOUS
10
268.2174519999999802
20
-104.2491649999999908
11
268.4566409999999905
21
-104.1500949999999932
0
LINE
8
BLACK
6
CONTINUOUS
10
268.4566409999999905
20
-104.1500949999999932
11
268.6808520000000158
21
-104.0206519999999983
0
LINE
8
BLACK
6
CONTINUOUS
10
268.6808520000000158
20
-104.0206519999999983
11
268.8862489999999639
21
-103.8630500000000012
0
LINE
8
BLACK
6
CONTINUOUS
10
268.8862489999999639
20
-103.8630500000000012
11
269.0693170000000123
21
-103.6799859999999995
0
LINE
8
BLACK
6
CONTINUOUS
10
269.0693170000000123
20
-103.6799859999999995
11
269.2269239999999968
21
-103.4745929999999987
0
LINE
8
BLACK
6
CONTINUOUS
10
269.2269239999999968
20
-103.4745929999999987
11
269.3563729999999623
21
-103.2503849999999943
0
LINE
8
BLACK
6
CONTINUOUS
10
269.3563729999999623
20
-103.2503849999999943
11
269.4554489999999873
21
-103.0111989999999906
0
LINE
8
BLACK
6
CONTINUOUS
10
269.4554489999999873
20
-103.0111989999999906
11
269.5224569999999744
21
-102.7611259999999902
0
LINE
8
BLACK
6
CONTINUOUS
10
269.5224569999999744
20
-102.7611259999999902
11
269.5562499999999773
21
-102.504446999999999
0
LINE
8
BLACK
6
CONTINUOUS
10
269.5562499999999773
20
-102.504446999999999
11
269.5562499999999773
21
-102.375
0
LINE
8
BLACK
6
CONTINUOUS
10
269.5562499999999773
20
-102.375
11
269.5562499999999773
21
-23.375
0
LINE
8
BLACK
6
CONTINUOUS
10
269.5562499999999773
20
-23.375
11
269.5562999999999647
21
-23.3747480000000003
0
LINE
8
BLACK
6
CONTINUOUS
10
269.5562999999999647
20
-23.3747480000000003
11
269.5562999999999647
21
-23.2455499999999979
0
LINE
8
BLACK
6
CONTINUOUS
10
269.5562999999999647
20
-23.2455499999999979
11
269.5225059999999644
21
-22.9888639999999995
0
LINE
8
BLACK
6
CONTINUOUS
10
269.5225059999999644
20
-22.9888639999999995
11
269.4554969999999798
21
-22.738785
0
LINE
8
BLACK
6
CONTINUOUS
10
269.4554969999999798
20
-22.738785
11
269.3564179999999624
21
-22.4995919999999998
0
LINE
8
BLACK
6
CONTINUOUS
10
269.3564179999999624
20
-22.4995919999999998
11
269.2269660000000044
21
-22.2753789999999974
0
LINE
8
BLACK
6
CONTINUOUS
10
269.2269660000000044
20
-22.2753789999999974
11
269.0693549999999732
21
-22.0699809999999985
0
LINE
8
BLACK
6
CONTINUOUS
10
269.0693549999999732
20
-22.0699809999999985
11
268.8862819999999942
21
-21.8869119999999988
0
LINE
8
BLACK
6
CONTINUOUS
10
268.8862819999999942
20
-21.8869119999999988
11
268.6808800000000019
21
-21.7293069999999986
0
LINE
8
BLACK
6
CONTINUOUS
10
268.6808800000000019
20
-21.7293069999999986
11
268.4566629999999918
21
-21.5998599999999996
0
LINE
8
BLACK
6
CONTINUOUS
10
268.4566629999999918
20
-21.5998599999999996
11
268.2174679999999967
21
-21.500786999999999
0
LINE
8
BLACK
6
CONTINUOUS
10
268.2174679999999967
20
-21.500786999999999
11
267.9673879999999713
21
-21.4337839999999993
0
LINE
8
BLACK
6
CONTINUOUS
10
267.9673879999999713
20
-21.4337839999999993
11
267.7107009999999718
21
-21.399996999999999
0
LINE
8
BLACK
6
CONTINUOUS
10
267.7107009999999718
20
-21.399996999999999
11
267.5812510000000088
21
-21.3999999999999986
  0
ENDSEC
  0
EOF
