M48
; DRILL file {KiCad 8.0.8} date 2025-03-12T13:11:00+0100
; FORMAT={-:-/ absolute / metric / decimal}
; #@! TF.CreationDate,2025-03-12T13:11:00+01:00
; #@! TF.GenerationSoftware,Kicad,Pcbnew,8.0.8
; #@! TF.FileFunction,NonPlated,1,2,NPTH
FMAT,2
METRIC
; #@! TA.AperFunction,NonPlated,NPTH,ComponentDrill
T1C1.750
; #@! TA.AperFunction,NonPlated,NPTH,ComponentDrill
T2C3.048
; #@! TA.AperFunction,NonPlated,NPTH,ComponentDrill
T3C3.988
; #@! TA.AperFunction,NonPlated,NPTH,ComponentDrill
T4C4.000
%
G90
G05
T1
X34.449Y-33.893
X36.83Y-52.943
X43.974Y-71.993
X44.609Y-33.893
X46.99Y-52.943
X53.499Y-33.893
X54.134Y-71.993
X58.261Y-52.943
X60.642Y-91.043
X63.659Y-33.893
X67.786Y-71.993
X68.421Y-52.943
X70.802Y-91.043
X72.549Y-33.893
X77.311Y-52.943
X77.946Y-71.993
X82.074Y-91.043
X82.709Y-33.893
X86.836Y-71.993
X87.471Y-52.943
X91.599Y-33.893
X92.234Y-91.043
X96.361Y-52.943
X96.996Y-71.993
X101.759Y-33.893
X105.886Y-71.993
X106.521Y-52.943
X110.649Y-33.893
X110.649Y-91.043
X115.411Y-52.943
X116.046Y-71.993
X120.809Y-33.893
X120.809Y-91.043
X124.936Y-71.993
X125.571Y-52.943
X129.699Y-33.893
X134.461Y-52.943
X135.096Y-71.993
X139.224Y-91.043
X139.859Y-33.893
X143.986Y-71.993
X144.621Y-52.943
X148.749Y-33.893
X149.384Y-91.043
X153.511Y-52.943
X154.146Y-71.993
X158.909Y-33.893
X163.036Y-71.993
X163.671Y-52.943
X167.799Y-33.893
X167.799Y-91.043
X172.561Y-52.943
X173.196Y-71.993
X177.959Y-33.893
X177.959Y-91.043
X182.086Y-71.993
X182.721Y-52.943
X186.849Y-33.893
X191.611Y-52.943
X192.246Y-71.993
X196.374Y-91.043
X197.009Y-33.893
X201.136Y-71.993
X201.771Y-52.943
X205.899Y-33.893
X206.534Y-91.043
X210.661Y-52.943
X211.296Y-71.993
X216.059Y-33.893
X217.805Y-91.043
X220.186Y-71.993
X220.821Y-52.943
X224.949Y-33.893
X227.965Y-91.043
X229.711Y-52.943
X230.346Y-71.993
X235.109Y-33.893
X239.871Y-52.943
X241.617Y-71.993
X246.38Y-33.893
X248.761Y-52.943
X251.777Y-71.993
X256.54Y-33.893
X258.921Y-52.943
T2
X103.791Y-83.203
X127.667Y-83.203
X160.941Y-83.203
X184.817Y-83.203
T3
X103.791Y-98.413
X127.667Y-98.413
X160.941Y-98.413
X184.817Y-98.413
T4
X39.529Y-33.893
X41.91Y-52.943
X49.054Y-71.993
X58.579Y-33.893
X63.341Y-52.943
X65.722Y-91.043
X72.866Y-71.993
X77.629Y-33.893
X82.391Y-52.943
X87.154Y-91.043
X91.916Y-71.993
X96.679Y-33.893
X101.441Y-52.943
X110.966Y-71.993
X115.729Y-33.893
X115.729Y-91.043
X120.491Y-52.943
X130.016Y-71.993
X134.779Y-33.893
X139.541Y-52.943
X144.304Y-91.043
X149.066Y-71.993
X153.829Y-33.893
X158.591Y-52.943
X168.116Y-71.993
X172.879Y-33.893
X172.879Y-91.043
X177.641Y-52.943
X187.166Y-71.993
X191.929Y-33.893
X196.691Y-52.943
X201.454Y-91.043
X206.216Y-71.993
X210.979Y-33.893
X215.741Y-52.943
X222.885Y-91.043
X225.266Y-71.993
X230.029Y-33.893
X234.791Y-52.943
X246.697Y-71.993
X251.46Y-33.893
X253.841Y-52.943
M30
