%TF.GenerationSoftware,KiCad,Pcbnew,9.0.5*%
%TF.CreationDate,2025-11-30T16:57:57+01:00*%
%TF.ProjectId,PancakeXXL V2-rounded,50616e63-616b-4655-9858-4c2056322d72,rev?*%
%TF.SameCoordinates,Original*%
%TF.FileFunction,Legend,Bot*%
%TF.FilePolarity,Positive*%
%FSLAX46Y46*%
G04 Gerber Fmt 4.6, Leading zero omitted, Abs format (unit mm)*
G04 Created by KiCad (PCBNEW 9.0.5) date 2025-11-30 16:57:57*
%MOMM*%
%LPD*%
G01*
G04 APERTURE LIST*
G04 Aperture macros list*
%AMRoundRect*
0 Rectangle with rounded corners*
0 $1 Rounding radius*
0 $2 $3 $4 $5 $6 $7 $8 $9 X,Y pos of 4 corners*
0 Add a 4 corners polygon primitive as box body*
4,1,4,$2,$3,$4,$5,$6,$7,$8,$9,$2,$3,0*
0 Add four circle primitives for the rounded corners*
1,1,$1+$1,$2,$3*
1,1,$1+$1,$4,$5*
1,1,$1+$1,$6,$7*
1,1,$1+$1,$8,$9*
0 Add four rect primitives between the rounded corners*
20,1,$1+$1,$2,$3,$4,$5,0*
20,1,$1+$1,$4,$5,$6,$7,0*
20,1,$1+$1,$6,$7,$8,$9,0*
20,1,$1+$1,$8,$9,$2,$3,0*%
G04 Aperture macros list end*
%ADD10C,0.150000*%
%ADD11C,0.120000*%
%ADD12RoundRect,0.150000X0.512500X0.150000X-0.512500X0.150000X-0.512500X-0.150000X0.512500X-0.150000X0*%
%ADD13C,1.750000*%
%ADD14C,4.000000*%
%ADD15C,2.500000*%
%ADD16C,3.048000*%
%ADD17C,3.987800*%
%ADD18RoundRect,0.225000X0.375000X-0.225000X0.375000X0.225000X-0.375000X0.225000X-0.375000X-0.225000X0*%
%ADD19RoundRect,0.225000X-0.225000X-0.250000X0.225000X-0.250000X0.225000X0.250000X-0.225000X0.250000X0*%
%ADD20RoundRect,0.225000X0.250000X-0.225000X0.250000X0.225000X-0.250000X0.225000X-0.250000X-0.225000X0*%
%ADD21R,1.800000X1.100000*%
%ADD22RoundRect,0.225000X-0.017678X0.335876X-0.335876X0.017678X0.017678X-0.335876X0.335876X-0.017678X0*%
%ADD23RoundRect,0.200000X0.275000X-0.200000X0.275000X0.200000X-0.275000X0.200000X-0.275000X-0.200000X0*%
%ADD24RoundRect,0.200000X-0.335876X-0.053033X-0.053033X-0.335876X0.335876X0.053033X0.053033X0.335876X0*%
%ADD25R,1.400000X1.100000*%
%ADD26RoundRect,0.225000X-0.335876X-0.017678X-0.017678X-0.335876X0.335876X0.017678X0.017678X0.335876X0*%
%ADD27RoundRect,0.225000X-0.250000X0.225000X-0.250000X-0.225000X0.250000X-0.225000X0.250000X0.225000X0*%
%ADD28RoundRect,0.225000X0.225000X0.250000X-0.225000X0.250000X-0.225000X-0.250000X0.225000X-0.250000X0*%
%ADD29RoundRect,0.200000X0.200000X0.275000X-0.200000X0.275000X-0.200000X-0.275000X0.200000X-0.275000X0*%
%ADD30RoundRect,0.050000X0.387500X0.050000X-0.387500X0.050000X-0.387500X-0.050000X0.387500X-0.050000X0*%
%ADD31RoundRect,0.050000X0.050000X0.387500X-0.050000X0.387500X-0.050000X-0.387500X0.050000X-0.387500X0*%
%ADD32R,3.200000X3.200000*%
%ADD33RoundRect,0.200000X-0.200000X-0.275000X0.200000X-0.275000X0.200000X0.275000X-0.200000X0.275000X0*%
%ADD34RoundRect,0.150000X0.650000X0.150000X-0.650000X0.150000X-0.650000X-0.150000X0.650000X-0.150000X0*%
%ADD35R,1.800000X1.200000*%
%ADD36R,1.550000X0.600000*%
G04 APERTURE END LIST*
D10*
X261468154Y-71729819D02*
X261468154Y-72539342D01*
X261468154Y-72539342D02*
X261420535Y-72634580D01*
X261420535Y-72634580D02*
X261372916Y-72682200D01*
X261372916Y-72682200D02*
X261277678Y-72729819D01*
X261277678Y-72729819D02*
X261087202Y-72729819D01*
X261087202Y-72729819D02*
X260991964Y-72682200D01*
X260991964Y-72682200D02*
X260944345Y-72634580D01*
X260944345Y-72634580D02*
X260896726Y-72539342D01*
X260896726Y-72539342D02*
X260896726Y-71729819D01*
X259896726Y-72729819D02*
X260468154Y-72729819D01*
X260182440Y-72729819D02*
X260182440Y-71729819D01*
X260182440Y-71729819D02*
X260277678Y-71872676D01*
X260277678Y-71872676D02*
X260372916Y-71967914D01*
X260372916Y-71967914D02*
X260468154Y-72015533D01*
X129026262Y-91489946D02*
X128026262Y-91489946D01*
X128026262Y-91489946D02*
X128026262Y-91728041D01*
X128026262Y-91728041D02*
X128073881Y-91870898D01*
X128073881Y-91870898D02*
X128169119Y-91966136D01*
X128169119Y-91966136D02*
X128264357Y-92013755D01*
X128264357Y-92013755D02*
X128454833Y-92061374D01*
X128454833Y-92061374D02*
X128597690Y-92061374D01*
X128597690Y-92061374D02*
X128788166Y-92013755D01*
X128788166Y-92013755D02*
X128883404Y-91966136D01*
X128883404Y-91966136D02*
X128978643Y-91870898D01*
X128978643Y-91870898D02*
X129026262Y-91728041D01*
X129026262Y-91728041D02*
X129026262Y-91489946D01*
X128026262Y-92394708D02*
X128026262Y-93013755D01*
X128026262Y-93013755D02*
X128407214Y-92680422D01*
X128407214Y-92680422D02*
X128407214Y-92823279D01*
X128407214Y-92823279D02*
X128454833Y-92918517D01*
X128454833Y-92918517D02*
X128502452Y-92966136D01*
X128502452Y-92966136D02*
X128597690Y-93013755D01*
X128597690Y-93013755D02*
X128835785Y-93013755D01*
X128835785Y-93013755D02*
X128931023Y-92966136D01*
X128931023Y-92966136D02*
X128978643Y-92918517D01*
X128978643Y-92918517D02*
X129026262Y-92823279D01*
X129026262Y-92823279D02*
X129026262Y-92537565D01*
X129026262Y-92537565D02*
X128978643Y-92442327D01*
X128978643Y-92442327D02*
X128931023Y-92394708D01*
X128454833Y-93585184D02*
X128407214Y-93489946D01*
X128407214Y-93489946D02*
X128359595Y-93442327D01*
X128359595Y-93442327D02*
X128264357Y-93394708D01*
X128264357Y-93394708D02*
X128216738Y-93394708D01*
X128216738Y-93394708D02*
X128121500Y-93442327D01*
X128121500Y-93442327D02*
X128073881Y-93489946D01*
X128073881Y-93489946D02*
X128026262Y-93585184D01*
X128026262Y-93585184D02*
X128026262Y-93775660D01*
X128026262Y-93775660D02*
X128073881Y-93870898D01*
X128073881Y-93870898D02*
X128121500Y-93918517D01*
X128121500Y-93918517D02*
X128216738Y-93966136D01*
X128216738Y-93966136D02*
X128264357Y-93966136D01*
X128264357Y-93966136D02*
X128359595Y-93918517D01*
X128359595Y-93918517D02*
X128407214Y-93870898D01*
X128407214Y-93870898D02*
X128454833Y-93775660D01*
X128454833Y-93775660D02*
X128454833Y-93585184D01*
X128454833Y-93585184D02*
X128502452Y-93489946D01*
X128502452Y-93489946D02*
X128550071Y-93442327D01*
X128550071Y-93442327D02*
X128645309Y-93394708D01*
X128645309Y-93394708D02*
X128835785Y-93394708D01*
X128835785Y-93394708D02*
X128931023Y-93442327D01*
X128931023Y-93442327D02*
X128978643Y-93489946D01*
X128978643Y-93489946D02*
X129026262Y-93585184D01*
X129026262Y-93585184D02*
X129026262Y-93775660D01*
X129026262Y-93775660D02*
X128978643Y-93870898D01*
X128978643Y-93870898D02*
X128931023Y-93918517D01*
X128931023Y-93918517D02*
X128835785Y-93966136D01*
X128835785Y-93966136D02*
X128645309Y-93966136D01*
X128645309Y-93966136D02*
X128550071Y-93918517D01*
X128550071Y-93918517D02*
X128502452Y-93870898D01*
X128502452Y-93870898D02*
X128454833Y-93775660D01*
X249586697Y-86438869D02*
X249634317Y-86391250D01*
X249634317Y-86391250D02*
X249681936Y-86248393D01*
X249681936Y-86248393D02*
X249681936Y-86153155D01*
X249681936Y-86153155D02*
X249634317Y-86010298D01*
X249634317Y-86010298D02*
X249539078Y-85915060D01*
X249539078Y-85915060D02*
X249443840Y-85867441D01*
X249443840Y-85867441D02*
X249253364Y-85819822D01*
X249253364Y-85819822D02*
X249110507Y-85819822D01*
X249110507Y-85819822D02*
X248920031Y-85867441D01*
X248920031Y-85867441D02*
X248824793Y-85915060D01*
X248824793Y-85915060D02*
X248729555Y-86010298D01*
X248729555Y-86010298D02*
X248681936Y-86153155D01*
X248681936Y-86153155D02*
X248681936Y-86248393D01*
X248681936Y-86248393D02*
X248729555Y-86391250D01*
X248729555Y-86391250D02*
X248777174Y-86438869D01*
X249681936Y-87391250D02*
X249681936Y-86819822D01*
X249681936Y-87105536D02*
X248681936Y-87105536D01*
X248681936Y-87105536D02*
X248824793Y-87010298D01*
X248824793Y-87010298D02*
X248920031Y-86915060D01*
X248920031Y-86915060D02*
X248967650Y-86819822D01*
X249110507Y-87962679D02*
X249062888Y-87867441D01*
X249062888Y-87867441D02*
X249015269Y-87819822D01*
X249015269Y-87819822D02*
X248920031Y-87772203D01*
X248920031Y-87772203D02*
X248872412Y-87772203D01*
X248872412Y-87772203D02*
X248777174Y-87819822D01*
X248777174Y-87819822D02*
X248729555Y-87867441D01*
X248729555Y-87867441D02*
X248681936Y-87962679D01*
X248681936Y-87962679D02*
X248681936Y-88153155D01*
X248681936Y-88153155D02*
X248729555Y-88248393D01*
X248729555Y-88248393D02*
X248777174Y-88296012D01*
X248777174Y-88296012D02*
X248872412Y-88343631D01*
X248872412Y-88343631D02*
X248920031Y-88343631D01*
X248920031Y-88343631D02*
X249015269Y-88296012D01*
X249015269Y-88296012D02*
X249062888Y-88248393D01*
X249062888Y-88248393D02*
X249110507Y-88153155D01*
X249110507Y-88153155D02*
X249110507Y-87962679D01*
X249110507Y-87962679D02*
X249158126Y-87867441D01*
X249158126Y-87867441D02*
X249205745Y-87819822D01*
X249205745Y-87819822D02*
X249300983Y-87772203D01*
X249300983Y-87772203D02*
X249491459Y-87772203D01*
X249491459Y-87772203D02*
X249586697Y-87819822D01*
X249586697Y-87819822D02*
X249634317Y-87867441D01*
X249634317Y-87867441D02*
X249681936Y-87962679D01*
X249681936Y-87962679D02*
X249681936Y-88153155D01*
X249681936Y-88153155D02*
X249634317Y-88248393D01*
X249634317Y-88248393D02*
X249586697Y-88296012D01*
X249586697Y-88296012D02*
X249491459Y-88343631D01*
X249491459Y-88343631D02*
X249300983Y-88343631D01*
X249300983Y-88343631D02*
X249205745Y-88296012D01*
X249205745Y-88296012D02*
X249158126Y-88248393D01*
X249158126Y-88248393D02*
X249110507Y-88153155D01*
X261336697Y-100363869D02*
X261384317Y-100316250D01*
X261384317Y-100316250D02*
X261431936Y-100173393D01*
X261431936Y-100173393D02*
X261431936Y-100078155D01*
X261431936Y-100078155D02*
X261384317Y-99935298D01*
X261384317Y-99935298D02*
X261289078Y-99840060D01*
X261289078Y-99840060D02*
X261193840Y-99792441D01*
X261193840Y-99792441D02*
X261003364Y-99744822D01*
X261003364Y-99744822D02*
X260860507Y-99744822D01*
X260860507Y-99744822D02*
X260670031Y-99792441D01*
X260670031Y-99792441D02*
X260574793Y-99840060D01*
X260574793Y-99840060D02*
X260479555Y-99935298D01*
X260479555Y-99935298D02*
X260431936Y-100078155D01*
X260431936Y-100078155D02*
X260431936Y-100173393D01*
X260431936Y-100173393D02*
X260479555Y-100316250D01*
X260479555Y-100316250D02*
X260527174Y-100363869D01*
X261431936Y-101316250D02*
X261431936Y-100744822D01*
X261431936Y-101030536D02*
X260431936Y-101030536D01*
X260431936Y-101030536D02*
X260574793Y-100935298D01*
X260574793Y-100935298D02*
X260670031Y-100840060D01*
X260670031Y-100840060D02*
X260717650Y-100744822D01*
X260527174Y-101697203D02*
X260479555Y-101744822D01*
X260479555Y-101744822D02*
X260431936Y-101840060D01*
X260431936Y-101840060D02*
X260431936Y-102078155D01*
X260431936Y-102078155D02*
X260479555Y-102173393D01*
X260479555Y-102173393D02*
X260527174Y-102221012D01*
X260527174Y-102221012D02*
X260622412Y-102268631D01*
X260622412Y-102268631D02*
X260717650Y-102268631D01*
X260717650Y-102268631D02*
X260860507Y-102221012D01*
X260860507Y-102221012D02*
X261431936Y-101649584D01*
X261431936Y-101649584D02*
X261431936Y-102268631D01*
X93473186Y-53298066D02*
X92473186Y-53298066D01*
X92473186Y-53298066D02*
X92473186Y-53536161D01*
X92473186Y-53536161D02*
X92520805Y-53679018D01*
X92520805Y-53679018D02*
X92616043Y-53774256D01*
X92616043Y-53774256D02*
X92711281Y-53821875D01*
X92711281Y-53821875D02*
X92901757Y-53869494D01*
X92901757Y-53869494D02*
X93044614Y-53869494D01*
X93044614Y-53869494D02*
X93235090Y-53821875D01*
X93235090Y-53821875D02*
X93330328Y-53774256D01*
X93330328Y-53774256D02*
X93425567Y-53679018D01*
X93425567Y-53679018D02*
X93473186Y-53536161D01*
X93473186Y-53536161D02*
X93473186Y-53298066D01*
X93473186Y-54821875D02*
X93473186Y-54250447D01*
X93473186Y-54536161D02*
X92473186Y-54536161D01*
X92473186Y-54536161D02*
X92616043Y-54440923D01*
X92616043Y-54440923D02*
X92711281Y-54345685D01*
X92711281Y-54345685D02*
X92758900Y-54250447D01*
X92473186Y-55726637D02*
X92473186Y-55250447D01*
X92473186Y-55250447D02*
X92949376Y-55202828D01*
X92949376Y-55202828D02*
X92901757Y-55250447D01*
X92901757Y-55250447D02*
X92854138Y-55345685D01*
X92854138Y-55345685D02*
X92854138Y-55583780D01*
X92854138Y-55583780D02*
X92901757Y-55679018D01*
X92901757Y-55679018D02*
X92949376Y-55726637D01*
X92949376Y-55726637D02*
X93044614Y-55774256D01*
X93044614Y-55774256D02*
X93282709Y-55774256D01*
X93282709Y-55774256D02*
X93377947Y-55726637D01*
X93377947Y-55726637D02*
X93425567Y-55679018D01*
X93425567Y-55679018D02*
X93473186Y-55583780D01*
X93473186Y-55583780D02*
X93473186Y-55345685D01*
X93473186Y-55345685D02*
X93425567Y-55250447D01*
X93425567Y-55250447D02*
X93377947Y-55202828D01*
X222060686Y-34248066D02*
X221060686Y-34248066D01*
X221060686Y-34248066D02*
X221060686Y-34486161D01*
X221060686Y-34486161D02*
X221108305Y-34629018D01*
X221108305Y-34629018D02*
X221203543Y-34724256D01*
X221203543Y-34724256D02*
X221298781Y-34771875D01*
X221298781Y-34771875D02*
X221489257Y-34819494D01*
X221489257Y-34819494D02*
X221632114Y-34819494D01*
X221632114Y-34819494D02*
X221822590Y-34771875D01*
X221822590Y-34771875D02*
X221917828Y-34724256D01*
X221917828Y-34724256D02*
X222013067Y-34629018D01*
X222013067Y-34629018D02*
X222060686Y-34486161D01*
X222060686Y-34486161D02*
X222060686Y-34248066D01*
X222060686Y-35771875D02*
X222060686Y-35200447D01*
X222060686Y-35486161D02*
X221060686Y-35486161D01*
X221060686Y-35486161D02*
X221203543Y-35390923D01*
X221203543Y-35390923D02*
X221298781Y-35295685D01*
X221298781Y-35295685D02*
X221346400Y-35200447D01*
X221060686Y-36390923D02*
X221060686Y-36486161D01*
X221060686Y-36486161D02*
X221108305Y-36581399D01*
X221108305Y-36581399D02*
X221155924Y-36629018D01*
X221155924Y-36629018D02*
X221251162Y-36676637D01*
X221251162Y-36676637D02*
X221441638Y-36724256D01*
X221441638Y-36724256D02*
X221679733Y-36724256D01*
X221679733Y-36724256D02*
X221870209Y-36676637D01*
X221870209Y-36676637D02*
X221965447Y-36629018D01*
X221965447Y-36629018D02*
X222013067Y-36581399D01*
X222013067Y-36581399D02*
X222060686Y-36486161D01*
X222060686Y-36486161D02*
X222060686Y-36390923D01*
X222060686Y-36390923D02*
X222013067Y-36295685D01*
X222013067Y-36295685D02*
X221965447Y-36248066D01*
X221965447Y-36248066D02*
X221870209Y-36200447D01*
X221870209Y-36200447D02*
X221679733Y-36152828D01*
X221679733Y-36152828D02*
X221441638Y-36152828D01*
X221441638Y-36152828D02*
X221251162Y-36200447D01*
X221251162Y-36200447D02*
X221155924Y-36248066D01*
X221155924Y-36248066D02*
X221108305Y-36295685D01*
X221108305Y-36295685D02*
X221060686Y-36390923D01*
X48910449Y-82588927D02*
X48767592Y-82636546D01*
X48767592Y-82636546D02*
X48529497Y-82636546D01*
X48529497Y-82636546D02*
X48434259Y-82588927D01*
X48434259Y-82588927D02*
X48386640Y-82541307D01*
X48386640Y-82541307D02*
X48339021Y-82446069D01*
X48339021Y-82446069D02*
X48339021Y-82350831D01*
X48339021Y-82350831D02*
X48386640Y-82255593D01*
X48386640Y-82255593D02*
X48434259Y-82207974D01*
X48434259Y-82207974D02*
X48529497Y-82160355D01*
X48529497Y-82160355D02*
X48719973Y-82112736D01*
X48719973Y-82112736D02*
X48815211Y-82065117D01*
X48815211Y-82065117D02*
X48862830Y-82017498D01*
X48862830Y-82017498D02*
X48910449Y-81922260D01*
X48910449Y-81922260D02*
X48910449Y-81827022D01*
X48910449Y-81827022D02*
X48862830Y-81731784D01*
X48862830Y-81731784D02*
X48815211Y-81684165D01*
X48815211Y-81684165D02*
X48719973Y-81636546D01*
X48719973Y-81636546D02*
X48481878Y-81636546D01*
X48481878Y-81636546D02*
X48339021Y-81684165D01*
X48005687Y-81636546D02*
X47767592Y-82636546D01*
X47767592Y-82636546D02*
X47577116Y-81922260D01*
X47577116Y-81922260D02*
X47386640Y-82636546D01*
X47386640Y-82636546D02*
X47148545Y-81636546D01*
X46243783Y-82636546D02*
X46815211Y-82636546D01*
X46529497Y-82636546D02*
X46529497Y-81636546D01*
X46529497Y-81636546D02*
X46624735Y-81779403D01*
X46624735Y-81779403D02*
X46719973Y-81874641D01*
X46719973Y-81874641D02*
X46815211Y-81922260D01*
X160148186Y-72744941D02*
X159148186Y-72744941D01*
X159148186Y-72744941D02*
X159148186Y-72983036D01*
X159148186Y-72983036D02*
X159195805Y-73125893D01*
X159195805Y-73125893D02*
X159291043Y-73221131D01*
X159291043Y-73221131D02*
X159386281Y-73268750D01*
X159386281Y-73268750D02*
X159576757Y-73316369D01*
X159576757Y-73316369D02*
X159719614Y-73316369D01*
X159719614Y-73316369D02*
X159910090Y-73268750D01*
X159910090Y-73268750D02*
X160005328Y-73221131D01*
X160005328Y-73221131D02*
X160100567Y-73125893D01*
X160100567Y-73125893D02*
X160148186Y-72983036D01*
X160148186Y-72983036D02*
X160148186Y-72744941D01*
X159148186Y-73649703D02*
X159148186Y-74268750D01*
X159148186Y-74268750D02*
X159529138Y-73935417D01*
X159529138Y-73935417D02*
X159529138Y-74078274D01*
X159529138Y-74078274D02*
X159576757Y-74173512D01*
X159576757Y-74173512D02*
X159624376Y-74221131D01*
X159624376Y-74221131D02*
X159719614Y-74268750D01*
X159719614Y-74268750D02*
X159957709Y-74268750D01*
X159957709Y-74268750D02*
X160052947Y-74221131D01*
X160052947Y-74221131D02*
X160100567Y-74173512D01*
X160100567Y-74173512D02*
X160148186Y-74078274D01*
X160148186Y-74078274D02*
X160148186Y-73792560D01*
X160148186Y-73792560D02*
X160100567Y-73697322D01*
X160100567Y-73697322D02*
X160052947Y-73649703D01*
X159148186Y-74887798D02*
X159148186Y-74983036D01*
X159148186Y-74983036D02*
X159195805Y-75078274D01*
X159195805Y-75078274D02*
X159243424Y-75125893D01*
X159243424Y-75125893D02*
X159338662Y-75173512D01*
X159338662Y-75173512D02*
X159529138Y-75221131D01*
X159529138Y-75221131D02*
X159767233Y-75221131D01*
X159767233Y-75221131D02*
X159957709Y-75173512D01*
X159957709Y-75173512D02*
X160052947Y-75125893D01*
X160052947Y-75125893D02*
X160100567Y-75078274D01*
X160100567Y-75078274D02*
X160148186Y-74983036D01*
X160148186Y-74983036D02*
X160148186Y-74887798D01*
X160148186Y-74887798D02*
X160100567Y-74792560D01*
X160100567Y-74792560D02*
X160052947Y-74744941D01*
X160052947Y-74744941D02*
X159957709Y-74697322D01*
X159957709Y-74697322D02*
X159767233Y-74649703D01*
X159767233Y-74649703D02*
X159529138Y-74649703D01*
X159529138Y-74649703D02*
X159338662Y-74697322D01*
X159338662Y-74697322D02*
X159243424Y-74744941D01*
X159243424Y-74744941D02*
X159195805Y-74792560D01*
X159195805Y-74792560D02*
X159148186Y-74887798D01*
X183960686Y-34724257D02*
X182960686Y-34724257D01*
X182960686Y-34724257D02*
X182960686Y-34962352D01*
X182960686Y-34962352D02*
X183008305Y-35105209D01*
X183008305Y-35105209D02*
X183103543Y-35200447D01*
X183103543Y-35200447D02*
X183198781Y-35248066D01*
X183198781Y-35248066D02*
X183389257Y-35295685D01*
X183389257Y-35295685D02*
X183532114Y-35295685D01*
X183532114Y-35295685D02*
X183722590Y-35248066D01*
X183722590Y-35248066D02*
X183817828Y-35200447D01*
X183817828Y-35200447D02*
X183913067Y-35105209D01*
X183913067Y-35105209D02*
X183960686Y-34962352D01*
X183960686Y-34962352D02*
X183960686Y-34724257D01*
X183389257Y-35867114D02*
X183341638Y-35771876D01*
X183341638Y-35771876D02*
X183294019Y-35724257D01*
X183294019Y-35724257D02*
X183198781Y-35676638D01*
X183198781Y-35676638D02*
X183151162Y-35676638D01*
X183151162Y-35676638D02*
X183055924Y-35724257D01*
X183055924Y-35724257D02*
X183008305Y-35771876D01*
X183008305Y-35771876D02*
X182960686Y-35867114D01*
X182960686Y-35867114D02*
X182960686Y-36057590D01*
X182960686Y-36057590D02*
X183008305Y-36152828D01*
X183008305Y-36152828D02*
X183055924Y-36200447D01*
X183055924Y-36200447D02*
X183151162Y-36248066D01*
X183151162Y-36248066D02*
X183198781Y-36248066D01*
X183198781Y-36248066D02*
X183294019Y-36200447D01*
X183294019Y-36200447D02*
X183341638Y-36152828D01*
X183341638Y-36152828D02*
X183389257Y-36057590D01*
X183389257Y-36057590D02*
X183389257Y-35867114D01*
X183389257Y-35867114D02*
X183436876Y-35771876D01*
X183436876Y-35771876D02*
X183484495Y-35724257D01*
X183484495Y-35724257D02*
X183579733Y-35676638D01*
X183579733Y-35676638D02*
X183770209Y-35676638D01*
X183770209Y-35676638D02*
X183865447Y-35724257D01*
X183865447Y-35724257D02*
X183913067Y-35771876D01*
X183913067Y-35771876D02*
X183960686Y-35867114D01*
X183960686Y-35867114D02*
X183960686Y-36057590D01*
X183960686Y-36057590D02*
X183913067Y-36152828D01*
X183913067Y-36152828D02*
X183865447Y-36200447D01*
X183865447Y-36200447D02*
X183770209Y-36248066D01*
X183770209Y-36248066D02*
X183579733Y-36248066D01*
X183579733Y-36248066D02*
X183484495Y-36200447D01*
X183484495Y-36200447D02*
X183436876Y-36152828D01*
X183436876Y-36152828D02*
X183389257Y-36057590D01*
X100610012Y-91410571D02*
X99610012Y-91410571D01*
X99610012Y-91410571D02*
X99610012Y-91648666D01*
X99610012Y-91648666D02*
X99657631Y-91791523D01*
X99657631Y-91791523D02*
X99752869Y-91886761D01*
X99752869Y-91886761D02*
X99848107Y-91934380D01*
X99848107Y-91934380D02*
X100038583Y-91981999D01*
X100038583Y-91981999D02*
X100181440Y-91981999D01*
X100181440Y-91981999D02*
X100371916Y-91934380D01*
X100371916Y-91934380D02*
X100467154Y-91886761D01*
X100467154Y-91886761D02*
X100562393Y-91791523D01*
X100562393Y-91791523D02*
X100610012Y-91648666D01*
X100610012Y-91648666D02*
X100610012Y-91410571D01*
X99610012Y-92315333D02*
X99610012Y-92934380D01*
X99610012Y-92934380D02*
X99990964Y-92601047D01*
X99990964Y-92601047D02*
X99990964Y-92743904D01*
X99990964Y-92743904D02*
X100038583Y-92839142D01*
X100038583Y-92839142D02*
X100086202Y-92886761D01*
X100086202Y-92886761D02*
X100181440Y-92934380D01*
X100181440Y-92934380D02*
X100419535Y-92934380D01*
X100419535Y-92934380D02*
X100514773Y-92886761D01*
X100514773Y-92886761D02*
X100562393Y-92839142D01*
X100562393Y-92839142D02*
X100610012Y-92743904D01*
X100610012Y-92743904D02*
X100610012Y-92458190D01*
X100610012Y-92458190D02*
X100562393Y-92362952D01*
X100562393Y-92362952D02*
X100514773Y-92315333D01*
X99610012Y-93267714D02*
X99610012Y-93934380D01*
X99610012Y-93934380D02*
X100610012Y-93505809D01*
X50610686Y-34724257D02*
X49610686Y-34724257D01*
X49610686Y-34724257D02*
X49610686Y-34962352D01*
X49610686Y-34962352D02*
X49658305Y-35105209D01*
X49658305Y-35105209D02*
X49753543Y-35200447D01*
X49753543Y-35200447D02*
X49848781Y-35248066D01*
X49848781Y-35248066D02*
X50039257Y-35295685D01*
X50039257Y-35295685D02*
X50182114Y-35295685D01*
X50182114Y-35295685D02*
X50372590Y-35248066D01*
X50372590Y-35248066D02*
X50467828Y-35200447D01*
X50467828Y-35200447D02*
X50563067Y-35105209D01*
X50563067Y-35105209D02*
X50610686Y-34962352D01*
X50610686Y-34962352D02*
X50610686Y-34724257D01*
X50610686Y-36248066D02*
X50610686Y-35676638D01*
X50610686Y-35962352D02*
X49610686Y-35962352D01*
X49610686Y-35962352D02*
X49753543Y-35867114D01*
X49753543Y-35867114D02*
X49848781Y-35771876D01*
X49848781Y-35771876D02*
X49896400Y-35676638D01*
X217298186Y-72744941D02*
X216298186Y-72744941D01*
X216298186Y-72744941D02*
X216298186Y-72983036D01*
X216298186Y-72983036D02*
X216345805Y-73125893D01*
X216345805Y-73125893D02*
X216441043Y-73221131D01*
X216441043Y-73221131D02*
X216536281Y-73268750D01*
X216536281Y-73268750D02*
X216726757Y-73316369D01*
X216726757Y-73316369D02*
X216869614Y-73316369D01*
X216869614Y-73316369D02*
X217060090Y-73268750D01*
X217060090Y-73268750D02*
X217155328Y-73221131D01*
X217155328Y-73221131D02*
X217250567Y-73125893D01*
X217250567Y-73125893D02*
X217298186Y-72983036D01*
X217298186Y-72983036D02*
X217298186Y-72744941D01*
X216298186Y-73649703D02*
X216298186Y-74268750D01*
X216298186Y-74268750D02*
X216679138Y-73935417D01*
X216679138Y-73935417D02*
X216679138Y-74078274D01*
X216679138Y-74078274D02*
X216726757Y-74173512D01*
X216726757Y-74173512D02*
X216774376Y-74221131D01*
X216774376Y-74221131D02*
X216869614Y-74268750D01*
X216869614Y-74268750D02*
X217107709Y-74268750D01*
X217107709Y-74268750D02*
X217202947Y-74221131D01*
X217202947Y-74221131D02*
X217250567Y-74173512D01*
X217250567Y-74173512D02*
X217298186Y-74078274D01*
X217298186Y-74078274D02*
X217298186Y-73792560D01*
X217298186Y-73792560D02*
X217250567Y-73697322D01*
X217250567Y-73697322D02*
X217202947Y-73649703D01*
X216298186Y-74602084D02*
X216298186Y-75221131D01*
X216298186Y-75221131D02*
X216679138Y-74887798D01*
X216679138Y-74887798D02*
X216679138Y-75030655D01*
X216679138Y-75030655D02*
X216726757Y-75125893D01*
X216726757Y-75125893D02*
X216774376Y-75173512D01*
X216774376Y-75173512D02*
X216869614Y-75221131D01*
X216869614Y-75221131D02*
X217107709Y-75221131D01*
X217107709Y-75221131D02*
X217202947Y-75173512D01*
X217202947Y-75173512D02*
X217250567Y-75125893D01*
X217250567Y-75125893D02*
X217298186Y-75030655D01*
X217298186Y-75030655D02*
X217298186Y-74744941D01*
X217298186Y-74744941D02*
X217250567Y-74649703D01*
X217250567Y-74649703D02*
X217202947Y-74602084D01*
X259797558Y-86596101D02*
X259864902Y-86596101D01*
X259864902Y-86596101D02*
X259999589Y-86528757D01*
X259999589Y-86528757D02*
X260066932Y-86461414D01*
X260066932Y-86461414D02*
X260134276Y-86326727D01*
X260134276Y-86326727D02*
X260134276Y-86192040D01*
X260134276Y-86192040D02*
X260100604Y-86091025D01*
X260100604Y-86091025D02*
X259999589Y-85922666D01*
X259999589Y-85922666D02*
X259898574Y-85821651D01*
X259898574Y-85821651D02*
X259730215Y-85720635D01*
X259730215Y-85720635D02*
X259629200Y-85686964D01*
X259629200Y-85686964D02*
X259494513Y-85686964D01*
X259494513Y-85686964D02*
X259359826Y-85754307D01*
X259359826Y-85754307D02*
X259292482Y-85821651D01*
X259292482Y-85821651D02*
X259225139Y-85956338D01*
X259225139Y-85956338D02*
X259225139Y-86023681D01*
X259191467Y-87336879D02*
X259595528Y-86932818D01*
X259393497Y-87134849D02*
X258686391Y-86427742D01*
X258686391Y-86427742D02*
X258854749Y-86461414D01*
X258854749Y-86461414D02*
X258989436Y-86461414D01*
X258989436Y-86461414D02*
X259090452Y-86427742D01*
X258113971Y-87471567D02*
X258585375Y-87942971D01*
X258012955Y-87033834D02*
X258686390Y-87370551D01*
X258686390Y-87370551D02*
X258248658Y-87808284D01*
X223781936Y-55842441D02*
X222781936Y-55842441D01*
X222781936Y-55842441D02*
X222781936Y-56080536D01*
X222781936Y-56080536D02*
X222829555Y-56223393D01*
X222829555Y-56223393D02*
X222924793Y-56318631D01*
X222924793Y-56318631D02*
X223020031Y-56366250D01*
X223020031Y-56366250D02*
X223210507Y-56413869D01*
X223210507Y-56413869D02*
X223353364Y-56413869D01*
X223353364Y-56413869D02*
X223543840Y-56366250D01*
X223543840Y-56366250D02*
X223639078Y-56318631D01*
X223639078Y-56318631D02*
X223734317Y-56223393D01*
X223734317Y-56223393D02*
X223781936Y-56080536D01*
X223781936Y-56080536D02*
X223781936Y-55842441D01*
X222877174Y-56794822D02*
X222829555Y-56842441D01*
X222829555Y-56842441D02*
X222781936Y-56937679D01*
X222781936Y-56937679D02*
X222781936Y-57175774D01*
X222781936Y-57175774D02*
X222829555Y-57271012D01*
X222829555Y-57271012D02*
X222877174Y-57318631D01*
X222877174Y-57318631D02*
X222972412Y-57366250D01*
X222972412Y-57366250D02*
X223067650Y-57366250D01*
X223067650Y-57366250D02*
X223210507Y-57318631D01*
X223210507Y-57318631D02*
X223781936Y-56747203D01*
X223781936Y-56747203D02*
X223781936Y-57366250D01*
X222877174Y-57747203D02*
X222829555Y-57794822D01*
X222829555Y-57794822D02*
X222781936Y-57890060D01*
X222781936Y-57890060D02*
X222781936Y-58128155D01*
X222781936Y-58128155D02*
X222829555Y-58223393D01*
X222829555Y-58223393D02*
X222877174Y-58271012D01*
X222877174Y-58271012D02*
X222972412Y-58318631D01*
X222972412Y-58318631D02*
X223067650Y-58318631D01*
X223067650Y-58318631D02*
X223210507Y-58271012D01*
X223210507Y-58271012D02*
X223781936Y-57699584D01*
X223781936Y-57699584D02*
X223781936Y-58318631D01*
X264923186Y-53298066D02*
X263923186Y-53298066D01*
X263923186Y-53298066D02*
X263923186Y-53536161D01*
X263923186Y-53536161D02*
X263970805Y-53679018D01*
X263970805Y-53679018D02*
X264066043Y-53774256D01*
X264066043Y-53774256D02*
X264161281Y-53821875D01*
X264161281Y-53821875D02*
X264351757Y-53869494D01*
X264351757Y-53869494D02*
X264494614Y-53869494D01*
X264494614Y-53869494D02*
X264685090Y-53821875D01*
X264685090Y-53821875D02*
X264780328Y-53774256D01*
X264780328Y-53774256D02*
X264875567Y-53679018D01*
X264875567Y-53679018D02*
X264923186Y-53536161D01*
X264923186Y-53536161D02*
X264923186Y-53298066D01*
X264018424Y-54250447D02*
X263970805Y-54298066D01*
X263970805Y-54298066D02*
X263923186Y-54393304D01*
X263923186Y-54393304D02*
X263923186Y-54631399D01*
X263923186Y-54631399D02*
X263970805Y-54726637D01*
X263970805Y-54726637D02*
X264018424Y-54774256D01*
X264018424Y-54774256D02*
X264113662Y-54821875D01*
X264113662Y-54821875D02*
X264208900Y-54821875D01*
X264208900Y-54821875D02*
X264351757Y-54774256D01*
X264351757Y-54774256D02*
X264923186Y-54202828D01*
X264923186Y-54202828D02*
X264923186Y-54821875D01*
X264256519Y-55679018D02*
X264923186Y-55679018D01*
X263875567Y-55440923D02*
X264589852Y-55202828D01*
X264589852Y-55202828D02*
X264589852Y-55821875D01*
X251181936Y-102940060D02*
X250705745Y-102606727D01*
X251181936Y-102368632D02*
X250181936Y-102368632D01*
X250181936Y-102368632D02*
X250181936Y-102749584D01*
X250181936Y-102749584D02*
X250229555Y-102844822D01*
X250229555Y-102844822D02*
X250277174Y-102892441D01*
X250277174Y-102892441D02*
X250372412Y-102940060D01*
X250372412Y-102940060D02*
X250515269Y-102940060D01*
X250515269Y-102940060D02*
X250610507Y-102892441D01*
X250610507Y-102892441D02*
X250658126Y-102844822D01*
X250658126Y-102844822D02*
X250705745Y-102749584D01*
X250705745Y-102749584D02*
X250705745Y-102368632D01*
X250181936Y-103844822D02*
X250181936Y-103368632D01*
X250181936Y-103368632D02*
X250658126Y-103321013D01*
X250658126Y-103321013D02*
X250610507Y-103368632D01*
X250610507Y-103368632D02*
X250562888Y-103463870D01*
X250562888Y-103463870D02*
X250562888Y-103701965D01*
X250562888Y-103701965D02*
X250610507Y-103797203D01*
X250610507Y-103797203D02*
X250658126Y-103844822D01*
X250658126Y-103844822D02*
X250753364Y-103892441D01*
X250753364Y-103892441D02*
X250991459Y-103892441D01*
X250991459Y-103892441D02*
X251086697Y-103844822D01*
X251086697Y-103844822D02*
X251134317Y-103797203D01*
X251134317Y-103797203D02*
X251181936Y-103701965D01*
X251181936Y-103701965D02*
X251181936Y-103463870D01*
X251181936Y-103463870D02*
X251134317Y-103368632D01*
X251134317Y-103368632D02*
X251086697Y-103321013D01*
X255831936Y-68742441D02*
X254831936Y-68742441D01*
X254831936Y-68742441D02*
X254831936Y-68980536D01*
X254831936Y-68980536D02*
X254879555Y-69123393D01*
X254879555Y-69123393D02*
X254974793Y-69218631D01*
X254974793Y-69218631D02*
X255070031Y-69266250D01*
X255070031Y-69266250D02*
X255260507Y-69313869D01*
X255260507Y-69313869D02*
X255403364Y-69313869D01*
X255403364Y-69313869D02*
X255593840Y-69266250D01*
X255593840Y-69266250D02*
X255689078Y-69218631D01*
X255689078Y-69218631D02*
X255784317Y-69123393D01*
X255784317Y-69123393D02*
X255831936Y-68980536D01*
X255831936Y-68980536D02*
X255831936Y-68742441D01*
X254831936Y-69647203D02*
X254831936Y-70266250D01*
X254831936Y-70266250D02*
X255212888Y-69932917D01*
X255212888Y-69932917D02*
X255212888Y-70075774D01*
X255212888Y-70075774D02*
X255260507Y-70171012D01*
X255260507Y-70171012D02*
X255308126Y-70218631D01*
X255308126Y-70218631D02*
X255403364Y-70266250D01*
X255403364Y-70266250D02*
X255641459Y-70266250D01*
X255641459Y-70266250D02*
X255736697Y-70218631D01*
X255736697Y-70218631D02*
X255784317Y-70171012D01*
X255784317Y-70171012D02*
X255831936Y-70075774D01*
X255831936Y-70075774D02*
X255831936Y-69790060D01*
X255831936Y-69790060D02*
X255784317Y-69694822D01*
X255784317Y-69694822D02*
X255736697Y-69647203D01*
X254831936Y-71171012D02*
X254831936Y-70694822D01*
X254831936Y-70694822D02*
X255308126Y-70647203D01*
X255308126Y-70647203D02*
X255260507Y-70694822D01*
X255260507Y-70694822D02*
X255212888Y-70790060D01*
X255212888Y-70790060D02*
X255212888Y-71028155D01*
X255212888Y-71028155D02*
X255260507Y-71123393D01*
X255260507Y-71123393D02*
X255308126Y-71171012D01*
X255308126Y-71171012D02*
X255403364Y-71218631D01*
X255403364Y-71218631D02*
X255641459Y-71218631D01*
X255641459Y-71218631D02*
X255736697Y-71171012D01*
X255736697Y-71171012D02*
X255784317Y-71123393D01*
X255784317Y-71123393D02*
X255831936Y-71028155D01*
X255831936Y-71028155D02*
X255831936Y-70790060D01*
X255831936Y-70790060D02*
X255784317Y-70694822D01*
X255784317Y-70694822D02*
X255736697Y-70647203D01*
X164910686Y-34724257D02*
X163910686Y-34724257D01*
X163910686Y-34724257D02*
X163910686Y-34962352D01*
X163910686Y-34962352D02*
X163958305Y-35105209D01*
X163958305Y-35105209D02*
X164053543Y-35200447D01*
X164053543Y-35200447D02*
X164148781Y-35248066D01*
X164148781Y-35248066D02*
X164339257Y-35295685D01*
X164339257Y-35295685D02*
X164482114Y-35295685D01*
X164482114Y-35295685D02*
X164672590Y-35248066D01*
X164672590Y-35248066D02*
X164767828Y-35200447D01*
X164767828Y-35200447D02*
X164863067Y-35105209D01*
X164863067Y-35105209D02*
X164910686Y-34962352D01*
X164910686Y-34962352D02*
X164910686Y-34724257D01*
X163910686Y-35629019D02*
X163910686Y-36295685D01*
X163910686Y-36295685D02*
X164910686Y-35867114D01*
X141098186Y-72744941D02*
X140098186Y-72744941D01*
X140098186Y-72744941D02*
X140098186Y-72983036D01*
X140098186Y-72983036D02*
X140145805Y-73125893D01*
X140145805Y-73125893D02*
X140241043Y-73221131D01*
X140241043Y-73221131D02*
X140336281Y-73268750D01*
X140336281Y-73268750D02*
X140526757Y-73316369D01*
X140526757Y-73316369D02*
X140669614Y-73316369D01*
X140669614Y-73316369D02*
X140860090Y-73268750D01*
X140860090Y-73268750D02*
X140955328Y-73221131D01*
X140955328Y-73221131D02*
X141050567Y-73125893D01*
X141050567Y-73125893D02*
X141098186Y-72983036D01*
X141098186Y-72983036D02*
X141098186Y-72744941D01*
X140193424Y-73697322D02*
X140145805Y-73744941D01*
X140145805Y-73744941D02*
X140098186Y-73840179D01*
X140098186Y-73840179D02*
X140098186Y-74078274D01*
X140098186Y-74078274D02*
X140145805Y-74173512D01*
X140145805Y-74173512D02*
X140193424Y-74221131D01*
X140193424Y-74221131D02*
X140288662Y-74268750D01*
X140288662Y-74268750D02*
X140383900Y-74268750D01*
X140383900Y-74268750D02*
X140526757Y-74221131D01*
X140526757Y-74221131D02*
X141098186Y-73649703D01*
X141098186Y-73649703D02*
X141098186Y-74268750D01*
X141098186Y-74744941D02*
X141098186Y-74935417D01*
X141098186Y-74935417D02*
X141050567Y-75030655D01*
X141050567Y-75030655D02*
X141002947Y-75078274D01*
X141002947Y-75078274D02*
X140860090Y-75173512D01*
X140860090Y-75173512D02*
X140669614Y-75221131D01*
X140669614Y-75221131D02*
X140288662Y-75221131D01*
X140288662Y-75221131D02*
X140193424Y-75173512D01*
X140193424Y-75173512D02*
X140145805Y-75125893D01*
X140145805Y-75125893D02*
X140098186Y-75030655D01*
X140098186Y-75030655D02*
X140098186Y-74840179D01*
X140098186Y-74840179D02*
X140145805Y-74744941D01*
X140145805Y-74744941D02*
X140193424Y-74697322D01*
X140193424Y-74697322D02*
X140288662Y-74649703D01*
X140288662Y-74649703D02*
X140526757Y-74649703D01*
X140526757Y-74649703D02*
X140621995Y-74697322D01*
X140621995Y-74697322D02*
X140669614Y-74744941D01*
X140669614Y-74744941D02*
X140717233Y-74840179D01*
X140717233Y-74840179D02*
X140717233Y-75030655D01*
X140717233Y-75030655D02*
X140669614Y-75125893D01*
X140669614Y-75125893D02*
X140621995Y-75173512D01*
X140621995Y-75173512D02*
X140526757Y-75221131D01*
X244573362Y-84046183D02*
X245145781Y-83945168D01*
X244977423Y-84450244D02*
X245684529Y-83743137D01*
X245684529Y-83743137D02*
X245415155Y-83473763D01*
X245415155Y-83473763D02*
X245314140Y-83440091D01*
X245314140Y-83440091D02*
X245246797Y-83440091D01*
X245246797Y-83440091D02*
X245145781Y-83473763D01*
X245145781Y-83473763D02*
X245044766Y-83574778D01*
X245044766Y-83574778D02*
X245011094Y-83675794D01*
X245011094Y-83675794D02*
X245011094Y-83743137D01*
X245011094Y-83743137D02*
X245044766Y-83844152D01*
X245044766Y-83844152D02*
X245314140Y-84113526D01*
X245044766Y-83103374D02*
X244607033Y-82665641D01*
X244607033Y-82665641D02*
X244573362Y-83170717D01*
X244573362Y-83170717D02*
X244472346Y-83069702D01*
X244472346Y-83069702D02*
X244371331Y-83036030D01*
X244371331Y-83036030D02*
X244303988Y-83036030D01*
X244303988Y-83036030D02*
X244202972Y-83069702D01*
X244202972Y-83069702D02*
X244034614Y-83238061D01*
X244034614Y-83238061D02*
X244000942Y-83339076D01*
X244000942Y-83339076D02*
X244000942Y-83406420D01*
X244000942Y-83406420D02*
X244034614Y-83507435D01*
X244034614Y-83507435D02*
X244236644Y-83709465D01*
X244236644Y-83709465D02*
X244337659Y-83743137D01*
X244337659Y-83743137D02*
X244405003Y-83743137D01*
X243319974Y-96316307D02*
X243367593Y-96363927D01*
X243367593Y-96363927D02*
X243510450Y-96411546D01*
X243510450Y-96411546D02*
X243605688Y-96411546D01*
X243605688Y-96411546D02*
X243748545Y-96363927D01*
X243748545Y-96363927D02*
X243843783Y-96268688D01*
X243843783Y-96268688D02*
X243891402Y-96173450D01*
X243891402Y-96173450D02*
X243939021Y-95982974D01*
X243939021Y-95982974D02*
X243939021Y-95840117D01*
X243939021Y-95840117D02*
X243891402Y-95649641D01*
X243891402Y-95649641D02*
X243843783Y-95554403D01*
X243843783Y-95554403D02*
X243748545Y-95459165D01*
X243748545Y-95459165D02*
X243605688Y-95411546D01*
X243605688Y-95411546D02*
X243510450Y-95411546D01*
X243510450Y-95411546D02*
X243367593Y-95459165D01*
X243367593Y-95459165D02*
X243319974Y-95506784D01*
X242367593Y-96411546D02*
X242939021Y-96411546D01*
X242653307Y-96411546D02*
X242653307Y-95411546D01*
X242653307Y-95411546D02*
X242748545Y-95554403D01*
X242748545Y-95554403D02*
X242843783Y-95649641D01*
X242843783Y-95649641D02*
X242939021Y-95697260D01*
X241415212Y-96411546D02*
X241986640Y-96411546D01*
X241700926Y-96411546D02*
X241700926Y-95411546D01*
X241700926Y-95411546D02*
X241796164Y-95554403D01*
X241796164Y-95554403D02*
X241891402Y-95649641D01*
X241891402Y-95649641D02*
X241986640Y-95697260D01*
X179198186Y-72744941D02*
X178198186Y-72744941D01*
X178198186Y-72744941D02*
X178198186Y-72983036D01*
X178198186Y-72983036D02*
X178245805Y-73125893D01*
X178245805Y-73125893D02*
X178341043Y-73221131D01*
X178341043Y-73221131D02*
X178436281Y-73268750D01*
X178436281Y-73268750D02*
X178626757Y-73316369D01*
X178626757Y-73316369D02*
X178769614Y-73316369D01*
X178769614Y-73316369D02*
X178960090Y-73268750D01*
X178960090Y-73268750D02*
X179055328Y-73221131D01*
X179055328Y-73221131D02*
X179150567Y-73125893D01*
X179150567Y-73125893D02*
X179198186Y-72983036D01*
X179198186Y-72983036D02*
X179198186Y-72744941D01*
X178198186Y-73649703D02*
X178198186Y-74268750D01*
X178198186Y-74268750D02*
X178579138Y-73935417D01*
X178579138Y-73935417D02*
X178579138Y-74078274D01*
X178579138Y-74078274D02*
X178626757Y-74173512D01*
X178626757Y-74173512D02*
X178674376Y-74221131D01*
X178674376Y-74221131D02*
X178769614Y-74268750D01*
X178769614Y-74268750D02*
X179007709Y-74268750D01*
X179007709Y-74268750D02*
X179102947Y-74221131D01*
X179102947Y-74221131D02*
X179150567Y-74173512D01*
X179150567Y-74173512D02*
X179198186Y-74078274D01*
X179198186Y-74078274D02*
X179198186Y-73792560D01*
X179198186Y-73792560D02*
X179150567Y-73697322D01*
X179150567Y-73697322D02*
X179102947Y-73649703D01*
X179198186Y-75221131D02*
X179198186Y-74649703D01*
X179198186Y-74935417D02*
X178198186Y-74935417D01*
X178198186Y-74935417D02*
X178341043Y-74840179D01*
X178341043Y-74840179D02*
X178436281Y-74744941D01*
X178436281Y-74744941D02*
X178483900Y-74649703D01*
X157760012Y-91410571D02*
X156760012Y-91410571D01*
X156760012Y-91410571D02*
X156760012Y-91648666D01*
X156760012Y-91648666D02*
X156807631Y-91791523D01*
X156807631Y-91791523D02*
X156902869Y-91886761D01*
X156902869Y-91886761D02*
X156998107Y-91934380D01*
X156998107Y-91934380D02*
X157188583Y-91981999D01*
X157188583Y-91981999D02*
X157331440Y-91981999D01*
X157331440Y-91981999D02*
X157521916Y-91934380D01*
X157521916Y-91934380D02*
X157617154Y-91886761D01*
X157617154Y-91886761D02*
X157712393Y-91791523D01*
X157712393Y-91791523D02*
X157760012Y-91648666D01*
X157760012Y-91648666D02*
X157760012Y-91410571D01*
X156760012Y-92315333D02*
X156760012Y-92934380D01*
X156760012Y-92934380D02*
X157140964Y-92601047D01*
X157140964Y-92601047D02*
X157140964Y-92743904D01*
X157140964Y-92743904D02*
X157188583Y-92839142D01*
X157188583Y-92839142D02*
X157236202Y-92886761D01*
X157236202Y-92886761D02*
X157331440Y-92934380D01*
X157331440Y-92934380D02*
X157569535Y-92934380D01*
X157569535Y-92934380D02*
X157664773Y-92886761D01*
X157664773Y-92886761D02*
X157712393Y-92839142D01*
X157712393Y-92839142D02*
X157760012Y-92743904D01*
X157760012Y-92743904D02*
X157760012Y-92458190D01*
X157760012Y-92458190D02*
X157712393Y-92362952D01*
X157712393Y-92362952D02*
X157664773Y-92315333D01*
X157760012Y-93410571D02*
X157760012Y-93601047D01*
X157760012Y-93601047D02*
X157712393Y-93696285D01*
X157712393Y-93696285D02*
X157664773Y-93743904D01*
X157664773Y-93743904D02*
X157521916Y-93839142D01*
X157521916Y-93839142D02*
X157331440Y-93886761D01*
X157331440Y-93886761D02*
X156950488Y-93886761D01*
X156950488Y-93886761D02*
X156855250Y-93839142D01*
X156855250Y-93839142D02*
X156807631Y-93791523D01*
X156807631Y-93791523D02*
X156760012Y-93696285D01*
X156760012Y-93696285D02*
X156760012Y-93505809D01*
X156760012Y-93505809D02*
X156807631Y-93410571D01*
X156807631Y-93410571D02*
X156855250Y-93362952D01*
X156855250Y-93362952D02*
X156950488Y-93315333D01*
X156950488Y-93315333D02*
X157188583Y-93315333D01*
X157188583Y-93315333D02*
X157283821Y-93362952D01*
X157283821Y-93362952D02*
X157331440Y-93410571D01*
X157331440Y-93410571D02*
X157379059Y-93505809D01*
X157379059Y-93505809D02*
X157379059Y-93696285D01*
X157379059Y-93696285D02*
X157331440Y-93791523D01*
X157331440Y-93791523D02*
X157283821Y-93839142D01*
X157283821Y-93839142D02*
X157188583Y-93886761D01*
X241110686Y-34248066D02*
X240110686Y-34248066D01*
X240110686Y-34248066D02*
X240110686Y-34486161D01*
X240110686Y-34486161D02*
X240158305Y-34629018D01*
X240158305Y-34629018D02*
X240253543Y-34724256D01*
X240253543Y-34724256D02*
X240348781Y-34771875D01*
X240348781Y-34771875D02*
X240539257Y-34819494D01*
X240539257Y-34819494D02*
X240682114Y-34819494D01*
X240682114Y-34819494D02*
X240872590Y-34771875D01*
X240872590Y-34771875D02*
X240967828Y-34724256D01*
X240967828Y-34724256D02*
X241063067Y-34629018D01*
X241063067Y-34629018D02*
X241110686Y-34486161D01*
X241110686Y-34486161D02*
X241110686Y-34248066D01*
X241110686Y-35771875D02*
X241110686Y-35200447D01*
X241110686Y-35486161D02*
X240110686Y-35486161D01*
X240110686Y-35486161D02*
X240253543Y-35390923D01*
X240253543Y-35390923D02*
X240348781Y-35295685D01*
X240348781Y-35295685D02*
X240396400Y-35200447D01*
X241110686Y-36724256D02*
X241110686Y-36152828D01*
X241110686Y-36438542D02*
X240110686Y-36438542D01*
X240110686Y-36438542D02*
X240253543Y-36343304D01*
X240253543Y-36343304D02*
X240348781Y-36248066D01*
X240348781Y-36248066D02*
X240396400Y-36152828D01*
X254800926Y-103478098D02*
X254800926Y-103001907D01*
X254467593Y-104001907D02*
X254800926Y-103478098D01*
X254800926Y-103478098D02*
X255134259Y-104001907D01*
X255991402Y-103001907D02*
X255419974Y-103001907D01*
X255705688Y-103001907D02*
X255705688Y-104001907D01*
X255705688Y-104001907D02*
X255610450Y-103859050D01*
X255610450Y-103859050D02*
X255515212Y-103763812D01*
X255515212Y-103763812D02*
X255419974Y-103716193D01*
X203010686Y-34724257D02*
X202010686Y-34724257D01*
X202010686Y-34724257D02*
X202010686Y-34962352D01*
X202010686Y-34962352D02*
X202058305Y-35105209D01*
X202058305Y-35105209D02*
X202153543Y-35200447D01*
X202153543Y-35200447D02*
X202248781Y-35248066D01*
X202248781Y-35248066D02*
X202439257Y-35295685D01*
X202439257Y-35295685D02*
X202582114Y-35295685D01*
X202582114Y-35295685D02*
X202772590Y-35248066D01*
X202772590Y-35248066D02*
X202867828Y-35200447D01*
X202867828Y-35200447D02*
X202963067Y-35105209D01*
X202963067Y-35105209D02*
X203010686Y-34962352D01*
X203010686Y-34962352D02*
X203010686Y-34724257D01*
X203010686Y-35771876D02*
X203010686Y-35962352D01*
X203010686Y-35962352D02*
X202963067Y-36057590D01*
X202963067Y-36057590D02*
X202915447Y-36105209D01*
X202915447Y-36105209D02*
X202772590Y-36200447D01*
X202772590Y-36200447D02*
X202582114Y-36248066D01*
X202582114Y-36248066D02*
X202201162Y-36248066D01*
X202201162Y-36248066D02*
X202105924Y-36200447D01*
X202105924Y-36200447D02*
X202058305Y-36152828D01*
X202058305Y-36152828D02*
X202010686Y-36057590D01*
X202010686Y-36057590D02*
X202010686Y-35867114D01*
X202010686Y-35867114D02*
X202058305Y-35771876D01*
X202058305Y-35771876D02*
X202105924Y-35724257D01*
X202105924Y-35724257D02*
X202201162Y-35676638D01*
X202201162Y-35676638D02*
X202439257Y-35676638D01*
X202439257Y-35676638D02*
X202534495Y-35724257D01*
X202534495Y-35724257D02*
X202582114Y-35771876D01*
X202582114Y-35771876D02*
X202629733Y-35867114D01*
X202629733Y-35867114D02*
X202629733Y-36057590D01*
X202629733Y-36057590D02*
X202582114Y-36152828D01*
X202582114Y-36152828D02*
X202534495Y-36200447D01*
X202534495Y-36200447D02*
X202439257Y-36248066D01*
X243765705Y-90278839D02*
X243765705Y-90346183D01*
X243765705Y-90346183D02*
X243833049Y-90480870D01*
X243833049Y-90480870D02*
X243900392Y-90548213D01*
X243900392Y-90548213D02*
X244035079Y-90615557D01*
X244035079Y-90615557D02*
X244169766Y-90615557D01*
X244169766Y-90615557D02*
X244270781Y-90581885D01*
X244270781Y-90581885D02*
X244439140Y-90480870D01*
X244439140Y-90480870D02*
X244540155Y-90379855D01*
X244540155Y-90379855D02*
X244641171Y-90211496D01*
X244641171Y-90211496D02*
X244674842Y-90110481D01*
X244674842Y-90110481D02*
X244674842Y-89975794D01*
X244674842Y-89975794D02*
X244607499Y-89841107D01*
X244607499Y-89841107D02*
X244540155Y-89773763D01*
X244540155Y-89773763D02*
X244405468Y-89706420D01*
X244405468Y-89706420D02*
X244338125Y-89706420D01*
X243361644Y-90009465D02*
X243226957Y-89874778D01*
X243226957Y-89874778D02*
X243193285Y-89773763D01*
X243193285Y-89773763D02*
X243193285Y-89706420D01*
X243193285Y-89706420D02*
X243226957Y-89538061D01*
X243226957Y-89538061D02*
X243327972Y-89369702D01*
X243327972Y-89369702D02*
X243597346Y-89100328D01*
X243597346Y-89100328D02*
X243698362Y-89066656D01*
X243698362Y-89066656D02*
X243765705Y-89066656D01*
X243765705Y-89066656D02*
X243866720Y-89100328D01*
X243866720Y-89100328D02*
X244001407Y-89235015D01*
X244001407Y-89235015D02*
X244035079Y-89336030D01*
X244035079Y-89336030D02*
X244035079Y-89403374D01*
X244035079Y-89403374D02*
X244001407Y-89504389D01*
X244001407Y-89504389D02*
X243833049Y-89672748D01*
X243833049Y-89672748D02*
X243732033Y-89706420D01*
X243732033Y-89706420D02*
X243664690Y-89706420D01*
X243664690Y-89706420D02*
X243563675Y-89672748D01*
X243563675Y-89672748D02*
X243428988Y-89538061D01*
X243428988Y-89538061D02*
X243395316Y-89437046D01*
X243395316Y-89437046D02*
X243395316Y-89369702D01*
X243395316Y-89369702D02*
X243428988Y-89268687D01*
X102998186Y-72744941D02*
X101998186Y-72744941D01*
X101998186Y-72744941D02*
X101998186Y-72983036D01*
X101998186Y-72983036D02*
X102045805Y-73125893D01*
X102045805Y-73125893D02*
X102141043Y-73221131D01*
X102141043Y-73221131D02*
X102236281Y-73268750D01*
X102236281Y-73268750D02*
X102426757Y-73316369D01*
X102426757Y-73316369D02*
X102569614Y-73316369D01*
X102569614Y-73316369D02*
X102760090Y-73268750D01*
X102760090Y-73268750D02*
X102855328Y-73221131D01*
X102855328Y-73221131D02*
X102950567Y-73125893D01*
X102950567Y-73125893D02*
X102998186Y-72983036D01*
X102998186Y-72983036D02*
X102998186Y-72744941D01*
X102093424Y-73697322D02*
X102045805Y-73744941D01*
X102045805Y-73744941D02*
X101998186Y-73840179D01*
X101998186Y-73840179D02*
X101998186Y-74078274D01*
X101998186Y-74078274D02*
X102045805Y-74173512D01*
X102045805Y-74173512D02*
X102093424Y-74221131D01*
X102093424Y-74221131D02*
X102188662Y-74268750D01*
X102188662Y-74268750D02*
X102283900Y-74268750D01*
X102283900Y-74268750D02*
X102426757Y-74221131D01*
X102426757Y-74221131D02*
X102998186Y-73649703D01*
X102998186Y-73649703D02*
X102998186Y-74268750D01*
X101998186Y-74602084D02*
X101998186Y-75268750D01*
X101998186Y-75268750D02*
X102998186Y-74840179D01*
X236348186Y-72744941D02*
X235348186Y-72744941D01*
X235348186Y-72744941D02*
X235348186Y-72983036D01*
X235348186Y-72983036D02*
X235395805Y-73125893D01*
X235395805Y-73125893D02*
X235491043Y-73221131D01*
X235491043Y-73221131D02*
X235586281Y-73268750D01*
X235586281Y-73268750D02*
X235776757Y-73316369D01*
X235776757Y-73316369D02*
X235919614Y-73316369D01*
X235919614Y-73316369D02*
X236110090Y-73268750D01*
X236110090Y-73268750D02*
X236205328Y-73221131D01*
X236205328Y-73221131D02*
X236300567Y-73125893D01*
X236300567Y-73125893D02*
X236348186Y-72983036D01*
X236348186Y-72983036D02*
X236348186Y-72744941D01*
X235348186Y-73649703D02*
X235348186Y-74268750D01*
X235348186Y-74268750D02*
X235729138Y-73935417D01*
X235729138Y-73935417D02*
X235729138Y-74078274D01*
X235729138Y-74078274D02*
X235776757Y-74173512D01*
X235776757Y-74173512D02*
X235824376Y-74221131D01*
X235824376Y-74221131D02*
X235919614Y-74268750D01*
X235919614Y-74268750D02*
X236157709Y-74268750D01*
X236157709Y-74268750D02*
X236252947Y-74221131D01*
X236252947Y-74221131D02*
X236300567Y-74173512D01*
X236300567Y-74173512D02*
X236348186Y-74078274D01*
X236348186Y-74078274D02*
X236348186Y-73792560D01*
X236348186Y-73792560D02*
X236300567Y-73697322D01*
X236300567Y-73697322D02*
X236252947Y-73649703D01*
X235681519Y-75125893D02*
X236348186Y-75125893D01*
X235300567Y-74887798D02*
X236014852Y-74649703D01*
X236014852Y-74649703D02*
X236014852Y-75268750D01*
X207773186Y-53298066D02*
X206773186Y-53298066D01*
X206773186Y-53298066D02*
X206773186Y-53536161D01*
X206773186Y-53536161D02*
X206820805Y-53679018D01*
X206820805Y-53679018D02*
X206916043Y-53774256D01*
X206916043Y-53774256D02*
X207011281Y-53821875D01*
X207011281Y-53821875D02*
X207201757Y-53869494D01*
X207201757Y-53869494D02*
X207344614Y-53869494D01*
X207344614Y-53869494D02*
X207535090Y-53821875D01*
X207535090Y-53821875D02*
X207630328Y-53774256D01*
X207630328Y-53774256D02*
X207725567Y-53679018D01*
X207725567Y-53679018D02*
X207773186Y-53536161D01*
X207773186Y-53536161D02*
X207773186Y-53298066D01*
X206868424Y-54250447D02*
X206820805Y-54298066D01*
X206820805Y-54298066D02*
X206773186Y-54393304D01*
X206773186Y-54393304D02*
X206773186Y-54631399D01*
X206773186Y-54631399D02*
X206820805Y-54726637D01*
X206820805Y-54726637D02*
X206868424Y-54774256D01*
X206868424Y-54774256D02*
X206963662Y-54821875D01*
X206963662Y-54821875D02*
X207058900Y-54821875D01*
X207058900Y-54821875D02*
X207201757Y-54774256D01*
X207201757Y-54774256D02*
X207773186Y-54202828D01*
X207773186Y-54202828D02*
X207773186Y-54821875D01*
X207773186Y-55774256D02*
X207773186Y-55202828D01*
X207773186Y-55488542D02*
X206773186Y-55488542D01*
X206773186Y-55488542D02*
X206916043Y-55393304D01*
X206916043Y-55393304D02*
X207011281Y-55298066D01*
X207011281Y-55298066D02*
X207058900Y-55202828D01*
X188723186Y-53298066D02*
X187723186Y-53298066D01*
X187723186Y-53298066D02*
X187723186Y-53536161D01*
X187723186Y-53536161D02*
X187770805Y-53679018D01*
X187770805Y-53679018D02*
X187866043Y-53774256D01*
X187866043Y-53774256D02*
X187961281Y-53821875D01*
X187961281Y-53821875D02*
X188151757Y-53869494D01*
X188151757Y-53869494D02*
X188294614Y-53869494D01*
X188294614Y-53869494D02*
X188485090Y-53821875D01*
X188485090Y-53821875D02*
X188580328Y-53774256D01*
X188580328Y-53774256D02*
X188675567Y-53679018D01*
X188675567Y-53679018D02*
X188723186Y-53536161D01*
X188723186Y-53536161D02*
X188723186Y-53298066D01*
X187818424Y-54250447D02*
X187770805Y-54298066D01*
X187770805Y-54298066D02*
X187723186Y-54393304D01*
X187723186Y-54393304D02*
X187723186Y-54631399D01*
X187723186Y-54631399D02*
X187770805Y-54726637D01*
X187770805Y-54726637D02*
X187818424Y-54774256D01*
X187818424Y-54774256D02*
X187913662Y-54821875D01*
X187913662Y-54821875D02*
X188008900Y-54821875D01*
X188008900Y-54821875D02*
X188151757Y-54774256D01*
X188151757Y-54774256D02*
X188723186Y-54202828D01*
X188723186Y-54202828D02*
X188723186Y-54821875D01*
X187723186Y-55440923D02*
X187723186Y-55536161D01*
X187723186Y-55536161D02*
X187770805Y-55631399D01*
X187770805Y-55631399D02*
X187818424Y-55679018D01*
X187818424Y-55679018D02*
X187913662Y-55726637D01*
X187913662Y-55726637D02*
X188104138Y-55774256D01*
X188104138Y-55774256D02*
X188342233Y-55774256D01*
X188342233Y-55774256D02*
X188532709Y-55726637D01*
X188532709Y-55726637D02*
X188627947Y-55679018D01*
X188627947Y-55679018D02*
X188675567Y-55631399D01*
X188675567Y-55631399D02*
X188723186Y-55536161D01*
X188723186Y-55536161D02*
X188723186Y-55440923D01*
X188723186Y-55440923D02*
X188675567Y-55345685D01*
X188675567Y-55345685D02*
X188627947Y-55298066D01*
X188627947Y-55298066D02*
X188532709Y-55250447D01*
X188532709Y-55250447D02*
X188342233Y-55202828D01*
X188342233Y-55202828D02*
X188104138Y-55202828D01*
X188104138Y-55202828D02*
X187913662Y-55250447D01*
X187913662Y-55250447D02*
X187818424Y-55298066D01*
X187818424Y-55298066D02*
X187770805Y-55345685D01*
X187770805Y-55345685D02*
X187723186Y-55440923D01*
X258719974Y-103916307D02*
X258767593Y-103963927D01*
X258767593Y-103963927D02*
X258910450Y-104011546D01*
X258910450Y-104011546D02*
X259005688Y-104011546D01*
X259005688Y-104011546D02*
X259148545Y-103963927D01*
X259148545Y-103963927D02*
X259243783Y-103868688D01*
X259243783Y-103868688D02*
X259291402Y-103773450D01*
X259291402Y-103773450D02*
X259339021Y-103582974D01*
X259339021Y-103582974D02*
X259339021Y-103440117D01*
X259339021Y-103440117D02*
X259291402Y-103249641D01*
X259291402Y-103249641D02*
X259243783Y-103154403D01*
X259243783Y-103154403D02*
X259148545Y-103059165D01*
X259148545Y-103059165D02*
X259005688Y-103011546D01*
X259005688Y-103011546D02*
X258910450Y-103011546D01*
X258910450Y-103011546D02*
X258767593Y-103059165D01*
X258767593Y-103059165D02*
X258719974Y-103106784D01*
X257767593Y-104011546D02*
X258339021Y-104011546D01*
X258053307Y-104011546D02*
X258053307Y-103011546D01*
X258053307Y-103011546D02*
X258148545Y-103154403D01*
X258148545Y-103154403D02*
X258243783Y-103249641D01*
X258243783Y-103249641D02*
X258339021Y-103297260D01*
X257434259Y-103011546D02*
X256815212Y-103011546D01*
X256815212Y-103011546D02*
X257148545Y-103392498D01*
X257148545Y-103392498D02*
X257005688Y-103392498D01*
X257005688Y-103392498D02*
X256910450Y-103440117D01*
X256910450Y-103440117D02*
X256862831Y-103487736D01*
X256862831Y-103487736D02*
X256815212Y-103582974D01*
X256815212Y-103582974D02*
X256815212Y-103821069D01*
X256815212Y-103821069D02*
X256862831Y-103916307D01*
X256862831Y-103916307D02*
X256910450Y-103963927D01*
X256910450Y-103963927D02*
X257005688Y-104011546D01*
X257005688Y-104011546D02*
X257291402Y-104011546D01*
X257291402Y-104011546D02*
X257386640Y-103963927D01*
X257386640Y-103963927D02*
X257434259Y-103916307D01*
X248993783Y-103816307D02*
X249041402Y-103863927D01*
X249041402Y-103863927D02*
X249184259Y-103911546D01*
X249184259Y-103911546D02*
X249279497Y-103911546D01*
X249279497Y-103911546D02*
X249422354Y-103863927D01*
X249422354Y-103863927D02*
X249517592Y-103768688D01*
X249517592Y-103768688D02*
X249565211Y-103673450D01*
X249565211Y-103673450D02*
X249612830Y-103482974D01*
X249612830Y-103482974D02*
X249612830Y-103340117D01*
X249612830Y-103340117D02*
X249565211Y-103149641D01*
X249565211Y-103149641D02*
X249517592Y-103054403D01*
X249517592Y-103054403D02*
X249422354Y-102959165D01*
X249422354Y-102959165D02*
X249279497Y-102911546D01*
X249279497Y-102911546D02*
X249184259Y-102911546D01*
X249184259Y-102911546D02*
X249041402Y-102959165D01*
X249041402Y-102959165D02*
X248993783Y-103006784D01*
X248660449Y-102911546D02*
X248041402Y-102911546D01*
X248041402Y-102911546D02*
X248374735Y-103292498D01*
X248374735Y-103292498D02*
X248231878Y-103292498D01*
X248231878Y-103292498D02*
X248136640Y-103340117D01*
X248136640Y-103340117D02*
X248089021Y-103387736D01*
X248089021Y-103387736D02*
X248041402Y-103482974D01*
X248041402Y-103482974D02*
X248041402Y-103721069D01*
X248041402Y-103721069D02*
X248089021Y-103816307D01*
X248089021Y-103816307D02*
X248136640Y-103863927D01*
X248136640Y-103863927D02*
X248231878Y-103911546D01*
X248231878Y-103911546D02*
X248517592Y-103911546D01*
X248517592Y-103911546D02*
X248612830Y-103863927D01*
X248612830Y-103863927D02*
X248660449Y-103816307D01*
X79178762Y-91410571D02*
X78178762Y-91410571D01*
X78178762Y-91410571D02*
X78178762Y-91648666D01*
X78178762Y-91648666D02*
X78226381Y-91791523D01*
X78226381Y-91791523D02*
X78321619Y-91886761D01*
X78321619Y-91886761D02*
X78416857Y-91934380D01*
X78416857Y-91934380D02*
X78607333Y-91981999D01*
X78607333Y-91981999D02*
X78750190Y-91981999D01*
X78750190Y-91981999D02*
X78940666Y-91934380D01*
X78940666Y-91934380D02*
X79035904Y-91886761D01*
X79035904Y-91886761D02*
X79131143Y-91791523D01*
X79131143Y-91791523D02*
X79178762Y-91648666D01*
X79178762Y-91648666D02*
X79178762Y-91410571D01*
X78178762Y-92315333D02*
X78178762Y-92934380D01*
X78178762Y-92934380D02*
X78559714Y-92601047D01*
X78559714Y-92601047D02*
X78559714Y-92743904D01*
X78559714Y-92743904D02*
X78607333Y-92839142D01*
X78607333Y-92839142D02*
X78654952Y-92886761D01*
X78654952Y-92886761D02*
X78750190Y-92934380D01*
X78750190Y-92934380D02*
X78988285Y-92934380D01*
X78988285Y-92934380D02*
X79083523Y-92886761D01*
X79083523Y-92886761D02*
X79131143Y-92839142D01*
X79131143Y-92839142D02*
X79178762Y-92743904D01*
X79178762Y-92743904D02*
X79178762Y-92458190D01*
X79178762Y-92458190D02*
X79131143Y-92362952D01*
X79131143Y-92362952D02*
X79083523Y-92315333D01*
X78178762Y-93791523D02*
X78178762Y-93601047D01*
X78178762Y-93601047D02*
X78226381Y-93505809D01*
X78226381Y-93505809D02*
X78274000Y-93458190D01*
X78274000Y-93458190D02*
X78416857Y-93362952D01*
X78416857Y-93362952D02*
X78607333Y-93315333D01*
X78607333Y-93315333D02*
X78988285Y-93315333D01*
X78988285Y-93315333D02*
X79083523Y-93362952D01*
X79083523Y-93362952D02*
X79131143Y-93410571D01*
X79131143Y-93410571D02*
X79178762Y-93505809D01*
X79178762Y-93505809D02*
X79178762Y-93696285D01*
X79178762Y-93696285D02*
X79131143Y-93791523D01*
X79131143Y-93791523D02*
X79083523Y-93839142D01*
X79083523Y-93839142D02*
X78988285Y-93886761D01*
X78988285Y-93886761D02*
X78750190Y-93886761D01*
X78750190Y-93886761D02*
X78654952Y-93839142D01*
X78654952Y-93839142D02*
X78607333Y-93791523D01*
X78607333Y-93791523D02*
X78559714Y-93696285D01*
X78559714Y-93696285D02*
X78559714Y-93505809D01*
X78559714Y-93505809D02*
X78607333Y-93410571D01*
X78607333Y-93410571D02*
X78654952Y-93362952D01*
X78654952Y-93362952D02*
X78750190Y-93315333D01*
X261193783Y-98716306D02*
X261241402Y-98763926D01*
X261241402Y-98763926D02*
X261384259Y-98811545D01*
X261384259Y-98811545D02*
X261479497Y-98811545D01*
X261479497Y-98811545D02*
X261622354Y-98763926D01*
X261622354Y-98763926D02*
X261717592Y-98668687D01*
X261717592Y-98668687D02*
X261765211Y-98573449D01*
X261765211Y-98573449D02*
X261812830Y-98382973D01*
X261812830Y-98382973D02*
X261812830Y-98240116D01*
X261812830Y-98240116D02*
X261765211Y-98049640D01*
X261765211Y-98049640D02*
X261717592Y-97954402D01*
X261717592Y-97954402D02*
X261622354Y-97859164D01*
X261622354Y-97859164D02*
X261479497Y-97811545D01*
X261479497Y-97811545D02*
X261384259Y-97811545D01*
X261384259Y-97811545D02*
X261241402Y-97859164D01*
X261241402Y-97859164D02*
X261193783Y-97906783D01*
X260336640Y-98144878D02*
X260336640Y-98811545D01*
X260574735Y-97763926D02*
X260812830Y-98478211D01*
X260812830Y-98478211D02*
X260193783Y-98478211D01*
X261293783Y-81681546D02*
X261627116Y-81205355D01*
X261865211Y-81681546D02*
X261865211Y-80681546D01*
X261865211Y-80681546D02*
X261484259Y-80681546D01*
X261484259Y-80681546D02*
X261389021Y-80729165D01*
X261389021Y-80729165D02*
X261341402Y-80776784D01*
X261341402Y-80776784D02*
X261293783Y-80872022D01*
X261293783Y-80872022D02*
X261293783Y-81014879D01*
X261293783Y-81014879D02*
X261341402Y-81110117D01*
X261341402Y-81110117D02*
X261389021Y-81157736D01*
X261389021Y-81157736D02*
X261484259Y-81205355D01*
X261484259Y-81205355D02*
X261865211Y-81205355D01*
X260912830Y-80776784D02*
X260865211Y-80729165D01*
X260865211Y-80729165D02*
X260769973Y-80681546D01*
X260769973Y-80681546D02*
X260531878Y-80681546D01*
X260531878Y-80681546D02*
X260436640Y-80729165D01*
X260436640Y-80729165D02*
X260389021Y-80776784D01*
X260389021Y-80776784D02*
X260341402Y-80872022D01*
X260341402Y-80872022D02*
X260341402Y-80967260D01*
X260341402Y-80967260D02*
X260389021Y-81110117D01*
X260389021Y-81110117D02*
X260960449Y-81681546D01*
X260960449Y-81681546D02*
X260341402Y-81681546D01*
X107760686Y-34724257D02*
X106760686Y-34724257D01*
X106760686Y-34724257D02*
X106760686Y-34962352D01*
X106760686Y-34962352D02*
X106808305Y-35105209D01*
X106808305Y-35105209D02*
X106903543Y-35200447D01*
X106903543Y-35200447D02*
X106998781Y-35248066D01*
X106998781Y-35248066D02*
X107189257Y-35295685D01*
X107189257Y-35295685D02*
X107332114Y-35295685D01*
X107332114Y-35295685D02*
X107522590Y-35248066D01*
X107522590Y-35248066D02*
X107617828Y-35200447D01*
X107617828Y-35200447D02*
X107713067Y-35105209D01*
X107713067Y-35105209D02*
X107760686Y-34962352D01*
X107760686Y-34962352D02*
X107760686Y-34724257D01*
X107094019Y-36152828D02*
X107760686Y-36152828D01*
X106713067Y-35914733D02*
X107427352Y-35676638D01*
X107427352Y-35676638D02*
X107427352Y-36295685D01*
X261193783Y-97216307D02*
X261241402Y-97263927D01*
X261241402Y-97263927D02*
X261384259Y-97311546D01*
X261384259Y-97311546D02*
X261479497Y-97311546D01*
X261479497Y-97311546D02*
X261622354Y-97263927D01*
X261622354Y-97263927D02*
X261717592Y-97168688D01*
X261717592Y-97168688D02*
X261765211Y-97073450D01*
X261765211Y-97073450D02*
X261812830Y-96882974D01*
X261812830Y-96882974D02*
X261812830Y-96740117D01*
X261812830Y-96740117D02*
X261765211Y-96549641D01*
X261765211Y-96549641D02*
X261717592Y-96454403D01*
X261717592Y-96454403D02*
X261622354Y-96359165D01*
X261622354Y-96359165D02*
X261479497Y-96311546D01*
X261479497Y-96311546D02*
X261384259Y-96311546D01*
X261384259Y-96311546D02*
X261241402Y-96359165D01*
X261241402Y-96359165D02*
X261193783Y-96406784D01*
X260336640Y-96311546D02*
X260527116Y-96311546D01*
X260527116Y-96311546D02*
X260622354Y-96359165D01*
X260622354Y-96359165D02*
X260669973Y-96406784D01*
X260669973Y-96406784D02*
X260765211Y-96549641D01*
X260765211Y-96549641D02*
X260812830Y-96740117D01*
X260812830Y-96740117D02*
X260812830Y-97121069D01*
X260812830Y-97121069D02*
X260765211Y-97216307D01*
X260765211Y-97216307D02*
X260717592Y-97263927D01*
X260717592Y-97263927D02*
X260622354Y-97311546D01*
X260622354Y-97311546D02*
X260431878Y-97311546D01*
X260431878Y-97311546D02*
X260336640Y-97263927D01*
X260336640Y-97263927D02*
X260289021Y-97216307D01*
X260289021Y-97216307D02*
X260241402Y-97121069D01*
X260241402Y-97121069D02*
X260241402Y-96882974D01*
X260241402Y-96882974D02*
X260289021Y-96787736D01*
X260289021Y-96787736D02*
X260336640Y-96740117D01*
X260336640Y-96740117D02*
X260431878Y-96692498D01*
X260431878Y-96692498D02*
X260622354Y-96692498D01*
X260622354Y-96692498D02*
X260717592Y-96740117D01*
X260717592Y-96740117D02*
X260765211Y-96787736D01*
X260765211Y-96787736D02*
X260812830Y-96882974D01*
X48910449Y-90138927D02*
X48767592Y-90186546D01*
X48767592Y-90186546D02*
X48529497Y-90186546D01*
X48529497Y-90186546D02*
X48434259Y-90138927D01*
X48434259Y-90138927D02*
X48386640Y-90091307D01*
X48386640Y-90091307D02*
X48339021Y-89996069D01*
X48339021Y-89996069D02*
X48339021Y-89900831D01*
X48339021Y-89900831D02*
X48386640Y-89805593D01*
X48386640Y-89805593D02*
X48434259Y-89757974D01*
X48434259Y-89757974D02*
X48529497Y-89710355D01*
X48529497Y-89710355D02*
X48719973Y-89662736D01*
X48719973Y-89662736D02*
X48815211Y-89615117D01*
X48815211Y-89615117D02*
X48862830Y-89567498D01*
X48862830Y-89567498D02*
X48910449Y-89472260D01*
X48910449Y-89472260D02*
X48910449Y-89377022D01*
X48910449Y-89377022D02*
X48862830Y-89281784D01*
X48862830Y-89281784D02*
X48815211Y-89234165D01*
X48815211Y-89234165D02*
X48719973Y-89186546D01*
X48719973Y-89186546D02*
X48481878Y-89186546D01*
X48481878Y-89186546D02*
X48339021Y-89234165D01*
X48005687Y-89186546D02*
X47767592Y-90186546D01*
X47767592Y-90186546D02*
X47577116Y-89472260D01*
X47577116Y-89472260D02*
X47386640Y-90186546D01*
X47386640Y-90186546D02*
X47148545Y-89186546D01*
X46815211Y-89281784D02*
X46767592Y-89234165D01*
X46767592Y-89234165D02*
X46672354Y-89186546D01*
X46672354Y-89186546D02*
X46434259Y-89186546D01*
X46434259Y-89186546D02*
X46339021Y-89234165D01*
X46339021Y-89234165D02*
X46291402Y-89281784D01*
X46291402Y-89281784D02*
X46243783Y-89377022D01*
X46243783Y-89377022D02*
X46243783Y-89472260D01*
X46243783Y-89472260D02*
X46291402Y-89615117D01*
X46291402Y-89615117D02*
X46862830Y-90186546D01*
X46862830Y-90186546D02*
X46243783Y-90186546D01*
X242036697Y-99363869D02*
X242084317Y-99316250D01*
X242084317Y-99316250D02*
X242131936Y-99173393D01*
X242131936Y-99173393D02*
X242131936Y-99078155D01*
X242131936Y-99078155D02*
X242084317Y-98935298D01*
X242084317Y-98935298D02*
X241989078Y-98840060D01*
X241989078Y-98840060D02*
X241893840Y-98792441D01*
X241893840Y-98792441D02*
X241703364Y-98744822D01*
X241703364Y-98744822D02*
X241560507Y-98744822D01*
X241560507Y-98744822D02*
X241370031Y-98792441D01*
X241370031Y-98792441D02*
X241274793Y-98840060D01*
X241274793Y-98840060D02*
X241179555Y-98935298D01*
X241179555Y-98935298D02*
X241131936Y-99078155D01*
X241131936Y-99078155D02*
X241131936Y-99173393D01*
X241131936Y-99173393D02*
X241179555Y-99316250D01*
X241179555Y-99316250D02*
X241227174Y-99363869D01*
X242131936Y-100316250D02*
X242131936Y-99744822D01*
X242131936Y-100030536D02*
X241131936Y-100030536D01*
X241131936Y-100030536D02*
X241274793Y-99935298D01*
X241274793Y-99935298D02*
X241370031Y-99840060D01*
X241370031Y-99840060D02*
X241417650Y-99744822D01*
X241131936Y-100649584D02*
X241131936Y-101316250D01*
X241131936Y-101316250D02*
X242131936Y-100887679D01*
X255264021Y-92261546D02*
X255264021Y-93071069D01*
X255264021Y-93071069D02*
X255216402Y-93166307D01*
X255216402Y-93166307D02*
X255168783Y-93213927D01*
X255168783Y-93213927D02*
X255073545Y-93261546D01*
X255073545Y-93261546D02*
X254883069Y-93261546D01*
X254883069Y-93261546D02*
X254787831Y-93213927D01*
X254787831Y-93213927D02*
X254740212Y-93166307D01*
X254740212Y-93166307D02*
X254692593Y-93071069D01*
X254692593Y-93071069D02*
X254692593Y-92261546D01*
X254264021Y-92356784D02*
X254216402Y-92309165D01*
X254216402Y-92309165D02*
X254121164Y-92261546D01*
X254121164Y-92261546D02*
X253883069Y-92261546D01*
X253883069Y-92261546D02*
X253787831Y-92309165D01*
X253787831Y-92309165D02*
X253740212Y-92356784D01*
X253740212Y-92356784D02*
X253692593Y-92452022D01*
X253692593Y-92452022D02*
X253692593Y-92547260D01*
X253692593Y-92547260D02*
X253740212Y-92690117D01*
X253740212Y-92690117D02*
X254311640Y-93261546D01*
X254311640Y-93261546D02*
X253692593Y-93261546D01*
X243423361Y-85221183D02*
X243995780Y-85120168D01*
X243827422Y-85625244D02*
X244534528Y-84918137D01*
X244534528Y-84918137D02*
X244265154Y-84648763D01*
X244265154Y-84648763D02*
X244164139Y-84615091D01*
X244164139Y-84615091D02*
X244096796Y-84615091D01*
X244096796Y-84615091D02*
X243995780Y-84648763D01*
X243995780Y-84648763D02*
X243894765Y-84749778D01*
X243894765Y-84749778D02*
X243861093Y-84850794D01*
X243861093Y-84850794D02*
X243861093Y-84918137D01*
X243861093Y-84918137D02*
X243894765Y-85019152D01*
X243894765Y-85019152D02*
X244164139Y-85288526D01*
X243288674Y-84143687D02*
X242817269Y-84615091D01*
X243726406Y-84042672D02*
X243389689Y-84716107D01*
X243389689Y-84716107D02*
X242951956Y-84278374D01*
X198248186Y-72744941D02*
X197248186Y-72744941D01*
X197248186Y-72744941D02*
X197248186Y-72983036D01*
X197248186Y-72983036D02*
X197295805Y-73125893D01*
X197295805Y-73125893D02*
X197391043Y-73221131D01*
X197391043Y-73221131D02*
X197486281Y-73268750D01*
X197486281Y-73268750D02*
X197676757Y-73316369D01*
X197676757Y-73316369D02*
X197819614Y-73316369D01*
X197819614Y-73316369D02*
X198010090Y-73268750D01*
X198010090Y-73268750D02*
X198105328Y-73221131D01*
X198105328Y-73221131D02*
X198200567Y-73125893D01*
X198200567Y-73125893D02*
X198248186Y-72983036D01*
X198248186Y-72983036D02*
X198248186Y-72744941D01*
X197248186Y-73649703D02*
X197248186Y-74268750D01*
X197248186Y-74268750D02*
X197629138Y-73935417D01*
X197629138Y-73935417D02*
X197629138Y-74078274D01*
X197629138Y-74078274D02*
X197676757Y-74173512D01*
X197676757Y-74173512D02*
X197724376Y-74221131D01*
X197724376Y-74221131D02*
X197819614Y-74268750D01*
X197819614Y-74268750D02*
X198057709Y-74268750D01*
X198057709Y-74268750D02*
X198152947Y-74221131D01*
X198152947Y-74221131D02*
X198200567Y-74173512D01*
X198200567Y-74173512D02*
X198248186Y-74078274D01*
X198248186Y-74078274D02*
X198248186Y-73792560D01*
X198248186Y-73792560D02*
X198200567Y-73697322D01*
X198200567Y-73697322D02*
X198152947Y-73649703D01*
X197343424Y-74649703D02*
X197295805Y-74697322D01*
X197295805Y-74697322D02*
X197248186Y-74792560D01*
X197248186Y-74792560D02*
X197248186Y-75030655D01*
X197248186Y-75030655D02*
X197295805Y-75125893D01*
X197295805Y-75125893D02*
X197343424Y-75173512D01*
X197343424Y-75173512D02*
X197438662Y-75221131D01*
X197438662Y-75221131D02*
X197533900Y-75221131D01*
X197533900Y-75221131D02*
X197676757Y-75173512D01*
X197676757Y-75173512D02*
X198248186Y-74602084D01*
X198248186Y-74602084D02*
X198248186Y-75221131D01*
X261293783Y-86516546D02*
X261627116Y-86040355D01*
X261865211Y-86516546D02*
X261865211Y-85516546D01*
X261865211Y-85516546D02*
X261484259Y-85516546D01*
X261484259Y-85516546D02*
X261389021Y-85564165D01*
X261389021Y-85564165D02*
X261341402Y-85611784D01*
X261341402Y-85611784D02*
X261293783Y-85707022D01*
X261293783Y-85707022D02*
X261293783Y-85849879D01*
X261293783Y-85849879D02*
X261341402Y-85945117D01*
X261341402Y-85945117D02*
X261389021Y-85992736D01*
X261389021Y-85992736D02*
X261484259Y-86040355D01*
X261484259Y-86040355D02*
X261865211Y-86040355D01*
X260341402Y-86516546D02*
X260912830Y-86516546D01*
X260627116Y-86516546D02*
X260627116Y-85516546D01*
X260627116Y-85516546D02*
X260722354Y-85659403D01*
X260722354Y-85659403D02*
X260817592Y-85754641D01*
X260817592Y-85754641D02*
X260912830Y-85802260D01*
X242443783Y-94646941D02*
X242491402Y-94694561D01*
X242491402Y-94694561D02*
X242634259Y-94742180D01*
X242634259Y-94742180D02*
X242729497Y-94742180D01*
X242729497Y-94742180D02*
X242872354Y-94694561D01*
X242872354Y-94694561D02*
X242967592Y-94599322D01*
X242967592Y-94599322D02*
X243015211Y-94504084D01*
X243015211Y-94504084D02*
X243062830Y-94313608D01*
X243062830Y-94313608D02*
X243062830Y-94170751D01*
X243062830Y-94170751D02*
X243015211Y-93980275D01*
X243015211Y-93980275D02*
X242967592Y-93885037D01*
X242967592Y-93885037D02*
X242872354Y-93789799D01*
X242872354Y-93789799D02*
X242729497Y-93742180D01*
X242729497Y-93742180D02*
X242634259Y-93742180D01*
X242634259Y-93742180D02*
X242491402Y-93789799D01*
X242491402Y-93789799D02*
X242443783Y-93837418D01*
X241539021Y-93742180D02*
X242015211Y-93742180D01*
X242015211Y-93742180D02*
X242062830Y-94218370D01*
X242062830Y-94218370D02*
X242015211Y-94170751D01*
X242015211Y-94170751D02*
X241919973Y-94123132D01*
X241919973Y-94123132D02*
X241681878Y-94123132D01*
X241681878Y-94123132D02*
X241586640Y-94170751D01*
X241586640Y-94170751D02*
X241539021Y-94218370D01*
X241539021Y-94218370D02*
X241491402Y-94313608D01*
X241491402Y-94313608D02*
X241491402Y-94551703D01*
X241491402Y-94551703D02*
X241539021Y-94646941D01*
X241539021Y-94646941D02*
X241586640Y-94694561D01*
X241586640Y-94694561D02*
X241681878Y-94742180D01*
X241681878Y-94742180D02*
X241919973Y-94742180D01*
X241919973Y-94742180D02*
X242015211Y-94694561D01*
X242015211Y-94694561D02*
X242062830Y-94646941D01*
X74423186Y-53298066D02*
X73423186Y-53298066D01*
X73423186Y-53298066D02*
X73423186Y-53536161D01*
X73423186Y-53536161D02*
X73470805Y-53679018D01*
X73470805Y-53679018D02*
X73566043Y-53774256D01*
X73566043Y-53774256D02*
X73661281Y-53821875D01*
X73661281Y-53821875D02*
X73851757Y-53869494D01*
X73851757Y-53869494D02*
X73994614Y-53869494D01*
X73994614Y-53869494D02*
X74185090Y-53821875D01*
X74185090Y-53821875D02*
X74280328Y-53774256D01*
X74280328Y-53774256D02*
X74375567Y-53679018D01*
X74375567Y-53679018D02*
X74423186Y-53536161D01*
X74423186Y-53536161D02*
X74423186Y-53298066D01*
X74423186Y-54821875D02*
X74423186Y-54250447D01*
X74423186Y-54536161D02*
X73423186Y-54536161D01*
X73423186Y-54536161D02*
X73566043Y-54440923D01*
X73566043Y-54440923D02*
X73661281Y-54345685D01*
X73661281Y-54345685D02*
X73708900Y-54250447D01*
X73756519Y-55679018D02*
X74423186Y-55679018D01*
X73375567Y-55440923D02*
X74089852Y-55202828D01*
X74089852Y-55202828D02*
X74089852Y-55821875D01*
X252531936Y-103190060D02*
X252055745Y-102856727D01*
X252531936Y-102618632D02*
X251531936Y-102618632D01*
X251531936Y-102618632D02*
X251531936Y-102999584D01*
X251531936Y-102999584D02*
X251579555Y-103094822D01*
X251579555Y-103094822D02*
X251627174Y-103142441D01*
X251627174Y-103142441D02*
X251722412Y-103190060D01*
X251722412Y-103190060D02*
X251865269Y-103190060D01*
X251865269Y-103190060D02*
X251960507Y-103142441D01*
X251960507Y-103142441D02*
X252008126Y-103094822D01*
X252008126Y-103094822D02*
X252055745Y-102999584D01*
X252055745Y-102999584D02*
X252055745Y-102618632D01*
X251531936Y-104047203D02*
X251531936Y-103856727D01*
X251531936Y-103856727D02*
X251579555Y-103761489D01*
X251579555Y-103761489D02*
X251627174Y-103713870D01*
X251627174Y-103713870D02*
X251770031Y-103618632D01*
X251770031Y-103618632D02*
X251960507Y-103571013D01*
X251960507Y-103571013D02*
X252341459Y-103571013D01*
X252341459Y-103571013D02*
X252436697Y-103618632D01*
X252436697Y-103618632D02*
X252484317Y-103666251D01*
X252484317Y-103666251D02*
X252531936Y-103761489D01*
X252531936Y-103761489D02*
X252531936Y-103951965D01*
X252531936Y-103951965D02*
X252484317Y-104047203D01*
X252484317Y-104047203D02*
X252436697Y-104094822D01*
X252436697Y-104094822D02*
X252341459Y-104142441D01*
X252341459Y-104142441D02*
X252103364Y-104142441D01*
X252103364Y-104142441D02*
X252008126Y-104094822D01*
X252008126Y-104094822D02*
X251960507Y-104047203D01*
X251960507Y-104047203D02*
X251912888Y-103951965D01*
X251912888Y-103951965D02*
X251912888Y-103761489D01*
X251912888Y-103761489D02*
X251960507Y-103666251D01*
X251960507Y-103666251D02*
X252008126Y-103618632D01*
X252008126Y-103618632D02*
X252103364Y-103571013D01*
X245240705Y-88628839D02*
X245240705Y-88696183D01*
X245240705Y-88696183D02*
X245308049Y-88830870D01*
X245308049Y-88830870D02*
X245375392Y-88898213D01*
X245375392Y-88898213D02*
X245510079Y-88965557D01*
X245510079Y-88965557D02*
X245644766Y-88965557D01*
X245644766Y-88965557D02*
X245745781Y-88931885D01*
X245745781Y-88931885D02*
X245914140Y-88830870D01*
X245914140Y-88830870D02*
X246015155Y-88729855D01*
X246015155Y-88729855D02*
X246116171Y-88561496D01*
X246116171Y-88561496D02*
X246149842Y-88460481D01*
X246149842Y-88460481D02*
X246149842Y-88325794D01*
X246149842Y-88325794D02*
X246082499Y-88191107D01*
X246082499Y-88191107D02*
X246015155Y-88123763D01*
X246015155Y-88123763D02*
X245880468Y-88056420D01*
X245880468Y-88056420D02*
X245813125Y-88056420D01*
X245173362Y-87888061D02*
X245274377Y-87921733D01*
X245274377Y-87921733D02*
X245341720Y-87921733D01*
X245341720Y-87921733D02*
X245442736Y-87888061D01*
X245442736Y-87888061D02*
X245476407Y-87854389D01*
X245476407Y-87854389D02*
X245510079Y-87753374D01*
X245510079Y-87753374D02*
X245510079Y-87686030D01*
X245510079Y-87686030D02*
X245476407Y-87585015D01*
X245476407Y-87585015D02*
X245341720Y-87450328D01*
X245341720Y-87450328D02*
X245240705Y-87416656D01*
X245240705Y-87416656D02*
X245173362Y-87416656D01*
X245173362Y-87416656D02*
X245072346Y-87450328D01*
X245072346Y-87450328D02*
X245038675Y-87484000D01*
X245038675Y-87484000D02*
X245005003Y-87585015D01*
X245005003Y-87585015D02*
X245005003Y-87652359D01*
X245005003Y-87652359D02*
X245038675Y-87753374D01*
X245038675Y-87753374D02*
X245173362Y-87888061D01*
X245173362Y-87888061D02*
X245207033Y-87989076D01*
X245207033Y-87989076D02*
X245207033Y-88056420D01*
X245207033Y-88056420D02*
X245173362Y-88157435D01*
X245173362Y-88157435D02*
X245038675Y-88292122D01*
X245038675Y-88292122D02*
X244937659Y-88325794D01*
X244937659Y-88325794D02*
X244870316Y-88325794D01*
X244870316Y-88325794D02*
X244769301Y-88292122D01*
X244769301Y-88292122D02*
X244634614Y-88157435D01*
X244634614Y-88157435D02*
X244600942Y-88056420D01*
X244600942Y-88056420D02*
X244600942Y-87989076D01*
X244600942Y-87989076D02*
X244634614Y-87888061D01*
X244634614Y-87888061D02*
X244769301Y-87753374D01*
X244769301Y-87753374D02*
X244870316Y-87719702D01*
X244870316Y-87719702D02*
X244937659Y-87719702D01*
X244937659Y-87719702D02*
X245038675Y-87753374D01*
X262541936Y-34248066D02*
X261541936Y-34248066D01*
X261541936Y-34248066D02*
X261541936Y-34486161D01*
X261541936Y-34486161D02*
X261589555Y-34629018D01*
X261589555Y-34629018D02*
X261684793Y-34724256D01*
X261684793Y-34724256D02*
X261780031Y-34771875D01*
X261780031Y-34771875D02*
X261970507Y-34819494D01*
X261970507Y-34819494D02*
X262113364Y-34819494D01*
X262113364Y-34819494D02*
X262303840Y-34771875D01*
X262303840Y-34771875D02*
X262399078Y-34724256D01*
X262399078Y-34724256D02*
X262494317Y-34629018D01*
X262494317Y-34629018D02*
X262541936Y-34486161D01*
X262541936Y-34486161D02*
X262541936Y-34248066D01*
X262541936Y-35771875D02*
X262541936Y-35200447D01*
X262541936Y-35486161D02*
X261541936Y-35486161D01*
X261541936Y-35486161D02*
X261684793Y-35390923D01*
X261684793Y-35390923D02*
X261780031Y-35295685D01*
X261780031Y-35295685D02*
X261827650Y-35200447D01*
X261637174Y-36152828D02*
X261589555Y-36200447D01*
X261589555Y-36200447D02*
X261541936Y-36295685D01*
X261541936Y-36295685D02*
X261541936Y-36533780D01*
X261541936Y-36533780D02*
X261589555Y-36629018D01*
X261589555Y-36629018D02*
X261637174Y-36676637D01*
X261637174Y-36676637D02*
X261732412Y-36724256D01*
X261732412Y-36724256D02*
X261827650Y-36724256D01*
X261827650Y-36724256D02*
X261970507Y-36676637D01*
X261970507Y-36676637D02*
X262541936Y-36105209D01*
X262541936Y-36105209D02*
X262541936Y-36724256D01*
X214910012Y-91410571D02*
X213910012Y-91410571D01*
X213910012Y-91410571D02*
X213910012Y-91648666D01*
X213910012Y-91648666D02*
X213957631Y-91791523D01*
X213957631Y-91791523D02*
X214052869Y-91886761D01*
X214052869Y-91886761D02*
X214148107Y-91934380D01*
X214148107Y-91934380D02*
X214338583Y-91981999D01*
X214338583Y-91981999D02*
X214481440Y-91981999D01*
X214481440Y-91981999D02*
X214671916Y-91934380D01*
X214671916Y-91934380D02*
X214767154Y-91886761D01*
X214767154Y-91886761D02*
X214862393Y-91791523D01*
X214862393Y-91791523D02*
X214910012Y-91648666D01*
X214910012Y-91648666D02*
X214910012Y-91410571D01*
X214243345Y-92839142D02*
X214910012Y-92839142D01*
X213862393Y-92601047D02*
X214576678Y-92362952D01*
X214576678Y-92362952D02*
X214576678Y-92981999D01*
X214910012Y-93886761D02*
X214910012Y-93315333D01*
X214910012Y-93601047D02*
X213910012Y-93601047D01*
X213910012Y-93601047D02*
X214052869Y-93505809D01*
X214052869Y-93505809D02*
X214148107Y-93410571D01*
X214148107Y-93410571D02*
X214195726Y-93315333D01*
X88710686Y-34724257D02*
X87710686Y-34724257D01*
X87710686Y-34724257D02*
X87710686Y-34962352D01*
X87710686Y-34962352D02*
X87758305Y-35105209D01*
X87758305Y-35105209D02*
X87853543Y-35200447D01*
X87853543Y-35200447D02*
X87948781Y-35248066D01*
X87948781Y-35248066D02*
X88139257Y-35295685D01*
X88139257Y-35295685D02*
X88282114Y-35295685D01*
X88282114Y-35295685D02*
X88472590Y-35248066D01*
X88472590Y-35248066D02*
X88567828Y-35200447D01*
X88567828Y-35200447D02*
X88663067Y-35105209D01*
X88663067Y-35105209D02*
X88710686Y-34962352D01*
X88710686Y-34962352D02*
X88710686Y-34724257D01*
X87710686Y-35629019D02*
X87710686Y-36248066D01*
X87710686Y-36248066D02*
X88091638Y-35914733D01*
X88091638Y-35914733D02*
X88091638Y-36057590D01*
X88091638Y-36057590D02*
X88139257Y-36152828D01*
X88139257Y-36152828D02*
X88186876Y-36200447D01*
X88186876Y-36200447D02*
X88282114Y-36248066D01*
X88282114Y-36248066D02*
X88520209Y-36248066D01*
X88520209Y-36248066D02*
X88615447Y-36200447D01*
X88615447Y-36200447D02*
X88663067Y-36152828D01*
X88663067Y-36152828D02*
X88710686Y-36057590D01*
X88710686Y-36057590D02*
X88710686Y-35771876D01*
X88710686Y-35771876D02*
X88663067Y-35676638D01*
X88663067Y-35676638D02*
X88615447Y-35629019D01*
X260274014Y-88311679D02*
X260341358Y-88311679D01*
X260341358Y-88311679D02*
X260476045Y-88244335D01*
X260476045Y-88244335D02*
X260543388Y-88176992D01*
X260543388Y-88176992D02*
X260610732Y-88042305D01*
X260610732Y-88042305D02*
X260610732Y-87907618D01*
X260610732Y-87907618D02*
X260577060Y-87806603D01*
X260577060Y-87806603D02*
X260476045Y-87638244D01*
X260476045Y-87638244D02*
X260375030Y-87537229D01*
X260375030Y-87537229D02*
X260206671Y-87436213D01*
X260206671Y-87436213D02*
X260105656Y-87402542D01*
X260105656Y-87402542D02*
X259970969Y-87402542D01*
X259970969Y-87402542D02*
X259836282Y-87469885D01*
X259836282Y-87469885D02*
X259768938Y-87537229D01*
X259768938Y-87537229D02*
X259701595Y-87671916D01*
X259701595Y-87671916D02*
X259701595Y-87739259D01*
X259432221Y-88008633D02*
X259364877Y-88008633D01*
X259364877Y-88008633D02*
X259263862Y-88042305D01*
X259263862Y-88042305D02*
X259095503Y-88210664D01*
X259095503Y-88210664D02*
X259061831Y-88311679D01*
X259061831Y-88311679D02*
X259061831Y-88379022D01*
X259061831Y-88379022D02*
X259095503Y-88480038D01*
X259095503Y-88480038D02*
X259162847Y-88547381D01*
X259162847Y-88547381D02*
X259297534Y-88614725D01*
X259297534Y-88614725D02*
X260105656Y-88614725D01*
X260105656Y-88614725D02*
X259667923Y-89052457D01*
X240736697Y-99363869D02*
X240784317Y-99316250D01*
X240784317Y-99316250D02*
X240831936Y-99173393D01*
X240831936Y-99173393D02*
X240831936Y-99078155D01*
X240831936Y-99078155D02*
X240784317Y-98935298D01*
X240784317Y-98935298D02*
X240689078Y-98840060D01*
X240689078Y-98840060D02*
X240593840Y-98792441D01*
X240593840Y-98792441D02*
X240403364Y-98744822D01*
X240403364Y-98744822D02*
X240260507Y-98744822D01*
X240260507Y-98744822D02*
X240070031Y-98792441D01*
X240070031Y-98792441D02*
X239974793Y-98840060D01*
X239974793Y-98840060D02*
X239879555Y-98935298D01*
X239879555Y-98935298D02*
X239831936Y-99078155D01*
X239831936Y-99078155D02*
X239831936Y-99173393D01*
X239831936Y-99173393D02*
X239879555Y-99316250D01*
X239879555Y-99316250D02*
X239927174Y-99363869D01*
X240831936Y-100316250D02*
X240831936Y-99744822D01*
X240831936Y-100030536D02*
X239831936Y-100030536D01*
X239831936Y-100030536D02*
X239974793Y-99935298D01*
X239974793Y-99935298D02*
X240070031Y-99840060D01*
X240070031Y-99840060D02*
X240117650Y-99744822D01*
X239831936Y-101221012D02*
X239831936Y-100744822D01*
X239831936Y-100744822D02*
X240308126Y-100697203D01*
X240308126Y-100697203D02*
X240260507Y-100744822D01*
X240260507Y-100744822D02*
X240212888Y-100840060D01*
X240212888Y-100840060D02*
X240212888Y-101078155D01*
X240212888Y-101078155D02*
X240260507Y-101173393D01*
X240260507Y-101173393D02*
X240308126Y-101221012D01*
X240308126Y-101221012D02*
X240403364Y-101268631D01*
X240403364Y-101268631D02*
X240641459Y-101268631D01*
X240641459Y-101268631D02*
X240736697Y-101221012D01*
X240736697Y-101221012D02*
X240784317Y-101173393D01*
X240784317Y-101173393D02*
X240831936Y-101078155D01*
X240831936Y-101078155D02*
X240831936Y-100840060D01*
X240831936Y-100840060D02*
X240784317Y-100744822D01*
X240784317Y-100744822D02*
X240736697Y-100697203D01*
X131573186Y-53298066D02*
X130573186Y-53298066D01*
X130573186Y-53298066D02*
X130573186Y-53536161D01*
X130573186Y-53536161D02*
X130620805Y-53679018D01*
X130620805Y-53679018D02*
X130716043Y-53774256D01*
X130716043Y-53774256D02*
X130811281Y-53821875D01*
X130811281Y-53821875D02*
X131001757Y-53869494D01*
X131001757Y-53869494D02*
X131144614Y-53869494D01*
X131144614Y-53869494D02*
X131335090Y-53821875D01*
X131335090Y-53821875D02*
X131430328Y-53774256D01*
X131430328Y-53774256D02*
X131525567Y-53679018D01*
X131525567Y-53679018D02*
X131573186Y-53536161D01*
X131573186Y-53536161D02*
X131573186Y-53298066D01*
X131573186Y-54821875D02*
X131573186Y-54250447D01*
X131573186Y-54536161D02*
X130573186Y-54536161D01*
X130573186Y-54536161D02*
X130716043Y-54440923D01*
X130716043Y-54440923D02*
X130811281Y-54345685D01*
X130811281Y-54345685D02*
X130858900Y-54250447D01*
X130573186Y-55155209D02*
X130573186Y-55821875D01*
X130573186Y-55821875D02*
X131573186Y-55393304D01*
X242419974Y-93091307D02*
X242467593Y-93138927D01*
X242467593Y-93138927D02*
X242610450Y-93186546D01*
X242610450Y-93186546D02*
X242705688Y-93186546D01*
X242705688Y-93186546D02*
X242848545Y-93138927D01*
X242848545Y-93138927D02*
X242943783Y-93043688D01*
X242943783Y-93043688D02*
X242991402Y-92948450D01*
X242991402Y-92948450D02*
X243039021Y-92757974D01*
X243039021Y-92757974D02*
X243039021Y-92615117D01*
X243039021Y-92615117D02*
X242991402Y-92424641D01*
X242991402Y-92424641D02*
X242943783Y-92329403D01*
X242943783Y-92329403D02*
X242848545Y-92234165D01*
X242848545Y-92234165D02*
X242705688Y-92186546D01*
X242705688Y-92186546D02*
X242610450Y-92186546D01*
X242610450Y-92186546D02*
X242467593Y-92234165D01*
X242467593Y-92234165D02*
X242419974Y-92281784D01*
X241467593Y-93186546D02*
X242039021Y-93186546D01*
X241753307Y-93186546D02*
X241753307Y-92186546D01*
X241753307Y-92186546D02*
X241848545Y-92329403D01*
X241848545Y-92329403D02*
X241943783Y-92424641D01*
X241943783Y-92424641D02*
X242039021Y-92472260D01*
X240848545Y-92186546D02*
X240753307Y-92186546D01*
X240753307Y-92186546D02*
X240658069Y-92234165D01*
X240658069Y-92234165D02*
X240610450Y-92281784D01*
X240610450Y-92281784D02*
X240562831Y-92377022D01*
X240562831Y-92377022D02*
X240515212Y-92567498D01*
X240515212Y-92567498D02*
X240515212Y-92805593D01*
X240515212Y-92805593D02*
X240562831Y-92996069D01*
X240562831Y-92996069D02*
X240610450Y-93091307D01*
X240610450Y-93091307D02*
X240658069Y-93138927D01*
X240658069Y-93138927D02*
X240753307Y-93186546D01*
X240753307Y-93186546D02*
X240848545Y-93186546D01*
X240848545Y-93186546D02*
X240943783Y-93138927D01*
X240943783Y-93138927D02*
X240991402Y-93091307D01*
X240991402Y-93091307D02*
X241039021Y-92996069D01*
X241039021Y-92996069D02*
X241086640Y-92805593D01*
X241086640Y-92805593D02*
X241086640Y-92567498D01*
X241086640Y-92567498D02*
X241039021Y-92377022D01*
X241039021Y-92377022D02*
X240991402Y-92281784D01*
X240991402Y-92281784D02*
X240943783Y-92234165D01*
X240943783Y-92234165D02*
X240848545Y-92186546D01*
X60135686Y-72744941D02*
X59135686Y-72744941D01*
X59135686Y-72744941D02*
X59135686Y-72983036D01*
X59135686Y-72983036D02*
X59183305Y-73125893D01*
X59183305Y-73125893D02*
X59278543Y-73221131D01*
X59278543Y-73221131D02*
X59373781Y-73268750D01*
X59373781Y-73268750D02*
X59564257Y-73316369D01*
X59564257Y-73316369D02*
X59707114Y-73316369D01*
X59707114Y-73316369D02*
X59897590Y-73268750D01*
X59897590Y-73268750D02*
X59992828Y-73221131D01*
X59992828Y-73221131D02*
X60088067Y-73125893D01*
X60088067Y-73125893D02*
X60135686Y-72983036D01*
X60135686Y-72983036D02*
X60135686Y-72744941D01*
X59230924Y-73697322D02*
X59183305Y-73744941D01*
X59183305Y-73744941D02*
X59135686Y-73840179D01*
X59135686Y-73840179D02*
X59135686Y-74078274D01*
X59135686Y-74078274D02*
X59183305Y-74173512D01*
X59183305Y-74173512D02*
X59230924Y-74221131D01*
X59230924Y-74221131D02*
X59326162Y-74268750D01*
X59326162Y-74268750D02*
X59421400Y-74268750D01*
X59421400Y-74268750D02*
X59564257Y-74221131D01*
X59564257Y-74221131D02*
X60135686Y-73649703D01*
X60135686Y-73649703D02*
X60135686Y-74268750D01*
X59135686Y-75173512D02*
X59135686Y-74697322D01*
X59135686Y-74697322D02*
X59611876Y-74649703D01*
X59611876Y-74649703D02*
X59564257Y-74697322D01*
X59564257Y-74697322D02*
X59516638Y-74792560D01*
X59516638Y-74792560D02*
X59516638Y-75030655D01*
X59516638Y-75030655D02*
X59564257Y-75125893D01*
X59564257Y-75125893D02*
X59611876Y-75173512D01*
X59611876Y-75173512D02*
X59707114Y-75221131D01*
X59707114Y-75221131D02*
X59945209Y-75221131D01*
X59945209Y-75221131D02*
X60040447Y-75173512D01*
X60040447Y-75173512D02*
X60088067Y-75125893D01*
X60088067Y-75125893D02*
X60135686Y-75030655D01*
X60135686Y-75030655D02*
X60135686Y-74792560D01*
X60135686Y-74792560D02*
X60088067Y-74697322D01*
X60088067Y-74697322D02*
X60040447Y-74649703D01*
X112523186Y-53298066D02*
X111523186Y-53298066D01*
X111523186Y-53298066D02*
X111523186Y-53536161D01*
X111523186Y-53536161D02*
X111570805Y-53679018D01*
X111570805Y-53679018D02*
X111666043Y-53774256D01*
X111666043Y-53774256D02*
X111761281Y-53821875D01*
X111761281Y-53821875D02*
X111951757Y-53869494D01*
X111951757Y-53869494D02*
X112094614Y-53869494D01*
X112094614Y-53869494D02*
X112285090Y-53821875D01*
X112285090Y-53821875D02*
X112380328Y-53774256D01*
X112380328Y-53774256D02*
X112475567Y-53679018D01*
X112475567Y-53679018D02*
X112523186Y-53536161D01*
X112523186Y-53536161D02*
X112523186Y-53298066D01*
X112523186Y-54821875D02*
X112523186Y-54250447D01*
X112523186Y-54536161D02*
X111523186Y-54536161D01*
X111523186Y-54536161D02*
X111666043Y-54440923D01*
X111666043Y-54440923D02*
X111761281Y-54345685D01*
X111761281Y-54345685D02*
X111808900Y-54250447D01*
X111523186Y-55679018D02*
X111523186Y-55488542D01*
X111523186Y-55488542D02*
X111570805Y-55393304D01*
X111570805Y-55393304D02*
X111618424Y-55345685D01*
X111618424Y-55345685D02*
X111761281Y-55250447D01*
X111761281Y-55250447D02*
X111951757Y-55202828D01*
X111951757Y-55202828D02*
X112332709Y-55202828D01*
X112332709Y-55202828D02*
X112427947Y-55250447D01*
X112427947Y-55250447D02*
X112475567Y-55298066D01*
X112475567Y-55298066D02*
X112523186Y-55393304D01*
X112523186Y-55393304D02*
X112523186Y-55583780D01*
X112523186Y-55583780D02*
X112475567Y-55679018D01*
X112475567Y-55679018D02*
X112427947Y-55726637D01*
X112427947Y-55726637D02*
X112332709Y-55774256D01*
X112332709Y-55774256D02*
X112094614Y-55774256D01*
X112094614Y-55774256D02*
X111999376Y-55726637D01*
X111999376Y-55726637D02*
X111951757Y-55679018D01*
X111951757Y-55679018D02*
X111904138Y-55583780D01*
X111904138Y-55583780D02*
X111904138Y-55393304D01*
X111904138Y-55393304D02*
X111951757Y-55298066D01*
X111951757Y-55298066D02*
X111999376Y-55250447D01*
X111999376Y-55250447D02*
X112094614Y-55202828D01*
X236087262Y-91410571D02*
X235087262Y-91410571D01*
X235087262Y-91410571D02*
X235087262Y-91648666D01*
X235087262Y-91648666D02*
X235134881Y-91791523D01*
X235134881Y-91791523D02*
X235230119Y-91886761D01*
X235230119Y-91886761D02*
X235325357Y-91934380D01*
X235325357Y-91934380D02*
X235515833Y-91981999D01*
X235515833Y-91981999D02*
X235658690Y-91981999D01*
X235658690Y-91981999D02*
X235849166Y-91934380D01*
X235849166Y-91934380D02*
X235944404Y-91886761D01*
X235944404Y-91886761D02*
X236039643Y-91791523D01*
X236039643Y-91791523D02*
X236087262Y-91648666D01*
X236087262Y-91648666D02*
X236087262Y-91410571D01*
X235420595Y-92839142D02*
X236087262Y-92839142D01*
X235039643Y-92601047D02*
X235753928Y-92362952D01*
X235753928Y-92362952D02*
X235753928Y-92981999D01*
X235182500Y-93315333D02*
X235134881Y-93362952D01*
X235134881Y-93362952D02*
X235087262Y-93458190D01*
X235087262Y-93458190D02*
X235087262Y-93696285D01*
X235087262Y-93696285D02*
X235134881Y-93791523D01*
X235134881Y-93791523D02*
X235182500Y-93839142D01*
X235182500Y-93839142D02*
X235277738Y-93886761D01*
X235277738Y-93886761D02*
X235372976Y-93886761D01*
X235372976Y-93886761D02*
X235515833Y-93839142D01*
X235515833Y-93839142D02*
X236087262Y-93267714D01*
X236087262Y-93267714D02*
X236087262Y-93886761D01*
X186176262Y-91410571D02*
X185176262Y-91410571D01*
X185176262Y-91410571D02*
X185176262Y-91648666D01*
X185176262Y-91648666D02*
X185223881Y-91791523D01*
X185223881Y-91791523D02*
X185319119Y-91886761D01*
X185319119Y-91886761D02*
X185414357Y-91934380D01*
X185414357Y-91934380D02*
X185604833Y-91981999D01*
X185604833Y-91981999D02*
X185747690Y-91981999D01*
X185747690Y-91981999D02*
X185938166Y-91934380D01*
X185938166Y-91934380D02*
X186033404Y-91886761D01*
X186033404Y-91886761D02*
X186128643Y-91791523D01*
X186128643Y-91791523D02*
X186176262Y-91648666D01*
X186176262Y-91648666D02*
X186176262Y-91410571D01*
X185509595Y-92839142D02*
X186176262Y-92839142D01*
X185128643Y-92601047D02*
X185842928Y-92362952D01*
X185842928Y-92362952D02*
X185842928Y-92981999D01*
X185176262Y-93553428D02*
X185176262Y-93648666D01*
X185176262Y-93648666D02*
X185223881Y-93743904D01*
X185223881Y-93743904D02*
X185271500Y-93791523D01*
X185271500Y-93791523D02*
X185366738Y-93839142D01*
X185366738Y-93839142D02*
X185557214Y-93886761D01*
X185557214Y-93886761D02*
X185795309Y-93886761D01*
X185795309Y-93886761D02*
X185985785Y-93839142D01*
X185985785Y-93839142D02*
X186081023Y-93791523D01*
X186081023Y-93791523D02*
X186128643Y-93743904D01*
X186128643Y-93743904D02*
X186176262Y-93648666D01*
X186176262Y-93648666D02*
X186176262Y-93553428D01*
X186176262Y-93553428D02*
X186128643Y-93458190D01*
X186128643Y-93458190D02*
X186081023Y-93410571D01*
X186081023Y-93410571D02*
X185985785Y-93362952D01*
X185985785Y-93362952D02*
X185795309Y-93315333D01*
X185795309Y-93315333D02*
X185557214Y-93315333D01*
X185557214Y-93315333D02*
X185366738Y-93362952D01*
X185366738Y-93362952D02*
X185271500Y-93410571D01*
X185271500Y-93410571D02*
X185223881Y-93458190D01*
X185223881Y-93458190D02*
X185176262Y-93553428D01*
X69660686Y-34724257D02*
X68660686Y-34724257D01*
X68660686Y-34724257D02*
X68660686Y-34962352D01*
X68660686Y-34962352D02*
X68708305Y-35105209D01*
X68708305Y-35105209D02*
X68803543Y-35200447D01*
X68803543Y-35200447D02*
X68898781Y-35248066D01*
X68898781Y-35248066D02*
X69089257Y-35295685D01*
X69089257Y-35295685D02*
X69232114Y-35295685D01*
X69232114Y-35295685D02*
X69422590Y-35248066D01*
X69422590Y-35248066D02*
X69517828Y-35200447D01*
X69517828Y-35200447D02*
X69613067Y-35105209D01*
X69613067Y-35105209D02*
X69660686Y-34962352D01*
X69660686Y-34962352D02*
X69660686Y-34724257D01*
X68755924Y-35676638D02*
X68708305Y-35724257D01*
X68708305Y-35724257D02*
X68660686Y-35819495D01*
X68660686Y-35819495D02*
X68660686Y-36057590D01*
X68660686Y-36057590D02*
X68708305Y-36152828D01*
X68708305Y-36152828D02*
X68755924Y-36200447D01*
X68755924Y-36200447D02*
X68851162Y-36248066D01*
X68851162Y-36248066D02*
X68946400Y-36248066D01*
X68946400Y-36248066D02*
X69089257Y-36200447D01*
X69089257Y-36200447D02*
X69660686Y-35629019D01*
X69660686Y-35629019D02*
X69660686Y-36248066D01*
X255189021Y-78951546D02*
X255189021Y-79761069D01*
X255189021Y-79761069D02*
X255141402Y-79856307D01*
X255141402Y-79856307D02*
X255093783Y-79903927D01*
X255093783Y-79903927D02*
X254998545Y-79951546D01*
X254998545Y-79951546D02*
X254808069Y-79951546D01*
X254808069Y-79951546D02*
X254712831Y-79903927D01*
X254712831Y-79903927D02*
X254665212Y-79856307D01*
X254665212Y-79856307D02*
X254617593Y-79761069D01*
X254617593Y-79761069D02*
X254617593Y-78951546D01*
X254236640Y-78951546D02*
X253617593Y-78951546D01*
X253617593Y-78951546D02*
X253950926Y-79332498D01*
X253950926Y-79332498D02*
X253808069Y-79332498D01*
X253808069Y-79332498D02*
X253712831Y-79380117D01*
X253712831Y-79380117D02*
X253665212Y-79427736D01*
X253665212Y-79427736D02*
X253617593Y-79522974D01*
X253617593Y-79522974D02*
X253617593Y-79761069D01*
X253617593Y-79761069D02*
X253665212Y-79856307D01*
X253665212Y-79856307D02*
X253712831Y-79903927D01*
X253712831Y-79903927D02*
X253808069Y-79951546D01*
X253808069Y-79951546D02*
X254093783Y-79951546D01*
X254093783Y-79951546D02*
X254189021Y-79903927D01*
X254189021Y-79903927D02*
X254236640Y-79856307D01*
X52991936Y-53298066D02*
X51991936Y-53298066D01*
X51991936Y-53298066D02*
X51991936Y-53536161D01*
X51991936Y-53536161D02*
X52039555Y-53679018D01*
X52039555Y-53679018D02*
X52134793Y-53774256D01*
X52134793Y-53774256D02*
X52230031Y-53821875D01*
X52230031Y-53821875D02*
X52420507Y-53869494D01*
X52420507Y-53869494D02*
X52563364Y-53869494D01*
X52563364Y-53869494D02*
X52753840Y-53821875D01*
X52753840Y-53821875D02*
X52849078Y-53774256D01*
X52849078Y-53774256D02*
X52944317Y-53679018D01*
X52944317Y-53679018D02*
X52991936Y-53536161D01*
X52991936Y-53536161D02*
X52991936Y-53298066D01*
X52991936Y-54821875D02*
X52991936Y-54250447D01*
X52991936Y-54536161D02*
X51991936Y-54536161D01*
X51991936Y-54536161D02*
X52134793Y-54440923D01*
X52134793Y-54440923D02*
X52230031Y-54345685D01*
X52230031Y-54345685D02*
X52277650Y-54250447D01*
X51991936Y-55155209D02*
X51991936Y-55774256D01*
X51991936Y-55774256D02*
X52372888Y-55440923D01*
X52372888Y-55440923D02*
X52372888Y-55583780D01*
X52372888Y-55583780D02*
X52420507Y-55679018D01*
X52420507Y-55679018D02*
X52468126Y-55726637D01*
X52468126Y-55726637D02*
X52563364Y-55774256D01*
X52563364Y-55774256D02*
X52801459Y-55774256D01*
X52801459Y-55774256D02*
X52896697Y-55726637D01*
X52896697Y-55726637D02*
X52944317Y-55679018D01*
X52944317Y-55679018D02*
X52991936Y-55583780D01*
X52991936Y-55583780D02*
X52991936Y-55298066D01*
X52991936Y-55298066D02*
X52944317Y-55202828D01*
X52944317Y-55202828D02*
X52896697Y-55155209D01*
X258147916Y-76034580D02*
X258195535Y-76082200D01*
X258195535Y-76082200D02*
X258338392Y-76129819D01*
X258338392Y-76129819D02*
X258433630Y-76129819D01*
X258433630Y-76129819D02*
X258576487Y-76082200D01*
X258576487Y-76082200D02*
X258671725Y-75986961D01*
X258671725Y-75986961D02*
X258719344Y-75891723D01*
X258719344Y-75891723D02*
X258766963Y-75701247D01*
X258766963Y-75701247D02*
X258766963Y-75558390D01*
X258766963Y-75558390D02*
X258719344Y-75367914D01*
X258719344Y-75367914D02*
X258671725Y-75272676D01*
X258671725Y-75272676D02*
X258576487Y-75177438D01*
X258576487Y-75177438D02*
X258433630Y-75129819D01*
X258433630Y-75129819D02*
X258338392Y-75129819D01*
X258338392Y-75129819D02*
X258195535Y-75177438D01*
X258195535Y-75177438D02*
X258147916Y-75225057D01*
X257195535Y-76129819D02*
X257766963Y-76129819D01*
X257481249Y-76129819D02*
X257481249Y-75129819D01*
X257481249Y-75129819D02*
X257576487Y-75272676D01*
X257576487Y-75272676D02*
X257671725Y-75367914D01*
X257671725Y-75367914D02*
X257766963Y-75415533D01*
X261334674Y-89443049D02*
X261402018Y-89443049D01*
X261402018Y-89443049D02*
X261536705Y-89375705D01*
X261536705Y-89375705D02*
X261604048Y-89308362D01*
X261604048Y-89308362D02*
X261671392Y-89173675D01*
X261671392Y-89173675D02*
X261671392Y-89038988D01*
X261671392Y-89038988D02*
X261637720Y-88937973D01*
X261637720Y-88937973D02*
X261536705Y-88769614D01*
X261536705Y-88769614D02*
X261435690Y-88668599D01*
X261435690Y-88668599D02*
X261267331Y-88567583D01*
X261267331Y-88567583D02*
X261166316Y-88533912D01*
X261166316Y-88533912D02*
X261031629Y-88533912D01*
X261031629Y-88533912D02*
X260896942Y-88601255D01*
X260896942Y-88601255D02*
X260829598Y-88668599D01*
X260829598Y-88668599D02*
X260762255Y-88803286D01*
X260762255Y-88803286D02*
X260762255Y-88870629D01*
X260459209Y-89038988D02*
X259987804Y-89510392D01*
X259987804Y-89510392D02*
X260997957Y-89914453D01*
X83948186Y-72744941D02*
X82948186Y-72744941D01*
X82948186Y-72744941D02*
X82948186Y-72983036D01*
X82948186Y-72983036D02*
X82995805Y-73125893D01*
X82995805Y-73125893D02*
X83091043Y-73221131D01*
X83091043Y-73221131D02*
X83186281Y-73268750D01*
X83186281Y-73268750D02*
X83376757Y-73316369D01*
X83376757Y-73316369D02*
X83519614Y-73316369D01*
X83519614Y-73316369D02*
X83710090Y-73268750D01*
X83710090Y-73268750D02*
X83805328Y-73221131D01*
X83805328Y-73221131D02*
X83900567Y-73125893D01*
X83900567Y-73125893D02*
X83948186Y-72983036D01*
X83948186Y-72983036D02*
X83948186Y-72744941D01*
X83043424Y-73697322D02*
X82995805Y-73744941D01*
X82995805Y-73744941D02*
X82948186Y-73840179D01*
X82948186Y-73840179D02*
X82948186Y-74078274D01*
X82948186Y-74078274D02*
X82995805Y-74173512D01*
X82995805Y-74173512D02*
X83043424Y-74221131D01*
X83043424Y-74221131D02*
X83138662Y-74268750D01*
X83138662Y-74268750D02*
X83233900Y-74268750D01*
X83233900Y-74268750D02*
X83376757Y-74221131D01*
X83376757Y-74221131D02*
X83948186Y-73649703D01*
X83948186Y-73649703D02*
X83948186Y-74268750D01*
X82948186Y-75125893D02*
X82948186Y-74935417D01*
X82948186Y-74935417D02*
X82995805Y-74840179D01*
X82995805Y-74840179D02*
X83043424Y-74792560D01*
X83043424Y-74792560D02*
X83186281Y-74697322D01*
X83186281Y-74697322D02*
X83376757Y-74649703D01*
X83376757Y-74649703D02*
X83757709Y-74649703D01*
X83757709Y-74649703D02*
X83852947Y-74697322D01*
X83852947Y-74697322D02*
X83900567Y-74744941D01*
X83900567Y-74744941D02*
X83948186Y-74840179D01*
X83948186Y-74840179D02*
X83948186Y-75030655D01*
X83948186Y-75030655D02*
X83900567Y-75125893D01*
X83900567Y-75125893D02*
X83852947Y-75173512D01*
X83852947Y-75173512D02*
X83757709Y-75221131D01*
X83757709Y-75221131D02*
X83519614Y-75221131D01*
X83519614Y-75221131D02*
X83424376Y-75173512D01*
X83424376Y-75173512D02*
X83376757Y-75125893D01*
X83376757Y-75125893D02*
X83329138Y-75030655D01*
X83329138Y-75030655D02*
X83329138Y-74840179D01*
X83329138Y-74840179D02*
X83376757Y-74744941D01*
X83376757Y-74744941D02*
X83424376Y-74697322D01*
X83424376Y-74697322D02*
X83519614Y-74649703D01*
X126810686Y-34724257D02*
X125810686Y-34724257D01*
X125810686Y-34724257D02*
X125810686Y-34962352D01*
X125810686Y-34962352D02*
X125858305Y-35105209D01*
X125858305Y-35105209D02*
X125953543Y-35200447D01*
X125953543Y-35200447D02*
X126048781Y-35248066D01*
X126048781Y-35248066D02*
X126239257Y-35295685D01*
X126239257Y-35295685D02*
X126382114Y-35295685D01*
X126382114Y-35295685D02*
X126572590Y-35248066D01*
X126572590Y-35248066D02*
X126667828Y-35200447D01*
X126667828Y-35200447D02*
X126763067Y-35105209D01*
X126763067Y-35105209D02*
X126810686Y-34962352D01*
X126810686Y-34962352D02*
X126810686Y-34724257D01*
X125810686Y-36200447D02*
X125810686Y-35724257D01*
X125810686Y-35724257D02*
X126286876Y-35676638D01*
X126286876Y-35676638D02*
X126239257Y-35724257D01*
X126239257Y-35724257D02*
X126191638Y-35819495D01*
X126191638Y-35819495D02*
X126191638Y-36057590D01*
X126191638Y-36057590D02*
X126239257Y-36152828D01*
X126239257Y-36152828D02*
X126286876Y-36200447D01*
X126286876Y-36200447D02*
X126382114Y-36248066D01*
X126382114Y-36248066D02*
X126620209Y-36248066D01*
X126620209Y-36248066D02*
X126715447Y-36200447D01*
X126715447Y-36200447D02*
X126763067Y-36152828D01*
X126763067Y-36152828D02*
X126810686Y-36057590D01*
X126810686Y-36057590D02*
X126810686Y-35819495D01*
X126810686Y-35819495D02*
X126763067Y-35724257D01*
X126763067Y-35724257D02*
X126715447Y-35676638D01*
X201031936Y-41873393D02*
X201746221Y-41873393D01*
X201746221Y-41873393D02*
X201889078Y-41825774D01*
X201889078Y-41825774D02*
X201984317Y-41730536D01*
X201984317Y-41730536D02*
X202031936Y-41587679D01*
X202031936Y-41587679D02*
X202031936Y-41492441D01*
X202031936Y-42873393D02*
X202031936Y-42301965D01*
X202031936Y-42587679D02*
X201031936Y-42587679D01*
X201031936Y-42587679D02*
X201174793Y-42492441D01*
X201174793Y-42492441D02*
X201270031Y-42397203D01*
X201270031Y-42397203D02*
X201317650Y-42301965D01*
X150623186Y-53298066D02*
X149623186Y-53298066D01*
X149623186Y-53298066D02*
X149623186Y-53536161D01*
X149623186Y-53536161D02*
X149670805Y-53679018D01*
X149670805Y-53679018D02*
X149766043Y-53774256D01*
X149766043Y-53774256D02*
X149861281Y-53821875D01*
X149861281Y-53821875D02*
X150051757Y-53869494D01*
X150051757Y-53869494D02*
X150194614Y-53869494D01*
X150194614Y-53869494D02*
X150385090Y-53821875D01*
X150385090Y-53821875D02*
X150480328Y-53774256D01*
X150480328Y-53774256D02*
X150575567Y-53679018D01*
X150575567Y-53679018D02*
X150623186Y-53536161D01*
X150623186Y-53536161D02*
X150623186Y-53298066D01*
X150623186Y-54821875D02*
X150623186Y-54250447D01*
X150623186Y-54536161D02*
X149623186Y-54536161D01*
X149623186Y-54536161D02*
X149766043Y-54440923D01*
X149766043Y-54440923D02*
X149861281Y-54345685D01*
X149861281Y-54345685D02*
X149908900Y-54250447D01*
X150051757Y-55393304D02*
X150004138Y-55298066D01*
X150004138Y-55298066D02*
X149956519Y-55250447D01*
X149956519Y-55250447D02*
X149861281Y-55202828D01*
X149861281Y-55202828D02*
X149813662Y-55202828D01*
X149813662Y-55202828D02*
X149718424Y-55250447D01*
X149718424Y-55250447D02*
X149670805Y-55298066D01*
X149670805Y-55298066D02*
X149623186Y-55393304D01*
X149623186Y-55393304D02*
X149623186Y-55583780D01*
X149623186Y-55583780D02*
X149670805Y-55679018D01*
X149670805Y-55679018D02*
X149718424Y-55726637D01*
X149718424Y-55726637D02*
X149813662Y-55774256D01*
X149813662Y-55774256D02*
X149861281Y-55774256D01*
X149861281Y-55774256D02*
X149956519Y-55726637D01*
X149956519Y-55726637D02*
X150004138Y-55679018D01*
X150004138Y-55679018D02*
X150051757Y-55583780D01*
X150051757Y-55583780D02*
X150051757Y-55393304D01*
X150051757Y-55393304D02*
X150099376Y-55298066D01*
X150099376Y-55298066D02*
X150146995Y-55250447D01*
X150146995Y-55250447D02*
X150242233Y-55202828D01*
X150242233Y-55202828D02*
X150432709Y-55202828D01*
X150432709Y-55202828D02*
X150527947Y-55250447D01*
X150527947Y-55250447D02*
X150575567Y-55298066D01*
X150575567Y-55298066D02*
X150623186Y-55393304D01*
X150623186Y-55393304D02*
X150623186Y-55583780D01*
X150623186Y-55583780D02*
X150575567Y-55679018D01*
X150575567Y-55679018D02*
X150527947Y-55726637D01*
X150527947Y-55726637D02*
X150432709Y-55774256D01*
X150432709Y-55774256D02*
X150242233Y-55774256D01*
X150242233Y-55774256D02*
X150146995Y-55726637D01*
X150146995Y-55726637D02*
X150099376Y-55679018D01*
X150099376Y-55679018D02*
X150051757Y-55583780D01*
X122048186Y-72744941D02*
X121048186Y-72744941D01*
X121048186Y-72744941D02*
X121048186Y-72983036D01*
X121048186Y-72983036D02*
X121095805Y-73125893D01*
X121095805Y-73125893D02*
X121191043Y-73221131D01*
X121191043Y-73221131D02*
X121286281Y-73268750D01*
X121286281Y-73268750D02*
X121476757Y-73316369D01*
X121476757Y-73316369D02*
X121619614Y-73316369D01*
X121619614Y-73316369D02*
X121810090Y-73268750D01*
X121810090Y-73268750D02*
X121905328Y-73221131D01*
X121905328Y-73221131D02*
X122000567Y-73125893D01*
X122000567Y-73125893D02*
X122048186Y-72983036D01*
X122048186Y-72983036D02*
X122048186Y-72744941D01*
X121143424Y-73697322D02*
X121095805Y-73744941D01*
X121095805Y-73744941D02*
X121048186Y-73840179D01*
X121048186Y-73840179D02*
X121048186Y-74078274D01*
X121048186Y-74078274D02*
X121095805Y-74173512D01*
X121095805Y-74173512D02*
X121143424Y-74221131D01*
X121143424Y-74221131D02*
X121238662Y-74268750D01*
X121238662Y-74268750D02*
X121333900Y-74268750D01*
X121333900Y-74268750D02*
X121476757Y-74221131D01*
X121476757Y-74221131D02*
X122048186Y-73649703D01*
X122048186Y-73649703D02*
X122048186Y-74268750D01*
X121476757Y-74840179D02*
X121429138Y-74744941D01*
X121429138Y-74744941D02*
X121381519Y-74697322D01*
X121381519Y-74697322D02*
X121286281Y-74649703D01*
X121286281Y-74649703D02*
X121238662Y-74649703D01*
X121238662Y-74649703D02*
X121143424Y-74697322D01*
X121143424Y-74697322D02*
X121095805Y-74744941D01*
X121095805Y-74744941D02*
X121048186Y-74840179D01*
X121048186Y-74840179D02*
X121048186Y-75030655D01*
X121048186Y-75030655D02*
X121095805Y-75125893D01*
X121095805Y-75125893D02*
X121143424Y-75173512D01*
X121143424Y-75173512D02*
X121238662Y-75221131D01*
X121238662Y-75221131D02*
X121286281Y-75221131D01*
X121286281Y-75221131D02*
X121381519Y-75173512D01*
X121381519Y-75173512D02*
X121429138Y-75125893D01*
X121429138Y-75125893D02*
X121476757Y-75030655D01*
X121476757Y-75030655D02*
X121476757Y-74840179D01*
X121476757Y-74840179D02*
X121524376Y-74744941D01*
X121524376Y-74744941D02*
X121571995Y-74697322D01*
X121571995Y-74697322D02*
X121667233Y-74649703D01*
X121667233Y-74649703D02*
X121857709Y-74649703D01*
X121857709Y-74649703D02*
X121952947Y-74697322D01*
X121952947Y-74697322D02*
X122000567Y-74744941D01*
X122000567Y-74744941D02*
X122048186Y-74840179D01*
X122048186Y-74840179D02*
X122048186Y-75030655D01*
X122048186Y-75030655D02*
X122000567Y-75125893D01*
X122000567Y-75125893D02*
X121952947Y-75173512D01*
X121952947Y-75173512D02*
X121857709Y-75221131D01*
X121857709Y-75221131D02*
X121667233Y-75221131D01*
X121667233Y-75221131D02*
X121571995Y-75173512D01*
X121571995Y-75173512D02*
X121524376Y-75125893D01*
X121524376Y-75125893D02*
X121476757Y-75030655D01*
X245873186Y-53298066D02*
X244873186Y-53298066D01*
X244873186Y-53298066D02*
X244873186Y-53536161D01*
X244873186Y-53536161D02*
X244920805Y-53679018D01*
X244920805Y-53679018D02*
X245016043Y-53774256D01*
X245016043Y-53774256D02*
X245111281Y-53821875D01*
X245111281Y-53821875D02*
X245301757Y-53869494D01*
X245301757Y-53869494D02*
X245444614Y-53869494D01*
X245444614Y-53869494D02*
X245635090Y-53821875D01*
X245635090Y-53821875D02*
X245730328Y-53774256D01*
X245730328Y-53774256D02*
X245825567Y-53679018D01*
X245825567Y-53679018D02*
X245873186Y-53536161D01*
X245873186Y-53536161D02*
X245873186Y-53298066D01*
X244968424Y-54250447D02*
X244920805Y-54298066D01*
X244920805Y-54298066D02*
X244873186Y-54393304D01*
X244873186Y-54393304D02*
X244873186Y-54631399D01*
X244873186Y-54631399D02*
X244920805Y-54726637D01*
X244920805Y-54726637D02*
X244968424Y-54774256D01*
X244968424Y-54774256D02*
X245063662Y-54821875D01*
X245063662Y-54821875D02*
X245158900Y-54821875D01*
X245158900Y-54821875D02*
X245301757Y-54774256D01*
X245301757Y-54774256D02*
X245873186Y-54202828D01*
X245873186Y-54202828D02*
X245873186Y-54821875D01*
X244873186Y-55155209D02*
X244873186Y-55774256D01*
X244873186Y-55774256D02*
X245254138Y-55440923D01*
X245254138Y-55440923D02*
X245254138Y-55583780D01*
X245254138Y-55583780D02*
X245301757Y-55679018D01*
X245301757Y-55679018D02*
X245349376Y-55726637D01*
X245349376Y-55726637D02*
X245444614Y-55774256D01*
X245444614Y-55774256D02*
X245682709Y-55774256D01*
X245682709Y-55774256D02*
X245777947Y-55726637D01*
X245777947Y-55726637D02*
X245825567Y-55679018D01*
X245825567Y-55679018D02*
X245873186Y-55583780D01*
X245873186Y-55583780D02*
X245873186Y-55298066D01*
X245873186Y-55298066D02*
X245825567Y-55202828D01*
X245825567Y-55202828D02*
X245777947Y-55155209D01*
X169673186Y-53298066D02*
X168673186Y-53298066D01*
X168673186Y-53298066D02*
X168673186Y-53536161D01*
X168673186Y-53536161D02*
X168720805Y-53679018D01*
X168720805Y-53679018D02*
X168816043Y-53774256D01*
X168816043Y-53774256D02*
X168911281Y-53821875D01*
X168911281Y-53821875D02*
X169101757Y-53869494D01*
X169101757Y-53869494D02*
X169244614Y-53869494D01*
X169244614Y-53869494D02*
X169435090Y-53821875D01*
X169435090Y-53821875D02*
X169530328Y-53774256D01*
X169530328Y-53774256D02*
X169625567Y-53679018D01*
X169625567Y-53679018D02*
X169673186Y-53536161D01*
X169673186Y-53536161D02*
X169673186Y-53298066D01*
X169673186Y-54821875D02*
X169673186Y-54250447D01*
X169673186Y-54536161D02*
X168673186Y-54536161D01*
X168673186Y-54536161D02*
X168816043Y-54440923D01*
X168816043Y-54440923D02*
X168911281Y-54345685D01*
X168911281Y-54345685D02*
X168958900Y-54250447D01*
X169673186Y-55298066D02*
X169673186Y-55488542D01*
X169673186Y-55488542D02*
X169625567Y-55583780D01*
X169625567Y-55583780D02*
X169577947Y-55631399D01*
X169577947Y-55631399D02*
X169435090Y-55726637D01*
X169435090Y-55726637D02*
X169244614Y-55774256D01*
X169244614Y-55774256D02*
X168863662Y-55774256D01*
X168863662Y-55774256D02*
X168768424Y-55726637D01*
X168768424Y-55726637D02*
X168720805Y-55679018D01*
X168720805Y-55679018D02*
X168673186Y-55583780D01*
X168673186Y-55583780D02*
X168673186Y-55393304D01*
X168673186Y-55393304D02*
X168720805Y-55298066D01*
X168720805Y-55298066D02*
X168768424Y-55250447D01*
X168768424Y-55250447D02*
X168863662Y-55202828D01*
X168863662Y-55202828D02*
X169101757Y-55202828D01*
X169101757Y-55202828D02*
X169196995Y-55250447D01*
X169196995Y-55250447D02*
X169244614Y-55298066D01*
X169244614Y-55298066D02*
X169292233Y-55393304D01*
X169292233Y-55393304D02*
X169292233Y-55583780D01*
X169292233Y-55583780D02*
X169244614Y-55679018D01*
X169244614Y-55679018D02*
X169196995Y-55726637D01*
X169196995Y-55726637D02*
X169101757Y-55774256D01*
X251086697Y-88563869D02*
X251134317Y-88516250D01*
X251134317Y-88516250D02*
X251181936Y-88373393D01*
X251181936Y-88373393D02*
X251181936Y-88278155D01*
X251181936Y-88278155D02*
X251134317Y-88135298D01*
X251134317Y-88135298D02*
X251039078Y-88040060D01*
X251039078Y-88040060D02*
X250943840Y-87992441D01*
X250943840Y-87992441D02*
X250753364Y-87944822D01*
X250753364Y-87944822D02*
X250610507Y-87944822D01*
X250610507Y-87944822D02*
X250420031Y-87992441D01*
X250420031Y-87992441D02*
X250324793Y-88040060D01*
X250324793Y-88040060D02*
X250229555Y-88135298D01*
X250229555Y-88135298D02*
X250181936Y-88278155D01*
X250181936Y-88278155D02*
X250181936Y-88373393D01*
X250181936Y-88373393D02*
X250229555Y-88516250D01*
X250229555Y-88516250D02*
X250277174Y-88563869D01*
X251181936Y-89516250D02*
X251181936Y-88944822D01*
X251181936Y-89230536D02*
X250181936Y-89230536D01*
X250181936Y-89230536D02*
X250324793Y-89135298D01*
X250324793Y-89135298D02*
X250420031Y-89040060D01*
X250420031Y-89040060D02*
X250467650Y-88944822D01*
X250181936Y-90373393D02*
X250181936Y-90182917D01*
X250181936Y-90182917D02*
X250229555Y-90087679D01*
X250229555Y-90087679D02*
X250277174Y-90040060D01*
X250277174Y-90040060D02*
X250420031Y-89944822D01*
X250420031Y-89944822D02*
X250610507Y-89897203D01*
X250610507Y-89897203D02*
X250991459Y-89897203D01*
X250991459Y-89897203D02*
X251086697Y-89944822D01*
X251086697Y-89944822D02*
X251134317Y-89992441D01*
X251134317Y-89992441D02*
X251181936Y-90087679D01*
X251181936Y-90087679D02*
X251181936Y-90278155D01*
X251181936Y-90278155D02*
X251134317Y-90373393D01*
X251134317Y-90373393D02*
X251086697Y-90421012D01*
X251086697Y-90421012D02*
X250991459Y-90468631D01*
X250991459Y-90468631D02*
X250753364Y-90468631D01*
X250753364Y-90468631D02*
X250658126Y-90421012D01*
X250658126Y-90421012D02*
X250610507Y-90373393D01*
X250610507Y-90373393D02*
X250562888Y-90278155D01*
X250562888Y-90278155D02*
X250562888Y-90087679D01*
X250562888Y-90087679D02*
X250610507Y-89992441D01*
X250610507Y-89992441D02*
X250658126Y-89944822D01*
X250658126Y-89944822D02*
X250753364Y-89897203D01*
X145860686Y-34724257D02*
X144860686Y-34724257D01*
X144860686Y-34724257D02*
X144860686Y-34962352D01*
X144860686Y-34962352D02*
X144908305Y-35105209D01*
X144908305Y-35105209D02*
X145003543Y-35200447D01*
X145003543Y-35200447D02*
X145098781Y-35248066D01*
X145098781Y-35248066D02*
X145289257Y-35295685D01*
X145289257Y-35295685D02*
X145432114Y-35295685D01*
X145432114Y-35295685D02*
X145622590Y-35248066D01*
X145622590Y-35248066D02*
X145717828Y-35200447D01*
X145717828Y-35200447D02*
X145813067Y-35105209D01*
X145813067Y-35105209D02*
X145860686Y-34962352D01*
X145860686Y-34962352D02*
X145860686Y-34724257D01*
X144860686Y-36152828D02*
X144860686Y-35962352D01*
X144860686Y-35962352D02*
X144908305Y-35867114D01*
X144908305Y-35867114D02*
X144955924Y-35819495D01*
X144955924Y-35819495D02*
X145098781Y-35724257D01*
X145098781Y-35724257D02*
X145289257Y-35676638D01*
X145289257Y-35676638D02*
X145670209Y-35676638D01*
X145670209Y-35676638D02*
X145765447Y-35724257D01*
X145765447Y-35724257D02*
X145813067Y-35771876D01*
X145813067Y-35771876D02*
X145860686Y-35867114D01*
X145860686Y-35867114D02*
X145860686Y-36057590D01*
X145860686Y-36057590D02*
X145813067Y-36152828D01*
X145813067Y-36152828D02*
X145765447Y-36200447D01*
X145765447Y-36200447D02*
X145670209Y-36248066D01*
X145670209Y-36248066D02*
X145432114Y-36248066D01*
X145432114Y-36248066D02*
X145336876Y-36200447D01*
X145336876Y-36200447D02*
X145289257Y-36152828D01*
X145289257Y-36152828D02*
X145241638Y-36057590D01*
X145241638Y-36057590D02*
X145241638Y-35867114D01*
X145241638Y-35867114D02*
X145289257Y-35771876D01*
X145289257Y-35771876D02*
X145336876Y-35724257D01*
X145336876Y-35724257D02*
X145432114Y-35676638D01*
D11*
%TO.C,U1*%
X261616250Y-73115000D02*
X259796250Y-73115000D01*
X261616250Y-73165000D02*
X261616250Y-73115000D01*
X261616250Y-75065000D02*
X261616250Y-74285000D01*
X261616250Y-76235000D02*
X261616250Y-76185000D01*
X259796250Y-73115000D02*
X259796250Y-74115000D01*
X259796250Y-75235000D02*
X259796250Y-76235000D01*
X259796250Y-76235000D02*
X261616250Y-76235000D01*
X262396250Y-74625000D02*
X261916250Y-74625000D01*
X262156250Y-74295000D01*
X262396250Y-74625000D01*
G36*
X262396250Y-74625000D02*
G01*
X261916250Y-74625000D01*
X262156250Y-74295000D01*
X262396250Y-74625000D01*
G37*
%TO.C,D38*%
X125571443Y-91054232D02*
X125571443Y-95064232D01*
X125571443Y-95064232D02*
X127571443Y-95064232D01*
X127571443Y-91054232D02*
X127571443Y-95064232D01*
%TO.C,C18*%
X251567698Y-86546727D02*
X251286536Y-86546727D01*
X251567698Y-87566727D02*
X251286536Y-87566727D01*
%TO.C,C12*%
X259067117Y-100866146D02*
X259067117Y-101147308D01*
X260087117Y-100866146D02*
X260087117Y-101147308D01*
%TO.C,D15*%
X90018367Y-52862352D02*
X90018367Y-56872352D01*
X90018367Y-56872352D02*
X92018367Y-56872352D01*
X92018367Y-52862352D02*
X92018367Y-56872352D01*
%TO.C,D10*%
X218605867Y-33812352D02*
X218605867Y-37822352D01*
X218605867Y-37822352D02*
X220605867Y-37822352D01*
X220605867Y-33812352D02*
X220605867Y-37822352D01*
%TO.C,SW1*%
X44857117Y-84741727D02*
X44857117Y-86821727D01*
X45637117Y-83551727D02*
X46127117Y-83061727D01*
X45637117Y-88011727D02*
X46127117Y-88501727D01*
X46127117Y-83061727D02*
X49027117Y-83061727D01*
X46127117Y-88501727D02*
X49027117Y-88501727D01*
X49517117Y-83551727D02*
X49027117Y-83061727D01*
X49517117Y-88011727D02*
X49027117Y-88501727D01*
X50297117Y-84741727D02*
X50297117Y-86821727D01*
%TO.C,D30*%
X156693367Y-72309227D02*
X156693367Y-76319227D01*
X156693367Y-76319227D02*
X158693367Y-76319227D01*
X158693367Y-72309227D02*
X158693367Y-76319227D01*
%TO.C,D8*%
X180505867Y-33812352D02*
X180505867Y-37822352D01*
X180505867Y-37822352D02*
X182505867Y-37822352D01*
X182505867Y-33812352D02*
X182505867Y-37822352D01*
%TO.C,D37*%
X97155193Y-90974857D02*
X97155193Y-94984857D01*
X97155193Y-94984857D02*
X99155193Y-94984857D01*
X99155193Y-90974857D02*
X99155193Y-94984857D01*
%TO.C,D1*%
X47155867Y-33812352D02*
X47155867Y-37822352D01*
X47155867Y-37822352D02*
X49155867Y-37822352D01*
X49155867Y-33812352D02*
X49155867Y-37822352D01*
%TO.C,D33*%
X213843367Y-72309227D02*
X213843367Y-76319227D01*
X213843367Y-76319227D02*
X215843367Y-76319227D01*
X215843367Y-72309227D02*
X215843367Y-76319227D01*
%TO.C,C14*%
X256542733Y-88621154D02*
X256741544Y-88422343D01*
X257263982Y-89342403D02*
X257462793Y-89143592D01*
%TO.C,D22*%
X220327117Y-55406727D02*
X220327117Y-59416727D01*
X220327117Y-59416727D02*
X222327117Y-59416727D01*
X222327117Y-55406727D02*
X222327117Y-59416727D01*
%TO.C,D24*%
X261468367Y-52862352D02*
X261468367Y-56872352D01*
X261468367Y-56872352D02*
X263468367Y-56872352D01*
X263468367Y-52862352D02*
X263468367Y-56872352D01*
%TO.C,R5*%
X250054617Y-100519469D02*
X250054617Y-100993985D01*
X251099617Y-100519469D02*
X251099617Y-100993985D01*
%TO.C,D35*%
X254324617Y-72309227D02*
X254324617Y-76319227D01*
X254324617Y-76319227D02*
X256324617Y-76319227D01*
X256324617Y-72309227D02*
X256324617Y-76319227D01*
%TO.C,D7*%
X161455867Y-33812352D02*
X161455867Y-37822352D01*
X161455867Y-37822352D02*
X163455867Y-37822352D01*
X163455867Y-33812352D02*
X163455867Y-37822352D01*
%TO.C,D29*%
X137643367Y-72309227D02*
X137643367Y-76319227D01*
X137643367Y-76319227D02*
X139643367Y-76319227D01*
X139643367Y-72309227D02*
X139643367Y-76319227D01*
%TO.C,R3*%
X246275420Y-85843957D02*
X245939887Y-85508424D01*
X247014347Y-85105030D02*
X246678814Y-84769497D01*
%TO.C,C11*%
X245767698Y-95446727D02*
X245486536Y-95446727D01*
X245767698Y-96466727D02*
X245486536Y-96466727D01*
%TO.C,D31*%
X175743367Y-72309227D02*
X175743367Y-76319227D01*
X175743367Y-76319227D02*
X177743367Y-76319227D01*
X177743367Y-72309227D02*
X177743367Y-76319227D01*
%TO.C,D39*%
X154305193Y-90974857D02*
X154305193Y-94984857D01*
X154305193Y-94984857D02*
X156305193Y-94984857D01*
X156305193Y-90974857D02*
X156305193Y-94984857D01*
%TO.C,D11*%
X237655867Y-33812352D02*
X237655867Y-37822352D01*
X237655867Y-37822352D02*
X239655867Y-37822352D01*
X239655867Y-33812352D02*
X239655867Y-37822352D01*
%TO.C,D9*%
X199555867Y-33812352D02*
X199555867Y-37822352D01*
X199555867Y-37822352D02*
X201555867Y-37822352D01*
X201555867Y-33812352D02*
X201555867Y-37822352D01*
%TO.C,C9*%
X246065898Y-91416757D02*
X245867087Y-91217946D01*
X246787147Y-90695508D02*
X246588336Y-90496697D01*
%TO.C,D27*%
X99543367Y-72309227D02*
X99543367Y-76319227D01*
X99543367Y-76319227D02*
X101543367Y-76319227D01*
X101543367Y-72309227D02*
X101543367Y-76319227D01*
%TO.C,D34*%
X232893367Y-72309227D02*
X232893367Y-76319227D01*
X232893367Y-76319227D02*
X234893367Y-76319227D01*
X234893367Y-72309227D02*
X234893367Y-76319227D01*
%TO.C,D21*%
X204318367Y-52862352D02*
X204318367Y-56872352D01*
X204318367Y-56872352D02*
X206318367Y-56872352D01*
X206318367Y-52862352D02*
X206318367Y-56872352D01*
%TO.C,D20*%
X185268367Y-52862352D02*
X185268367Y-56872352D01*
X185268367Y-56872352D02*
X187268367Y-56872352D01*
X187268367Y-52862352D02*
X187268367Y-56872352D01*
%TO.C,C13*%
X257567117Y-101147308D02*
X257567117Y-100866146D01*
X258587117Y-101147308D02*
X258587117Y-100866146D01*
%TO.C,C3*%
X248567117Y-100616146D02*
X248567117Y-100897308D01*
X249587117Y-100616146D02*
X249587117Y-100897308D01*
%TO.C,D36*%
X75723943Y-90974857D02*
X75723943Y-94984857D01*
X75723943Y-94984857D02*
X77723943Y-94984857D01*
X77723943Y-90974857D02*
X77723943Y-94984857D01*
%TO.C,C4*%
X258386536Y-97871725D02*
X258667698Y-97871725D01*
X258386536Y-98891725D02*
X258667698Y-98891725D01*
%TO.C,R2*%
X260889859Y-82134227D02*
X261364375Y-82134227D01*
X260889859Y-83179227D02*
X261364375Y-83179227D01*
%TO.C,D4*%
X104305867Y-33812352D02*
X104305867Y-37822352D01*
X104305867Y-37822352D02*
X106305867Y-37822352D01*
X106305867Y-33812352D02*
X106305867Y-37822352D01*
%TO.C,C6*%
X258386536Y-96346727D02*
X258667698Y-96346727D01*
X258386536Y-97366727D02*
X258667698Y-97366727D01*
%TO.C,SW2*%
X44857117Y-92291727D02*
X44857117Y-94371727D01*
X45637117Y-91101727D02*
X46127117Y-90611727D01*
X45637117Y-95561727D02*
X46127117Y-96051727D01*
X46127117Y-90611727D02*
X49027117Y-90611727D01*
X46127117Y-96051727D02*
X49027117Y-96051727D01*
X49517117Y-91101727D02*
X49027117Y-90611727D01*
X49517117Y-95561727D02*
X49027117Y-96051727D01*
X50297117Y-92291727D02*
X50297117Y-94371727D01*
%TO.C,C17*%
X247017118Y-99866146D02*
X247017118Y-100147308D01*
X248037118Y-99866146D02*
X248037118Y-100147308D01*
%TO.C,U2*%
X248879617Y-91446727D02*
X249529616Y-91446727D01*
X248879617Y-92096726D02*
X248879617Y-91446727D01*
X248879617Y-98016728D02*
X248879617Y-98666727D01*
X248879617Y-98666727D02*
X249529616Y-98666727D01*
X255799617Y-91446727D02*
X255449618Y-91446727D01*
X256099617Y-91686727D02*
X256099617Y-92096726D01*
X256099617Y-98016728D02*
X256099617Y-98666727D01*
X256099617Y-98666727D02*
X255449618Y-98666727D01*
X256099617Y-91446727D02*
X255859617Y-91116727D01*
X256339617Y-91116727D01*
X256099617Y-91446727D01*
G36*
X256099617Y-91446727D02*
G01*
X255859617Y-91116727D01*
X256339617Y-91116727D01*
X256099617Y-91446727D01*
G37*
%TO.C,R4*%
X245225420Y-86893957D02*
X244889887Y-86558424D01*
X245964347Y-86155030D02*
X245628814Y-85819497D01*
%TO.C,D32*%
X194793367Y-72309227D02*
X194793367Y-76319227D01*
X194793367Y-76319227D02*
X196793367Y-76319227D01*
X196793367Y-72309227D02*
X196793367Y-76319227D01*
%TO.C,R1*%
X261364375Y-84109227D02*
X260889859Y-84109227D01*
X261364375Y-85154227D02*
X260889859Y-85154227D01*
%TO.C,C5*%
X244867698Y-93777362D02*
X244586536Y-93777362D01*
X244867698Y-94797362D02*
X244586536Y-94797362D01*
%TO.C,D14*%
X70968367Y-52862352D02*
X70968367Y-56872352D01*
X70968367Y-56872352D02*
X72968367Y-56872352D01*
X72968367Y-52862352D02*
X72968367Y-56872352D01*
%TO.C,R6*%
X251554617Y-100669469D02*
X251554617Y-101143985D01*
X252599617Y-100669469D02*
X252599617Y-101143985D01*
%TO.C,C8*%
X247065898Y-90266757D02*
X246867087Y-90067946D01*
X247787147Y-89545508D02*
X247588336Y-89346697D01*
%TO.C,D12*%
X259087117Y-33812352D02*
X259087117Y-37822352D01*
X259087117Y-37822352D02*
X261087117Y-37822352D01*
X261087117Y-33812352D02*
X261087117Y-37822352D01*
%TO.C,D41*%
X211455193Y-90974857D02*
X211455193Y-94984857D01*
X211455193Y-94984857D02*
X213455193Y-94984857D01*
X213455193Y-90974857D02*
X213455193Y-94984857D01*
%TO.C,D3*%
X85255867Y-33812352D02*
X85255867Y-37822352D01*
X85255867Y-37822352D02*
X87255867Y-37822352D01*
X87255867Y-33812352D02*
X87255867Y-37822352D01*
%TO.C,C2*%
X257621071Y-89699492D02*
X257819882Y-89500681D01*
X258342320Y-90420741D02*
X258541131Y-90221930D01*
%TO.C,C15*%
X245467117Y-99866146D02*
X245467117Y-100147308D01*
X246487117Y-99866146D02*
X246487117Y-100147308D01*
%TO.C,D17*%
X128118367Y-52862352D02*
X128118367Y-56872352D01*
X128118367Y-56872352D02*
X130118367Y-56872352D01*
X130118367Y-52862352D02*
X130118367Y-56872352D01*
%TO.C,C10*%
X244867698Y-92221727D02*
X244586536Y-92221727D01*
X244867698Y-93241727D02*
X244586536Y-93241727D01*
%TO.C,D25*%
X56680867Y-72309227D02*
X56680867Y-76319227D01*
X56680867Y-76319227D02*
X58680867Y-76319227D01*
X58680867Y-72309227D02*
X58680867Y-76319227D01*
%TO.C,D16*%
X109068367Y-52862352D02*
X109068367Y-56872352D01*
X109068367Y-56872352D02*
X111068367Y-56872352D01*
X111068367Y-52862352D02*
X111068367Y-56872352D01*
%TO.C,D42*%
X232632443Y-90974857D02*
X232632443Y-94984857D01*
X232632443Y-94984857D02*
X234632443Y-94984857D01*
X234632443Y-90974857D02*
X234632443Y-94984857D01*
%TO.C,D40*%
X182721443Y-90974857D02*
X182721443Y-94984857D01*
X182721443Y-94984857D02*
X184721443Y-94984857D01*
X184721443Y-90974857D02*
X184721443Y-94984857D01*
%TO.C,D2*%
X66205867Y-33812352D02*
X66205867Y-37822352D01*
X66205867Y-37822352D02*
X68205867Y-37822352D01*
X68205867Y-33812352D02*
X68205867Y-37822352D01*
%TO.C,U3*%
X251702117Y-80331727D02*
X254427117Y-80331727D01*
X251702117Y-80591727D02*
X251702117Y-80331727D01*
X251702117Y-85521727D02*
X251702117Y-85781727D01*
X251702117Y-85781727D02*
X254427117Y-85781727D01*
X257152117Y-80331727D02*
X254427117Y-80331727D01*
X257152117Y-80591727D02*
X257152117Y-80331727D01*
X257152117Y-85521727D02*
X257152117Y-85781727D01*
X257152117Y-85781727D02*
X254427117Y-85781727D01*
X257934617Y-80591727D02*
X257694617Y-80261727D01*
X258174617Y-80261727D01*
X257934617Y-80591727D01*
G36*
X257934617Y-80591727D02*
G01*
X257694617Y-80261727D01*
X258174617Y-80261727D01*
X257934617Y-80591727D01*
G37*
%TO.C,D13*%
X49537117Y-52862352D02*
X49537117Y-56872352D01*
X49537117Y-56872352D02*
X51537117Y-56872352D01*
X51537117Y-52862352D02*
X51537117Y-56872352D01*
%TO.C,C1*%
X258146831Y-77685000D02*
X257865669Y-77685000D01*
X258146831Y-76665000D02*
X257865669Y-76665000D01*
%TO.C,C7*%
X258717087Y-90795508D02*
X258915898Y-90596697D01*
X259438336Y-91516757D02*
X259637147Y-91317946D01*
%TO.C,D26*%
X80493367Y-72309227D02*
X80493367Y-76319227D01*
X80493367Y-76319227D02*
X82493367Y-76319227D01*
X82493367Y-72309227D02*
X82493367Y-76319227D01*
%TO.C,D5*%
X123355867Y-33812352D02*
X123355867Y-37822352D01*
X123355867Y-37822352D02*
X125355867Y-37822352D01*
X125355867Y-33812352D02*
X125355867Y-37822352D01*
D10*
%TO.C,J1*%
X199127117Y-44206727D02*
X199127117Y-40206727D01*
X200927117Y-39206727D02*
X203327117Y-39206727D01*
X203327117Y-39206727D02*
X203327117Y-40206727D01*
X203327117Y-44206727D02*
X203327117Y-45206727D01*
X203327117Y-45206727D02*
X200927117Y-45206727D01*
D11*
%TO.C,D18*%
X147168367Y-52862352D02*
X147168367Y-56872352D01*
X147168367Y-56872352D02*
X149168367Y-56872352D01*
X149168367Y-52862352D02*
X149168367Y-56872352D01*
%TO.C,D28*%
X118593367Y-72309227D02*
X118593367Y-76319227D01*
X118593367Y-76319227D02*
X120593367Y-76319227D01*
X120593367Y-72309227D02*
X120593367Y-76319227D01*
%TO.C,D23*%
X242418367Y-52862352D02*
X242418367Y-56872352D01*
X242418367Y-56872352D02*
X244418367Y-56872352D01*
X244418367Y-52862352D02*
X244418367Y-56872352D01*
%TO.C,D19*%
X166218367Y-52862352D02*
X166218367Y-56872352D01*
X166218367Y-56872352D02*
X168218367Y-56872352D01*
X168218367Y-52862352D02*
X168218367Y-56872352D01*
%TO.C,C16*%
X251567117Y-89447308D02*
X251567117Y-89166146D01*
X252587117Y-89447308D02*
X252587117Y-89166146D01*
%TO.C,D6*%
X142405867Y-33812352D02*
X142405867Y-37822352D01*
X142405867Y-37822352D02*
X144405867Y-37822352D01*
X144405867Y-33812352D02*
X144405867Y-37822352D01*
%TD*%
%LPC*%
D12*
%TO.C,U1*%
X261843750Y-73725001D03*
X261843750Y-75624999D03*
X259568750Y-74675000D03*
%TD*%
D13*
%TO.C,MX16*%
X96257117Y-52924852D03*
D14*
X101337117Y-52924852D03*
D13*
X106417117Y-52924852D03*
D15*
X97527117Y-50384852D03*
X103877117Y-47844852D03*
%TD*%
D13*
%TO.C,MX32*%
X181982117Y-71974852D03*
D14*
X187062117Y-71974852D03*
D13*
X192142117Y-71974852D03*
D15*
X183252117Y-69434852D03*
X189602117Y-66894852D03*
%TD*%
D13*
%TO.C,MX12*%
X246275867Y-33874852D03*
D14*
X251355867Y-33874852D03*
D13*
X256435867Y-33874852D03*
D15*
X247545867Y-31334852D03*
X253895867Y-28794852D03*
%TD*%
D13*
%TO.C,MX6*%
X129594617Y-33874852D03*
D14*
X134674617Y-33874852D03*
D13*
X139754617Y-33874852D03*
D15*
X130864617Y-31334852D03*
X137214617Y-28794852D03*
%TD*%
D13*
%TO.C,MX27*%
X86732117Y-71974852D03*
D14*
X91812117Y-71974852D03*
D13*
X96892117Y-71974852D03*
D15*
X88002117Y-69434852D03*
X94352117Y-66894852D03*
%TD*%
D13*
%TO.C,MX35*%
X241513367Y-71974852D03*
D14*
X246593367Y-71974852D03*
D13*
X251673367Y-71974852D03*
D15*
X242783367Y-69434852D03*
X249133367Y-66894852D03*
%TD*%
D16*
%TO.C,REF\u002A\u002A*%
X106060943Y-83197407D03*
D17*
X106060943Y-98407407D03*
D16*
X129936943Y-83197407D03*
D17*
X129936943Y-98407407D03*
%TD*%
D13*
%TO.C,MX38*%
X112918943Y-91037357D03*
D14*
X117998943Y-91037357D03*
D13*
X123078943Y-91037357D03*
D15*
X114188943Y-88497357D03*
X120538943Y-85957357D03*
%TD*%
D13*
%TO.C,MX28*%
X105782117Y-71974852D03*
D14*
X110862117Y-71974852D03*
D13*
X115942117Y-71974852D03*
D15*
X107052117Y-69434852D03*
X113402117Y-66894852D03*
%TD*%
D13*
%TO.C,MX40*%
X170068943Y-91037357D03*
D14*
X175148943Y-91037357D03*
D13*
X180228943Y-91037357D03*
D15*
X171338943Y-88497357D03*
X177688943Y-85957357D03*
%TD*%
D13*
%TO.C,MX1*%
X34344617Y-33874852D03*
D14*
X39424617Y-33874852D03*
D13*
X44504617Y-33874852D03*
D15*
X35614617Y-31334852D03*
X41964617Y-28794852D03*
%TD*%
D13*
%TO.C,MX31*%
X162932117Y-71974852D03*
D14*
X168012117Y-71974852D03*
D13*
X173092117Y-71974852D03*
D15*
X164202117Y-69434852D03*
X170552117Y-66894852D03*
%TD*%
D13*
%TO.C,MX36*%
X62912693Y-91037357D03*
D14*
X67992693Y-91037357D03*
D13*
X73072693Y-91037357D03*
D15*
X64182693Y-88497357D03*
X70532693Y-85957357D03*
%TD*%
D13*
%TO.C,MX42*%
X220075193Y-91037357D03*
D14*
X225155193Y-91037357D03*
D13*
X230235193Y-91037357D03*
D15*
X221345193Y-88497357D03*
X227695193Y-85957357D03*
%TD*%
D13*
%TO.C,MX26*%
X67682117Y-71974852D03*
D14*
X72762117Y-71974852D03*
D13*
X77842117Y-71974852D03*
D15*
X68952117Y-69434852D03*
X75302117Y-66894852D03*
%TD*%
D13*
%TO.C,MX34*%
X220082117Y-71974852D03*
D14*
X225162117Y-71974852D03*
D13*
X230242117Y-71974852D03*
D15*
X221352117Y-69434852D03*
X227702117Y-66894852D03*
%TD*%
D13*
%TO.C,MX37*%
X84343943Y-91037357D03*
D14*
X89423943Y-91037357D03*
D13*
X94503943Y-91037357D03*
D15*
X85613943Y-88497357D03*
X91963943Y-85957357D03*
%TD*%
D13*
%TO.C,MX10*%
X205794617Y-33874852D03*
D14*
X210874617Y-33874852D03*
D13*
X215954617Y-33874852D03*
D15*
X207064617Y-31334852D03*
X213414617Y-28794852D03*
%TD*%
D13*
%TO.C,MX20*%
X172457117Y-52924852D03*
D14*
X177537117Y-52924852D03*
D13*
X182617117Y-52924852D03*
D15*
X173727117Y-50384852D03*
X180077117Y-47844852D03*
%TD*%
D13*
%TO.C,MX30*%
X143882117Y-71974852D03*
D14*
X148962117Y-71974852D03*
D13*
X154042117Y-71974852D03*
D15*
X145152117Y-69434852D03*
X151502117Y-66894852D03*
%TD*%
D13*
%TO.C,MX23*%
X229607117Y-52924852D03*
D14*
X234687117Y-52924852D03*
D13*
X239767117Y-52924852D03*
D15*
X230877117Y-50384852D03*
X237227117Y-47844852D03*
%TD*%
D13*
%TO.C,MX13*%
X36725867Y-52924852D03*
D14*
X41805867Y-52924852D03*
D13*
X46885867Y-52924852D03*
D15*
X37995867Y-50384852D03*
X44345867Y-47844852D03*
%TD*%
D13*
%TO.C,MX2*%
X53394617Y-33874852D03*
D14*
X58474617Y-33874852D03*
D13*
X63554617Y-33874852D03*
D15*
X54664617Y-31334852D03*
X61014617Y-28794852D03*
%TD*%
D13*
%TO.C,MX18*%
X134357117Y-52924852D03*
D14*
X139437117Y-52924852D03*
D13*
X144517117Y-52924852D03*
D15*
X135627117Y-50384852D03*
X141977117Y-47844852D03*
%TD*%
D13*
%TO.C,MX24*%
X248657117Y-52924852D03*
D14*
X253737117Y-52924852D03*
D13*
X258817117Y-52924852D03*
D15*
X249927117Y-50384852D03*
X256277117Y-47844852D03*
%TD*%
D13*
%TO.C,MX7*%
X148644617Y-33874852D03*
D14*
X153724617Y-33874852D03*
D13*
X158804617Y-33874852D03*
D15*
X149914617Y-31334852D03*
X156264617Y-28794852D03*
%TD*%
D13*
%TO.C,MX5*%
X110544617Y-33874852D03*
D14*
X115624617Y-33874852D03*
D13*
X120704617Y-33874852D03*
D15*
X111814617Y-31334852D03*
X118164617Y-28794852D03*
%TD*%
D13*
%TO.C,MX33*%
X201032117Y-71974852D03*
D14*
X206112117Y-71974852D03*
D13*
X211192117Y-71974852D03*
D15*
X202302117Y-69434852D03*
X208652117Y-66894852D03*
%TD*%
D13*
%TO.C,MX4*%
X91494617Y-33874852D03*
D14*
X96574617Y-33874852D03*
D13*
X101654617Y-33874852D03*
D15*
X92764617Y-31334852D03*
X99114617Y-28794852D03*
%TD*%
D13*
%TO.C,MX11*%
X224844617Y-33874852D03*
D14*
X229924617Y-33874852D03*
D13*
X235004617Y-33874852D03*
D15*
X226114617Y-31334852D03*
X232464617Y-28794852D03*
%TD*%
D13*
%TO.C,MX9*%
X186744617Y-33874852D03*
D14*
X191824617Y-33874852D03*
D13*
X196904617Y-33874852D03*
D15*
X188014617Y-31334852D03*
X194364617Y-28794852D03*
%TD*%
D13*
%TO.C,MX19*%
X153407117Y-52924852D03*
D14*
X158487117Y-52924852D03*
D13*
X163567117Y-52924852D03*
D15*
X154677117Y-50384852D03*
X161027117Y-47844852D03*
%TD*%
D13*
%TO.C,MX14*%
X58157117Y-52924852D03*
D14*
X63237117Y-52924852D03*
D13*
X68317117Y-52924852D03*
D15*
X59427117Y-50384852D03*
X65777117Y-47844852D03*
%TD*%
D13*
%TO.C,MX39*%
X141493943Y-91037357D03*
D14*
X146573943Y-91037357D03*
D13*
X151653943Y-91037357D03*
D15*
X142763943Y-88497357D03*
X149113943Y-85957357D03*
%TD*%
D13*
%TO.C,MX17*%
X115307117Y-52924852D03*
D14*
X120387117Y-52924852D03*
D13*
X125467117Y-52924852D03*
D15*
X116577117Y-50384852D03*
X122927117Y-47844852D03*
%TD*%
D16*
%TO.C,REF\u002A\u002A*%
X163210943Y-83197407D03*
D17*
X163210943Y-98407407D03*
D16*
X187086943Y-83197407D03*
D17*
X187086943Y-98407407D03*
%TD*%
D13*
%TO.C,MX22*%
X210557117Y-52924852D03*
D14*
X215637117Y-52924852D03*
D13*
X220717117Y-52924852D03*
D15*
X211827117Y-50384852D03*
X218177117Y-47844852D03*
%TD*%
D13*
%TO.C,MX41*%
X198643943Y-91037357D03*
D14*
X203723943Y-91037357D03*
D13*
X208803943Y-91037357D03*
D15*
X199913943Y-88497357D03*
X206263943Y-85957357D03*
%TD*%
D13*
%TO.C,MX21*%
X191507117Y-52924852D03*
D14*
X196587117Y-52924852D03*
D13*
X201667117Y-52924852D03*
D15*
X192777117Y-50384852D03*
X199127117Y-47844852D03*
%TD*%
D13*
%TO.C,MX8*%
X167694617Y-33874852D03*
D14*
X172774617Y-33874852D03*
D13*
X177854617Y-33874852D03*
D15*
X168964617Y-31334852D03*
X175314617Y-28794852D03*
%TD*%
D13*
%TO.C,MX29*%
X124832117Y-71974852D03*
D14*
X129912117Y-71974852D03*
D13*
X134992117Y-71974852D03*
D15*
X126102117Y-69434852D03*
X132452117Y-66894852D03*
%TD*%
D13*
%TO.C,MX3*%
X72444617Y-33874852D03*
D14*
X77524617Y-33874852D03*
D13*
X82604617Y-33874852D03*
D15*
X73714617Y-31334852D03*
X80064617Y-28794852D03*
%TD*%
D13*
%TO.C,MX15*%
X77207117Y-52924852D03*
D14*
X82287117Y-52924852D03*
D13*
X87367117Y-52924852D03*
D15*
X78477117Y-50384852D03*
X84827117Y-47844852D03*
%TD*%
D13*
%TO.C,MX25*%
X43869617Y-71974852D03*
D14*
X48949617Y-71974852D03*
D13*
X54029617Y-71974852D03*
D15*
X45139617Y-69434852D03*
X51489617Y-66894852D03*
%TD*%
D18*
%TO.C,D38*%
X126571443Y-94354232D03*
X126571443Y-91054232D03*
%TD*%
D19*
%TO.C,C18*%
X250652117Y-87056727D03*
X252202117Y-87056727D03*
%TD*%
D20*
%TO.C,C12*%
X259577117Y-101781727D03*
X259577117Y-100231727D03*
%TD*%
D18*
%TO.C,D15*%
X91018367Y-56162352D03*
X91018367Y-52862352D03*
%TD*%
%TO.C,D10*%
X219605867Y-37112352D03*
X219605867Y-33812352D03*
%TD*%
D21*
%TO.C,SW1*%
X50677117Y-83931727D03*
X44477117Y-83931727D03*
X50677117Y-87631727D03*
X44477117Y-87631727D03*
%TD*%
D18*
%TO.C,D30*%
X157693367Y-75609227D03*
X157693367Y-72309227D03*
%TD*%
%TO.C,D8*%
X181505867Y-37112352D03*
X181505867Y-33812352D03*
%TD*%
%TO.C,D37*%
X98155193Y-94274857D03*
X98155193Y-90974857D03*
%TD*%
%TO.C,D1*%
X48155867Y-37112352D03*
X48155867Y-33812352D03*
%TD*%
%TO.C,D33*%
X214843367Y-75609227D03*
X214843367Y-72309227D03*
%TD*%
D22*
%TO.C,C14*%
X257550771Y-88334365D03*
X256454755Y-89430381D03*
%TD*%
D18*
%TO.C,D22*%
X221327117Y-58706727D03*
X221327117Y-55406727D03*
%TD*%
%TO.C,D24*%
X262468367Y-56162352D03*
X262468367Y-52862352D03*
%TD*%
D23*
%TO.C,R5*%
X250577117Y-101581727D03*
X250577117Y-99931727D03*
%TD*%
D18*
%TO.C,D35*%
X255324617Y-75609227D03*
X255324617Y-72309227D03*
%TD*%
%TO.C,D7*%
X162455867Y-37112352D03*
X162455867Y-33812352D03*
%TD*%
%TO.C,D29*%
X138643367Y-75609227D03*
X138643367Y-72309227D03*
%TD*%
D24*
%TO.C,R3*%
X245893754Y-84723364D03*
X247060480Y-85890090D03*
%TD*%
D19*
%TO.C,C11*%
X244852117Y-95956727D03*
X246402117Y-95956727D03*
%TD*%
D18*
%TO.C,D31*%
X176743367Y-75609227D03*
X176743367Y-72309227D03*
%TD*%
%TO.C,D39*%
X155305193Y-94274857D03*
X155305193Y-90974857D03*
%TD*%
%TO.C,D11*%
X238655867Y-37112352D03*
X238655867Y-33812352D03*
%TD*%
D25*
%TO.C,Y1*%
X254104117Y-100106725D03*
X256304117Y-100106725D03*
X256304117Y-101706729D03*
X254104117Y-101706729D03*
%TD*%
D18*
%TO.C,D9*%
X200555867Y-37112352D03*
X200555867Y-33812352D03*
%TD*%
D26*
%TO.C,C9*%
X245779109Y-90408719D03*
X246875125Y-91504735D03*
%TD*%
D18*
%TO.C,D27*%
X100543367Y-75609227D03*
X100543367Y-72309227D03*
%TD*%
%TO.C,D34*%
X233893367Y-75609227D03*
X233893367Y-72309227D03*
%TD*%
%TO.C,D21*%
X205318367Y-56162352D03*
X205318367Y-52862352D03*
%TD*%
%TO.C,D20*%
X186268367Y-56162352D03*
X186268367Y-52862352D03*
%TD*%
D27*
%TO.C,C13*%
X258077117Y-100231727D03*
X258077117Y-101781727D03*
%TD*%
D20*
%TO.C,C3*%
X249077117Y-101531727D03*
X249077117Y-99981727D03*
%TD*%
D18*
%TO.C,D36*%
X76723943Y-94274857D03*
X76723943Y-90974857D03*
%TD*%
D28*
%TO.C,C4*%
X259302117Y-98381725D03*
X257752117Y-98381725D03*
%TD*%
D29*
%TO.C,R2*%
X261952117Y-82656727D03*
X260302117Y-82656727D03*
%TD*%
D18*
%TO.C,D4*%
X105305867Y-37112352D03*
X105305867Y-33812352D03*
%TD*%
D28*
%TO.C,C6*%
X259302117Y-96856727D03*
X257752117Y-96856727D03*
%TD*%
D21*
%TO.C,SW2*%
X50677117Y-91481727D03*
X44477117Y-91481727D03*
X50677117Y-95181727D03*
X44477117Y-95181727D03*
%TD*%
D20*
%TO.C,C17*%
X247527118Y-100781727D03*
X247527118Y-99231727D03*
%TD*%
D30*
%TO.C,U2*%
X255927117Y-92456727D03*
X255927117Y-92856728D03*
X255927117Y-93256727D03*
X255927117Y-93656727D03*
X255927117Y-94056727D03*
X255927117Y-94456726D03*
X255927117Y-94856727D03*
X255927117Y-95256727D03*
X255927117Y-95656728D03*
X255927117Y-96056727D03*
X255927117Y-96456727D03*
X255927117Y-96856727D03*
X255927117Y-97256726D03*
X255927117Y-97656727D03*
D31*
X255089617Y-98494227D03*
X254689616Y-98494227D03*
X254289617Y-98494227D03*
X253889617Y-98494227D03*
X253489617Y-98494227D03*
X253089618Y-98494227D03*
X252689617Y-98494227D03*
X252289617Y-98494227D03*
X251889616Y-98494227D03*
X251489617Y-98494227D03*
X251089617Y-98494227D03*
X250689617Y-98494227D03*
X250289618Y-98494227D03*
X249889617Y-98494227D03*
D30*
X249052117Y-97656727D03*
X249052117Y-97256726D03*
X249052117Y-96856727D03*
X249052117Y-96456727D03*
X249052117Y-96056727D03*
X249052117Y-95656728D03*
X249052117Y-95256727D03*
X249052117Y-94856727D03*
X249052117Y-94456726D03*
X249052117Y-94056727D03*
X249052117Y-93656727D03*
X249052117Y-93256727D03*
X249052117Y-92856728D03*
X249052117Y-92456727D03*
D31*
X249889617Y-91619227D03*
X250289618Y-91619227D03*
X250689617Y-91619227D03*
X251089617Y-91619227D03*
X251489617Y-91619227D03*
X251889616Y-91619227D03*
X252289617Y-91619227D03*
X252689617Y-91619227D03*
X253089618Y-91619227D03*
X253489617Y-91619227D03*
X253889617Y-91619227D03*
X254289617Y-91619227D03*
X254689616Y-91619227D03*
X255089617Y-91619227D03*
D32*
X252489617Y-95056727D03*
%TD*%
D24*
%TO.C,R4*%
X244843754Y-85773364D03*
X246010480Y-86940090D03*
%TD*%
D18*
%TO.C,D32*%
X195793367Y-75609227D03*
X195793367Y-72309227D03*
%TD*%
D33*
%TO.C,R1*%
X260302117Y-84631727D03*
X261952117Y-84631727D03*
%TD*%
D19*
%TO.C,C5*%
X243952117Y-94287362D03*
X245502117Y-94287362D03*
%TD*%
D18*
%TO.C,D14*%
X71968367Y-56162352D03*
X71968367Y-52862352D03*
%TD*%
D23*
%TO.C,R6*%
X252077117Y-101731727D03*
X252077117Y-100081727D03*
%TD*%
D26*
%TO.C,C8*%
X246779109Y-89258719D03*
X247875125Y-90354735D03*
%TD*%
D18*
%TO.C,D12*%
X260087117Y-37112352D03*
X260087117Y-33812352D03*
%TD*%
%TO.C,D41*%
X212455193Y-94274857D03*
X212455193Y-90974857D03*
%TD*%
%TO.C,D3*%
X86255867Y-37112352D03*
X86255867Y-33812352D03*
%TD*%
D22*
%TO.C,C2*%
X258629109Y-89412703D03*
X257533093Y-90508719D03*
%TD*%
D20*
%TO.C,C15*%
X245977117Y-100781727D03*
X245977117Y-99231727D03*
%TD*%
D18*
%TO.C,D17*%
X129118367Y-56162352D03*
X129118367Y-52862352D03*
%TD*%
D19*
%TO.C,C10*%
X243952117Y-92731727D03*
X245502117Y-92731727D03*
%TD*%
D18*
%TO.C,D25*%
X57680867Y-75609227D03*
X57680867Y-72309227D03*
%TD*%
%TO.C,D16*%
X110068367Y-56162352D03*
X110068367Y-52862352D03*
%TD*%
%TO.C,D42*%
X233632443Y-94274857D03*
X233632443Y-90974857D03*
%TD*%
%TO.C,D40*%
X183721443Y-94274857D03*
X183721443Y-90974857D03*
%TD*%
%TO.C,D2*%
X67205867Y-37112352D03*
X67205867Y-33812352D03*
%TD*%
D34*
%TO.C,U3*%
X258027117Y-81151727D03*
X258027117Y-82421727D03*
X258027117Y-83691727D03*
X258027117Y-84961727D03*
X250827117Y-84961727D03*
X250827117Y-83691727D03*
X250827117Y-82421727D03*
X250827117Y-81151727D03*
%TD*%
D18*
%TO.C,D13*%
X50537117Y-56162352D03*
X50537117Y-52862352D03*
%TD*%
D19*
%TO.C,C1*%
X257231250Y-77175000D03*
X258781250Y-77175000D03*
%TD*%
D22*
%TO.C,C7*%
X259725125Y-90508719D03*
X258629109Y-91604735D03*
%TD*%
D18*
%TO.C,D26*%
X81493367Y-75609227D03*
X81493367Y-72309227D03*
%TD*%
%TO.C,D5*%
X124355867Y-37112352D03*
X124355867Y-33812352D03*
%TD*%
D35*
%TO.C,J1*%
X199827117Y-45006727D03*
X199827117Y-39406727D03*
D36*
X203702117Y-43706727D03*
X203702116Y-42706727D03*
X203702116Y-41706727D03*
X203702117Y-40706727D03*
%TD*%
D18*
%TO.C,D18*%
X148168367Y-56162352D03*
X148168367Y-52862352D03*
%TD*%
%TO.C,D28*%
X119593367Y-75609227D03*
X119593367Y-72309227D03*
%TD*%
%TO.C,D23*%
X243418367Y-56162352D03*
X243418367Y-52862352D03*
%TD*%
%TO.C,D19*%
X167218367Y-56162352D03*
X167218367Y-52862352D03*
%TD*%
D27*
%TO.C,C16*%
X252077117Y-88531727D03*
X252077117Y-90081727D03*
%TD*%
D18*
%TO.C,D6*%
X143405867Y-37112352D03*
X143405867Y-33812352D03*
%TD*%
%LPD*%
M02*
