%TF.GenerationSoftware,KiCad,Pcbnew,9.0.5*%
%TF.CreationDate,2025-12-01T20:07:23+01:00*%
%TF.ProjectId,PancakeXXL V2-rounded,50616e63-616b-4655-9858-4c2056322d72,rev?*%
%TF.SameCoordinates,Original*%
%TF.FileFunction,Soldermask,Bot*%
%TF.FilePolarity,Negative*%
%FSLAX46Y46*%
G04 Gerber Fmt 4.6, Leading zero omitted, Abs format (unit mm)*
G04 Created by KiCad (PCBNEW 9.0.5) date 2025-12-01 20:07:23*
%MOMM*%
%LPD*%
G01*
G04 APERTURE LIST*
G04 Aperture macros list*
%AMRoundRect*
0 Rectangle with rounded corners*
0 $1 Rounding radius*
0 $2 $3 $4 $5 $6 $7 $8 $9 X,Y pos of 4 corners*
0 Add a 4 corners polygon primitive as box body*
4,1,4,$2,$3,$4,$5,$6,$7,$8,$9,$2,$3,0*
0 Add four circle primitives for the rounded corners*
1,1,$1+$1,$2,$3*
1,1,$1+$1,$4,$5*
1,1,$1+$1,$6,$7*
1,1,$1+$1,$8,$9*
0 Add four rect primitives between the rounded corners*
20,1,$1+$1,$2,$3,$4,$5,0*
20,1,$1+$1,$4,$5,$6,$7,0*
20,1,$1+$1,$6,$7,$8,$9,0*
20,1,$1+$1,$8,$9,$2,$3,0*%
G04 Aperture macros list end*
%ADD10C,1.750000*%
%ADD11C,4.000000*%
%ADD12C,2.500000*%
%ADD13C,3.048000*%
%ADD14C,3.987800*%
%ADD15RoundRect,0.225000X0.375000X-0.225000X0.375000X0.225000X-0.375000X0.225000X-0.375000X-0.225000X0*%
%ADD16RoundRect,0.225000X-0.225000X-0.250000X0.225000X-0.250000X0.225000X0.250000X-0.225000X0.250000X0*%
%ADD17RoundRect,0.225000X0.250000X-0.225000X0.250000X0.225000X-0.250000X0.225000X-0.250000X-0.225000X0*%
%ADD18R,1.800000X1.100000*%
%ADD19RoundRect,0.225000X-0.017678X0.335876X-0.335876X0.017678X0.017678X-0.335876X0.335876X-0.017678X0*%
%ADD20RoundRect,0.200000X0.275000X-0.200000X0.275000X0.200000X-0.275000X0.200000X-0.275000X-0.200000X0*%
%ADD21RoundRect,0.200000X-0.335876X-0.053033X-0.053033X-0.335876X0.335876X0.053033X0.053033X0.335876X0*%
%ADD22R,1.400000X1.100000*%
%ADD23RoundRect,0.225000X-0.335876X-0.017678X-0.017678X-0.335876X0.335876X0.017678X0.017678X0.335876X0*%
%ADD24RoundRect,0.225000X-0.250000X0.225000X-0.250000X-0.225000X0.250000X-0.225000X0.250000X0.225000X0*%
%ADD25RoundRect,0.225000X0.225000X0.250000X-0.225000X0.250000X-0.225000X-0.250000X0.225000X-0.250000X0*%
%ADD26RoundRect,0.200000X0.200000X0.275000X-0.200000X0.275000X-0.200000X-0.275000X0.200000X-0.275000X0*%
%ADD27RoundRect,0.050000X0.387500X0.050000X-0.387500X0.050000X-0.387500X-0.050000X0.387500X-0.050000X0*%
%ADD28RoundRect,0.050000X0.050000X0.387500X-0.050000X0.387500X-0.050000X-0.387500X0.050000X-0.387500X0*%
%ADD29R,3.200000X3.200000*%
%ADD30RoundRect,0.200000X-0.200000X-0.275000X0.200000X-0.275000X0.200000X0.275000X-0.200000X0.275000X0*%
%ADD31RoundRect,0.150000X0.650000X0.150000X-0.650000X0.150000X-0.650000X-0.150000X0.650000X-0.150000X0*%
%ADD32R,1.800000X1.200000*%
%ADD33R,1.550000X0.600000*%
%ADD34RoundRect,0.150000X0.512500X0.150000X-0.512500X0.150000X-0.512500X-0.150000X0.512500X-0.150000X0*%
G04 APERTURE END LIST*
D10*
%TO.C,MX16*%
X96257117Y-52924852D03*
D11*
X101337117Y-52924852D03*
D10*
X106417117Y-52924852D03*
D12*
X97527117Y-50384852D03*
X103877117Y-47844852D03*
%TD*%
D10*
%TO.C,MX32*%
X181982117Y-71974852D03*
D11*
X187062117Y-71974852D03*
D10*
X192142117Y-71974852D03*
D12*
X183252117Y-69434852D03*
X189602117Y-66894852D03*
%TD*%
D10*
%TO.C,MX12*%
X246275867Y-33874852D03*
D11*
X251355867Y-33874852D03*
D10*
X256435867Y-33874852D03*
D12*
X247545867Y-31334852D03*
X253895867Y-28794852D03*
%TD*%
D10*
%TO.C,MX6*%
X129594617Y-33874852D03*
D11*
X134674617Y-33874852D03*
D10*
X139754617Y-33874852D03*
D12*
X130864617Y-31334852D03*
X137214617Y-28794852D03*
%TD*%
D10*
%TO.C,MX27*%
X86732117Y-71974852D03*
D11*
X91812117Y-71974852D03*
D10*
X96892117Y-71974852D03*
D12*
X88002117Y-69434852D03*
X94352117Y-66894852D03*
%TD*%
D10*
%TO.C,MX35*%
X241513367Y-71974852D03*
D11*
X246593367Y-71974852D03*
D10*
X251673367Y-71974852D03*
D12*
X242783367Y-69434852D03*
X249133367Y-66894852D03*
%TD*%
D13*
%TO.C,REF\u002A\u002A*%
X106060943Y-83197407D03*
D14*
X106060943Y-98407407D03*
D13*
X129936943Y-83197407D03*
D14*
X129936943Y-98407407D03*
%TD*%
D10*
%TO.C,MX38*%
X112918943Y-91037357D03*
D11*
X117998943Y-91037357D03*
D10*
X123078943Y-91037357D03*
D12*
X114188943Y-88497357D03*
X120538943Y-85957357D03*
%TD*%
D10*
%TO.C,MX28*%
X105782117Y-71974852D03*
D11*
X110862117Y-71974852D03*
D10*
X115942117Y-71974852D03*
D12*
X107052117Y-69434852D03*
X113402117Y-66894852D03*
%TD*%
D10*
%TO.C,MX40*%
X170068943Y-91037357D03*
D11*
X175148943Y-91037357D03*
D10*
X180228943Y-91037357D03*
D12*
X171338943Y-88497357D03*
X177688943Y-85957357D03*
%TD*%
D10*
%TO.C,MX1*%
X34344617Y-33874852D03*
D11*
X39424617Y-33874852D03*
D10*
X44504617Y-33874852D03*
D12*
X35614617Y-31334852D03*
X41964617Y-28794852D03*
%TD*%
D10*
%TO.C,MX31*%
X162932117Y-71974852D03*
D11*
X168012117Y-71974852D03*
D10*
X173092117Y-71974852D03*
D12*
X164202117Y-69434852D03*
X170552117Y-66894852D03*
%TD*%
D10*
%TO.C,MX36*%
X62912693Y-91037357D03*
D11*
X67992693Y-91037357D03*
D10*
X73072693Y-91037357D03*
D12*
X64182693Y-88497357D03*
X70532693Y-85957357D03*
%TD*%
D10*
%TO.C,MX42*%
X220075193Y-91037357D03*
D11*
X225155193Y-91037357D03*
D10*
X230235193Y-91037357D03*
D12*
X221345193Y-88497357D03*
X227695193Y-85957357D03*
%TD*%
D10*
%TO.C,MX26*%
X67682117Y-71974852D03*
D11*
X72762117Y-71974852D03*
D10*
X77842117Y-71974852D03*
D12*
X68952117Y-69434852D03*
X75302117Y-66894852D03*
%TD*%
D10*
%TO.C,MX34*%
X220082117Y-71974852D03*
D11*
X225162117Y-71974852D03*
D10*
X230242117Y-71974852D03*
D12*
X221352117Y-69434852D03*
X227702117Y-66894852D03*
%TD*%
D10*
%TO.C,MX37*%
X84343943Y-91037357D03*
D11*
X89423943Y-91037357D03*
D10*
X94503943Y-91037357D03*
D12*
X85613943Y-88497357D03*
X91963943Y-85957357D03*
%TD*%
D10*
%TO.C,MX10*%
X205794617Y-33874852D03*
D11*
X210874617Y-33874852D03*
D10*
X215954617Y-33874852D03*
D12*
X207064617Y-31334852D03*
X213414617Y-28794852D03*
%TD*%
D10*
%TO.C,MX20*%
X172457117Y-52924852D03*
D11*
X177537117Y-52924852D03*
D10*
X182617117Y-52924852D03*
D12*
X173727117Y-50384852D03*
X180077117Y-47844852D03*
%TD*%
D10*
%TO.C,MX30*%
X143882117Y-71974852D03*
D11*
X148962117Y-71974852D03*
D10*
X154042117Y-71974852D03*
D12*
X145152117Y-69434852D03*
X151502117Y-66894852D03*
%TD*%
D10*
%TO.C,MX23*%
X229607117Y-52924852D03*
D11*
X234687117Y-52924852D03*
D10*
X239767117Y-52924852D03*
D12*
X230877117Y-50384852D03*
X237227117Y-47844852D03*
%TD*%
D10*
%TO.C,MX13*%
X36725867Y-52924852D03*
D11*
X41805867Y-52924852D03*
D10*
X46885867Y-52924852D03*
D12*
X37995867Y-50384852D03*
X44345867Y-47844852D03*
%TD*%
D10*
%TO.C,MX2*%
X53394617Y-33874852D03*
D11*
X58474617Y-33874852D03*
D10*
X63554617Y-33874852D03*
D12*
X54664617Y-31334852D03*
X61014617Y-28794852D03*
%TD*%
D10*
%TO.C,MX18*%
X134357117Y-52924852D03*
D11*
X139437117Y-52924852D03*
D10*
X144517117Y-52924852D03*
D12*
X135627117Y-50384852D03*
X141977117Y-47844852D03*
%TD*%
D10*
%TO.C,MX24*%
X248657117Y-52924852D03*
D11*
X253737117Y-52924852D03*
D10*
X258817117Y-52924852D03*
D12*
X249927117Y-50384852D03*
X256277117Y-47844852D03*
%TD*%
D10*
%TO.C,MX7*%
X148644617Y-33874852D03*
D11*
X153724617Y-33874852D03*
D10*
X158804617Y-33874852D03*
D12*
X149914617Y-31334852D03*
X156264617Y-28794852D03*
%TD*%
D10*
%TO.C,MX5*%
X110544617Y-33874852D03*
D11*
X115624617Y-33874852D03*
D10*
X120704617Y-33874852D03*
D12*
X111814617Y-31334852D03*
X118164617Y-28794852D03*
%TD*%
D10*
%TO.C,MX33*%
X201032117Y-71974852D03*
D11*
X206112117Y-71974852D03*
D10*
X211192117Y-71974852D03*
D12*
X202302117Y-69434852D03*
X208652117Y-66894852D03*
%TD*%
D10*
%TO.C,MX4*%
X91494617Y-33874852D03*
D11*
X96574617Y-33874852D03*
D10*
X101654617Y-33874852D03*
D12*
X92764617Y-31334852D03*
X99114617Y-28794852D03*
%TD*%
D10*
%TO.C,MX11*%
X224844617Y-33874852D03*
D11*
X229924617Y-33874852D03*
D10*
X235004617Y-33874852D03*
D12*
X226114617Y-31334852D03*
X232464617Y-28794852D03*
%TD*%
D10*
%TO.C,MX9*%
X186744617Y-33874852D03*
D11*
X191824617Y-33874852D03*
D10*
X196904617Y-33874852D03*
D12*
X188014617Y-31334852D03*
X194364617Y-28794852D03*
%TD*%
D10*
%TO.C,MX19*%
X153407117Y-52924852D03*
D11*
X158487117Y-52924852D03*
D10*
X163567117Y-52924852D03*
D12*
X154677117Y-50384852D03*
X161027117Y-47844852D03*
%TD*%
D10*
%TO.C,MX14*%
X58157117Y-52924852D03*
D11*
X63237117Y-52924852D03*
D10*
X68317117Y-52924852D03*
D12*
X59427117Y-50384852D03*
X65777117Y-47844852D03*
%TD*%
D10*
%TO.C,MX39*%
X141493943Y-91037357D03*
D11*
X146573943Y-91037357D03*
D10*
X151653943Y-91037357D03*
D12*
X142763943Y-88497357D03*
X149113943Y-85957357D03*
%TD*%
D10*
%TO.C,MX17*%
X115307117Y-52924852D03*
D11*
X120387117Y-52924852D03*
D10*
X125467117Y-52924852D03*
D12*
X116577117Y-50384852D03*
X122927117Y-47844852D03*
%TD*%
D13*
%TO.C,REF\u002A\u002A*%
X163210943Y-83197407D03*
D14*
X163210943Y-98407407D03*
D13*
X187086943Y-83197407D03*
D14*
X187086943Y-98407407D03*
%TD*%
D10*
%TO.C,MX22*%
X210557117Y-52924852D03*
D11*
X215637117Y-52924852D03*
D10*
X220717117Y-52924852D03*
D12*
X211827117Y-50384852D03*
X218177117Y-47844852D03*
%TD*%
D10*
%TO.C,MX41*%
X198643943Y-91037357D03*
D11*
X203723943Y-91037357D03*
D10*
X208803943Y-91037357D03*
D12*
X199913943Y-88497357D03*
X206263943Y-85957357D03*
%TD*%
D10*
%TO.C,MX21*%
X191507117Y-52924852D03*
D11*
X196587117Y-52924852D03*
D10*
X201667117Y-52924852D03*
D12*
X192777117Y-50384852D03*
X199127117Y-47844852D03*
%TD*%
D10*
%TO.C,MX8*%
X167694617Y-33874852D03*
D11*
X172774617Y-33874852D03*
D10*
X177854617Y-33874852D03*
D12*
X168964617Y-31334852D03*
X175314617Y-28794852D03*
%TD*%
D10*
%TO.C,MX29*%
X124832117Y-71974852D03*
D11*
X129912117Y-71974852D03*
D10*
X134992117Y-71974852D03*
D12*
X126102117Y-69434852D03*
X132452117Y-66894852D03*
%TD*%
D10*
%TO.C,MX3*%
X72444617Y-33874852D03*
D11*
X77524617Y-33874852D03*
D10*
X82604617Y-33874852D03*
D12*
X73714617Y-31334852D03*
X80064617Y-28794852D03*
%TD*%
D10*
%TO.C,MX15*%
X77207117Y-52924852D03*
D11*
X82287117Y-52924852D03*
D10*
X87367117Y-52924852D03*
D12*
X78477117Y-50384852D03*
X84827117Y-47844852D03*
%TD*%
D10*
%TO.C,MX25*%
X43869617Y-71974852D03*
D11*
X48949617Y-71974852D03*
D10*
X54029617Y-71974852D03*
D12*
X45139617Y-69434852D03*
X51489617Y-66894852D03*
%TD*%
D15*
%TO.C,D38*%
X126571443Y-94354232D03*
X126571443Y-91054232D03*
%TD*%
D16*
%TO.C,C18*%
X250652117Y-87056727D03*
X252202117Y-87056727D03*
%TD*%
D17*
%TO.C,C12*%
X259577117Y-101781727D03*
X259577117Y-100231727D03*
%TD*%
D15*
%TO.C,D15*%
X91018367Y-56162352D03*
X91018367Y-52862352D03*
%TD*%
%TO.C,D10*%
X219605867Y-37112352D03*
X219605867Y-33812352D03*
%TD*%
D18*
%TO.C,SW1*%
X50677117Y-83931727D03*
X44477117Y-83931727D03*
X50677117Y-87631727D03*
X44477117Y-87631727D03*
%TD*%
D15*
%TO.C,D30*%
X157693367Y-75609227D03*
X157693367Y-72309227D03*
%TD*%
%TO.C,D8*%
X181505867Y-37112352D03*
X181505867Y-33812352D03*
%TD*%
%TO.C,D37*%
X98155193Y-94274857D03*
X98155193Y-90974857D03*
%TD*%
%TO.C,D1*%
X48155867Y-37112352D03*
X48155867Y-33812352D03*
%TD*%
%TO.C,D33*%
X214843367Y-75609227D03*
X214843367Y-72309227D03*
%TD*%
D19*
%TO.C,C14*%
X257550771Y-88334365D03*
X256454755Y-89430381D03*
%TD*%
D15*
%TO.C,D22*%
X221327117Y-58706727D03*
X221327117Y-55406727D03*
%TD*%
%TO.C,D24*%
X262468367Y-56162352D03*
X262468367Y-52862352D03*
%TD*%
D20*
%TO.C,R5*%
X250577117Y-101581727D03*
X250577117Y-99931727D03*
%TD*%
D15*
%TO.C,D35*%
X255324617Y-75609227D03*
X255324617Y-72309227D03*
%TD*%
%TO.C,D7*%
X162455867Y-37112352D03*
X162455867Y-33812352D03*
%TD*%
%TO.C,D29*%
X138643367Y-75609227D03*
X138643367Y-72309227D03*
%TD*%
D21*
%TO.C,R3*%
X245893754Y-84723364D03*
X247060480Y-85890090D03*
%TD*%
D16*
%TO.C,C11*%
X244852117Y-95956727D03*
X246402117Y-95956727D03*
%TD*%
D15*
%TO.C,D31*%
X176743367Y-75609227D03*
X176743367Y-72309227D03*
%TD*%
%TO.C,D39*%
X155305193Y-94274857D03*
X155305193Y-90974857D03*
%TD*%
%TO.C,D11*%
X238655867Y-37112352D03*
X238655867Y-33812352D03*
%TD*%
D22*
%TO.C,Y1*%
X254104117Y-100106725D03*
X256304117Y-100106725D03*
X256304117Y-101706729D03*
X254104117Y-101706729D03*
%TD*%
D15*
%TO.C,D9*%
X200555867Y-37112352D03*
X200555867Y-33812352D03*
%TD*%
D23*
%TO.C,C9*%
X245779109Y-90408719D03*
X246875125Y-91504735D03*
%TD*%
D15*
%TO.C,D27*%
X100543367Y-75609227D03*
X100543367Y-72309227D03*
%TD*%
%TO.C,D34*%
X233893367Y-75609227D03*
X233893367Y-72309227D03*
%TD*%
%TO.C,D21*%
X205318367Y-56162352D03*
X205318367Y-52862352D03*
%TD*%
%TO.C,D20*%
X186268367Y-56162352D03*
X186268367Y-52862352D03*
%TD*%
D24*
%TO.C,C13*%
X258077117Y-100231727D03*
X258077117Y-101781727D03*
%TD*%
D17*
%TO.C,C3*%
X249077117Y-101531727D03*
X249077117Y-99981727D03*
%TD*%
D15*
%TO.C,D36*%
X76723943Y-94274857D03*
X76723943Y-90974857D03*
%TD*%
D25*
%TO.C,C4*%
X259302117Y-98381725D03*
X257752117Y-98381725D03*
%TD*%
D26*
%TO.C,R2*%
X261952117Y-82656727D03*
X260302117Y-82656727D03*
%TD*%
D15*
%TO.C,D4*%
X105305867Y-37112352D03*
X105305867Y-33812352D03*
%TD*%
D25*
%TO.C,C6*%
X259302117Y-96856727D03*
X257752117Y-96856727D03*
%TD*%
D18*
%TO.C,SW2*%
X50677117Y-91481727D03*
X44477117Y-91481727D03*
X50677117Y-95181727D03*
X44477117Y-95181727D03*
%TD*%
D17*
%TO.C,C17*%
X247527118Y-100781727D03*
X247527118Y-99231727D03*
%TD*%
D27*
%TO.C,U2*%
X255927117Y-92456727D03*
X255927117Y-92856728D03*
X255927117Y-93256727D03*
X255927117Y-93656727D03*
X255927117Y-94056727D03*
X255927117Y-94456726D03*
X255927117Y-94856727D03*
X255927117Y-95256727D03*
X255927117Y-95656728D03*
X255927117Y-96056727D03*
X255927117Y-96456727D03*
X255927117Y-96856727D03*
X255927117Y-97256726D03*
X255927117Y-97656727D03*
D28*
X255089617Y-98494227D03*
X254689616Y-98494227D03*
X254289617Y-98494227D03*
X253889617Y-98494227D03*
X253489617Y-98494227D03*
X253089618Y-98494227D03*
X252689617Y-98494227D03*
X252289617Y-98494227D03*
X251889616Y-98494227D03*
X251489617Y-98494227D03*
X251089617Y-98494227D03*
X250689617Y-98494227D03*
X250289618Y-98494227D03*
X249889617Y-98494227D03*
D27*
X249052117Y-97656727D03*
X249052117Y-97256726D03*
X249052117Y-96856727D03*
X249052117Y-96456727D03*
X249052117Y-96056727D03*
X249052117Y-95656728D03*
X249052117Y-95256727D03*
X249052117Y-94856727D03*
X249052117Y-94456726D03*
X249052117Y-94056727D03*
X249052117Y-93656727D03*
X249052117Y-93256727D03*
X249052117Y-92856728D03*
X249052117Y-92456727D03*
D28*
X249889617Y-91619227D03*
X250289618Y-91619227D03*
X250689617Y-91619227D03*
X251089617Y-91619227D03*
X251489617Y-91619227D03*
X251889616Y-91619227D03*
X252289617Y-91619227D03*
X252689617Y-91619227D03*
X253089618Y-91619227D03*
X253489617Y-91619227D03*
X253889617Y-91619227D03*
X254289617Y-91619227D03*
X254689616Y-91619227D03*
X255089617Y-91619227D03*
D29*
X252489617Y-95056727D03*
%TD*%
D21*
%TO.C,R4*%
X244843754Y-85773364D03*
X246010480Y-86940090D03*
%TD*%
D15*
%TO.C,D32*%
X195793367Y-75609227D03*
X195793367Y-72309227D03*
%TD*%
D30*
%TO.C,R1*%
X260302117Y-84631727D03*
X261952117Y-84631727D03*
%TD*%
D16*
%TO.C,C5*%
X243952117Y-94287362D03*
X245502117Y-94287362D03*
%TD*%
D15*
%TO.C,D14*%
X71968367Y-56162352D03*
X71968367Y-52862352D03*
%TD*%
D20*
%TO.C,R6*%
X252077117Y-101731727D03*
X252077117Y-100081727D03*
%TD*%
D23*
%TO.C,C8*%
X246779109Y-89258719D03*
X247875125Y-90354735D03*
%TD*%
D15*
%TO.C,D12*%
X260087117Y-37112352D03*
X260087117Y-33812352D03*
%TD*%
%TO.C,D41*%
X212455193Y-94274857D03*
X212455193Y-90974857D03*
%TD*%
%TO.C,D3*%
X86255867Y-37112352D03*
X86255867Y-33812352D03*
%TD*%
D19*
%TO.C,C2*%
X258629109Y-89412703D03*
X257533093Y-90508719D03*
%TD*%
D17*
%TO.C,C15*%
X245977117Y-100781727D03*
X245977117Y-99231727D03*
%TD*%
D15*
%TO.C,D17*%
X129118367Y-56162352D03*
X129118367Y-52862352D03*
%TD*%
D16*
%TO.C,C10*%
X243952117Y-92731727D03*
X245502117Y-92731727D03*
%TD*%
D15*
%TO.C,D25*%
X57680867Y-75609227D03*
X57680867Y-72309227D03*
%TD*%
%TO.C,D16*%
X110068367Y-56162352D03*
X110068367Y-52862352D03*
%TD*%
%TO.C,D42*%
X233632443Y-94274857D03*
X233632443Y-90974857D03*
%TD*%
%TO.C,D40*%
X183721443Y-94274857D03*
X183721443Y-90974857D03*
%TD*%
%TO.C,D2*%
X67205867Y-37112352D03*
X67205867Y-33812352D03*
%TD*%
D31*
%TO.C,U3*%
X258027117Y-81151727D03*
X258027117Y-82421727D03*
X258027117Y-83691727D03*
X258027117Y-84961727D03*
X250827117Y-84961727D03*
X250827117Y-83691727D03*
X250827117Y-82421727D03*
X250827117Y-81151727D03*
%TD*%
D15*
%TO.C,D13*%
X50537117Y-56162352D03*
X50537117Y-52862352D03*
%TD*%
D25*
%TO.C,C1*%
X261806250Y-72100000D03*
X260256250Y-72100000D03*
%TD*%
D19*
%TO.C,C7*%
X259725125Y-90508719D03*
X258629109Y-91604735D03*
%TD*%
D15*
%TO.C,D26*%
X81493367Y-75609227D03*
X81493367Y-72309227D03*
%TD*%
%TO.C,D5*%
X124355867Y-37112352D03*
X124355867Y-33812352D03*
%TD*%
D32*
%TO.C,J1*%
X199827117Y-45006727D03*
X199827117Y-39406727D03*
D33*
X203702117Y-43706727D03*
X203702116Y-42706727D03*
X203702116Y-41706727D03*
X203702117Y-40706727D03*
%TD*%
D15*
%TO.C,D18*%
X148168367Y-56162352D03*
X148168367Y-52862352D03*
%TD*%
%TO.C,D28*%
X119593367Y-75609227D03*
X119593367Y-72309227D03*
%TD*%
%TO.C,D23*%
X243418367Y-56162352D03*
X243418367Y-52862352D03*
%TD*%
%TO.C,D19*%
X167218367Y-56162352D03*
X167218367Y-52862352D03*
%TD*%
D24*
%TO.C,C16*%
X252077117Y-88531727D03*
X252077117Y-90081727D03*
%TD*%
D15*
%TO.C,D6*%
X143405867Y-37112352D03*
X143405867Y-33812352D03*
%TD*%
D34*
%TO.C,U1*%
X261843750Y-73725001D03*
X261843750Y-75624999D03*
X259568750Y-74675000D03*
%TD*%
M02*
